<?xml version="1.0" encoding="UTF-8" standalone="no"?><svg xmlns="http://www.w3.org/2000/svg" xmlns:xlink="http://www.w3.org/1999/xlink" contentStyleType="text/css" height="440px" preserveAspectRatio="none" style="width:1153px;height:440px;background:#FFFFFF;" version="1.1" viewBox="0 0 1153 440" width="1153px" zoomAndPan="magnify"><defs/><g><g id="elem_dosage"><rect fill="#F5F5F5" height="64.8281" style="stroke:#181818;stroke-width:0.5;" width="281.3333" x="865.5" y="188.5"/><rect fill="#D3D3D3" height="21.6094" style="stroke:#181818;stroke-width:0.5;" width="281.3333" x="865.5" y="188.5"/><text fill="#000000" font-family="sans-serif" font-size="14" lengthAdjust="spacing" textLength="47" x="982.6667" y="205.0332">dosage</text><line style="stroke:#181818;stroke-width:1.0;" x1="865.5" x2="1146.8333" y1="210.1094" y2="210.1094"/><text fill="#000000" font-family="sans-serif" font-size="14" lengthAdjust="spacing" textLength="96" x="885" y="226.6426">quantitePrevue</text><text fill="#000000" font-family="sans-serif" font-size="14" lengthAdjust="spacing" textLength="31" x="1005.5" y="226.6426">dose</text><line style="stroke:#181818;stroke-width:1.0;" x1="1000.5" x2="1000.5" y1="210.1094" y2="231.7188"/><line style="stroke:#181818;stroke-width:1.0;" x1="865.5" x2="1146.8333" y1="231.7188" y2="231.7188"/><text fill="#000000" font-family="sans-serif" font-size="14" lengthAdjust="spacing" textLength="125" x="870.5" y="248.252">quantiteAdministree</text><path d="M1006.5,238.4948 L1006.5,243.1615 L1011.1667,243.1615 L1011.1667,238.4948 L1006.5,238.4948 M1012.3333,240.8281 L1012.3333,244.3281 L1008.8333,244.3281 L1008.8333,245.4948 L1013.5,245.4948 L1013.5,240.8281 L1012.3333,240.8281 M1014.6667,243.1615 L1014.6667,246.6615 L1011.1667,246.6615 L1011.1667,247.8281 L1015.8333,247.8281 L1015.8333,243.1615 L1014.6667,243.1615 " fill="#000000" style="stroke:;stroke-width:0.0;stroke-dasharray:;"/><text fill="#000000" font-family="sans-serif" font-size="14" lengthAdjust="spacing" textLength="121" x="1020.8333" y="248.252">rate[x]:rateQuantity</text><line style="stroke:#181818;stroke-width:1.0;" x1="1000.5" x2="1000.5" y1="231.7188" y2="253.3281"/></g><g id="elem_OncoFAIRMedicationAdministrationElement"><rect fill="#20B2AA" height="47.2188" style="stroke:#181818;stroke-width:0.5;" width="319" x="109.5" y="7"/><text fill="#000000" font-family="sans-serif" font-size="14" font-weight="bold" lengthAdjust="spacing" textLength="305" x="116.5" y="23.5332">OncoFAIRMedicationAdministrationElement</text><line style="stroke:#181818;stroke-width:0.5;" x1="110.5" x2="427.5" y1="28.6094" y2="28.6094"/><text fill="#000000" font-family="sans-serif" font-size="14" lengthAdjust="spacing" textLength="140" x="115.5" y="47.1426">ElementAdministration</text></g><g id="elem_OncoFAIRMedication"><rect fill="#32CD32" height="47.2188" style="stroke:#181818;stroke-width:0.5;" width="161" x="188.5" y="386"/><text fill="#000000" font-family="sans-serif" font-size="14" font-weight="bold" lengthAdjust="spacing" textLength="147" x="195.5" y="402.5332">OncoFAIRMedication</text><line style="stroke:#181818;stroke-width:0.5;" x1="189.5" x2="348.5" y1="407.6094" y2="407.6094"/><text fill="#000000" font-family="sans-serif" font-size="14" lengthAdjust="spacing" textLength="72" x="194.5" y="426.1426">Composant</text></g><g id="elem_oncofairmaelementtraceability"><rect fill="#F5F5F5" height="64.8281" style="stroke:#181818;stroke-width:0.5;" width="232.3333" x="582" y="188.5"/><rect fill="#D3D3D3" height="21.6094" style="stroke:#181818;stroke-width:0.5;" width="232.3333" x="582" y="188.5"/><path d="M593.5,195.276 L593.5,198.776 L590,198.776 L590,201.1094 L593.5,201.1094 L593.5,204.6094 L595.8333,204.6094 L595.8333,201.1094 L599.3333,201.1094 L599.3333,198.776 L595.8333,198.776 L595.8333,195.276 L593.5,195.276 " fill="#000000" style="stroke:;stroke-width:0.0;stroke-dasharray:;"/><text fill="#000000" font-family="sans-serif" font-size="14" lengthAdjust="spacing" textLength="203" x="604.3333" y="205.0332">oncofair-ma-element-traceability</text><line style="stroke:#181818;stroke-width:1.0;" x1="582" x2="814.3333" y1="210.1094" y2="210.1094"/><text fill="#000000" font-family="sans-serif" font-size="14" lengthAdjust="spacing" textLength="15" x="595" y="226.6426">lot</text><text fill="#000000" font-family="sans-serif" font-size="14" lengthAdjust="spacing" textLength="84" x="628" y="226.6426">batchNumber</text><line style="stroke:#181818;stroke-width:1.0;" x1="623" x2="623" y1="210.1094" y2="231.7188"/><line style="stroke:#181818;stroke-width:1.0;" x1="582" x2="814.3333" y1="231.7188" y2="231.7188"/><text fill="#000000" font-family="sans-serif" font-size="14" lengthAdjust="spacing" textLength="31" x="587" y="248.252">serie</text><text fill="#000000" font-family="sans-serif" font-size="14" lengthAdjust="spacing" textLength="83" x="628" y="248.252">serialNumber</text><line style="stroke:#181818;stroke-width:1.0;" x1="623" x2="623" y1="231.7188" y2="253.3281"/></g><g id="elem_ComposantAdministre"><rect fill="#F5FFFA" height="172.875" style="stroke:#181818;stroke-width:0.5;" width="524.3333" x="7" y="136"/><rect fill="#20B2AA" height="21.6094" style="stroke:#181818;stroke-width:0.5;" width="524.3333" x="7" y="136"/><text fill="#000000" font-family="sans-serif" font-size="14" font-weight="bold" lengthAdjust="spacing" textLength="495" x="21.6667" y="152.5332">ComposantAdministre : OncoFAIRMedicationAdministrationComponent</text><line style="stroke:#181818;stroke-width:1.0;" x1="7" x2="531.3333" y1="157.6094" y2="157.6094"/><text fill="#000000" font-family="sans-serif" font-size="14" lengthAdjust="spacing" textLength="88" x="69.5" y="174.1426">commentaires</text><path d="M226,164.3854 L226,169.0521 L230.6667,169.0521 L230.6667,164.3854 L226,164.3854 M231.8333,166.7188 L231.8333,170.2188 L228.3333,170.2188 L228.3333,171.3854 L233,171.3854 L233,166.7188 L231.8333,166.7188 M234.1667,169.0521 L234.1667,172.5521 L230.6667,172.5521 L230.6667,173.7188 L235.3333,173.7188 L235.3333,169.0521 L234.1667,169.0521 " fill="#000000" style="stroke:;stroke-width:0.0;stroke-dasharray:;"/><text fill="#000000" font-family="sans-serif" font-size="14" lengthAdjust="spacing" textLength="96" x="240.3333" y="174.1426">note:comments</text><line style="stroke:#181818;stroke-width:1.0;" x1="220" x2="220" y1="157.6094" y2="179.2188"/><line style="stroke:#181818;stroke-width:1.0;" x1="7" x2="531.3333" y1="179.2188" y2="179.2188"/><text fill="#000000" font-family="sans-serif" font-size="14" lengthAdjust="spacing" textLength="108" x="59.5" y="195.752">libelleComposant</text><path d="M226,185.9948 L226,190.6615 L230.6667,190.6615 L230.6667,185.9948 L226,185.9948 M231.8333,188.3281 L231.8333,191.8281 L228.3333,191.8281 L228.3333,192.9948 L233,192.9948 L233,188.3281 L231.8333,188.3281 M234.1667,190.6615 L234.1667,194.1615 L230.6667,194.1615 L230.6667,195.3281 L235.3333,195.3281 L235.3333,190.6615 L234.1667,190.6615 " fill="#000000" style="stroke:;stroke-width:0.0;stroke-dasharray:;"/><text fill="#000000" font-family="sans-serif" font-size="14" lengthAdjust="spacing" textLength="81" x="240.3333" y="195.752">note:wording</text><line style="stroke:#181818;stroke-width:1.0;" x1="220" x2="220" y1="179.2188" y2="200.8281"/><line style="stroke:#181818;stroke-width:1.0;" x1="7" x2="531.3333" y1="200.8281" y2="200.8281"/><text fill="#000000" font-family="sans-serif" font-size="14" lengthAdjust="spacing" textLength="47" x="245.6667" y="217.3613">dosage</text><line style="stroke:#181818;stroke-width:1.0;" x1="7" x2="531.3333" y1="222.4375" y2="222.4375"/><text fill="#000000" font-family="sans-serif" font-size="14" lengthAdjust="spacing" textLength="203" x="167.6667" y="238.9707">oncofair-ma-element-traceability</text><line style="stroke:#181818;stroke-width:1.0;" x1="7" x2="531.3333" y1="244.0469" y2="244.0469"/><text fill="#000000" font-family="sans-serif" font-size="14" lengthAdjust="spacing" textLength="100" x="63.5" y="260.5801">datePeremption</text><path d="M229.5,250.8229 L229.5,254.3229 L226,254.3229 L226,256.6563 L229.5,256.6563 L229.5,260.1563 L231.8333,260.1563 L231.8333,256.6563 L235.3333,256.6563 L235.3333,254.3229 L231.8333,254.3229 L231.8333,250.8229 L229.5,250.8229 " fill="#000000" style="stroke:;stroke-width:0.0;stroke-dasharray:;"/><text fill="#000000" font-family="sans-serif" font-size="14" lengthAdjust="spacing" textLength="224" x="240.3333" y="260.5801">oncofair-ma-element-expirationdate</text><line style="stroke:#181818;stroke-width:1.0;" x1="220" x2="220" y1="244.0469" y2="265.6563"/><line style="stroke:#181818;stroke-width:1.0;" x1="7" x2="531.3333" y1="265.6563" y2="265.6563"/><text fill="#000000" font-family="sans-serif" font-size="14" lengthAdjust="spacing" textLength="75" x="76" y="282.1895">provenance</text><path d="M229.5,272.4323 L229.5,275.9323 L226,275.9323 L226,278.2656 L229.5,278.2656 L229.5,281.7656 L231.8333,281.7656 L231.8333,278.2656 L235.3333,278.2656 L235.3333,275.9323 L231.8333,275.9323 L231.8333,272.4323 L229.5,272.4323 " fill="#000000" style="stroke:;stroke-width:0.0;stroke-dasharray:;"/><text fill="#000000" font-family="sans-serif" font-size="14" lengthAdjust="spacing" textLength="190" x="240.3333" y="282.1895">oncofair-ma-component-origin</text><line style="stroke:#181818;stroke-width:1.0;" x1="220" x2="220" y1="265.6563" y2="287.2656"/><line style="stroke:#181818;stroke-width:1.0;" x1="7" x2="531.3333" y1="287.2656" y2="287.2656"/><text fill="#000000" font-family="sans-serif" font-size="14" lengthAdjust="spacing" textLength="35" x="96" y="303.7988">statut</text><path d="M229.5,294.0417 L229.5,297.5417 L226,297.5417 L226,299.875 L229.5,299.875 L229.5,303.375 L231.8333,303.375 L231.8333,299.875 L235.3333,299.875 L235.3333,297.5417 L231.8333,297.5417 L231.8333,294.0417 L229.5,294.0417 " fill="#000000" style="stroke:;stroke-width:0.0;stroke-dasharray:;"/><text fill="#000000" font-family="sans-serif" font-size="14" lengthAdjust="spacing" textLength="286" x="240.3333" y="303.7988">oncofair-ma-component-administration-status</text><line style="stroke:#181818;stroke-width:1.0;" x1="220" x2="220" y1="287.2656" y2="308.875"/></g><!--MD5=[299c0a022e9c9e5ac7f71240f3f93948]
link ComposantAdministre to dosage--><g id="link_ComposantAdministre_dosage"><path d="M532,209 C567.98,209 544.06,165.57 557,132 C563.83,114.27 558.55,103.32 574.5,93 C667.03,33.1 717.29,60.14 822.5,93 C877.41,110.15 930.34,150.12 965.13,180.68 " fill="none" id="ComposantAdministre-to-dosage" style="stroke:#181818;stroke-width:1.0;"/><polygon fill="#181818" points="969.28,184.35,965.1938,175.3888,965.5367,181.0353,959.8902,181.3782,969.28,184.35" style="stroke:#181818;stroke-width:1.0;"/></g><!--MD5=[c0387e0452cfc0cf8338aa5c7b822d6e]
link ComposantAdministre to oncofairmaelementtraceability--><g id="link_ComposantAdministre_oncofairmaelementtraceability"><path d="M532,231 C542.23,233.37 552.8,235.19 563.43,236.53 " fill="none" id="ComposantAdministre-to-oncofairmaelementtraceability" style="stroke:#181818;stroke-width:1.0;"/><polygon fill="#181818" points="573.62,237.67,565.1215,232.6925,568.6511,237.1131,564.2305,240.6428,573.62,237.67" style="stroke:#181818;stroke-width:1.0;"/></g><!--MD5=[11aa5a2299f2299be08dee4a69e1bc4e]
reverse link OncoFAIRMedicationAdministrationElement to ComposantAdministre--><g id="link_OncoFAIRMedicationAdministrationElement_ComposantAdministre"><path codeLine="30" d="M269,59.35 C269,78.65 269,105.48 269,131.64 " fill="none" id="OncoFAIRMedicationAdministrationElement-backto-ComposantAdministre" style="stroke:#181818;stroke-width:1.0;"/><polygon fill="#181818" points="269,54.12,265,63.12,269,59.12,273,63.12,269,54.12" style="stroke:#181818;stroke-width:1.0;"/><text fill="#000000" font-family="sans-serif" font-size="13" lengthAdjust="spacing" textLength="35" x="270" y="98.4951">partOf</text></g><!--MD5=[00931e2ab669be2a320b662bf8dce4e7]
link ComposantAdministre to OncoFAIRMedication--><g id="link_ComposantAdministre_OncoFAIRMedication"><path codeLine="31" d="M269,308.16 C269,334.39 269,361.3 269,380.65 " fill="none" id="ComposantAdministre-to-OncoFAIRMedication" style="stroke:#181818;stroke-width:1.0;"/><polygon fill="#181818" points="269,385.89,273,376.89,269,380.89,265,376.89,269,385.89" style="stroke:#181818;stroke-width:1.0;"/><text fill="#000000" font-family="sans-serif" font-size="13" lengthAdjust="spacing" textLength="63" x="270" y="352.4951">medication</text></g><!--MD5=[a522dfe208d6b6b1cf24bd9f99ffba77]
@startuml

map "dosage" as dosage #back:WhiteSmoke;header:LightGray {
    quantitePrevue => dose
    quantiteAdministree => <&layers> rate[x]:rateQuantity
}

object "**OncoFAIRMedicationAdministrationElement**" as OncoFAIRMedicationAdministrationElement #LightSeaGreen {
    ElementAdministration
}

object "**OncoFAIRMedication**" as OncoFAIRMedication #LimeGreen {
    Composant
}

map "<&plus> oncofair-ma-element-traceability" as oncofairmaelementtraceability #back:WhiteSmoke;header:LightGray {
    lot => batchNumber
    serie => serialNumber
}

map "**ComposantAdministre : OncoFAIRMedicationAdministrationComponent**" as ComposantAdministre #back:MintCream;header:LightSeaGreen {
    commentaires => <&layers> note:comments
    libelleComposant => <&layers> note:wording
    dosage *-> dosage
    oncofair-ma-element-traceability *-> oncofairmaelementtraceability
    datePeremption => <&plus> oncofair-ma-element-expirationdate
    provenance => <&plus> oncofair-ma-component-origin
    statut => <&plus> oncofair-ma-component-administration-status
}

ComposantAdministre -u-> OncoFAIRMedicationAdministrationElement : partOf
ComposantAdministre -d-> OncoFAIRMedication : medication

@enduml

PlantUML version 1.2022.7(Mon Aug 22 19:01:30 CEST 2022)
(GPL source distribution)
Java Runtime: Java(TM) SE Runtime Environment
JVM: Java HotSpot(TM) 64-Bit Server VM
Default Encoding: UTF-8
Language: fr
Country: FR
--></g></svg>