<?xml version="1.0" encoding="UTF-8" standalone="no"?><svg xmlns="http://www.w3.org/2000/svg" xmlns:xlink="http://www.w3.org/1999/xlink" contentStyleType="text/css" height="424.4373px" preserveAspectRatio="none" style="width:1000px;height:424px;background:#FFFFFF;" version="1.1" viewBox="0 0 1000 424" width="1000.4593px" zoomAndPan="magnify"><defs/><g><g id="elem_doseAndRate"><rect fill="#F5F5F5" height="39.7049" style="stroke:#181818;stroke-width:0.45934772622875525;" width="297.6573" x="696.8305" y="377.5838"/><rect fill="#D3D3D3" height="19.8524" style="stroke:#181818;stroke-width:0.45934772622875525;" width="297.6573" x="696.8305" y="377.5838"/><text fill="#000000" font-family="sans-serif" font-size="12.8617" lengthAdjust="spacing" textLength="79.0078" x="806.1553" y="392.7728">doseAndRate</text><line style="stroke:#181818;stroke-width:0.9186954524575105;" x1="696.8305" x2="994.4878" y1="397.4363" y2="397.4363"/><text fill="#000000" font-family="sans-serif" font-size="12.8617" lengthAdjust="spacing" textLength="157.0969" x="701.424" y="412.6252">quantiteComposantPrescrit</text><text fill="#000000" font-family="sans-serif" font-size="12.8617" lengthAdjust="spacing" textLength="122.1865" x="867.7079" y="412.6252">dose[x]:doseQuantity</text><line style="stroke:#181818;stroke-width:0.9186954524575105;" x1="863.1144" x2="863.1144" y1="397.4363" y2="417.2887"/></g><g id="elem_dosageInstruction"><rect fill="#F5F5F5" height="39.7049" style="stroke:#181818;stroke-width:0.45934772622875525;" width="115.7556" x="787.7814" y="192.4667"/><rect fill="#D3D3D3" height="19.8524" style="stroke:#181818;stroke-width:0.45934772622875525;" width="115.7556" x="787.7814" y="192.4667"/><text fill="#000000" font-family="sans-serif" font-size="12.8617" lengthAdjust="spacing" textLength="102.8939" x="794.2122" y="207.6557">dosageInstruction</text><line style="stroke:#181818;stroke-width:0.9186954524575105;" x1="787.7814" x2="903.537" y1="212.3191" y2="212.3191"/><text fill="#000000" font-family="sans-serif" font-size="12.8617" lengthAdjust="spacing" textLength="79.0078" x="806.1553" y="227.5081">doseAndRate</text></g><g id="elem_substitution"><rect fill="#F5F5F5" height="39.7049" style="stroke:#181818;stroke-width:0.45934772622875525;" width="276.8336" x="463.9412" y="192.4667"/><rect fill="#D3D3D3" height="19.8524" style="stroke:#181818;stroke-width:0.45934772622875525;" width="276.8336" x="463.9412" y="192.4667"/><text fill="#000000" font-family="sans-serif" font-size="12.8617" lengthAdjust="spacing" textLength="66.1461" x="569.2849" y="207.6557">substitution</text><line style="stroke:#181818;stroke-width:0.9186954524575105;" x1="463.9412" x2="740.7748" y1="212.3191" y2="212.3191"/><text fill="#000000" font-family="sans-serif" font-size="12.8617" lengthAdjust="spacing" textLength="93.7069" x="468.5347" y="227.5081">nonSubstituable</text><path d="M572.3473,218.5443 L572.3473,222.8315 L576.6345,222.8315 L576.6345,218.5443 L572.3473,218.5443 M577.7063,220.6879 L577.7063,223.9033 L574.4909,223.9033 L574.4909,224.9751 L578.7781,224.9751 L578.7781,220.6879 L577.7063,220.6879 M579.8499,222.8315 L579.8499,226.0469 L576.6345,226.0469 L576.6345,227.1187 L580.9218,227.1187 L580.9218,222.8315 L579.8499,222.8315 " fill="#000000" style="stroke:;stroke-width:0.0;stroke-dasharray:;"/><text fill="#000000" font-family="sans-serif" font-size="12.8617" lengthAdjust="spacing" textLength="150.6661" x="585.5152" y="227.5081">allowed[x]:allowedBoolean</text><line style="stroke:#181818;stroke-width:0.9186954524575105;" x1="566.8351" x2="566.8351" y1="212.3191" y2="232.1716"/></g><g id="elem_OncoFAIRMedicationRequestElement"><rect fill="#87CEFA" height="43.3797" style="stroke:#181818;stroke-width:0.45934772622875525;" width="254.4786" x="84.52" y="6.4309"/><text fill="#000000" font-family="sans-serif" font-size="12.8617" font-weight="bold" lengthAdjust="spacing" textLength="241.6169" x="90.9508" y="21.6198">OncoFAIRMedicationRequestElement</text><line style="stroke:#181818;stroke-width:0.45934772622875525;" x1="85.4387" x2="338.0799" y1="26.2833" y2="26.2833"/><text fill="#000000" font-family="sans-serif" font-size="12.8617" lengthAdjust="spacing" textLength="115.7556" x="90.0322" y="43.3097">ElementPrescription</text></g><g id="elem_OncoFAIRMedication"><rect fill="#32CD32" height="43.3797" style="stroke:#181818;stroke-width:0.45934772622875525;" width="147.91" x="137.8043" y="375.2871"/><text fill="#000000" font-family="sans-serif" font-size="12.8617" font-weight="bold" lengthAdjust="spacing" textLength="135.0482" x="144.2352" y="390.4761">OncoFAIRMedication</text><line style="stroke:#181818;stroke-width:0.45934772622875525;" x1="138.723" x2="284.7956" y1="395.1395" y2="395.1395"/><text fill="#000000" font-family="sans-serif" font-size="12.8617" lengthAdjust="spacing" textLength="66.1461" x="143.3165" y="412.1659">Composant</text></g><g id="elem_ComposantPrescrit"><rect fill="#F0F8FF" height="178.6719" style="stroke:#181818;stroke-width:0.45934772622875525;" width="410.6569" x="6.4309" y="124.9426"/><rect fill="#87CEFA" height="19.8524" style="stroke:#181818;stroke-width:0.45934772622875525;" width="410.6569" x="6.4309" y="124.9426"/><text fill="#000000" font-family="sans-serif" font-size="12.8617" font-weight="bold" lengthAdjust="spacing" textLength="397.7951" x="12.8617" y="140.1316">ComposantPrescrit : OncoFAIRMedicationRequestComponent</text><line style="stroke:#181818;stroke-width:0.9186954524575105;" x1="6.4309" x2="417.0877" y1="144.795" y2="144.795"/><text fill="#000000" font-family="sans-serif" font-size="12.8617" lengthAdjust="spacing" textLength="99.2191" x="12.8617" y="159.984">libelleComposant</text><path d="M124.0239,151.0201 L124.0239,155.3074 L128.3111,155.3074 L128.3111,151.0201 L124.0239,151.0201 M129.3829,153.1638 L129.3829,156.3792 L126.1675,156.3792 L126.1675,157.451 L130.4548,157.451 L130.4548,153.1638 L129.3829,153.1638 M131.5266,155.3074 L131.5266,158.5228 L128.3111,158.5228 L128.3111,159.5946 L132.5984,159.5946 L132.5984,155.3074 L131.5266,155.3074 " fill="#000000" style="stroke:;stroke-width:0.0;stroke-dasharray:;"/><text fill="#000000" font-family="sans-serif" font-size="12.8617" lengthAdjust="spacing" textLength="74.4143" x="137.1919" y="159.984">note:wording</text><line style="stroke:#181818;stroke-width:0.9186954524575105;" x1="118.5117" x2="118.5117" y1="144.795" y2="164.6475"/><line style="stroke:#181818;stroke-width:0.9186954524575105;" x1="6.4309" x2="417.0877" y1="164.6475" y2="164.6475"/><text fill="#000000" font-family="sans-serif" font-size="12.8617" lengthAdjust="spacing" textLength="80.8452" x="22.0487" y="179.8364">commentaires</text><path d="M124.0239,170.8726 L124.0239,175.1598 L128.3111,175.1598 L128.3111,170.8726 L124.0239,170.8726 M129.3829,173.0162 L129.3829,176.2316 L126.1675,176.2316 L126.1675,177.3034 L130.4548,177.3034 L130.4548,173.0162 L129.3829,173.0162 M131.5266,175.1598 L131.5266,178.3752 L128.3111,178.3752 L128.3111,179.4471 L132.5984,179.4471 L132.5984,175.1598 L131.5266,175.1598 " fill="#000000" style="stroke:;stroke-width:0.0;stroke-dasharray:;"/><text fill="#000000" font-family="sans-serif" font-size="12.8617" lengthAdjust="spacing" textLength="88.1948" x="137.1919" y="179.8364">note:comments</text><line style="stroke:#181818;stroke-width:0.9186954524575105;" x1="118.5117" x2="118.5117" y1="164.6475" y2="184.4999"/><line style="stroke:#181818;stroke-width:0.9186954524575105;" x1="6.4309" x2="417.0877" y1="184.4999" y2="184.4999"/><text fill="#000000" font-family="sans-serif" font-size="12.8617" lengthAdjust="spacing" textLength="55.1217" x="34.9104" y="199.6889">indication</text><path d="M124.0239,190.725 L124.0239,195.0122 L128.3111,195.0122 L128.3111,190.725 L124.0239,190.725 M129.3829,192.8686 L129.3829,196.0841 L126.1675,196.0841 L126.1675,197.1559 L130.4548,197.1559 L130.4548,192.8686 L129.3829,192.8686 M131.5266,195.0122 L131.5266,198.2277 L128.3111,198.2277 L128.3111,199.2995 L132.5984,199.2995 L132.5984,195.0122 L131.5266,195.0122 " fill="#000000" style="stroke:;stroke-width:0.0;stroke-dasharray:;"/><text fill="#000000" font-family="sans-serif" font-size="12.8617" lengthAdjust="spacing" textLength="84.52" x="137.1919" y="199.6889">note:indication</text><line style="stroke:#181818;stroke-width:0.9186954524575105;" x1="118.5117" x2="118.5117" y1="184.4999" y2="204.3523"/><line style="stroke:#181818;stroke-width:0.9186954524575105;" x1="6.4309" x2="417.0877" y1="204.3523" y2="204.3523"/><text fill="#000000" font-family="sans-serif" font-size="12.8617" lengthAdjust="spacing" textLength="102.8939" x="160.3124" y="219.5413">dosageInstruction</text><line style="stroke:#181818;stroke-width:0.9186954524575105;" x1="6.4309" x2="417.0877" y1="224.2048" y2="224.2048"/><text fill="#000000" font-family="sans-serif" font-size="12.8617" lengthAdjust="spacing" textLength="66.1461" x="178.6863" y="239.3937">substitution</text><line style="stroke:#181818;stroke-width:0.9186954524575105;" x1="6.4309" x2="417.0877" y1="244.0572" y2="244.0572"/><text fill="#000000" font-family="sans-serif" font-size="12.8617" lengthAdjust="spacing" textLength="90.9508" x="16.9959" y="259.2462">ALDExonerante</text><path d="M127.2393,250.2823 L127.2393,253.4977 L124.0239,253.4977 L124.0239,255.6414 L127.2393,255.6414 L127.2393,258.8568 L129.3829,258.8568 L129.3829,255.6414 L132.5984,255.6414 L132.5984,253.4977 L129.3829,253.4977 L129.3829,250.2823 L127.2393,250.2823 " fill="#000000" style="stroke:;stroke-width:0.0;stroke-dasharray:;"/><text fill="#000000" font-family="sans-serif" font-size="12.8617" lengthAdjust="spacing" textLength="129.5361" x="137.1919" y="259.2462">oncofair-mr-exempt-ltc</text><line style="stroke:#181818;stroke-width:0.9186954524575105;" x1="118.5117" x2="118.5117" y1="244.0572" y2="263.9096"/><line style="stroke:#181818;stroke-width:0.9186954524575105;" x1="6.4309" x2="417.0877" y1="263.9096" y2="263.9096"/><text fill="#000000" font-family="sans-serif" font-size="12.8617" lengthAdjust="spacing" textLength="67.0648" x="28.9389" y="279.0986">estVehicule</text><path d="M127.2393,270.1347 L127.2393,273.3502 L124.0239,273.3502 L124.0239,275.4938 L127.2393,275.4938 L127.2393,278.7092 L129.3829,278.7092 L129.3829,275.4938 L132.5984,275.4938 L132.5984,273.3502 L129.3829,273.3502 L129.3829,270.1347 L127.2393,270.1347 " fill="#000000" style="stroke:;stroke-width:0.0;stroke-dasharray:;"/><text fill="#000000" font-family="sans-serif" font-size="12.8617" lengthAdjust="spacing" textLength="174.5521" x="137.1919" y="279.0986">oncofair-mr-component-solute</text><line style="stroke:#181818;stroke-width:0.9186954524575105;" x1="118.5117" x2="118.5117" y1="263.9096" y2="283.7621"/><line style="stroke:#181818;stroke-width:0.9186954524575105;" x1="6.4309" x2="417.0877" y1="283.7621" y2="283.7621"/><text fill="#000000" font-family="sans-serif" font-size="12.8617" lengthAdjust="spacing" textLength="97.3817" x="13.7804" y="298.951">estReferentPoso</text><path d="M127.2393,289.9872 L127.2393,293.2026 L124.0239,293.2026 L124.0239,295.3462 L127.2393,295.3462 L127.2393,298.5617 L129.3829,298.5617 L129.3829,295.3462 L132.5984,295.3462 L132.5984,293.2026 L129.3829,293.2026 L129.3829,289.9872 L127.2393,289.9872 " fill="#000000" style="stroke:;stroke-width:0.0;stroke-dasharray:;"/><text fill="#000000" font-family="sans-serif" font-size="12.8617" lengthAdjust="spacing" textLength="178.2269" x="137.1919" y="298.951">oncofair-mr-is-dosage-referent</text><line style="stroke:#181818;stroke-width:0.9186954524575105;" x1="118.5117" x2="118.5117" y1="283.7621" y2="303.6145"/></g><!--MD5=[b944c7b7178a5797c384695157926ac0]
link dosageInstruction to doseAndRate--><g id="link_dosageInstruction_doseAndRate"><path d="M845.6592,231.9706 C845.6592,280.2756 845.6592,336.5733 845.6592,369.0583 " fill="none" id="dosageInstruction-to-doseAndRate" style="stroke:#181818;stroke-width:0.9186954524575105;"/><polygon fill="#181818" points="845.6592,373.6794,849.3339,365.4111,845.6592,369.0859,841.9844,365.4111,845.6592,373.6794" style="stroke:#181818;stroke-width:0.9186954524575105;"/></g><!--MD5=[95613d6d65c5d1bc4c6d12a43976fa9a]
link ComposantPrescrit to dosageInstruction--><g id="link_ComposantPrescrit_dosageInstruction"><path d="M418.4658,212.678 C460.2572,212.678 427.0005,160.8176 440.5145,121.2678 C446.1553,104.7497 441.9384,94.9196 456.5916,85.4387 C510.9233,50.271 689.7106,56.9499 747.8181,85.4387 C789.6004,105.9256 818.6311,153.7988 833.6886,184.3822 " fill="none" id="ComposantPrescrit-to-dosageInstruction" style="stroke:#181818;stroke-width:0.9186954524575105;"/><polygon fill="#181818" points="835.8107,188.7552,835.5151,179.7119,833.809,184.6208,828.9001,182.9147,835.8107,188.7552" style="stroke:#181818;stroke-width:0.9186954524575105;"/></g><!--MD5=[a0b2e76bbb1bf22a8dc5300178abf3c9]
link ComposantPrescrit to substitution--><g id="link_ComposantPrescrit_substitution"><path d="M418.4658,231.9706 C452.6137,238.4933 490.1424,238.7689 522.26,235.7281 " fill="none" id="ComposantPrescrit-to-substitution" style="stroke:#181818;stroke-width:0.9186954524575105;"/><polygon fill="#181818" points="531.6031,234.7359,522.9927,231.9559,527.0354,235.2215,523.7697,239.2642,531.6031,234.7359" style="stroke:#181818;stroke-width:0.9186954524575105;"/></g><!--MD5=[dcc3d0a4dd213ece0ba31019a25a4d3b]
reverse link OncoFAIRMedicationRequestElement to ComposantPrescrit--><g id="link_OncoFAIRMedicationRequestElement_ComposantPrescrit"><path codeLine="35" d="M211.7593,54.5705 C211.7593,72.136 211.7593,96.5733 211.7593,120.9095 " fill="none" id="OncoFAIRMedicationRequestElement-backto-ComposantPrescrit" style="stroke:#181818;stroke-width:0.9186954524575105;"/><polygon fill="#181818" points="211.7593,49.8025,208.0845,58.0707,211.7593,54.396,215.4341,58.0707,211.7593,49.8025" style="stroke:#181818;stroke-width:0.9186954524575105;"/><text fill="#000000" font-family="sans-serif" font-size="11.943" lengthAdjust="spacing" textLength="47.7722" x="212.678" y="90.487">basedOn</text></g><!--MD5=[3bbd594eef69db3cdb07393de907da4c]
link ComposantPrescrit to OncoFAIRMedication--><g id="link_ComposantPrescrit_OncoFAIRMedication"><path codeLine="36" d="M211.7593,302.4345 C211.7593,327.3128 211.7593,352.3656 211.7593,370.271 " fill="none" id="ComposantPrescrit-to-OncoFAIRMedication" style="stroke:#181818;stroke-width:0.9186954524575105;"/><polygon fill="#181818" points="211.7593,375.1309,215.4341,366.8627,211.7593,370.5374,208.0845,366.8627,211.7593,375.1309" style="stroke:#181818;stroke-width:0.9186954524575105;"/><text fill="#000000" font-family="sans-serif" font-size="11.943" lengthAdjust="spacing" textLength="57.8778" x="212.678" y="343.1283">medication</text></g><!--MD5=[3db41a77d7a4c3d6e9a4d8b8ae4123c6]
@startuml

scale 1000 width

map "doseAndRate" as doseAndRate #back:WhiteSmoke;header:LightGray {
    quantiteComposantPrescrit => dose[x]:doseQuantity
}

map "dosageInstruction" as dosageInstruction #back:WhiteSmoke;header:LightGray {
    doseAndRate *- -> doseAndRate
}

map "substitution" as substitution #back:WhiteSmoke;header:LightGray {
    nonSubstituable => <&layers> allowed[x]:allowedBoolean
}

object "**OncoFAIRMedicationRequestElement**" as OncoFAIRMedicationRequestElement #LightSkyBlue {
    ElementPrescription
}

object "**OncoFAIRMedication**" as OncoFAIRMedication #LimeGreen {
    Composant
}

map "**ComposantPrescrit : OncoFAIRMedicationRequestComponent**" as ComposantPrescrit #back:AliceBlue;header:LightSkyBlue {
    libelleComposant => <&layers> note:wording
    commentaires => <&layers> note:comments
    indication => <&layers> note:indication
    dosageInstruction *-> dosageInstruction
    substitution *-> substitution
    ALDExonerante => <&plus> oncofair-mr-exempt-ltc
    estVehicule => <&plus> oncofair-mr-component-solute
    estReferentPoso => <&plus> oncofair-mr-is-dosage-referent
}

ComposantPrescrit -u-> OncoFAIRMedicationRequestElement : basedOn
ComposantPrescrit -d-> OncoFAIRMedication : medication

@enduml

PlantUML version 1.2022.7(Mon Aug 22 19:01:30 CEST 2022)
(GPL source distribution)
Java Runtime: Java(TM) SE Runtime Environment
JVM: Java HotSpot(TM) 64-Bit Server VM
Default Encoding: UTF-8
Language: fr
Country: FR
--></g></svg>