<?xml version="1.0" encoding="UTF-8" standalone="no"?><svg xmlns="http://www.w3.org/2000/svg" xmlns:xlink="http://www.w3.org/1999/xlink" contentStyleType="text/css" height="294.3925px" preserveAspectRatio="none" style="width:1000px;height:294px;background:#FFFFFF;" version="1.1" viewBox="0 0 1000 294" width="1000.9346px" zoomAndPan="magnify"><defs/><g><g id="elem_OncoFAIRCarePlan"><rect fill="#FFD700" height="44.1297" style="stroke:#181818;stroke-width:0.4672897196261682;" width="136.4486" x="103.271" y="6.5421"/><text fill="#000000" font-family="sans-serif" font-size="13.0841" font-weight="bold" lengthAdjust="spacing" textLength="123.3645" x="109.8131" y="21.9936">OncoFAIRCarePlan</text><line style="stroke:#181818;stroke-width:0.4672897196261682;" x1="104.2056" x2="238.785" y1="26.7377" y2="26.7377"/><text fill="#000000" font-family="sans-serif" font-size="13.0841" lengthAdjust="spacing" textLength="100.9346" x="108.8785" y="44.0585">ProtocolePrescrit</text></g><g id="elem_oncofaircptreatment"><rect fill="#F5F5F5" height="80.7827" style="stroke:#181818;stroke-width:0.4672897196261682;" width="258.8785" x="735.514" y="166.3551"/><rect fill="#D3D3D3" height="20.1957" style="stroke:#181818;stroke-width:0.4672897196261682;" width="258.8785" x="735.514" y="166.3551"/><path d="M798.4424,172.6879 L798.4424,175.9589 L795.1713,175.9589 L795.1713,178.1396 L798.4424,178.1396 L798.4424,181.4106 L800.6231,181.4106 L800.6231,178.1396 L803.8941,178.1396 L803.8941,175.9589 L800.6231,175.9589 L800.6231,172.6879 L798.4424,172.6879 " fill="#000000" style="stroke:;stroke-width:0.0;stroke-dasharray:;"/><text fill="#000000" font-family="sans-serif" font-size="13.0841" lengthAdjust="spacing" textLength="127.1028" x="808.567" y="181.8067">oncofair-cp-treatment</text><line style="stroke:#181818;stroke-width:0.9345794392523364;" x1="735.514" x2="994.3925" y1="186.5508" y2="186.5508"/><text fill="#000000" font-family="sans-serif" font-size="13.0841" lengthAdjust="spacing" textLength="73.8318" x="764.9533" y="202.0024">numeroCure</text><text fill="#000000" font-family="sans-serif" font-size="13.0841" lengthAdjust="spacing" textLength="86.9159" x="872.8972" y="202.0024">treatmentRank</text><line style="stroke:#181818;stroke-width:0.9345794392523364;" x1="868.2243" x2="868.2243" y1="186.5508" y2="206.7465"/><line style="stroke:#181818;stroke-width:0.9345794392523364;" x1="735.514" x2="994.3925" y1="206.7465" y2="206.7465"/><text fill="#000000" font-family="sans-serif" font-size="13.0841" lengthAdjust="spacing" textLength="70.0935" x="766.8224" y="222.1981">numeroJour</text><text fill="#000000" font-family="sans-serif" font-size="13.0841" lengthAdjust="spacing" textLength="52.3364" x="872.8972" y="222.1981">dayRank</text><line style="stroke:#181818;stroke-width:0.9345794392523364;" x1="868.2243" x2="868.2243" y1="206.7465" y2="226.9422"/><line style="stroke:#181818;stroke-width:0.9345794392523364;" x1="735.514" x2="994.3925" y1="226.9422" y2="226.9422"/><text fill="#000000" font-family="sans-serif" font-size="13.0841" lengthAdjust="spacing" textLength="123.3645" x="740.1869" y="242.3938">dateHeureReference</text><text fill="#000000" font-family="sans-serif" font-size="13.0841" lengthAdjust="spacing" textLength="116.8224" x="872.8972" y="242.3938">dateTimeReference</text><line style="stroke:#181818;stroke-width:0.9345794392523364;" x1="868.2243" x2="868.2243" y1="226.9422" y2="247.1379"/></g><g id="elem_oncofairpharmacistadvice"><rect fill="#F5F5F5" height="60.587" style="stroke:#181818;stroke-width:0.4672897196261682;" width="302.8037" x="384.5794" y="176.1682"/><rect fill="#D3D3D3" height="20.1957" style="stroke:#181818;stroke-width:0.4672897196261682;" width="302.8037" x="384.5794" y="176.1682"/><path d="M453.1153,182.501 L453.1153,185.772 L449.8442,185.772 L449.8442,187.9527 L453.1153,187.9527 L453.1153,191.2237 L455.296,191.2237 L455.296,187.9527 L458.567,187.9527 L458.567,185.772 L455.296,185.772 L455.296,182.501 L453.1153,182.501 " fill="#000000" style="stroke:;stroke-width:0.0;stroke-dasharray:;"/><text fill="#000000" font-family="sans-serif" font-size="13.0841" lengthAdjust="spacing" textLength="159.8131" x="463.2399" y="191.6198">oncofair-pharmacist-advice</text><line style="stroke:#181818;stroke-width:0.9345794392523364;" x1="384.5794" x2="687.3832" y1="196.3639" y2="196.3639"/><text fill="#000000" font-family="sans-serif" font-size="13.0841" lengthAdjust="spacing" textLength="152.3364" x="393.9252" y="211.8155">validationPharmaceutique</text><text fill="#000000" font-family="sans-serif" font-size="13.0841" lengthAdjust="spacing" textLength="122.4299" x="560.2804" y="211.8155">pharmacistValidation</text><line style="stroke:#181818;stroke-width:0.9345794392523364;" x1="555.6075" x2="555.6075" y1="196.3639" y2="216.5596"/><line style="stroke:#181818;stroke-width:0.9345794392523364;" x1="384.5794" x2="687.3832" y1="216.5596" y2="216.5596"/><text fill="#000000" font-family="sans-serif" font-size="13.0841" lengthAdjust="spacing" textLength="161.6822" x="389.2523" y="232.0112">propositionPharmaceutique</text><text fill="#000000" font-family="sans-serif" font-size="13.0841" lengthAdjust="spacing" textLength="116.8224" x="560.2804" y="232.0112">pharmacistProposal</text><line style="stroke:#181818;stroke-width:0.9345794392523364;" x1="555.6075" x2="555.6075" y1="216.5596" y2="236.7553"/></g><g id="elem_ProtocolePrescrit"><rect fill="#FAFAD2" height="161.5654" style="stroke:#181818;stroke-width:0.4672897196261682;" width="330.2181" x="6.5421" y="127.1028"/><rect fill="#FFD700" height="20.1957" style="stroke:#181818;stroke-width:0.4672897196261682;" width="330.2181" x="6.5421" y="127.1028"/><text fill="#000000" font-family="sans-serif" font-size="13.0841" font-weight="bold" lengthAdjust="spacing" textLength="249.5327" x="46.8847" y="142.5544">ProtocolePrescrit : OncoFAIRCarePlan</text><line style="stroke:#181818;stroke-width:0.9345794392523364;" x1="6.5421" x2="336.7601" y1="147.2985" y2="147.2985"/><text fill="#000000" font-family="sans-serif" font-size="13.0841" lengthAdjust="spacing" textLength="111.215" x="59.3458" y="162.7501">idProtocolePrescrit</text><text fill="#000000" font-family="sans-serif" font-size="13.0841" lengthAdjust="spacing" textLength="50.4673" x="228.0374" y="162.7501">identifier</text><line style="stroke:#181818;stroke-width:0.9345794392523364;" x1="223.3645" x2="223.3645" y1="147.2985" y2="167.4942"/><line style="stroke:#181818;stroke-width:0.9345794392523364;" x1="6.5421" x2="336.7601" y1="167.4942" y2="167.4942"/><text fill="#000000" font-family="sans-serif" font-size="13.0841" lengthAdjust="spacing" textLength="207.4766" x="11.215" y="182.9458">CreationArretModificationValidation</text><text fill="#000000" font-family="sans-serif" font-size="13.0841" lengthAdjust="spacing" textLength="35.514" x="228.0374" y="182.9458">status</text><line style="stroke:#181818;stroke-width:0.9345794392523364;" x1="223.3645" x2="223.3645" y1="167.4942" y2="187.6898"/><line style="stroke:#181818;stroke-width:0.9345794392523364;" x1="6.5421" x2="336.7601" y1="187.6898" y2="187.6898"/><text fill="#000000" font-family="sans-serif" font-size="13.0841" lengthAdjust="spacing" textLength="134.5794" x="47.6636" y="203.1414">libelleProtocolePrescrit</text><text fill="#000000" font-family="sans-serif" font-size="13.0841" lengthAdjust="spacing" textLength="20.5607" x="228.0374" y="203.1414">title</text><line style="stroke:#181818;stroke-width:0.9345794392523364;" x1="223.3645" x2="223.3645" y1="187.6898" y2="207.8855"/><line style="stroke:#181818;stroke-width:0.9345794392523364;" x1="6.5421" x2="336.7601" y1="207.8855" y2="207.8855"/><text fill="#000000" font-family="sans-serif" font-size="13.0841" lengthAdjust="spacing" textLength="56.0748" x="86.9159" y="223.3371">indication</text><path d="M228.972,214.2183 L228.972,218.5796 L233.3333,218.5796 L233.3333,214.2183 L228.972,214.2183 M234.4237,216.3989 L234.4237,219.67 L231.1526,219.67 L231.1526,220.7603 L235.514,220.7603 L235.514,216.3989 L234.4237,216.3989 M236.6044,218.5796 L236.6044,221.8507 L233.3333,221.8507 L233.3333,222.941 L237.6947,222.941 L237.6947,218.5796 L236.6044,218.5796 " fill="#000000" style="stroke:;stroke-width:0.0;stroke-dasharray:;"/><text fill="#000000" font-family="sans-serif" font-size="13.0841" lengthAdjust="spacing" textLength="85.9813" x="242.3676" y="223.3371">note:indication</text><line style="stroke:#181818;stroke-width:0.9345794392523364;" x1="223.3645" x2="223.3645" y1="207.8855" y2="228.0812"/><line style="stroke:#181818;stroke-width:0.9345794392523364;" x1="6.5421" x2="336.7601" y1="228.0812" y2="228.0812"/><text fill="#000000" font-family="sans-serif" font-size="13.0841" lengthAdjust="spacing" textLength="82.243" x="73.8318" y="243.5328">commentaires</text><path d="M228.972,234.4139 L228.972,238.7753 L233.3333,238.7753 L233.3333,234.4139 L228.972,234.4139 M234.4237,236.5946 L234.4237,239.8657 L231.1526,239.8657 L231.1526,240.956 L235.514,240.956 L235.514,236.5946 L234.4237,236.5946 M236.6044,238.7753 L236.6044,242.0463 L233.3333,242.0463 L233.3333,243.1367 L237.6947,243.1367 L237.6947,238.7753 L236.6044,238.7753 " fill="#000000" style="stroke:;stroke-width:0.0;stroke-dasharray:;"/><text fill="#000000" font-family="sans-serif" font-size="13.0841" lengthAdjust="spacing" textLength="89.7196" x="242.3676" y="243.5328">note:comments</text><line style="stroke:#181818;stroke-width:0.9345794392523364;" x1="223.3645" x2="223.3645" y1="228.0812" y2="248.2769"/><line style="stroke:#181818;stroke-width:0.9345794392523364;" x1="6.5421" x2="336.7601" y1="248.2769" y2="248.2769"/><text fill="#000000" font-family="sans-serif" font-size="13.0841" lengthAdjust="spacing" textLength="127.1028" x="108.0997" y="263.7285">oncofair-cp-treatment</text><line style="stroke:#181818;stroke-width:0.9345794392523364;" x1="6.5421" x2="336.7601" y1="268.4725" y2="268.4725"/><text fill="#000000" font-family="sans-serif" font-size="13.0841" lengthAdjust="spacing" textLength="159.8131" x="91.7445" y="283.9241">oncofair-pharmacist-advice</text></g><!--MD5=[921487c38810f9c947ee3980fff068bb]
link ProtocolePrescrit to oncofaircptreatment--><g id="link_ProtocolePrescrit_oncofaircptreatment"><path d="M337.8505,255.1402 C367.5888,255.1402 352.4673,151.785 361.215,123.3645 C366.4393,106.3925 362.6636,96.5607 377.5701,86.9159 C436.8505,48.5421 627.9813,65.6916 695.3271,86.9159 C740.6262,101.1869 784.3458,132.3458 816.0561,159.1589 " fill="none" id="ProtocolePrescrit-to-oncofaircptreatment" style="stroke:#181818;stroke-width:0.9345794392523364;"/><polygon fill="#181818" points="819.8598,162.4019,815.9064,154.0896,816.3119,159.3608,811.0407,159.7663,819.8598,162.4019" style="stroke:#181818;stroke-width:0.9345794392523364;"/></g><!--MD5=[8f876dad3d5b5d04f1da8dcd097f8ac0]
link ProtocolePrescrit to oncofairpharmacistadvice--><g id="link_ProtocolePrescrit_oncofairpharmacistadvice"><path d="M337.8505,274.7664 C391.757,283.9907 449.5234,264.5514 488.5047,243.5234 " fill="none" id="ProtocolePrescrit-to-oncofairpharmacistadvice" style="stroke:#181818;stroke-width:0.9345794392523364;"/><polygon fill="#181818" points="496.7757,238.8785,487.6107,239.7311,492.6997,241.1637,491.2671,246.2527,496.7757,238.8785" style="stroke:#181818;stroke-width:0.9345794392523364;"/></g><!--MD5=[3ae648e1403a8b315a80ca00f0004af0]
reverse link OncoFAIRCarePlan to ProtocolePrescrit--><g id="link_OncoFAIRCarePlan_ProtocolePrescrit"><path codeLine="29" d="M171.4953,55.4673 C171.4953,73.5047 171.4953,98.5794 171.4953,123.028 " fill="none" id="OncoFAIRCarePlan-backto-ProtocolePrescrit" style="stroke:#181818;stroke-width:0.9345794392523364;"/><polygon fill="#181818" points="171.4953,50.5794,167.757,58.9907,171.4953,55.2523,175.2336,58.9907,171.4953,50.5794" style="stroke:#181818;stroke-width:0.9345794392523364;"/><text fill="#000000" font-family="sans-serif" font-size="12.1495" lengthAdjust="spacing" textLength="48.5981" x="172.4299" y="92.0515">basedOn</text></g><!--MD5=[ff378c2af71a70342592a53da12ca824]
@startuml

scale 1000 width

object "**OncoFAIRCarePlan**" as OncoFAIRCarePlan #Gold {
    ProtocolePrescrit
}

map "<&plus> oncofair-cp-treatment" as oncofaircptreatment #back:WhiteSmoke;header:LightGray {
    numeroCure => treatmentRank
    numeroJour => dayRank
    dateHeureReference => dateTimeReference
}

map "<&plus> oncofair-pharmacist-advice" as oncofairpharmacistadvice #back:WhiteSmoke;header:LightGray {
    validationPharmaceutique => pharmacistValidation
    propositionPharmaceutique => pharmacistProposal
}

map "**ProtocolePrescrit : OncoFAIRCarePlan**" as ProtocolePrescrit #back:LightGoldenRodYellow;header:Gold {
    idProtocolePrescrit => identifier
    CreationArretModificationValidation => status
    libelleProtocolePrescrit => title
    indication => <&layers> note:indication
    commentaires => <&layers> note:comments
    oncofair-cp-treatment *-> oncofaircptreatment
    oncofair-pharmacist-advice *-> oncofairpharmacistadvice
}

ProtocolePrescrit -u-> OncoFAIRCarePlan : basedOn

@enduml

PlantUML version 1.2022.7(Mon Aug 22 19:01:30 CEST 2022)
(GPL source distribution)
Java Runtime: Java(TM) SE Runtime Environment
JVM: Java HotSpot(TM) 64-Bit Server VM
Default Encoding: UTF-8
Language: fr
Country: FR
--></g></svg>