<?xml version="1.0" encoding="UTF-8" standalone="no"?><svg xmlns="http://www.w3.org/2000/svg" xmlns:xlink="http://www.w3.org/1999/xlink" contentStyleType="text/css" height="467px" preserveAspectRatio="none" style="width:1707px;height:467px;background:#FFFFFF;" version="1.1" viewBox="0 0 1707 467" width="1707px" zoomAndPan="magnify"><defs/><g><g id="elem_occurencexoccurencePeriod"><rect fill="#F5F5F5" height="64.8281" style="stroke:#181818;stroke-width:0.5;" width="220.3333" x="1480.5" y="262"/><rect fill="#D3D3D3" height="21.6094" style="stroke:#181818;stroke-width:0.5;" width="220.3333" x="1480.5" y="262"/><path d="M1488.5,268.776 L1488.5,273.4427 L1493.1667,273.4427 L1493.1667,268.776 L1488.5,268.776 M1494.3333,271.1094 L1494.3333,274.6094 L1490.8333,274.6094 L1490.8333,275.776 L1495.5,275.776 L1495.5,271.1094 L1494.3333,271.1094 M1496.6667,273.4427 L1496.6667,276.9427 L1493.1667,276.9427 L1493.1667,278.1094 L1497.8333,278.1094 L1497.8333,273.4427 L1496.6667,273.4427 " fill="#000000" style="stroke:;stroke-width:0.0;stroke-dasharray:;"/><text fill="#000000" font-family="sans-serif" font-size="14" lengthAdjust="spacing" textLength="191" x="1502.8333" y="278.5332">occurence[x]:occurencePeriod</text><line style="stroke:#181818;stroke-width:1.0;" x1="1480.5" x2="1700.8333" y1="283.6094" y2="283.6094"/><text fill="#000000" font-family="sans-serif" font-size="14" lengthAdjust="spacing" textLength="158" x="1485.5" y="300.1426">dateHeureDebutEffective</text><text fill="#000000" font-family="sans-serif" font-size="14" lengthAdjust="spacing" textLength="28" x="1653.5" y="300.1426">start</text><line style="stroke:#181818;stroke-width:1.0;" x1="1648.5" x2="1648.5" y1="283.6094" y2="305.2188"/><line style="stroke:#181818;stroke-width:1.0;" x1="1480.5" x2="1700.8333" y1="305.2188" y2="305.2188"/><text fill="#000000" font-family="sans-serif" font-size="14" lengthAdjust="spacing" textLength="140" x="1494.5" y="321.752">dateHeureFinEffective</text><text fill="#000000" font-family="sans-serif" font-size="14" lengthAdjust="spacing" textLength="24" x="1653.5" y="321.752">end</text><line style="stroke:#181818;stroke-width:1.0;" x1="1648.5" x2="1648.5" y1="305.2188" y2="326.8281"/></g><g id="elem_dosage"><rect fill="#F5F5F5" height="86.4375" style="stroke:#181818;stroke-width:0.5;" width="234" x="1195.5" y="251.5"/><rect fill="#D3D3D3" height="21.6094" style="stroke:#181818;stroke-width:0.5;" width="234" x="1195.5" y="251.5"/><text fill="#000000" font-family="sans-serif" font-size="14" lengthAdjust="spacing" textLength="47" x="1289" y="268.0332">dosage</text><line style="stroke:#181818;stroke-width:1.0;" x1="1195.5" x2="1429.5" y1="273.1094" y2="273.1094"/><text fill="#000000" font-family="sans-serif" font-size="14" lengthAdjust="spacing" textLength="111" x="1228.5" y="289.6426">lieuAdministration</text><text fill="#000000" font-family="sans-serif" font-size="14" lengthAdjust="spacing" textLength="22" x="1377.5" y="289.6426">site</text><line style="stroke:#181818;stroke-width:1.0;" x1="1372.5" x2="1372.5" y1="273.1094" y2="294.7188"/><line style="stroke:#181818;stroke-width:1.0;" x1="1195.5" x2="1429.5" y1="294.7188" y2="294.7188"/><text fill="#000000" font-family="sans-serif" font-size="14" lengthAdjust="spacing" textLength="115" x="1226.5" y="311.252">voieAdministration</text><text fill="#000000" font-family="sans-serif" font-size="14" lengthAdjust="spacing" textLength="33" x="1377.5" y="311.252">route</text><line style="stroke:#181818;stroke-width:1.0;" x1="1372.5" x2="1372.5" y1="294.7188" y2="316.3281"/><line style="stroke:#181818;stroke-width:1.0;" x1="1195.5" x2="1429.5" y1="316.3281" y2="316.3281"/><text fill="#000000" font-family="sans-serif" font-size="14" lengthAdjust="spacing" textLength="167" x="1200.5" y="332.8613">typeElementAdministration</text><text fill="#000000" font-family="sans-serif" font-size="14" lengthAdjust="spacing" textLength="47" x="1377.5" y="332.8613">method</text><line style="stroke:#181818;stroke-width:1.0;" x1="1372.5" x2="1372.5" y1="316.3281" y2="337.9375"/></g><g id="elem_OncoFAIRMedicationAdministrationReport"><rect fill="#20B2AA" height="47.2188" style="stroke:#181818;stroke-width:0.5;" width="310" x="96.5" y="7"/><text fill="#000000" font-family="sans-serif" font-size="14" font-weight="bold" lengthAdjust="spacing" textLength="296" x="103.5" y="23.5332">OncoFAIRMedicationAdministrationReport</text><line style="stroke:#181818;stroke-width:0.5;" x1="97.5" x2="405.5" y1="28.6094" y2="28.6094"/><text fill="#000000" font-family="sans-serif" font-size="14" lengthAdjust="spacing" textLength="180" x="102.5" y="47.1426">CompteRenduAdministration</text></g><g id="elem_oncofairmaelementtraceability"><rect fill="#F5F5F5" height="64.8281" style="stroke:#181818;stroke-width:0.5;" width="232.3333" x="912.5" y="262"/><rect fill="#D3D3D3" height="21.6094" style="stroke:#181818;stroke-width:0.5;" width="232.3333" x="912.5" y="262"/><path d="M924,268.776 L924,272.276 L920.5,272.276 L920.5,274.6094 L924,274.6094 L924,278.1094 L926.3333,278.1094 L926.3333,274.6094 L929.8333,274.6094 L929.8333,272.276 L926.3333,272.276 L926.3333,268.776 L924,268.776 " fill="#000000" style="stroke:;stroke-width:0.0;stroke-dasharray:;"/><text fill="#000000" font-family="sans-serif" font-size="14" lengthAdjust="spacing" textLength="203" x="934.8333" y="278.5332">oncofair-ma-element-traceability</text><line style="stroke:#181818;stroke-width:1.0;" x1="912.5" x2="1144.8333" y1="283.6094" y2="283.6094"/><text fill="#000000" font-family="sans-serif" font-size="14" lengthAdjust="spacing" textLength="15" x="925.5" y="300.1426">lot</text><text fill="#000000" font-family="sans-serif" font-size="14" lengthAdjust="spacing" textLength="84" x="958.5" y="300.1426">batchNumber</text><line style="stroke:#181818;stroke-width:1.0;" x1="953.5" x2="953.5" y1="283.6094" y2="305.2188"/><line style="stroke:#181818;stroke-width:1.0;" x1="912.5" x2="1144.8333" y1="305.2188" y2="305.2188"/><text fill="#000000" font-family="sans-serif" font-size="14" lengthAdjust="spacing" textLength="31" x="917.5" y="321.752">serie</text><text fill="#000000" font-family="sans-serif" font-size="14" lengthAdjust="spacing" textLength="83" x="958.5" y="321.752">serialNumber</text><line style="stroke:#181818;stroke-width:1.0;" x1="953.5" x2="953.5" y1="305.2188" y2="326.8281"/></g><g id="elem_oncofairmaelementplannedperiod"><rect fill="#F5F5F5" height="64.8281" style="stroke:#181818;stroke-width:0.5;" width="314" x="547.5" y="262"/><rect fill="#D3D3D3" height="21.6094" style="stroke:#181818;stroke-width:0.5;" width="314" x="547.5" y="262"/><path d="M588.3333,268.776 L588.3333,272.276 L584.8333,272.276 L584.8333,274.6094 L588.3333,274.6094 L588.3333,278.1094 L590.6667,278.1094 L590.6667,274.6094 L594.1667,274.6094 L594.1667,272.276 L590.6667,272.276 L590.6667,268.776 L588.3333,268.776 " fill="#000000" style="stroke:;stroke-width:0.0;stroke-dasharray:;"/><text fill="#000000" font-family="sans-serif" font-size="14" lengthAdjust="spacing" textLength="226" x="599.1667" y="278.5332">oncofair-ma-element-plannedperiod</text><line style="stroke:#181818;stroke-width:1.0;" x1="547.5" x2="861.5" y1="283.6094" y2="283.6094"/><text fill="#000000" font-family="sans-serif" font-size="14" lengthAdjust="spacing" textLength="149" x="552.5" y="300.1426">dateHeureDebutPrevue</text><text fill="#000000" font-family="sans-serif" font-size="14" lengthAdjust="spacing" textLength="145" x="711.5" y="300.1426">Extension.value[x].start</text><line style="stroke:#181818;stroke-width:1.0;" x1="706.5" x2="706.5" y1="283.6094" y2="305.2188"/><line style="stroke:#181818;stroke-width:1.0;" x1="547.5" x2="861.5" y1="305.2188" y2="305.2188"/><text fill="#000000" font-family="sans-serif" font-size="14" lengthAdjust="spacing" textLength="131" x="561.5" y="321.752">dateHeureFinPrevue</text><text fill="#000000" font-family="sans-serif" font-size="14" lengthAdjust="spacing" textLength="141" x="711.5" y="321.752">Extension.value[x].end</text><line style="stroke:#181818;stroke-width:1.0;" x1="706.5" x2="706.5" y1="305.2188" y2="326.8281"/></g><g id="elem_ElementAdministration"><rect fill="#F5FFFA" height="324.1406" style="stroke:#181818;stroke-width:0.5;" width="489" x="7" y="136"/><rect fill="#20B2AA" height="21.6094" style="stroke:#181818;stroke-width:0.5;" width="489" x="7" y="136"/><text fill="#000000" font-family="sans-serif" font-size="14" font-weight="bold" lengthAdjust="spacing" textLength="475" x="14" y="152.5332">ElementAdministration : OncoFAIRMedicationAdministrationElement</text><line style="stroke:#181818;stroke-width:1.0;" x1="7" x2="496" y1="157.6094" y2="157.6094"/><text fill="#000000" font-family="sans-serif" font-size="14" lengthAdjust="spacing" textLength="151" x="49.5" y="174.1426">idElementAdministration</text><text fill="#000000" font-family="sans-serif" font-size="14" lengthAdjust="spacing" textLength="54" x="248" y="174.1426">identifier</text><line style="stroke:#181818;stroke-width:1.0;" x1="243" x2="243" y1="157.6094" y2="179.2188"/><line style="stroke:#181818;stroke-width:1.0;" x1="7" x2="496" y1="179.2188" y2="179.2188"/><text fill="#000000" font-family="sans-serif" font-size="14" lengthAdjust="spacing" textLength="171" x="39.5" y="195.752">codeElementAdministration</text><path d="M249,185.9948 L249,190.6615 L253.6667,190.6615 L253.6667,185.9948 L249,185.9948 M254.8333,188.3281 L254.8333,191.8281 L251.3333,191.8281 L251.3333,192.9948 L256,192.9948 L256,188.3281 L254.8333,188.3281 M257.1667,190.6615 L257.1667,194.1615 L253.6667,194.1615 L253.6667,195.3281 L258.3333,195.3281 L258.3333,190.6615 L257.1667,190.6615 " fill="#000000" style="stroke:;stroke-width:0.0;stroke-dasharray:;"/><text fill="#000000" font-family="sans-serif" font-size="14" lengthAdjust="spacing" textLength="90" x="263.3333" y="195.752">category:code</text><line style="stroke:#181818;stroke-width:1.0;" x1="243" x2="243" y1="179.2188" y2="200.8281"/><line style="stroke:#181818;stroke-width:1.0;" x1="7" x2="496" y1="200.8281" y2="200.8281"/><text fill="#000000" font-family="sans-serif" font-size="14" lengthAdjust="spacing" textLength="79" x="85.5" y="217.3613">presentation</text><path d="M249,207.6042 L249,212.2708 L253.6667,212.2708 L253.6667,207.6042 L249,207.6042 M254.8333,209.9375 L254.8333,213.4375 L251.3333,213.4375 L251.3333,214.6042 L256,214.6042 L256,209.9375 L254.8333,209.9375 M257.1667,212.2708 L257.1667,215.7708 L253.6667,215.7708 L253.6667,216.9375 L258.3333,216.9375 L258.3333,212.2708 L257.1667,212.2708 " fill="#000000" style="stroke:;stroke-width:0.0;stroke-dasharray:;"/><text fill="#000000" font-family="sans-serif" font-size="14" lengthAdjust="spacing" textLength="100" x="263.3333" y="217.3613">category:nature</text><line style="stroke:#181818;stroke-width:1.0;" x1="243" x2="243" y1="200.8281" y2="222.4375"/><line style="stroke:#181818;stroke-width:1.0;" x1="7" x2="496" y1="222.4375" y2="222.4375"/><text fill="#000000" font-family="sans-serif" font-size="14" lengthAdjust="spacing" textLength="126" x="62" y="238.9707">ElementPrescription</text><text fill="#000000" font-family="sans-serif" font-size="14" lengthAdjust="spacing" textLength="48" x="248" y="238.9707">request</text><line style="stroke:#181818;stroke-width:1.0;" x1="243" x2="243" y1="222.4375" y2="244.0469"/><line style="stroke:#181818;stroke-width:1.0;" x1="7" x2="496" y1="244.0469" y2="244.0469"/><text fill="#000000" font-family="sans-serif" font-size="14" lengthAdjust="spacing" textLength="118" x="66" y="260.5801">dispositifsAssocies</text><text fill="#000000" font-family="sans-serif" font-size="14" lengthAdjust="spacing" textLength="41" x="248" y="260.5801">device</text><line style="stroke:#181818;stroke-width:1.0;" x1="243" x2="243" y1="244.0469" y2="265.6563"/><line style="stroke:#181818;stroke-width:1.0;" x1="7" x2="496" y1="265.6563" y2="265.6563"/><text fill="#000000" font-family="sans-serif" font-size="14" lengthAdjust="spacing" textLength="176" x="37" y="282.1895">libelleElementAdministration</text><path d="M249,272.4323 L249,277.099 L253.6667,277.099 L253.6667,272.4323 L249,272.4323 M254.8333,274.7656 L254.8333,278.2656 L251.3333,278.2656 L251.3333,279.4323 L256,279.4323 L256,274.7656 L254.8333,274.7656 M257.1667,277.099 L257.1667,280.599 L253.6667,280.599 L253.6667,281.7656 L258.3333,281.7656 L258.3333,277.099 L257.1667,277.099 " fill="#000000" style="stroke:;stroke-width:0.0;stroke-dasharray:;"/><text fill="#000000" font-family="sans-serif" font-size="14" lengthAdjust="spacing" textLength="81" x="263.3333" y="282.1895">note:wording</text><line style="stroke:#181818;stroke-width:1.0;" x1="243" x2="243" y1="265.6563" y2="287.2656"/><line style="stroke:#181818;stroke-width:1.0;" x1="7" x2="496" y1="287.2656" y2="287.2656"/><text fill="#000000" font-family="sans-serif" font-size="14" lengthAdjust="spacing" textLength="88" x="81" y="303.7988">commentaires</text><path d="M249,294.0417 L249,298.7083 L253.6667,298.7083 L253.6667,294.0417 L249,294.0417 M254.8333,296.375 L254.8333,299.875 L251.3333,299.875 L251.3333,301.0417 L256,301.0417 L256,296.375 L254.8333,296.375 M257.1667,298.7083 L257.1667,302.2083 L253.6667,302.2083 L253.6667,303.375 L258.3333,303.375 L258.3333,298.7083 L257.1667,298.7083 " fill="#000000" style="stroke:;stroke-width:0.0;stroke-dasharray:;"/><text fill="#000000" font-family="sans-serif" font-size="14" lengthAdjust="spacing" textLength="96" x="263.3333" y="303.7988">note:comments</text><line style="stroke:#181818;stroke-width:1.0;" x1="243" x2="243" y1="287.2656" y2="308.875"/><line style="stroke:#181818;stroke-width:1.0;" x1="7" x2="496" y1="308.875" y2="308.875"/><path d="M149.3333,315.651 L149.3333,320.3177 L154,320.3177 L154,315.651 L149.3333,315.651 M155.1667,317.9844 L155.1667,321.4844 L151.6667,321.4844 L151.6667,322.651 L156.3333,322.651 L156.3333,317.9844 L155.1667,317.9844 M157.5,320.3177 L157.5,323.8177 L154,323.8177 L154,324.9844 L158.6667,324.9844 L158.6667,320.3177 L157.5,320.3177 " fill="#000000" style="stroke:;stroke-width:0.0;stroke-dasharray:;"/><text fill="#000000" font-family="sans-serif" font-size="14" lengthAdjust="spacing" textLength="191" x="163.6667" y="325.4082">occurence[x]:occurencePeriod</text><line style="stroke:#181818;stroke-width:1.0;" x1="7" x2="496" y1="330.4844" y2="330.4844"/><text fill="#000000" font-family="sans-serif" font-size="14" lengthAdjust="spacing" textLength="47" x="228" y="347.0176">dosage</text><line style="stroke:#181818;stroke-width:1.0;" x1="7" x2="496" y1="352.0938" y2="352.0938"/><text fill="#000000" font-family="sans-serif" font-size="14" lengthAdjust="spacing" textLength="41" x="104.5" y="368.627">urgent</text><path d="M252.5,358.8698 L252.5,362.3698 L249,362.3698 L249,364.7031 L252.5,364.7031 L252.5,368.2031 L254.8333,368.2031 L254.8333,364.7031 L258.3333,364.7031 L258.3333,362.3698 L254.8333,362.3698 L254.8333,358.8698 L252.5,358.8698 " fill="#000000" style="stroke:;stroke-width:0.0;stroke-dasharray:;"/><text fill="#000000" font-family="sans-serif" font-size="14" lengthAdjust="spacing" textLength="176" x="263.3333" y="368.627">oncofair-ma-element-urgent</text><line style="stroke:#181818;stroke-width:1.0;" x1="243" x2="243" y1="352.0938" y2="373.7031"/><line style="stroke:#181818;stroke-width:1.0;" x1="7" x2="496" y1="373.7031" y2="373.7031"/><text fill="#000000" font-family="sans-serif" font-size="14" lengthAdjust="spacing" textLength="100" x="75" y="390.2363">datePeremption</text><path d="M252.5,380.4792 L252.5,383.9792 L249,383.9792 L249,386.3125 L252.5,386.3125 L252.5,389.8125 L254.8333,389.8125 L254.8333,386.3125 L258.3333,386.3125 L258.3333,383.9792 L254.8333,383.9792 L254.8333,380.4792 L252.5,380.4792 " fill="#000000" style="stroke:;stroke-width:0.0;stroke-dasharray:;"/><text fill="#000000" font-family="sans-serif" font-size="14" lengthAdjust="spacing" textLength="224" x="263.3333" y="390.2363">oncofair-ma-element-expirationdate</text><line style="stroke:#181818;stroke-width:1.0;" x1="243" x2="243" y1="373.7031" y2="395.3125"/><line style="stroke:#181818;stroke-width:1.0;" x1="7" x2="496" y1="395.3125" y2="395.3125"/><text fill="#000000" font-family="sans-serif" font-size="14" lengthAdjust="spacing" textLength="203" x="150" y="411.8457">oncofair-ma-element-traceability</text><line style="stroke:#181818;stroke-width:1.0;" x1="7" x2="496" y1="416.9219" y2="416.9219"/><text fill="#000000" font-family="sans-serif" font-size="14" lengthAdjust="spacing" textLength="226" x="138.5" y="433.4551">oncofair-ma-element-plannedperiod</text><line style="stroke:#181818;stroke-width:1.0;" x1="7" x2="496" y1="438.5313" y2="438.5313"/><text fill="#000000" font-family="sans-serif" font-size="14" lengthAdjust="spacing" textLength="36" x="107" y="455.0645">forme</text><path d="M252.5,445.3073 L252.5,448.8073 L249,448.8073 L249,451.1406 L252.5,451.1406 L252.5,454.6406 L254.8333,454.6406 L254.8333,451.1406 L258.3333,451.1406 L258.3333,448.8073 L254.8333,448.8073 L254.8333,445.3073 L252.5,445.3073 " fill="#000000" style="stroke:;stroke-width:0.0;stroke-dasharray:;"/><text fill="#000000" font-family="sans-serif" font-size="14" lengthAdjust="spacing" textLength="139" x="263.3333" y="455.0645">oncofair-element-form</text><line style="stroke:#181818;stroke-width:1.0;" x1="243" x2="243" y1="438.5313" y2="460.1406"/></g><!--MD5=[4ab519012e6a46b24277097d2bb3ac13]
link ElementAdministration to occurencexoccurencePeriod--><g id="link_ElementAdministration_occurencexoccurencePeriod"><path d="M497.5,315.5 C538.65,315.5 511.18,171.57 522.5,132 C527.72,113.73 524.05,103.32 540,93 C623.76,38.78 1348.61,48.68 1438,93 C1505.19,126.31 1550.79,204.95 1573.57,253.25 " fill="none" id="ElementAdministration-to-occurencexoccurencePeriod" style="stroke:#181818;stroke-width:1.0;"/><polygon fill="#181818" points="1575.71,257.83,1575.5526,247.9824,1573.6065,253.294,1568.295,251.3479,1575.71,257.83" style="stroke:#181818;stroke-width:1.0;"/></g><!--MD5=[d4bb3f395d686e13c3f64eaa9a8387fc]
link ElementAdministration to dosage--><g id="link_ElementAdministration_dosage"><path d="M497.5,336.5 C520.39,336.5 516.36,154.05 522.5,132 C527.6,113.7 524.05,103.32 540,93 C597.18,55.99 1091.65,63.41 1153,93 C1216.84,123.79 1263.01,193.94 1288.77,242.52 " fill="none" id="ElementAdministration-to-dosage" style="stroke:#181818;stroke-width:1.0;"/><polygon fill="#181818" points="1291.2,247.15,1290.5519,237.3225,1288.873,242.7245,1283.471,241.0456,1291.2,247.15" style="stroke:#181818;stroke-width:1.0;"/></g><!--MD5=[9c11d1f46eb80bde6f1b6287be375075]
link ElementAdministration to oncofairmaelementtraceability--><g id="link_ElementAdministration_oncofairmaelementtraceability"><path d="M497.5,399.5 C527.35,399.5 514.9,160.87 522.5,132 C527.34,113.63 524.05,103.32 540,93 C601.56,53.15 804,61.04 870,93 C938.48,126.16 986.33,204.85 1010.47,253.2 " fill="none" id="ElementAdministration-to-oncofairmaelementtraceability" style="stroke:#181818;stroke-width:1.0;"/><polygon fill="#181818" points="1012.73,257.78,1012.3206,247.9397,1010.5111,253.2993,1005.1515,251.4899,1012.73,257.78" style="stroke:#181818;stroke-width:1.0;"/></g><!--MD5=[fd5d0e9a6eb8034d3713b54d7933aeaf]
link ElementAdministration to oncofairmaelementplannedperiod--><g id="link_ElementAdministration_oncofairmaelementplannedperiod"><path d="M497.5,420.5 C569.68,431.91 637.76,378.46 674.73,336.93 " fill="none" id="ElementAdministration-to-oncofairmaelementplannedperiod" style="stroke:#181818;stroke-width:1.0;"/><polygon fill="#181818" points="681.27,329.33,672.3667,333.5409,678.0078,333.1192,678.4295,338.7604,681.27,329.33" style="stroke:#181818;stroke-width:1.0;"/></g><!--MD5=[750d6a2c102ff1fb5ccbdbe6a2a39ac2]
reverse link OncoFAIRMedicationAdministrationReport to ElementAdministration--><g id="link_OncoFAIRMedicationAdministrationReport_ElementAdministration"><path codeLine="46" d="M251.5,59.23 C251.5,77.75 251.5,103.79 251.5,131.78 " fill="none" id="OncoFAIRMedicationAdministrationReport-backto-ElementAdministration" style="stroke:#181818;stroke-width:1.0;"/><polygon fill="#181818" points="251.5,54.21,247.5,63.21,251.5,59.21,255.5,63.21,251.5,54.21" style="stroke:#181818;stroke-width:1.0;"/><text fill="#000000" font-family="sans-serif" font-size="13" lengthAdjust="spacing" textLength="35" x="252.5" y="98.4951">partOf</text></g><!--MD5=[465e45e620321ee1ccf73d2e61d58fa2]
@startuml


map "<&layers> occurence[x]:occurencePeriod" as occurencexoccurencePeriod #back:WhiteSmoke;header:LightGray {
    dateHeureDebutEffective => start
    dateHeureFinEffective => end
}

map "dosage" as dosage #back:WhiteSmoke;header:LightGray {
    lieuAdministration => site
    voieAdministration => route
    typeElementAdministration => method
}

object "**OncoFAIRMedicationAdministrationReport**" as OncoFAIRMedicationAdministrationReport #LightSeaGreen {
    CompteRenduAdministration
}

map "<&plus> oncofair-ma-element-traceability" as oncofairmaelementtraceability #back:WhiteSmoke;header:LightGray {
    lot => batchNumber
    serie => serialNumber
}

map "<&plus> oncofair-ma-element-plannedperiod" as oncofairmaelementplannedperiod #back:WhiteSmoke;header:LightGray {
    dateHeureDebutPrevue => Extension.value[x].start
    dateHeureFinPrevue => Extension.value[x].end
}

map "**ElementAdministration : OncoFAIRMedicationAdministrationElement**" as ElementAdministration #back:MintCream;header:LightSeaGreen {
    idElementAdministration => identifier
    codeElementAdministration => category
    codeElementAdministration => <&layers> category:code
    presentation => <&layers> category:nature
    ElementPrescription => request
    dispositifsAssocies => device
    libelleElementAdministration => <&layers> note:wording
    commentaires => <&layers> note:comments
    <&layers> occurence[x]:occurencePeriod *-> occurencexoccurencePeriod
    dosage *-> dosage
    urgent => <&plus> oncofair-ma-element-urgent
    datePeremption => <&plus> oncofair-ma-element-expirationdate
    oncofair-ma-element-traceability *-> oncofairmaelementtraceability
    oncofair-ma-element-plannedperiod *-> oncofairmaelementplannedperiod
    forme => <&plus> oncofair-element-form
}

ElementAdministration -u-> OncoFAIRMedicationAdministrationReport : partOf

@enduml

PlantUML version 1.2022.7(Mon Aug 22 19:01:30 CEST 2022)
(GPL source distribution)
Java Runtime: Java(TM) SE Runtime Environment
JVM: Java HotSpot(TM) 64-Bit Server VM
Default Encoding: UTF-8
Language: fr
Country: FR
--></g></svg>