<?xml version="1.0" encoding="UTF-8" standalone="no"?><svg xmlns="http://www.w3.org/2000/svg" xmlns:xlink="http://www.w3.org/1999/xlink" contentStyleType="text/css" height="411.1976px" preserveAspectRatio="none" style="width:1700px;height:411px;background:#FFFFFF;" version="1.1" viewBox="0 0 1700 411" width="1700.5751px" zoomAndPan="magnify"><defs/><g><g id="elem_timing"><rect fill="#F5F5F5" height="74.5655" style="stroke:#181818;stroke-width:0.28755074424898514;" width="238.6671" x="1136.6881" y="332.9838"/><rect fill="#D3D3D3" height="12.4276" style="stroke:#181818;stroke-width:0.28755074424898514;" width="238.6671" x="1136.6881" y="332.9838"/><text fill="#000000" font-family="sans-serif" font-size="8.0514" lengthAdjust="spacing" textLength="21.2788" x="1245.3823" y="342.492">timing</text><line style="stroke:#181818;stroke-width:0.5751014884979703;" x1="1136.6881" x2="1375.3552" y1="345.4113" y2="345.4113"/><text fill="#000000" font-family="sans-serif" font-size="8.0514" lengthAdjust="spacing" textLength="92.0162" x="1141.0014" y="354.9196">dateHeureDebutPrescrite</text><text fill="#000000" font-family="sans-serif" font-size="8.0514" lengthAdjust="spacing" textLength="132.2733" x="1240.2064" y="354.9196">repeat.bounds[x]:boundsPeriod.start</text><line style="stroke:#181818;stroke-width:0.5751014884979703;" x1="1237.3309" x2="1237.3309" y1="345.4113" y2="357.8389"/><line style="stroke:#181818;stroke-width:0.5751014884979703;" x1="1136.6881" x2="1375.3552" y1="357.8389" y2="357.8389"/><text fill="#000000" font-family="sans-serif" font-size="8.0514" lengthAdjust="spacing" textLength="81.6644" x="1146.1773" y="367.3472">dateHeureFinPrescrite</text><text fill="#000000" font-family="sans-serif" font-size="8.0514" lengthAdjust="spacing" textLength="129.9729" x="1240.2064" y="367.3472">repeat.bounds[x]:boundsPeriod.end</text><line style="stroke:#181818;stroke-width:0.5751014884979703;" x1="1237.3309" x2="1237.3309" y1="357.8389" y2="370.2665"/><line style="stroke:#181818;stroke-width:0.5751014884979703;" x1="1136.6881" x2="1375.3552" y1="370.2665" y2="370.2665"/><text fill="#000000" font-family="sans-serif" font-size="8.0514" lengthAdjust="spacing" textLength="94.8917" x="1139.5636" y="379.7748">deltaDateHeureReference</text><text fill="#000000" font-family="sans-serif" font-size="8.0514" lengthAdjust="spacing" textLength="46.0081" x="1240.2064" y="379.7748">repeat.offset</text><line style="stroke:#181818;stroke-width:0.5751014884979703;" x1="1237.3309" x2="1237.3309" y1="370.2665" y2="382.6941"/><line style="stroke:#181818;stroke-width:0.5751014884979703;" x1="1136.6881" x2="1375.3552" y1="382.6941" y2="382.6941"/><text fill="#000000" font-family="sans-serif" font-size="8.0514" lengthAdjust="spacing" textLength="21.2788" x="1176.3701" y="392.2024">duree</text><text fill="#000000" font-family="sans-serif" font-size="8.0514" lengthAdjust="spacing" textLength="55.7848" x="1240.2064" y="392.2024">repeat.duration</text><line style="stroke:#181818;stroke-width:0.5751014884979703;" x1="1237.3309" x2="1237.3309" y1="382.6941" y2="395.1217"/><line style="stroke:#181818;stroke-width:0.5751014884979703;" x1="1136.6881" x2="1375.3552" y1="395.1217" y2="395.1217"/><text fill="#000000" font-family="sans-serif" font-size="8.0514" lengthAdjust="spacing" textLength="36.8065" x="1168.6062" y="404.63">frequence</text><text fill="#000000" font-family="sans-serif" font-size="8.0514" lengthAdjust="spacing" textLength="62.111" x="1240.2064" y="404.63">repeat.frequency</text><line style="stroke:#181818;stroke-width:0.5751014884979703;" x1="1237.3309" x2="1237.3309" y1="395.1217" y2="407.5493"/></g><g id="elem_effectiveDosePeriod"><rect fill="#F5F5F5" height="37.2828" style="stroke:#181818;stroke-width:0.28755074424898514;" width="130.548" x="1151.0656" y="162.7537"/><rect fill="#D3D3D3" height="12.4276" style="stroke:#181818;stroke-width:0.28755074424898514;" width="130.548" x="1151.0656" y="162.7537"/><text fill="#000000" font-family="sans-serif" font-size="8.0514" lengthAdjust="spacing" textLength="73.0379" x="1179.8207" y="172.262">effectiveDosePeriod</text><line style="stroke:#181818;stroke-width:0.5751014884979703;" x1="1151.0656" x2="1281.6137" y1="175.1813" y2="175.1813"/><text fill="#000000" font-family="sans-serif" font-size="8.0514" lengthAdjust="spacing" textLength="102.9432" x="1153.9411" y="184.6896">dateHeureDebutPrescription</text><text fill="#000000" font-family="sans-serif" font-size="8.0514" lengthAdjust="spacing" textLength="16.1028" x="1262.6353" y="184.6896">start</text><line style="stroke:#181818;stroke-width:0.5751014884979703;" x1="1259.7598" x2="1259.7598" y1="175.1813" y2="187.6089"/><line style="stroke:#181818;stroke-width:0.5751014884979703;" x1="1151.0656" x2="1281.6137" y1="187.6089" y2="187.6089"/><text fill="#000000" font-family="sans-serif" font-size="8.0514" lengthAdjust="spacing" textLength="92.5913" x="1159.1171" y="197.1172">dateHeureFinPrescription</text><text fill="#000000" font-family="sans-serif" font-size="8.0514" lengthAdjust="spacing" textLength="13.8024" x="1262.6353" y="197.1172">end</text><line style="stroke:#181818;stroke-width:0.5751014884979703;" x1="1259.7598" x2="1259.7598" y1="187.6089" y2="200.0365"/></g><g id="elem_dosageInstructionelement"><rect fill="#F5F5F5" height="86.9931" style="stroke:#181818;stroke-width:0.28755074424898514;" width="171.9553" x="949.7801" y="138.5995"/><rect fill="#D3D3D3" height="12.4276" style="stroke:#181818;stroke-width:0.28755074424898514;" width="171.9553" x="949.7801" y="138.5995"/><path d="M984.1903,142.4964 L984.1903,145.1802 L986.8742,145.1802 L986.8742,142.4964 L984.1903,142.4964 M987.5451,143.8383 L987.5451,145.8511 L985.5323,145.8511 L985.5323,146.5221 L988.2161,146.5221 L988.2161,143.8383 L987.5451,143.8383 M988.887,145.1802 L988.887,147.193 L986.8742,147.193 L986.8742,147.864 L989.558,147.864 L989.558,145.1802 L988.887,145.1802 " fill="#000000" style="stroke:;stroke-width:0.0;stroke-dasharray:;"/><text fill="#000000" font-family="sans-serif" font-size="8.0514" lengthAdjust="spacing" textLength="95.4668" x="992.4335" y="148.1077">dosageInstruction:element</text><line style="stroke:#181818;stroke-width:0.5751014884979703;" x1="949.7801" x2="1121.7355" y1="151.027" y2="151.027"/><text fill="#000000" font-family="sans-serif" font-size="8.0514" lengthAdjust="spacing" textLength="35.0812" x="979.1103" y="160.5353">posologie</text><text fill="#000000" font-family="sans-serif" font-size="8.0514" lengthAdjust="spacing" textLength="12.6522" x="1046.3972" y="160.5353">text</text><line style="stroke:#181818;stroke-width:0.5751014884979703;" x1="1043.5217" x2="1043.5217" y1="151.027" y2="163.4546"/><line style="stroke:#181818;stroke-width:0.5751014884979703;" x1="949.7801" x2="1121.7355" y1="163.4546" y2="163.4546"/><text fill="#000000" font-family="sans-serif" font-size="8.0514" lengthAdjust="spacing" textLength="76.4885" x="958.4066" y="172.9629">conditionsApplication</text><text fill="#000000" font-family="sans-serif" font-size="8.0514" lengthAdjust="spacing" textLength="72.4628" x="1046.3972" y="172.9629">additionalInstruction</text><line style="stroke:#181818;stroke-width:0.5751014884979703;" x1="1043.5217" x2="1043.5217" y1="163.4546" y2="175.8822"/><line style="stroke:#181818;stroke-width:0.5751014884979703;" x1="949.7801" x2="1121.7355" y1="175.8822" y2="175.8822"/><text fill="#000000" font-family="sans-serif" font-size="8.0514" lengthAdjust="spacing" textLength="21.2788" x="1025.1184" y="185.3905">timing</text><line style="stroke:#181818;stroke-width:0.5751014884979703;" x1="949.7801" x2="1121.7355" y1="188.3098" y2="188.3098"/><text fill="#000000" font-family="sans-serif" font-size="8.0514" lengthAdjust="spacing" textLength="63.8363" x="964.7327" y="197.8181">lieuAdministration</text><text fill="#000000" font-family="sans-serif" font-size="8.0514" lengthAdjust="spacing" textLength="12.6522" x="1046.3972" y="197.8181">site</text><line style="stroke:#181818;stroke-width:0.5751014884979703;" x1="1043.5217" x2="1043.5217" y1="188.3098" y2="200.7374"/><line style="stroke:#181818;stroke-width:0.5751014884979703;" x1="949.7801" x2="1121.7355" y1="200.7374" y2="200.7374"/><text fill="#000000" font-family="sans-serif" font-size="8.0514" lengthAdjust="spacing" textLength="66.1367" x="963.5825" y="210.2456">voieAdministration</text><text fill="#000000" font-family="sans-serif" font-size="8.0514" lengthAdjust="spacing" textLength="18.9783" x="1046.3972" y="210.2456">route</text><line style="stroke:#181818;stroke-width:0.5751014884979703;" x1="1043.5217" x2="1043.5217" y1="200.7374" y2="213.165"/><line style="stroke:#181818;stroke-width:0.5751014884979703;" x1="949.7801" x2="1121.7355" y1="213.165" y2="213.165"/><text fill="#000000" font-family="sans-serif" font-size="8.0514" lengthAdjust="spacing" textLength="87.9905" x="952.6556" y="222.6732">typeElementPrescription</text><text fill="#000000" font-family="sans-serif" font-size="8.0514" lengthAdjust="spacing" textLength="27.0298" x="1046.3972" y="222.6732">method</text><line style="stroke:#181818;stroke-width:0.5751014884979703;" x1="1043.5217" x2="1043.5217" y1="213.165" y2="225.5925"/></g><g id="elem_OncoFAIRMedicationRequestPrescription"><rect fill="#87CEFA" height="27.1556" style="stroke:#181818;stroke-width:0.28755074424898514;" width="175.9811" x="208.7618" y="4.0257"/><text fill="#000000" font-family="sans-serif" font-size="8.0514" font-weight="bold" lengthAdjust="spacing" textLength="167.9296" x="212.7876" y="13.534">OncoFAIRMedicationRequestPrescription</text><line style="stroke:#181818;stroke-width:0.28755074424898514;" x1="209.3369" x2="384.1678" y1="16.4533" y2="16.4533"/><text fill="#000000" font-family="sans-serif" font-size="8.0514" lengthAdjust="spacing" textLength="43.1326" x="212.2124" y="27.1118">Prescription</text></g><g id="elem_OncoFAIRMedicationRequestElement"><rect fill="#87CEFA" height="27.1556" style="stroke:#181818;stroke-width:0.28755074424898514;" width="159.3031" x="217.1008" y="355.7003"/><text fill="#000000" font-family="sans-serif" font-size="8.0514" font-weight="bold" lengthAdjust="spacing" textLength="151.2517" x="221.1265" y="365.2085">OncoFAIRMedicationRequestElement</text><line style="stroke:#181818;stroke-width:0.28755074424898514;" x1="217.6759" x2="375.8288" y1="368.1279" y2="368.1279"/><text fill="#000000" font-family="sans-serif" font-size="8.0514" lengthAdjust="spacing" textLength="40.2571" x="220.5514" y="378.7863">ElementLie</text></g><g id="elem_OncoFAIRCarePlan"><rect fill="#FFD700" height="27.1556" style="stroke:#181818;stroke-width:0.28755074424898514;" width="83.9648" x="4.0257" y="167.3545"/><text fill="#000000" font-family="sans-serif" font-size="8.0514" font-weight="bold" lengthAdjust="spacing" textLength="75.9134" x="8.0514" y="176.8628">OncoFAIRCarePlan</text><line style="stroke:#181818;stroke-width:0.28755074424898514;" x1="4.6008" x2="87.4154" y1="179.7821" y2="179.7821"/><text fill="#000000" font-family="sans-serif" font-size="8.0514" lengthAdjust="spacing" textLength="62.111" x="7.4763" y="190.4406">ProtocolePrescrit</text></g><g id="elem_Practitioner"><rect fill="#F1F1F1" height="27.1556" style="stroke:#181818;stroke-width:0.28755074424898514;" width="62.111" x="477.9093" y="167.3545"/><text fill="#000000" font-family="sans-serif" font-size="8.0514" font-weight="bold" lengthAdjust="spacing" textLength="47.1583" x="485.3857" y="176.8628">Practitioner</text><line style="stroke:#181818;stroke-width:0.28755074424898514;" x1="478.4844" x2="539.4452" y1="179.7821" y2="179.7821"/><text fill="#000000" font-family="sans-serif" font-size="8.0514" lengthAdjust="spacing" textLength="55.2097" x="481.3599" y="190.4406">idpPrescripteur</text></g><g id="elem_oncofairmrelementgonogo"><rect fill="#F5F5F5" height="37.2828" style="stroke:#181818;stroke-width:0.28755074424898514;" width="139.7497" x="780.7003" y="162.7537"/><rect fill="#D3D3D3" height="12.4276" style="stroke:#181818;stroke-width:0.28755074424898514;" width="139.7497" x="780.7003" y="162.7537"/><path d="M795.5571,166.6506 L795.5571,168.6635 L793.5442,168.6635 L793.5442,170.0054 L795.5571,170.0054 L795.5571,172.0182 L796.899,172.0182 L796.899,170.0054 L798.9118,170.0054 L798.9118,168.6635 L796.899,168.6635 L796.899,166.6506 L795.5571,166.6506 " fill="#000000" style="stroke:;stroke-width:0.0;stroke-dasharray:;"/><text fill="#000000" font-family="sans-serif" font-size="8.0514" lengthAdjust="spacing" textLength="106.3938" x="801.7873" y="172.262">oncofair-mr-element-go-nogo</text><line style="stroke:#181818;stroke-width:0.5751014884979703;" x1="780.7003" x2="920.4499" y1="175.1813" y2="175.1813"/><text fill="#000000" font-family="sans-serif" font-size="8.0514" lengthAdjust="spacing" textLength="29.9053" x="790.1894" y="184.6896">GoNogo</text><text fill="#000000" font-family="sans-serif" font-size="8.0514" lengthAdjust="spacing" textLength="52.9093" x="832.4594" y="184.6896">GoNogoStatus</text><line style="stroke:#181818;stroke-width:0.5751014884979703;" x1="829.5839" x2="829.5839" y1="175.1813" y2="187.6089"/><line style="stroke:#181818;stroke-width:0.5751014884979703;" x1="780.7003" x2="920.4499" y1="187.6089" y2="187.6089"/><text fill="#000000" font-family="sans-serif" font-size="8.0514" lengthAdjust="spacing" textLength="43.1326" x="783.5758" y="197.1172">motifAttente</text><text fill="#000000" font-family="sans-serif" font-size="8.0514" lengthAdjust="spacing" textLength="85.115" x="832.4594" y="197.1172">GoNogoReasonWaiting</text><line style="stroke:#181818;stroke-width:0.5751014884979703;" x1="829.5839" x2="829.5839" y1="187.6089" y2="200.0365"/></g><g id="elem_oncofairpharmacistadvice"><rect fill="#F5F5F5" height="37.2828" style="stroke:#181818;stroke-width:0.28755074424898514;" width="186.3329" x="564.7497" y="162.7537"/><rect fill="#D3D3D3" height="12.4276" style="stroke:#181818;stroke-width:0.28755074424898514;" width="186.3329" x="564.7497" y="162.7537"/><path d="M606.9238,166.6506 L606.9238,168.6635 L604.9109,168.6635 L604.9109,170.0054 L606.9238,170.0054 L606.9238,172.0182 L608.2657,172.0182 L608.2657,170.0054 L610.2785,170.0054 L610.2785,168.6635 L608.2657,168.6635 L608.2657,166.6506 L606.9238,166.6506 " fill="#000000" style="stroke:;stroke-width:0.0;stroke-dasharray:;"/><text fill="#000000" font-family="sans-serif" font-size="8.0514" lengthAdjust="spacing" textLength="98.3424" x="613.154" y="172.262">oncofair-pharmacist-advice</text><line style="stroke:#181818;stroke-width:0.5751014884979703;" x1="564.7497" x2="751.0825" y1="175.1813" y2="175.1813"/><text fill="#000000" font-family="sans-serif" font-size="8.0514" lengthAdjust="spacing" textLength="93.7415" x="570.5007" y="184.6896">validationPharmaceutique</text><text fill="#000000" font-family="sans-serif" font-size="8.0514" lengthAdjust="spacing" textLength="75.3383" x="672.8687" y="184.6896">pharmacistValidation</text><line style="stroke:#181818;stroke-width:0.5751014884979703;" x1="669.9932" x2="669.9932" y1="175.1813" y2="187.6089"/><line style="stroke:#181818;stroke-width:0.5751014884979703;" x1="564.7497" x2="751.0825" y1="187.6089" y2="187.6089"/><text fill="#000000" font-family="sans-serif" font-size="8.0514" lengthAdjust="spacing" textLength="99.4926" x="567.6252" y="197.1172">propositionPharmaceutique</text><text fill="#000000" font-family="sans-serif" font-size="8.0514" lengthAdjust="spacing" textLength="71.8877" x="672.8687" y="197.1172">pharmacistProposal</text><line style="stroke:#181818;stroke-width:0.5751014884979703;" x1="669.9932" x2="669.9932" y1="187.6089" y2="200.0365"/></g><g id="elem_ElementPrescription"><rect fill="#F0F8FF" height="211.2689" style="stroke:#181818;stroke-width:0.28755074424898514;" width="248.4438" x="172.5304" y="78.2138"/><rect fill="#87CEFA" height="12.4276" style="stroke:#181818;stroke-width:0.28755074424898514;" width="248.4438" x="172.5304" y="78.2138"/><text fill="#000000" font-family="sans-serif" font-size="8.0514" font-weight="bold" lengthAdjust="spacing" textLength="240.3924" x="176.5562" y="87.7221">ElementPrescription : OncoFAIRMedicationRequestElement</text><line style="stroke:#181818;stroke-width:0.5751014884979703;" x1="172.5304" x2="420.9743" y1="90.6414" y2="90.6414"/><text fill="#000000" font-family="sans-serif" font-size="8.0514" lengthAdjust="spacing" textLength="78.7889" x="199.8478" y="100.1497">idElementPrescription</text><text fill="#000000" font-family="sans-serif" font-size="8.0514" lengthAdjust="spacing" textLength="31.0555" x="308.8295" y="100.1497">identifier</text><line style="stroke:#181818;stroke-width:0.5751014884979703;" x1="305.954" x2="305.954" y1="90.6414" y2="103.069"/><line style="stroke:#181818;stroke-width:0.5751014884979703;" x1="172.5304" x2="420.9743" y1="103.069" y2="103.069"/><text fill="#000000" font-family="sans-serif" font-size="8.0514" lengthAdjust="spacing" textLength="33.931" x="222.2767" y="112.5772">idGroupe</text><text fill="#000000" font-family="sans-serif" font-size="8.0514" lengthAdjust="spacing" textLength="52.3342" x="308.8295" y="112.5772">groupIdentifier</text><line style="stroke:#181818;stroke-width:0.5751014884979703;" x1="305.954" x2="305.954" y1="103.069" y2="115.4966"/><line style="stroke:#181818;stroke-width:0.5751014884979703;" x1="172.5304" x2="420.9743" y1="115.4966" y2="115.4966"/><text fill="#000000" font-family="sans-serif" font-size="8.0514" lengthAdjust="spacing" textLength="127.6725" x="175.406" y="125.0048">CreationArretModificationValidation</text><text fill="#000000" font-family="sans-serif" font-size="8.0514" lengthAdjust="spacing" textLength="21.8539" x="308.8295" y="125.0048">status</text><line style="stroke:#181818;stroke-width:0.5751014884979703;" x1="305.954" x2="305.954" y1="115.4966" y2="127.9241"/><line style="stroke:#181818;stroke-width:0.5751014884979703;" x1="172.5304" x2="420.9743" y1="127.9241" y2="127.9241"/><text fill="#000000" font-family="sans-serif" font-size="8.0514" lengthAdjust="spacing" textLength="23.5792" x="227.4526" y="137.4324">urgent</text><text fill="#000000" font-family="sans-serif" font-size="8.0514" lengthAdjust="spacing" textLength="24.7294" x="308.8295" y="137.4324">priority</text><line style="stroke:#181818;stroke-width:0.5751014884979703;" x1="305.954" x2="305.954" y1="127.9241" y2="140.3517"/><line style="stroke:#181818;stroke-width:0.5751014884979703;" x1="172.5304" x2="420.9743" y1="140.3517" y2="140.3517"/><text fill="#000000" font-family="sans-serif" font-size="8.0514" lengthAdjust="spacing" textLength="66.1367" x="206.1739" y="149.86">dispostifsAssocies</text><text fill="#000000" font-family="sans-serif" font-size="8.0514" lengthAdjust="spacing" textLength="23.5792" x="308.8295" y="149.86">device</text><line style="stroke:#181818;stroke-width:0.5751014884979703;" x1="305.954" x2="305.954" y1="140.3517" y2="152.7793"/><line style="stroke:#181818;stroke-width:0.5751014884979703;" x1="172.5304" x2="420.9743" y1="152.7793" y2="152.7793"/><text fill="#000000" font-family="sans-serif" font-size="8.0514" lengthAdjust="spacing" textLength="93.1664" x="192.659" y="162.2876">libelleElementPrescription</text><path d="M309.4046,156.6762 L309.4046,159.36 L312.0884,159.36 L312.0884,156.6762 L309.4046,156.6762 M312.7594,158.0181 L312.7594,160.031 L310.7465,160.031 L310.7465,160.7019 L313.4303,160.7019 L313.4303,158.0181 L312.7594,158.0181 M314.1013,159.36 L314.1013,161.3729 L312.0884,161.3729 L312.0884,162.0438 L314.7722,162.0438 L314.7722,159.36 L314.1013,159.36 " fill="#000000" style="stroke:;stroke-width:0.0;stroke-dasharray:;"/><text fill="#000000" font-family="sans-serif" font-size="8.0514" lengthAdjust="spacing" textLength="46.5832" x="317.6477" y="162.2876">note:wording</text><line style="stroke:#181818;stroke-width:0.5751014884979703;" x1="305.954" x2="305.954" y1="152.7793" y2="165.2069"/><line style="stroke:#181818;stroke-width:0.5751014884979703;" x1="172.5304" x2="420.9743" y1="165.2069" y2="165.2069"/><text fill="#000000" font-family="sans-serif" font-size="8.0514" lengthAdjust="spacing" textLength="34.5061" x="221.9892" y="174.7152">indication</text><path d="M309.4046,169.1038 L309.4046,171.7876 L312.0884,171.7876 L312.0884,169.1038 L309.4046,169.1038 M312.7594,170.4457 L312.7594,172.4586 L310.7465,172.4586 L310.7465,173.1295 L313.4303,173.1295 L313.4303,170.4457 L312.7594,170.4457 M314.1013,171.7876 L314.1013,173.8005 L312.0884,173.8005 L312.0884,174.4714 L314.7722,174.4714 L314.7722,171.7876 L314.1013,171.7876 " fill="#000000" style="stroke:;stroke-width:0.0;stroke-dasharray:;"/><text fill="#000000" font-family="sans-serif" font-size="8.0514" lengthAdjust="spacing" textLength="52.9093" x="317.6477" y="174.7152">note:indication</text><line style="stroke:#181818;stroke-width:0.5751014884979703;" x1="305.954" x2="305.954" y1="165.2069" y2="177.6345"/><line style="stroke:#181818;stroke-width:0.5751014884979703;" x1="172.5304" x2="420.9743" y1="177.6345" y2="177.6345"/><text fill="#000000" font-family="sans-serif" font-size="8.0514" lengthAdjust="spacing" textLength="50.6089" x="213.9378" y="187.1427">commentaires</text><path d="M309.4046,181.5314 L309.4046,184.2152 L312.0884,184.2152 L312.0884,181.5314 L309.4046,181.5314 M312.7594,182.8733 L312.7594,184.8861 L310.7465,184.8861 L310.7465,185.5571 L313.4303,185.5571 L313.4303,182.8733 L312.7594,182.8733 M314.1013,184.2152 L314.1013,186.228 L312.0884,186.228 L312.0884,186.899 L314.7722,186.899 L314.7722,184.2152 L314.1013,184.2152 " fill="#000000" style="stroke:;stroke-width:0.0;stroke-dasharray:;"/><text fill="#000000" font-family="sans-serif" font-size="8.0514" lengthAdjust="spacing" textLength="55.2097" x="317.6477" y="187.1427">note:comments</text><line style="stroke:#181818;stroke-width:0.5751014884979703;" x1="305.954" x2="305.954" y1="177.6345" y2="190.0621"/><line style="stroke:#181818;stroke-width:0.5751014884979703;" x1="172.5304" x2="420.9743" y1="190.0621" y2="190.0621"/><text fill="#000000" font-family="sans-serif" font-size="8.0514" lengthAdjust="spacing" textLength="97.7673" x="190.3586" y="199.5703">propostionPharmaceutique</text><text fill="#000000" font-family="sans-serif" font-size="8.0514" lengthAdjust="spacing" textLength="41.4073" x="308.8295" y="199.5703">substitution</text><line style="stroke:#181818;stroke-width:0.5751014884979703;" x1="305.954" x2="305.954" y1="190.0621" y2="202.4896"/><line style="stroke:#181818;stroke-width:0.5751014884979703;" x1="172.5304" x2="420.9743" y1="202.4896" y2="202.4896"/><text fill="#000000" font-family="sans-serif" font-size="8.0514" lengthAdjust="spacing" textLength="73.0379" x="260.2334" y="211.9979">effectiveDosePeriod</text><line style="stroke:#181818;stroke-width:0.5751014884979703;" x1="172.5304" x2="420.9743" y1="214.9172" y2="214.9172"/><path d="M245.1849,218.8141 L245.1849,221.4979 L247.8687,221.4979 L247.8687,218.8141 L245.1849,218.8141 M248.5397,220.156 L248.5397,222.1689 L246.5268,222.1689 L246.5268,222.8398 L249.2106,222.8398 L249.2106,220.156 L248.5397,220.156 M249.8816,221.4979 L249.8816,223.5108 L247.8687,223.5108 L247.8687,224.1817 L250.5525,224.1817 L250.5525,221.4979 L249.8816,221.4979 " fill="#000000" style="stroke:;stroke-width:0.0;stroke-dasharray:;"/><text fill="#000000" font-family="sans-serif" font-size="8.0514" lengthAdjust="spacing" textLength="95.4668" x="253.4281" y="224.4255">dosageInstruction:element</text><line style="stroke:#181818;stroke-width:0.5751014884979703;" x1="172.5304" x2="420.9743" y1="227.3448" y2="227.3448"/><text fill="#000000" font-family="sans-serif" font-size="8.0514" lengthAdjust="spacing" textLength="20.7037" x="228.8904" y="236.8531">forme</text><path d="M311.4175,231.2417 L311.4175,233.2546 L309.4046,233.2546 L309.4046,234.5965 L311.4175,234.5965 L311.4175,236.6093 L312.7594,236.6093 L312.7594,234.5965 L314.7722,234.5965 L314.7722,233.2546 L312.7594,233.2546 L312.7594,231.2417 L311.4175,231.2417 " fill="#000000" style="stroke:;stroke-width:0.0;stroke-dasharray:;"/><text fill="#000000" font-family="sans-serif" font-size="8.0514" lengthAdjust="spacing" textLength="79.9391" x="317.6477" y="236.8531">oncofair-element-form</text><line style="stroke:#181818;stroke-width:0.5751014884979703;" x1="305.954" x2="305.954" y1="227.3448" y2="239.7724"/><line style="stroke:#181818;stroke-width:0.5751014884979703;" x1="172.5304" x2="420.9743" y1="239.7724" y2="239.7724"/><text fill="#000000" font-family="sans-serif" font-size="8.0514" lengthAdjust="spacing" textLength="35.0812" x="221.7016" y="249.2807">fourniture</text><path d="M311.4175,243.6693 L311.4175,245.6822 L309.4046,245.6822 L309.4046,247.0241 L311.4175,247.0241 L311.4175,249.0369 L312.7594,249.0369 L312.7594,247.0241 L314.7722,247.0241 L314.7722,245.6822 L312.7594,245.6822 L312.7594,243.6693 L311.4175,243.6693 " fill="#000000" style="stroke:;stroke-width:0.0;stroke-dasharray:;"/><text fill="#000000" font-family="sans-serif" font-size="8.0514" lengthAdjust="spacing" textLength="99.4926" x="317.6477" y="249.2807">oncofair-mr-element-supply</text><line style="stroke:#181818;stroke-width:0.5751014884979703;" x1="305.954" x2="305.954" y1="239.7724" y2="252.2"/><line style="stroke:#181818;stroke-width:0.5751014884979703;" x1="172.5304" x2="420.9743" y1="252.2" y2="252.2"/><text fill="#000000" font-family="sans-serif" font-size="8.0514" lengthAdjust="spacing" textLength="89.1407" x="194.6719" y="261.7082">rangElementPrescription</text><path d="M311.4175,256.0969 L311.4175,258.1097 L309.4046,258.1097 L309.4046,259.4516 L311.4175,259.4516 L311.4175,261.4645 L312.7594,261.4645 L312.7594,259.4516 L314.7722,259.4516 L314.7722,258.1097 L312.7594,258.1097 L312.7594,256.0969 L311.4175,256.0969 " fill="#000000" style="stroke:;stroke-width:0.0;stroke-dasharray:;"/><text fill="#000000" font-family="sans-serif" font-size="8.0514" lengthAdjust="spacing" textLength="92.0162" x="317.6477" y="261.7082">oncofair-mr-element-rank</text><line style="stroke:#181818;stroke-width:0.5751014884979703;" x1="305.954" x2="305.954" y1="252.2" y2="264.6276"/><line style="stroke:#181818;stroke-width:0.5751014884979703;" x1="172.5304" x2="420.9743" y1="264.6276" y2="264.6276"/><text fill="#000000" font-family="sans-serif" font-size="8.0514" lengthAdjust="spacing" textLength="106.3938" x="243.5555" y="274.1358">oncofair-mr-element-go-nogo</text><line style="stroke:#181818;stroke-width:0.5751014884979703;" x1="172.5304" x2="420.9743" y1="277.0551" y2="277.0551"/><text fill="#000000" font-family="sans-serif" font-size="8.0514" lengthAdjust="spacing" textLength="98.3424" x="247.5812" y="286.5634">oncofair-pharmacist-advice</text></g><g id="elem_doseAndRate"><rect fill="#F5F5F5" height="37.2828" style="stroke:#181818;stroke-width:0.28755074424898514;" width="117.3207" x="1579.2287" y="351.0995"/><rect fill="#D3D3D3" height="12.4276" style="stroke:#181818;stroke-width:0.28755074424898514;" width="117.3207" x="1579.2287" y="351.0995"/><text fill="#000000" font-family="sans-serif" font-size="8.0514" lengthAdjust="spacing" textLength="49.4587" x="1613.1597" y="360.6077">doseAndRate</text><line style="stroke:#181818;stroke-width:0.5751014884979703;" x1="1579.2287" x2="1696.5494" y1="363.527" y2="363.527"/><text fill="#000000" font-family="sans-serif" font-size="8.0514" lengthAdjust="spacing" textLength="29.3302" x="1582.1042" y="373.0353">quantite</text><text fill="#000000" font-family="sans-serif" font-size="8.0514" lengthAdjust="spacing" textLength="76.4885" x="1617.1854" y="373.0353">dose[x]:doseQuantity</text><line style="stroke:#181818;stroke-width:0.5751014884979703;" x1="1614.3099" x2="1614.3099" y1="363.527" y2="375.9546"/><line style="stroke:#181818;stroke-width:0.5751014884979703;" x1="1579.2287" x2="1696.5494" y1="375.9546" y2="375.9546"/><text fill="#000000" font-family="sans-serif" font-size="8.0514" lengthAdjust="spacing" textLength="17.8281" x="1587.8552" y="385.4629">debit</text><text fill="#000000" font-family="sans-serif" font-size="8.0514" lengthAdjust="spacing" textLength="69.5873" x="1617.1854" y="385.4629">rate[x]:rateQuantity</text><line style="stroke:#181818;stroke-width:0.5751014884979703;" x1="1614.3099" x2="1614.3099" y1="375.9546" y2="388.3822"/></g><g id="elem_dosageInstructionposology"><rect fill="#F5F5F5" height="37.2828" style="stroke:#181818;stroke-width:0.28755074424898514;" width="116.3622" x="1579.8038" y="162.7537"/><rect fill="#D3D3D3" height="12.4276" style="stroke:#181818;stroke-width:0.28755074424898514;" width="116.3622" x="1579.8038" y="162.7537"/><path d="M1584.4046,166.6506 L1584.4046,169.3344 L1587.0884,169.3344 L1587.0884,166.6506 L1584.4046,166.6506 M1587.7594,167.9925 L1587.7594,170.0054 L1585.7465,170.0054 L1585.7465,170.6763 L1588.4303,170.6763 L1588.4303,167.9925 L1587.7594,167.9925 M1589.1013,169.3344 L1589.1013,171.3473 L1587.0884,171.3473 L1587.0884,172.0182 L1589.7722,172.0182 L1589.7722,169.3344 L1589.1013,169.3344 " fill="#000000" style="stroke:;stroke-width:0.0;stroke-dasharray:;"/><text fill="#000000" font-family="sans-serif" font-size="8.0514" lengthAdjust="spacing" textLength="99.4926" x="1592.6477" y="172.262">dosageInstruction:posology</text><line style="stroke:#181818;stroke-width:0.5751014884979703;" x1="1579.8038" x2="1696.166" y1="175.1813" y2="175.1813"/><text fill="#000000" font-family="sans-serif" font-size="8.0514" lengthAdjust="spacing" textLength="21.2788" x="1627.3455" y="184.6896">timing</text><line style="stroke:#181818;stroke-width:0.5751014884979703;" x1="1579.8038" x2="1696.166" y1="187.6089" y2="187.6089"/><text fill="#000000" font-family="sans-serif" font-size="8.0514" lengthAdjust="spacing" textLength="49.4587" x="1613.2555" y="197.1172">doseAndRate</text></g><g id="elem_ElementPosologie"><rect fill="#F0F8FF" height="24.8552" style="stroke:#181818;stroke-width:0.28755074424898514;" width="239.2422" x="1311.2314" y="168.7923"/><rect fill="#87CEFA" height="12.4276" style="stroke:#181818;stroke-width:0.28755074424898514;" width="239.2422" x="1311.2314" y="168.7923"/><text fill="#000000" font-family="sans-serif" font-size="8.0514" font-weight="bold" lengthAdjust="spacing" textLength="231.1908" x="1315.2571" y="178.3006">ElementPosologie : OncoFAIRMedicationRequestElement</text><line style="stroke:#181818;stroke-width:0.5751014884979703;" x1="1311.2314" x2="1550.4736" y1="181.2199" y2="181.2199"/><path d="M1377.2722,185.1168 L1377.2722,187.8006 L1379.956,187.8006 L1379.956,185.1168 L1377.2722,185.1168 M1380.627,186.4587 L1380.627,188.4715 L1378.6141,188.4715 L1378.6141,189.1425 L1381.2979,189.1425 L1381.2979,186.4587 L1380.627,186.4587 M1381.9689,187.8006 L1381.9689,189.8134 L1379.956,189.8134 L1379.956,190.4844 L1382.6398,190.4844 L1382.6398,187.8006 L1381.9689,187.8006 " fill="#000000" style="stroke:;stroke-width:0.0;stroke-dasharray:;"/><text fill="#000000" font-family="sans-serif" font-size="8.0514" lengthAdjust="spacing" textLength="99.4926" x="1385.5153" y="190.7281">dosageInstruction:posology</text></g><!--MD5=[e9850282ea28e6ced5d80996c24c667b]
link dosageInstructionelement to timing--><g id="link_dosageInstructionelement_timing"><path d="M1122.5981,181.4445 C1145.9932,181.4445 1124.2026,265.8579 1136.4005,285.8254 C1146.7524,302.7737 1162.0328,317.1282 1178.2334,328.8718 " fill="none" id="dosageInstructionelement-to-timing" style="stroke:#181818;stroke-width:0.5751014884979703;"/><polygon fill="#181818" points="1180.6316,330.5913,1177.7504,325.7148,1178.2895,328.9231,1175.0812,329.4622,1180.6316,330.5913" style="stroke:#181818;stroke-width:0.5751014884979703;"/></g><!--MD5=[04b22aacc332194709768c9520c88ed4]
link ElementPrescription to effectiveDosePeriod--><g id="link_ElementPrescription_effectiveDosePeriod"><path d="M421.5494,205.5988 C493.6039,205.5988 417.1384,92.6373 477.6218,53.4844 C507.8779,33.9022 1094.3319,36.91 1126.3363,53.4844 C1168.5832,75.3613 1195.2334,127.2124 1207.7994,157.5893 " fill="none" id="ElementPrescription-to-effectiveDosePeriod" style="stroke:#181818;stroke-width:0.5751014884979703;"/><polygon fill="#181818" points="1208.8978,160.2808,1209.0754,154.6195,1207.8129,157.6178,1204.8146,156.3553,1208.8978,160.2808" style="stroke:#181818;stroke-width:0.5751014884979703;"/></g><!--MD5=[afb38fa546f353d4b1cd763878f3d92b]
link ElementPrescription to dosageInstructionelement--><g id="link_ElementPrescription_dosageInstructionelement"><path d="M421.5494,217.6759 C498.659,217.6759 412.8884,95.3863 477.6218,53.4844 C519.3569,26.4662 879.8133,32.8671 925.0507,53.4844 C961.2246,69.9726 990.1522,104.7662 1009.3549,133.8319 " fill="none" id="ElementPrescription-to-dosageInstructionelement" style="stroke:#181818;stroke-width:0.5751014884979703;"/><polygon fill="#181818" points="1010.9537,136.2703,1010.0409,130.6802,1009.3776,133.8652,1006.1927,133.2019,1010.9537,136.2703" style="stroke:#181818;stroke-width:0.5751014884979703;"/></g><!--MD5=[2532d8aa0f52e1718fc75108bdbb1699]
link ElementPrescription to oncofairmrelementgonogo--><g id="link_ElementPrescription_oncofairmrelementgonogo"><path d="M421.5494,265.9844 C519.2246,265.9844 395.6238,106.5663 477.6218,53.4844 C503.5301,36.7145 727.8024,39.659 755.3958,53.4844 C798.7585,75.2175 827.433,127.1204 841.1549,157.5433 " fill="none" id="ElementPrescription-to-oncofairmrelementgonogo" style="stroke:#181818;stroke-width:0.5751014884979703;"/><polygon fill="#181818" points="842.3569,160.2405,842.3536,154.5764,841.1875,157.6135,838.1504,156.4474,842.3569,160.2405" style="stroke:#181818;stroke-width:0.5751014884979703;"/></g><!--MD5=[f1dc14bf6de6c985f3177ac303457e7d]
link ElementPrescription to oncofairpharmacistadvice--><g id="link_ElementPrescription_oncofairpharmacistadvice"><path d="M421.5494,278.0616 C524.4235,278.0616 391.2588,109.3901 477.6218,53.4844 C541.3085,12.2554 614.3062,110.9601 644.1367,157.8366 " fill="none" id="ElementPrescription-to-oncofairpharmacistadvice" style="stroke:#181818;stroke-width:0.5751014884979703;"/><polygon fill="#181818" points="645.6952,160.3038,644.862,154.7013,644.1535,157.8765,640.9784,157.168,645.6952,160.3038" style="stroke:#181818;stroke-width:0.5751014884979703;"/></g><!--MD5=[7721caf7dee59d9fde7d3bf9eafaf2f3]
link dosageInstructionposology to timing--><g id="link_dosageInstructionposology_timing"><path d="M1579.2287,181.4445 C1555.8163,181.4445 1580.3386,268.2676 1564.8512,285.8254 C1540.2656,313.6949 1456.9046,335.0714 1382.9868,349.1154 " fill="none" id="dosageInstructionposology-to-timing" style="stroke:#181818;stroke-width:0.5751014884979703;"/><polygon fill="#181818" points="1380.1401,349.656,1385.6531,350.9554,1382.9656,349.1221,1384.7989,346.4345,1380.1401,349.656" style="stroke:#181818;stroke-width:0.5751014884979703;"/></g><!--MD5=[9a876b4d74c1820088a8a73fe2baa18e]
link dosageInstructionposology to doseAndRate--><g id="link_dosageInstructionposology_doseAndRate"><path d="M1637.889,199.8478 C1637.889,251.9405 1637.889,313.0795 1637.889,345.5785 " fill="none" id="dosageInstructionposology-to-doseAndRate" style="stroke:#181818;stroke-width:0.5751014884979703;"/><polygon fill="#181818" points="1637.889,348.6323,1640.1894,343.4564,1637.889,345.7568,1635.5886,343.4564,1637.889,348.6323" style="stroke:#181818;stroke-width:0.5751014884979703;"/></g><!--MD5=[0701a2468eddd4606dc3882ad8421eac]
link ElementPosologie to dosageInstructionposology--><g id="link_ElementPosologie_dosageInstructionposology"><path d="M1551.0487,187.1955 C1556.9665,188.7023 1563.1086,189.8237 1569.2622,190.6116 " fill="none" id="ElementPosologie-to-dosageInstructionposology" style="stroke:#181818;stroke-width:0.5751014884979703;"/><polygon fill="#181818" points="1575.157,191.2673,1570.2613,188.4186,1572.2985,190.9551,1569.7619,192.9922,1575.157,191.2673" style="stroke:#181818;stroke-width:0.5751014884979703;"/></g><!--MD5=[40e26162895cff531d4d61894adc0ae1]
reverse link OncoFAIRMedicationRequestPrescription to ElementPrescription--><g id="link_OncoFAIRMedicationRequestPrescription_ElementPrescription"><path codeLine="87" d="M296.7524,34.2588 C296.7524,44.8464 296.7524,59.6898 296.7524,75.8961 " fill="none" id="OncoFAIRMedicationRequestPrescription-backto-ElementPrescription" style="stroke:#181818;stroke-width:0.5751014884979703;"/><polygon fill="#181818" points="296.7524,31.113,294.452,36.2889,296.7524,33.9885,299.0528,36.2889,296.7524,31.113" style="stroke:#181818;stroke-width:0.5751014884979703;"/><text fill="#000000" font-family="sans-serif" font-size="7.4763" lengthAdjust="spacing" textLength="70.7375" x="297.3275" y="56.6447">basedOn:prescription</text></g><!--MD5=[70666bd75d4195fb7134c82affbab849]
link ElementPrescription to OncoFAIRMedicationRequestElement--><g id="link_ElementPrescription_OncoFAIRMedicationRequestElement"><path codeLine="88" d="M296.7524,285.9865 C296.7524,312.0558 296.7524,336.975 296.7524,352.5085 " fill="none" id="ElementPrescription-to-OncoFAIRMedicationRequestElement" style="stroke:#181818;stroke-width:0.5751014884979703;"/><polygon fill="#181818" points="296.7524,355.4875,299.0528,350.3116,296.7524,352.612,294.452,350.3116,296.7524,355.4875" style="stroke:#181818;stroke-width:0.5751014884979703;"/><text fill="#000000" font-family="sans-serif" font-size="7.4763" lengthAdjust="spacing" textLength="58.6604" x="297.3275" y="311.4146">basedOn:element</text></g><!--MD5=[bfbd50b7b29dd05e6f182e598701dffd]
reverse link OncoFAIRCarePlan to ElementPrescription--><g id="link_OncoFAIRCarePlan_ElementPrescription"><path codeLine="89" d="M91.1536,180.8694 C112.9039,180.8694 140.204,180.8694 167.7399,180.8694 " fill="none" id="OncoFAIRCarePlan-backto-ElementPrescription" style="stroke:#181818;stroke-width:0.5751014884979703;"/><polygon fill="#181818" points="88.2608,180.8694,93.4367,183.1698,91.1363,180.8694,93.4367,178.569,88.2608,180.8694" style="stroke:#181818;stroke-width:0.5751014884979703;"/><text fill="#000000" font-family="sans-serif" font-size="7.4763" lengthAdjust="spacing" textLength="58.6604" x="98.6299" y="177.1285">basedOn:protocol</text></g><!--MD5=[53e95d2ea236c97d9bcff87a042630dc]
link ElementPrescription to Practitioner--><g id="link_ElementPrescription_Practitioner"><path codeLine="90" d="M425.7016,180.8694 C443.7713,180.8694 460.9151,180.8694 474.8958,180.8694 " fill="none" id="ElementPrescription-to-Practitioner" style="stroke:#181818;stroke-width:0.5751014884979703;"/><polygon fill="#181818" points="477.8288,180.8694,472.6529,178.569,474.9533,180.8694,472.6529,183.1698,477.8288,180.8694" style="stroke:#181818;stroke-width:0.5751014884979703;"/><text fill="#000000" font-family="sans-serif" font-size="7.4763" lengthAdjust="spacing" textLength="31.0555" x="436.2145" y="177.1285">requester</text></g><!--MD5=[550f9090bf1da0f86b2f56fa8e80c943]
@startuml

scale 1700 width

map "timing" as timing #back:WhiteSmoke;header:LightGray {
    dateHeureDebutPrescrite => repeat.bounds[x]:boundsPeriod.start
    dateHeureFinPrescrite => repeat.bounds[x]:boundsPeriod.end
    deltaDateHeureReference => repeat.offset
    duree => repeat.duration
    frequence => repeat.frequency

}

map "effectiveDosePeriod" as effectiveDosePeriod #back:WhiteSmoke;header:LightGray {
    dateHeureDebutPrescription => start
    dateHeureFinPrescription => end
}

map "<&layers> dosageInstruction:element" as dosageInstructionelement #back:WhiteSmoke;header:LightGray {
    posologie => text
    conditionsApplication => additionalInstruction
    timing *- -> timing
    lieuAdministration => site
    voieAdministration => route
    typeElementPrescription => method
}

object "**OncoFAIRMedicationRequestPrescription**" as OncoFAIRMedicationRequestPrescription #LightSkyBlue {
    Prescription
}

object "**OncoFAIRMedicationRequestElement**" as OncoFAIRMedicationRequestElement #LightSkyBlue {
    ElementLie
}

object "**OncoFAIRCarePlan**" as OncoFAIRCarePlan #Gold {
    ProtocolePrescrit
}

object "**Practitioner**" as Practitioner {
    idpPrescripteur
}

map "<&plus> oncofair-mr-element-go-nogo" as oncofairmrelementgonogo #back:WhiteSmoke;header:LightGray {
    GoNogo => GoNogoStatus
    motifAttente => GoNogoReasonWaiting
}

map "<&plus> oncofair-pharmacist-advice" as oncofairpharmacistadvice #back:WhiteSmoke;header:LightGray {
    validationPharmaceutique => pharmacistValidation
    propositionPharmaceutique => pharmacistProposal
}

map "**ElementPrescription : OncoFAIRMedicationRequestElement**" as ElementPrescription #back:AliceBlue;header:LightSkyBlue {
    idElementPrescription => identifier
    idGroupe => groupIdentifier
    CreationArretModificationValidation => status
    urgent => priority
    dispostifsAssocies => device
    libelleElementPrescription => <&layers> note:wording
    indication => <&layers> note:indication
    commentaires => <&layers> note:comments
    propostionPharmaceutique => substitution
    effectiveDosePeriod *-> effectiveDosePeriod
    <&layers> dosageInstruction:element *-> dosageInstructionelement
    forme => <&plus> oncofair-element-form
    fourniture => <&plus> oncofair-mr-element-supply
    rangElementPrescription => <&plus> oncofair-mr-element-rank
    oncofair-mr-element-go-nogo *-> oncofairmrelementgonogo
    oncofair-pharmacist-advice *-> oncofairpharmacistadvice
}

map "doseAndRate" as doseAndRate #back:WhiteSmoke;header:LightGray {
    quantite => dose[x]:doseQuantity
    debit => rate[x]:rateQuantity
}

map "<&layers> dosageInstruction:posology" as dosageInstructionposology #back:WhiteSmoke;header:LightGray {
    timing *- -> timing
    doseAndRate *- -> doseAndRate
}

map "**ElementPosologie : OncoFAIRMedicationRequestElement**" as ElementPosologie #back:AliceBlue;header:LightSkyBlue {
    <&layers> dosageInstruction:posology *-> dosageInstructionposology

}

ElementPrescription -u-> OncoFAIRMedicationRequestPrescription : basedOn:prescription
ElementPrescription -d-> OncoFAIRMedicationRequestElement : basedOn:element
ElementPrescription -l-> OncoFAIRCarePlan : basedOn:protocol
ElementPrescription -r-> Practitioner : requester

@enduml

PlantUML version 1.2022.7(Mon Aug 22 19:01:30 CEST 2022)
(GPL source distribution)
Java Runtime: Java(TM) SE Runtime Environment
JVM: Java HotSpot(TM) 64-Bit Server VM
Default Encoding: UTF-8
Language: fr
Country: FR
--></g></svg>