<?xml version="1.0" encoding="us-ascii" standalone="no"?><svg xmlns="http://www.w3.org/2000/svg" xmlns:xlink="http://www.w3.org/1999/xlink" contentStyleType="text/css" height="443.7299px" preserveAspectRatio="none" style="width:1000px;height:443px;background:#FFFFFF;" version="1.1" viewBox="0 0 1000 443" width="1000.4593px" zoomAndPan="magnify"><defs/><g><g id="elem_doseAndRate"><rect fill="#F5F5F5" height="41.5638" style="stroke:#181818;stroke-width:0.45934772622875525;" width="297.6573" x="696.8305" y="394.1203"/><rect fill="#D3D3D3" height="20.7819" style="stroke:#181818;stroke-width:0.45934772622875525;" width="297.6573" x="696.8305" y="394.1203"/><text fill="#000000" font-family="sans-serif" font-size="12.8617" lengthAdjust="spacing" textLength="79.0078" x="806.1553" y="409.8369">doseAndRate</text><line style="stroke:#181818;stroke-width:0.9186954524575105;" x1="696.8305" x2="994.4878" y1="414.9022" y2="414.9022"/><text fill="#000000" font-family="sans-serif" font-size="12.8617" lengthAdjust="spacing" textLength="157.0969" x="701.424" y="430.6188">quantiteComposantPrescrit</text><text fill="#000000" font-family="sans-serif" font-size="12.8617" lengthAdjust="spacing" textLength="122.1865" x="867.7079" y="430.6188">dose[x]:doseQuantity</text><line style="stroke:#181818;stroke-width:0.9186954524575105;" x1="863.1144" x2="863.1144" y1="414.9022" y2="435.6841"/></g><g id="elem_dosageInstruction"><rect fill="#F5F5F5" height="41.5638" style="stroke:#181818;stroke-width:0.45934772622875525;" width="115.7556" x="787.7814" y="200.2756"/><rect fill="#D3D3D3" height="20.7819" style="stroke:#181818;stroke-width:0.45934772622875525;" width="115.7556" x="787.7814" y="200.2756"/><text fill="#000000" font-family="sans-serif" font-size="12.8617" lengthAdjust="spacing" textLength="102.8939" x="794.2122" y="215.9921">dosageInstruction</text><line style="stroke:#181818;stroke-width:0.9186954524575105;" x1="787.7814" x2="903.537" y1="221.0575" y2="221.0575"/><text fill="#000000" font-family="sans-serif" font-size="12.8617" lengthAdjust="spacing" textLength="79.0078" x="806.1553" y="236.774">doseAndRate</text></g><g id="elem_substitution"><rect fill="#F5F5F5" height="41.5638" style="stroke:#181818;stroke-width:0.45934772622875525;" width="276.8336" x="463.9412" y="200.2756"/><rect fill="#D3D3D3" height="20.7819" style="stroke:#181818;stroke-width:0.45934772622875525;" width="276.8336" x="463.9412" y="200.2756"/><text fill="#000000" font-family="sans-serif" font-size="12.8617" lengthAdjust="spacing" textLength="66.1461" x="569.2849" y="215.9921">substitution</text><line style="stroke:#181818;stroke-width:0.9186954524575105;" x1="463.9412" x2="740.7748" y1="221.0575" y2="221.0575"/><text fill="#000000" font-family="sans-serif" font-size="12.8617" lengthAdjust="spacing" textLength="93.7069" x="468.5347" y="236.774">nonSubstituable</text><path d="M572.3473,228.2121 L572.3473,232.4993 L576.6345,232.4993 L576.6345,228.2121 L572.3473,228.2121 M577.7063,230.3557 L577.7063,233.5711 L574.4909,233.5711 L574.4909,234.643 L578.7781,234.643 L578.7781,230.3557 L577.7063,230.3557 M579.8499,232.4993 L579.8499,235.7148 L576.6345,235.7148 L576.6345,236.7866 L580.9218,236.7866 L580.9218,232.4993 L579.8499,232.4993 " fill="#000000" style="stroke:;stroke-width:0.0;stroke-dasharray:;"/><text fill="#000000" font-family="sans-serif" font-size="12.8617" lengthAdjust="spacing" textLength="150.6661" x="585.5152" y="236.774">allowed[x]:allowedBoolean</text><line style="stroke:#181818;stroke-width:0.9186954524575105;" x1="566.8351" x2="566.8351" y1="221.0575" y2="241.8394"/></g><g id="elem_OncoFAIRMedicationRequestElement"><rect fill="#87CEFA" height="45.2386" style="stroke:#181818;stroke-width:0.45934772622875525;" width="254.4786" x="84.52" y="6.4309"/><text fill="#000000" font-family="sans-serif" font-size="12.8617" font-weight="bold" lengthAdjust="spacing" textLength="241.6169" x="90.9508" y="22.1474">OncoFAIRMedicationRequestElement</text><line style="stroke:#181818;stroke-width:0.45934772622875525;" x1="85.4387" x2="338.0799" y1="27.2128" y2="27.2128"/><text fill="#000000" font-family="sans-serif" font-size="12.8617" lengthAdjust="spacing" textLength="115.7556" x="90.0322" y="44.7667">ElementPrescription</text></g><g id="elem_OncoFAIRMedication"><rect fill="#32CD32" height="45.2386" style="stroke:#181818;stroke-width:0.45934772622875525;" width="147.91" x="137.8043" y="392.283"/><text fill="#000000" font-family="sans-serif" font-size="12.8617" font-weight="bold" lengthAdjust="spacing" textLength="135.0482" x="144.2352" y="407.9995">OncoFAIRMedication</text><line style="stroke:#181818;stroke-width:0.45934772622875525;" x1="138.723" x2="284.7956" y1="413.0649" y2="413.0649"/><text fill="#000000" font-family="sans-serif" font-size="12.8617" lengthAdjust="spacing" textLength="66.1461" x="143.3165" y="430.6188">Composant</text></g><g id="elem_ComposantPrescrit"><rect fill="#F0F8FF" height="187.0371" style="stroke:#181818;stroke-width:0.45934772622875525;" width="410.6569" x="6.4309" y="127.6987"/><rect fill="#87CEFA" height="20.7819" style="stroke:#181818;stroke-width:0.45934772622875525;" width="410.6569" x="6.4309" y="127.6987"/><text fill="#000000" font-family="sans-serif" font-size="12.8617" font-weight="bold" lengthAdjust="spacing" textLength="397.7951" x="12.8617" y="143.4152">ComposantPrescrit : OncoFAIRMedicationRequestComponent</text><line style="stroke:#181818;stroke-width:0.9186954524575105;" x1="6.4309" x2="417.0877" y1="148.4806" y2="148.4806"/><text fill="#000000" font-family="sans-serif" font-size="12.8617" lengthAdjust="spacing" textLength="99.2191" x="12.8617" y="164.1971">libelleComposant</text><path d="M124.0239,155.6351 L124.0239,159.9224 L128.3111,159.9224 L128.3111,155.6351 L124.0239,155.6351 M129.3829,157.7788 L129.3829,160.9942 L126.1675,160.9942 L126.1675,162.066 L130.4548,162.066 L130.4548,157.7788 L129.3829,157.7788 M131.5266,159.9224 L131.5266,163.1378 L128.3111,163.1378 L128.3111,164.2096 L132.5984,164.2096 L132.5984,159.9224 L131.5266,159.9224 " fill="#000000" style="stroke:;stroke-width:0.0;stroke-dasharray:;"/><text fill="#000000" font-family="sans-serif" font-size="12.8617" lengthAdjust="spacing" textLength="74.4143" x="137.1919" y="164.1971">note:wording</text><line style="stroke:#181818;stroke-width:0.9186954524575105;" x1="118.5117" x2="118.5117" y1="148.4806" y2="169.2625"/><line style="stroke:#181818;stroke-width:0.9186954524575105;" x1="6.4309" x2="417.0877" y1="169.2625" y2="169.2625"/><text fill="#000000" font-family="sans-serif" font-size="12.8617" lengthAdjust="spacing" textLength="80.8452" x="22.0487" y="184.979">commentaires</text><path d="M124.0239,176.417 L124.0239,180.7043 L128.3111,180.7043 L128.3111,176.417 L124.0239,176.417 M129.3829,178.5607 L129.3829,181.7761 L126.1675,181.7761 L126.1675,182.8479 L130.4548,182.8479 L130.4548,178.5607 L129.3829,178.5607 M131.5266,180.7043 L131.5266,183.9197 L128.3111,183.9197 L128.3111,184.9915 L132.5984,184.9915 L132.5984,180.7043 L131.5266,180.7043 " fill="#000000" style="stroke:;stroke-width:0.0;stroke-dasharray:;"/><text fill="#000000" font-family="sans-serif" font-size="12.8617" lengthAdjust="spacing" textLength="88.1948" x="137.1919" y="184.979">note:comments</text><line style="stroke:#181818;stroke-width:0.9186954524575105;" x1="118.5117" x2="118.5117" y1="169.2625" y2="190.0444"/><line style="stroke:#181818;stroke-width:0.9186954524575105;" x1="6.4309" x2="417.0877" y1="190.0444" y2="190.0444"/><text fill="#000000" font-family="sans-serif" font-size="12.8617" lengthAdjust="spacing" textLength="55.1217" x="34.9104" y="205.7609">indication</text><path d="M124.0239,197.1989 L124.0239,201.4862 L128.3111,201.4862 L128.3111,197.1989 L124.0239,197.1989 M129.3829,199.3426 L129.3829,202.558 L126.1675,202.558 L126.1675,203.6298 L130.4548,203.6298 L130.4548,199.3426 L129.3829,199.3426 M131.5266,201.4862 L131.5266,204.7016 L128.3111,204.7016 L128.3111,205.7734 L132.5984,205.7734 L132.5984,201.4862 L131.5266,201.4862 " fill="#000000" style="stroke:;stroke-width:0.0;stroke-dasharray:;"/><text fill="#000000" font-family="sans-serif" font-size="12.8617" lengthAdjust="spacing" textLength="84.52" x="137.1919" y="205.7609">note:indication</text><line style="stroke:#181818;stroke-width:0.9186954524575105;" x1="118.5117" x2="118.5117" y1="190.0444" y2="210.8263"/><line style="stroke:#181818;stroke-width:0.9186954524575105;" x1="6.4309" x2="417.0877" y1="210.8263" y2="210.8263"/><text fill="#000000" font-family="sans-serif" font-size="12.8617" lengthAdjust="spacing" textLength="102.8939" x="160.3124" y="226.5428">dosageInstruction</text><line style="stroke:#181818;stroke-width:0.9186954524575105;" x1="6.4309" x2="417.0877" y1="231.6081" y2="231.6081"/><text fill="#000000" font-family="sans-serif" font-size="12.8617" lengthAdjust="spacing" textLength="66.1461" x="178.6863" y="247.3247">substitution</text><line style="stroke:#181818;stroke-width:0.9186954524575105;" x1="6.4309" x2="417.0877" y1="252.39" y2="252.39"/><text fill="#000000" font-family="sans-serif" font-size="12.8617" lengthAdjust="spacing" textLength="90.9508" x="16.9959" y="268.1066">ALDExonerante</text><path d="M127.2393,259.5446 L127.2393,262.7601 L124.0239,262.7601 L124.0239,264.9037 L127.2393,264.9037 L127.2393,268.1191 L129.3829,268.1191 L129.3829,264.9037 L132.5984,264.9037 L132.5984,262.7601 L129.3829,262.7601 L129.3829,259.5446 L127.2393,259.5446 " fill="#000000" style="stroke:;stroke-width:0.0;stroke-dasharray:;"/><text fill="#000000" font-family="sans-serif" font-size="12.8617" lengthAdjust="spacing" textLength="129.5361" x="137.1919" y="268.1066">oncofair-mr-exempt-ltc</text><line style="stroke:#181818;stroke-width:0.9186954524575105;" x1="118.5117" x2="118.5117" y1="252.39" y2="273.1719"/><line style="stroke:#181818;stroke-width:0.9186954524575105;" x1="6.4309" x2="417.0877" y1="273.1719" y2="273.1719"/><text fill="#000000" font-family="sans-serif" font-size="12.8617" lengthAdjust="spacing" textLength="67.0648" x="28.9389" y="288.8885">estVehicule</text><path d="M127.2393,280.3265 L127.2393,283.542 L124.0239,283.542 L124.0239,285.6856 L127.2393,285.6856 L127.2393,288.901 L129.3829,288.901 L129.3829,285.6856 L132.5984,285.6856 L132.5984,283.542 L129.3829,283.542 L129.3829,280.3265 L127.2393,280.3265 " fill="#000000" style="stroke:;stroke-width:0.0;stroke-dasharray:;"/><text fill="#000000" font-family="sans-serif" font-size="12.8617" lengthAdjust="spacing" textLength="174.5521" x="137.1919" y="288.8885">oncofair-mr-component-solute</text><line style="stroke:#181818;stroke-width:0.9186954524575105;" x1="118.5117" x2="118.5117" y1="273.1719" y2="293.9538"/><line style="stroke:#181818;stroke-width:0.9186954524575105;" x1="6.4309" x2="417.0877" y1="293.9538" y2="293.9538"/><text fill="#000000" font-family="sans-serif" font-size="12.8617" lengthAdjust="spacing" textLength="97.3817" x="13.7804" y="309.6703">estReferentPoso</text><path d="M127.2393,301.1084 L127.2393,304.3238 L124.0239,304.3238 L124.0239,306.4675 L127.2393,306.4675 L127.2393,309.6829 L129.3829,309.6829 L129.3829,306.4675 L132.5984,306.4675 L132.5984,304.3238 L129.3829,304.3238 L129.3829,301.1084 L127.2393,301.1084 " fill="#000000" style="stroke:;stroke-width:0.0;stroke-dasharray:;"/><text fill="#000000" font-family="sans-serif" font-size="12.8617" lengthAdjust="spacing" textLength="178.2269" x="137.1919" y="309.6703">oncofair-mr-is-dosage-referent</text><line style="stroke:#181818;stroke-width:0.9186954524575105;" x1="118.5117" x2="118.5117" y1="293.9538" y2="314.7357"/></g><!--link dosageInstruction to doseAndRate--><g id="link_dosageInstruction_doseAndRate"><path d="M904.4557,231.0519 C970.6385,231.0519 902.0562,336.4929 866.466,385.8728 " fill="none" id="dosageInstruction-to-doseAndRate" style="stroke:#181818;stroke-width:0.9186954524575105;"/><polygon fill="#181818" points="863.243,390.3445,871.0586,385.7856,865.9288,386.6181,865.0963,381.4882,863.243,390.3445" style="stroke:#181818;stroke-width:0.9186954524575105;"/></g><!--link ComposantPrescrit to dosageInstruction--><g id="link_ComposantPrescrit_dosageInstruction"><path d="M418.4658,220.9463 C440.5512,220.9463 433.5599,144.9885 440.5145,124.0239 C446.0726,107.2853 441.8098,97.3542 456.5916,87.7354 C510.8314,52.4391 690.0781,58.5025 747.8181,87.7354 C792.7515,110.4823 819.8388,159.6028 833.8305,191.4173 " fill="none" id="ComposantPrescrit-to-dosageInstruction" style="stroke:#181818;stroke-width:0.9186954524575105;"/><polygon fill="#181818" points="836.0496,196.463,836.0848,187.415,834.2004,192.2582,829.3571,190.3738,836.0496,196.463" style="stroke:#181818;stroke-width:0.9186954524575105;"/></g><!--link ComposantPrescrit to substitution--><g id="link_ComposantPrescrit_substitution"><path d="M418.4658,242.0763 C453.2935,248.7276 486.121,249.2838 518.6428,245.8754 " fill="none" id="ComposantPrescrit-to-substitution" style="stroke:#181818;stroke-width:0.9186954524575105;"/><polygon fill="#181818" points="524.1249,245.3009,515.5187,242.5079,519.5565,245.7797,516.2847,249.8175,524.1249,245.3009" style="stroke:#181818;stroke-width:0.9186954524575105;"/></g><!--reverse link OncoFAIRMedicationRequestElement to ComposantPrescrit--><g id="link_OncoFAIRMedicationRequestElement_ComposantPrescrit"><path codeLine="33" d="M211.7593,57.1888 C211.7593,75.232 211.7593,96.7111 211.7593,123.8126 " fill="none" id="OncoFAIRMedicationRequestElement-backto-ComposantPrescrit" style="stroke:#181818;stroke-width:0.9186954524575105;"/><polygon fill="#181818" points="211.7593,51.6766,208.0845,59.9449,211.7593,56.2701,215.4341,59.9449,211.7593,51.6766" style="stroke:#181818;stroke-width:0.9186954524575105;"/><text fill="#000000" font-family="sans-serif" font-size="11.943" lengthAdjust="spacing" textLength="47.7722" x="212.678" y="92.8143">basedOn</text></g><!--link ComposantPrescrit to OncoFAIRMedication--><g id="link_ComposantPrescrit_OncoFAIRMedication"><path codeLine="34" d="M211.7593,318.1534 C211.7593,345.8429 211.7593,368.0018 211.7593,386.4125 " fill="none" id="ComposantPrescrit-to-OncoFAIRMedication" style="stroke:#181818;stroke-width:0.9186954524575105;"/><polygon fill="#181818" points="211.7593,391.9247,215.4341,383.6564,211.7593,387.3312,208.0845,383.6564,211.7593,391.9247" style="stroke:#181818;stroke-width:0.9186954524575105;"/><text fill="#000000" font-family="sans-serif" font-size="11.943" lengthAdjust="spacing" textLength="57.8778" x="212.678" y="359.2359">medication</text></g><!--SRC=[ZLDDZzCm4BtdLrXTYKCaI-KQe58NbjLAYnPQ2Gw8WsFFDgQs9-iFjHNYlsEdRfhGLjrS4e_Vc_Vc8uup1UJjT3eb6obyKsZMaeb01tCZ5ip3X3171cToKpE-hduqqiDIunhUDS04sEfHhXf_RzcE_2b8V5u2Cpw2Fg9kqSNlhnOSjzAJ3xCkuS_jhogzl-s1k-9lqQkp5JmOvstWNg8vU1X7N-rawBwaT3OCzA8kr2ww2BtUCF1gAODccNciZesDfRv_ezWEh9iHfXHkGAIwy-SjeW9caWciVmFtP5AMJuRZv_d3uWi8oLcINy1B0EVl56WmlYmxVzTWvAOpjrplRbM0x2_VvL6qYNLD_A9S4j1mRm5CpjwFkkzgMPwElxfilGEROusdvFqWvafoI6MDvZ0kLSaQb3gkttWM1ZrK6xH2cbK7vwXJPvYCIcUW-TfrM6dw7fmYZvU7vVjlRSlz1ewZ7NQqSWas37I8-UEdkstia8q5vUrgLOZI65lw7CrJRIbiGRUUAiyxJkphTsWa3-eYWn_wJXsg4F-Ap5l0CzYqB-Zm4bSwkg-6senEqp-T70sneAjBMv6QEH1Fvbm6SJP3vEZ-KFm3]--></g></svg>