<?xml version="1.0" encoding="us-ascii" standalone="no"?><svg xmlns="http://www.w3.org/2000/svg" xmlns:xlink="http://www.w3.org/1999/xlink" contentStyleType="text/css" height="474.6028px" preserveAspectRatio="none" style="width:1500px;height:474px;background:#FFFFFF;" version="1.1" viewBox="0 0 1500 474" width="1500.3356px" zoomAndPan="magnify"><defs/><g><g id="elem_timing"><rect fill="#F5F5F5" height="60.7414" style="stroke:#181818;stroke-width:0.33564555829044523;" width="278.5858" x="1070.3737" y="409.4876"/><rect fill="#D3D3D3" height="15.1853" style="stroke:#181818;stroke-width:0.33564555829044523;" width="278.5858" x="1070.3737" y="409.4876"/><text fill="#000000" font-family="sans-serif" font-size="9.3981" lengthAdjust="spacing" textLength="24.8378" x="1197.2477" y="420.9716">timing</text><line style="stroke:#181818;stroke-width:0.6712911165808905;" x1="1070.3737" x2="1348.9595" y1="424.6729" y2="424.6729"/><text fill="#000000" font-family="sans-serif" font-size="9.3981" lengthAdjust="spacing" textLength="107.4066" x="1075.4084" y="436.157">dateHeureDebutPrescrite</text><text fill="#000000" font-family="sans-serif" font-size="9.3981" lengthAdjust="spacing" textLength="154.397" x="1191.2061" y="436.157">repeat.bounds[x]:boundsPeriod.start</text><line style="stroke:#181818;stroke-width:0.6712911165808905;" x1="1187.8496" x2="1187.8496" y1="424.6729" y2="439.8583"/><line style="stroke:#181818;stroke-width:0.6712911165808905;" x1="1070.3737" x2="1348.9595" y1="439.8583" y2="439.8583"/><text fill="#000000" font-family="sans-serif" font-size="9.3981" lengthAdjust="spacing" textLength="95.3233" x="1081.45" y="451.3423">dateHeureFinPrescrite</text><text fill="#000000" font-family="sans-serif" font-size="9.3981" lengthAdjust="spacing" textLength="151.7118" x="1191.2061" y="451.3423">repeat.bounds[x]:boundsPeriod.end</text><line style="stroke:#181818;stroke-width:0.6712911165808905;" x1="1187.8496" x2="1187.8496" y1="439.8583" y2="455.0436"/><line style="stroke:#181818;stroke-width:0.6712911165808905;" x1="1070.3737" x2="1348.9595" y1="455.0436" y2="455.0436"/><text fill="#000000" font-family="sans-serif" font-size="9.3981" lengthAdjust="spacing" textLength="110.763" x="1073.7301" y="466.5277">deltaDateHeureReference</text><text fill="#000000" font-family="sans-serif" font-size="9.3981" lengthAdjust="spacing" textLength="53.7033" x="1191.2061" y="466.5277">repeat.offset</text><line style="stroke:#181818;stroke-width:0.6712911165808905;" x1="1187.8496" x2="1187.8496" y1="455.0436" y2="470.2289"/></g><g id="elem_effectiveDosePeriod"><rect fill="#F5F5F5" height="45.556" style="stroke:#181818;stroke-width:0.33564555829044523;" width="152.3831" x="1343.5892" y="199.7091"/><rect fill="#D3D3D3" height="15.1853" style="stroke:#181818;stroke-width:0.33564555829044523;" width="152.3831" x="1343.5892" y="199.7091"/><text fill="#000000" font-family="sans-serif" font-size="9.3981" lengthAdjust="spacing" textLength="85.254" x="1377.1537" y="211.1932">effectiveDosePeriod</text><line style="stroke:#181818;stroke-width:0.6712911165808905;" x1="1343.5892" x2="1495.9723" y1="214.8944" y2="214.8944"/><text fill="#000000" font-family="sans-serif" font-size="9.3981" lengthAdjust="spacing" textLength="120.1611" x="1346.9456" y="226.3785">dateHeureDebutPrescription</text><text fill="#000000" font-family="sans-serif" font-size="9.3981" lengthAdjust="spacing" textLength="18.7962" x="1473.8196" y="226.3785">start</text><line style="stroke:#181818;stroke-width:0.6712911165808905;" x1="1470.4632" x2="1470.4632" y1="214.8944" y2="230.0798"/><line style="stroke:#181818;stroke-width:0.6712911165808905;" x1="1343.5892" x2="1495.9723" y1="230.0798" y2="230.0798"/><text fill="#000000" font-family="sans-serif" font-size="9.3981" lengthAdjust="spacing" textLength="108.0779" x="1352.9872" y="241.5638">dateHeureFinPrescription</text><text fill="#000000" font-family="sans-serif" font-size="9.3981" lengthAdjust="spacing" textLength="16.111" x="1473.8196" y="241.5638">end</text><line style="stroke:#181818;stroke-width:0.6712911165808905;" x1="1470.4632" x2="1470.4632" y1="230.0798" y2="245.2651"/></g><g id="elem_dosageInstructionelement"><rect fill="#F5F5F5" height="106.2974" style="stroke:#181818;stroke-width:0.33564555829044523;" width="200.716" x="1108.6373" y="169.1654"/><rect fill="#D3D3D3" height="15.1853" style="stroke:#181818;stroke-width:0.33564555829044523;" width="200.716" x="1108.6373" y="169.1654"/><path d="M1148.8029,174.3932 L1148.8029,177.5259 L1151.9356,177.5259 L1151.9356,174.3932 L1148.8029,174.3932 M1152.7187,175.9596 L1152.7187,178.3091 L1150.3692,178.3091 L1150.3692,179.0923 L1153.5019,179.0923 L1153.5019,175.9596 L1152.7187,175.9596 M1154.2851,177.5259 L1154.2851,179.8754 L1151.9356,179.8754 L1151.9356,180.6586 L1155.0682,180.6586 L1155.0682,177.5259 L1154.2851,177.5259 " fill="#000000" style="stroke:;stroke-width:0.0;stroke-dasharray:;"/><text fill="#000000" font-family="sans-serif" font-size="9.3981" lengthAdjust="spacing" textLength="111.4343" x="1158.4247" y="180.6494">dosageInstruction:element</text><line style="stroke:#181818;stroke-width:0.6712911165808905;" x1="1108.6373" x2="1309.3533" y1="184.3507" y2="184.3507"/><text fill="#000000" font-family="sans-serif" font-size="9.3981" lengthAdjust="spacing" textLength="40.9488" x="1142.8731" y="195.8348">posologie</text><text fill="#000000" font-family="sans-serif" font-size="9.3981" lengthAdjust="spacing" textLength="14.7684" x="1221.4142" y="195.8348">text</text><line style="stroke:#181818;stroke-width:0.6712911165808905;" x1="1218.0577" x2="1218.0577" y1="184.3507" y2="199.536"/><line style="stroke:#181818;stroke-width:0.6712911165808905;" x1="1108.6373" x2="1309.3533" y1="199.536" y2="199.536"/><text fill="#000000" font-family="sans-serif" font-size="9.3981" lengthAdjust="spacing" textLength="89.2817" x="1118.7066" y="211.0201">conditionsApplication</text><text fill="#000000" font-family="sans-serif" font-size="9.3981" lengthAdjust="spacing" textLength="84.5827" x="1221.4142" y="211.0201">additionalInstruction</text><line style="stroke:#181818;stroke-width:0.6712911165808905;" x1="1218.0577" x2="1218.0577" y1="199.536" y2="214.7214"/><line style="stroke:#181818;stroke-width:0.6712911165808905;" x1="1108.6373" x2="1309.3533" y1="214.7214" y2="214.7214"/><text fill="#000000" font-family="sans-serif" font-size="9.3981" lengthAdjust="spacing" textLength="24.8378" x="1196.5764" y="226.2054">timing</text><line style="stroke:#181818;stroke-width:0.6712911165808905;" x1="1108.6373" x2="1309.3533" y1="229.9067" y2="229.9067"/><text fill="#000000" font-family="sans-serif" font-size="9.3981" lengthAdjust="spacing" textLength="74.5133" x="1126.0908" y="241.3908">lieuAdministration</text><text fill="#000000" font-family="sans-serif" font-size="9.3981" lengthAdjust="spacing" textLength="14.7684" x="1221.4142" y="241.3908">site</text><line style="stroke:#181818;stroke-width:0.6712911165808905;" x1="1218.0577" x2="1218.0577" y1="229.9067" y2="245.0921"/><line style="stroke:#181818;stroke-width:0.6712911165808905;" x1="1108.6373" x2="1309.3533" y1="245.0921" y2="245.0921"/><text fill="#000000" font-family="sans-serif" font-size="9.3981" lengthAdjust="spacing" textLength="77.1985" x="1124.7483" y="256.5761">voieAdministration</text><text fill="#000000" font-family="sans-serif" font-size="9.3981" lengthAdjust="spacing" textLength="22.1526" x="1221.4142" y="256.5761">route</text><line style="stroke:#181818;stroke-width:0.6712911165808905;" x1="1218.0577" x2="1218.0577" y1="245.0921" y2="260.2774"/><line style="stroke:#181818;stroke-width:0.6712911165808905;" x1="1108.6373" x2="1309.3533" y1="260.2774" y2="260.2774"/><text fill="#000000" font-family="sans-serif" font-size="9.3981" lengthAdjust="spacing" textLength="102.7075" x="1111.9937" y="271.7615">typeElementPrescription</text><text fill="#000000" font-family="sans-serif" font-size="9.3981" lengthAdjust="spacing" textLength="31.5507" x="1221.4142" y="271.7615">method</text><line style="stroke:#181818;stroke-width:0.6712911165808905;" x1="1218.0577" x2="1218.0577" y1="260.2774" y2="275.4627"/></g><g id="elem_OncoFAIRMedicationRequestPrescription"><rect fill="#87CEFA" height="33.0558" style="stroke:#181818;stroke-width:0.33564555829044523;" width="205.4151" x="243.6787" y="4.699"/><text fill="#000000" font-family="sans-serif" font-size="9.3981" font-weight="bold" lengthAdjust="spacing" textLength="196.017" x="248.3777" y="16.1831">OncoFAIRMedicationRequestPrescription</text><line style="stroke:#181818;stroke-width:0.33564555829044523;" x1="244.35" x2="448.4225" y1="19.8844" y2="19.8844"/><text fill="#000000" font-family="sans-serif" font-size="9.3981" lengthAdjust="spacing" textLength="50.3468" x="247.7064" y="32.711">Prescription</text></g><g id="elem_OncoFAIRMedicationRequestElement"><rect fill="#87CEFA" height="33.0558" style="stroke:#181818;stroke-width:0.33564555829044523;" width="185.9476" x="253.4124" y="423.249"/><text fill="#000000" font-family="sans-serif" font-size="9.3981" font-weight="bold" lengthAdjust="spacing" textLength="176.5496" x="258.1114" y="434.7331">OncoFAIRMedicationRequestElement</text><line style="stroke:#181818;stroke-width:0.33564555829044523;" x1="254.0837" x2="438.6887" y1="438.4344" y2="438.4344"/><text fill="#000000" font-family="sans-serif" font-size="9.3981" lengthAdjust="spacing" textLength="46.9904" x="257.4401" y="451.261">ElementLie</text></g><g id="elem_OncoFAIRCarePlan"><rect fill="#FFD700" height="33.0558" style="stroke:#181818;stroke-width:0.33564555829044523;" width="98.0085" x="4.699" y="205.7507"/><text fill="#000000" font-family="sans-serif" font-size="9.3981" font-weight="bold" lengthAdjust="spacing" textLength="88.6104" x="9.3981" y="217.2348">OncoFAIRCarePlan</text><line style="stroke:#181818;stroke-width:0.33564555829044523;" x1="5.3703" x2="102.0362" y1="220.9361" y2="220.9361"/><text fill="#000000" font-family="sans-serif" font-size="9.3981" lengthAdjust="spacing" textLength="72.4994" x="8.7268" y="233.7627">ProtocolePrescrit</text></g><g id="elem_Practitioner"><rect fill="#F1F1F1" height="33.0558" style="stroke:#181818;stroke-width:0.33564555829044523;" width="72.4994" x="557.8429" y="205.7507"/><text fill="#000000" font-family="sans-serif" font-size="9.3981" font-weight="bold" lengthAdjust="spacing" textLength="55.0459" x="566.5697" y="217.2348">Practitioner</text><line style="stroke:#181818;stroke-width:0.33564555829044523;" x1="558.5142" x2="629.6711" y1="220.9361" y2="220.9361"/><text fill="#000000" font-family="sans-serif" font-size="9.3981" lengthAdjust="spacing" textLength="64.4439" x="561.8707" y="233.7627">idpPrescripteur</text></g><g id="elem_oncofairmrelementgonogo"><rect fill="#F5F5F5" height="45.556" style="stroke:#181818;stroke-width:0.33564555829044523;" width="163.1237" x="911.2777" y="199.7091"/><rect fill="#D3D3D3" height="15.1853" style="stroke:#181818;stroke-width:0.33564555829044523;" width="163.1237" x="911.2777" y="199.7091"/><path d="M928.6194,204.937 L928.6194,207.2865 L926.2699,207.2865 L926.2699,208.8528 L928.6194,208.8528 L928.6194,211.2023 L930.1857,211.2023 L930.1857,208.8528 L932.5352,208.8528 L932.5352,207.2865 L930.1857,207.2865 L930.1857,204.937 L928.6194,204.937 " fill="#000000" style="stroke:;stroke-width:0.0;stroke-dasharray:;"/><text fill="#000000" font-family="sans-serif" font-size="9.3981" lengthAdjust="spacing" textLength="124.1889" x="935.8917" y="211.1932">oncofair-mr-element-go-nogo</text><line style="stroke:#181818;stroke-width:0.6712911165808905;" x1="911.2777" x2="1074.4014" y1="214.8944" y2="214.8944"/><text fill="#000000" font-family="sans-serif" font-size="9.3981" lengthAdjust="spacing" textLength="34.9071" x="922.354" y="226.3785">GoNogo</text><text fill="#000000" font-family="sans-serif" font-size="9.3981" lengthAdjust="spacing" textLength="61.7588" x="971.6939" y="226.3785">GoNogoStatus</text><line style="stroke:#181818;stroke-width:0.6712911165808905;" x1="968.3374" x2="968.3374" y1="214.8944" y2="230.0798"/><line style="stroke:#181818;stroke-width:0.6712911165808905;" x1="911.2777" x2="1074.4014" y1="230.0798" y2="230.0798"/><text fill="#000000" font-family="sans-serif" font-size="9.3981" lengthAdjust="spacing" textLength="50.3468" x="914.6341" y="241.5638">motifAttente</text><text fill="#000000" font-family="sans-serif" font-size="9.3981" lengthAdjust="spacing" textLength="99.3511" x="971.6939" y="241.5638">GoNogoReasonWaiting</text><line style="stroke:#181818;stroke-width:0.6712911165808905;" x1="968.3374" x2="968.3374" y1="230.0798" y2="245.2651"/></g><g id="elem_oncofairpharmacistadvice"><rect fill="#F5F5F5" height="45.556" style="stroke:#181818;stroke-width:0.33564555829044523;" width="217.4983" x="659.2079" y="199.7091"/><rect fill="#D3D3D3" height="15.1853" style="stroke:#181818;stroke-width:0.33564555829044523;" width="217.4983" x="659.2079" y="199.7091"/><path d="M708.4359,204.937 L708.4359,207.2865 L706.0864,207.2865 L706.0864,208.8528 L708.4359,208.8528 L708.4359,211.2023 L710.0022,211.2023 L710.0022,208.8528 L712.3518,208.8528 L712.3518,207.2865 L710.0022,207.2865 L710.0022,204.937 L708.4359,204.937 " fill="#000000" style="stroke:;stroke-width:0.0;stroke-dasharray:;"/><text fill="#000000" font-family="sans-serif" font-size="9.3981" lengthAdjust="spacing" textLength="114.7908" x="715.7082" y="211.1932">oncofair-pharmacist-advice</text><line style="stroke:#181818;stroke-width:0.6712911165808905;" x1="659.2079" x2="876.7062" y1="214.8944" y2="214.8944"/><text fill="#000000" font-family="sans-serif" font-size="9.3981" lengthAdjust="spacing" textLength="109.4205" x="665.9208" y="226.3785">validationPharmaceutique</text><text fill="#000000" font-family="sans-serif" font-size="9.3981" lengthAdjust="spacing" textLength="87.9391" x="785.4106" y="226.3785">pharmacistValidation</text><line style="stroke:#181818;stroke-width:0.6712911165808905;" x1="782.0542" x2="782.0542" y1="214.8944" y2="230.0798"/><line style="stroke:#181818;stroke-width:0.6712911165808905;" x1="659.2079" x2="876.7062" y1="230.0798" y2="230.0798"/><text fill="#000000" font-family="sans-serif" font-size="9.3981" lengthAdjust="spacing" textLength="116.1334" x="662.5643" y="241.5638">propositionPharmaceutique</text><text fill="#000000" font-family="sans-serif" font-size="9.3981" lengthAdjust="spacing" textLength="83.9114" x="785.4106" y="241.5638">pharmacistProposal</text><line style="stroke:#181818;stroke-width:0.6712911165808905;" x1="782.0542" x2="782.0542" y1="230.0798" y2="245.2651"/></g><g id="elem_ElementPrescription"><rect fill="#F0F8FF" height="258.1508" style="stroke:#181818;stroke-width:0.33564555829044523;" width="289.9978" x="201.3873" y="93.3095"/><rect fill="#87CEFA" height="15.1853" style="stroke:#181818;stroke-width:0.33564555829044523;" width="289.9978" x="201.3873" y="93.3095"/><text fill="#000000" font-family="sans-serif" font-size="9.3981" font-weight="bold" lengthAdjust="spacing" textLength="280.5997" x="206.0864" y="104.7935">ElementPrescription : OncoFAIRMedicationRequestElement</text><line style="stroke:#181818;stroke-width:0.6712911165808905;" x1="201.3873" x2="491.3851" y1="108.4948" y2="108.4948"/><text fill="#000000" font-family="sans-serif" font-size="9.3981" lengthAdjust="spacing" textLength="91.9669" x="233.2737" y="119.9789">idElementPrescription</text><text fill="#000000" font-family="sans-serif" font-size="9.3981" lengthAdjust="spacing" textLength="36.2497" x="360.4833" y="119.9789">identifier</text><line style="stroke:#181818;stroke-width:0.6712911165808905;" x1="357.1269" x2="357.1269" y1="108.4948" y2="123.6801"/><line style="stroke:#181818;stroke-width:0.6712911165808905;" x1="201.3873" x2="491.3851" y1="123.6801" y2="123.6801"/><text fill="#000000" font-family="sans-serif" font-size="9.3981" lengthAdjust="spacing" textLength="39.6062" x="259.454" y="135.1642">idGroupe</text><text fill="#000000" font-family="sans-serif" font-size="9.3981" lengthAdjust="spacing" textLength="61.0875" x="360.4833" y="135.1642">groupIdentifier</text><line style="stroke:#181818;stroke-width:0.6712911165808905;" x1="357.1269" x2="357.1269" y1="123.6801" y2="138.8655"/><line style="stroke:#181818;stroke-width:0.6712911165808905;" x1="201.3873" x2="491.3851" y1="138.8655" y2="138.8655"/><text fill="#000000" font-family="sans-serif" font-size="9.3981" lengthAdjust="spacing" textLength="149.0266" x="204.7438" y="150.3495">CreationArretModificationValidation</text><text fill="#000000" font-family="sans-serif" font-size="9.3981" lengthAdjust="spacing" textLength="25.5091" x="360.4833" y="150.3495">status</text><line style="stroke:#181818;stroke-width:0.6712911165808905;" x1="357.1269" x2="357.1269" y1="138.8655" y2="154.0508"/><line style="stroke:#181818;stroke-width:0.6712911165808905;" x1="201.3873" x2="491.3851" y1="154.0508" y2="154.0508"/><text fill="#000000" font-family="sans-serif" font-size="9.3981" lengthAdjust="spacing" textLength="27.5229" x="265.4956" y="165.5349">urgent</text><text fill="#000000" font-family="sans-serif" font-size="9.3981" lengthAdjust="spacing" textLength="28.8655" x="360.4833" y="165.5349">priority</text><line style="stroke:#181818;stroke-width:0.6712911165808905;" x1="357.1269" x2="357.1269" y1="154.0508" y2="169.2362"/><line style="stroke:#181818;stroke-width:0.6712911165808905;" x1="201.3873" x2="491.3851" y1="169.2362" y2="169.2362"/><text fill="#000000" font-family="sans-serif" font-size="9.3981" lengthAdjust="spacing" textLength="77.1985" x="240.6579" y="180.7202">dispostifsAssocies</text><text fill="#000000" font-family="sans-serif" font-size="9.3981" lengthAdjust="spacing" textLength="27.5229" x="360.4833" y="180.7202">device</text><line style="stroke:#181818;stroke-width:0.6712911165808905;" x1="357.1269" x2="357.1269" y1="169.2362" y2="184.4215"/><line style="stroke:#181818;stroke-width:0.6712911165808905;" x1="201.3873" x2="491.3851" y1="184.4215" y2="184.4215"/><text fill="#000000" font-family="sans-serif" font-size="9.3981" lengthAdjust="spacing" textLength="108.7492" x="224.8825" y="195.9056">libelleElementPrescription</text><path d="M361.1546,189.6494 L361.1546,192.782 L364.2873,192.782 L364.2873,189.6494 L361.1546,189.6494 M365.0705,191.2157 L365.0705,193.5652 L362.721,193.5652 L362.721,194.3484 L365.8537,194.3484 L365.8537,191.2157 L365.0705,191.2157 M366.6368,192.782 L366.6368,195.1316 L364.2873,195.1316 L364.2873,195.9147 L367.42,195.9147 L367.42,192.782 L366.6368,192.782 " fill="#000000" style="stroke:;stroke-width:0.0;stroke-dasharray:;"/><text fill="#000000" font-family="sans-serif" font-size="9.3981" lengthAdjust="spacing" textLength="54.3746" x="370.7765" y="195.9056">note:wording</text><line style="stroke:#181818;stroke-width:0.6712911165808905;" x1="357.1269" x2="357.1269" y1="184.4215" y2="199.6068"/><line style="stroke:#181818;stroke-width:0.6712911165808905;" x1="201.3873" x2="491.3851" y1="199.6068" y2="199.6068"/><text fill="#000000" font-family="sans-serif" font-size="9.3981" lengthAdjust="spacing" textLength="40.2775" x="259.1184" y="211.0909">indication</text><path d="M361.1546,204.8347 L361.1546,207.9674 L364.2873,207.9674 L364.2873,204.8347 L361.1546,204.8347 M365.0705,206.401 L365.0705,208.7506 L362.721,208.7506 L362.721,209.5337 L365.8537,209.5337 L365.8537,206.401 L365.0705,206.401 M366.6368,207.9674 L366.6368,210.3169 L364.2873,210.3169 L364.2873,211.1001 L367.42,211.1001 L367.42,207.9674 L366.6368,207.9674 " fill="#000000" style="stroke:;stroke-width:0.0;stroke-dasharray:;"/><text fill="#000000" font-family="sans-serif" font-size="9.3981" lengthAdjust="spacing" textLength="61.7588" x="370.7765" y="211.0909">note:indication</text><line style="stroke:#181818;stroke-width:0.6712911165808905;" x1="357.1269" x2="357.1269" y1="199.6068" y2="214.7922"/><line style="stroke:#181818;stroke-width:0.6712911165808905;" x1="201.3873" x2="491.3851" y1="214.7922" y2="214.7922"/><text fill="#000000" font-family="sans-serif" font-size="9.3981" lengthAdjust="spacing" textLength="59.0736" x="249.7203" y="226.2762">commentaires</text><path d="M361.1546,220.02 L361.1546,223.1527 L364.2873,223.1527 L364.2873,220.02 L361.1546,220.02 M365.0705,221.5864 L365.0705,223.9359 L362.721,223.9359 L362.721,224.7191 L365.8537,224.7191 L365.8537,221.5864 L365.0705,221.5864 M366.6368,223.1527 L366.6368,225.5022 L364.2873,225.5022 L364.2873,226.2854 L367.42,226.2854 L367.42,223.1527 L366.6368,223.1527 " fill="#000000" style="stroke:;stroke-width:0.0;stroke-dasharray:;"/><text fill="#000000" font-family="sans-serif" font-size="9.3981" lengthAdjust="spacing" textLength="64.4439" x="370.7765" y="226.2762">note:comments</text><line style="stroke:#181818;stroke-width:0.6712911165808905;" x1="357.1269" x2="357.1269" y1="214.7922" y2="229.9775"/><line style="stroke:#181818;stroke-width:0.6712911165808905;" x1="201.3873" x2="491.3851" y1="229.9775" y2="229.9775"/><text fill="#000000" font-family="sans-serif" font-size="9.3981" lengthAdjust="spacing" textLength="114.1195" x="222.1974" y="241.4616">propostionPharmaceutique</text><text fill="#000000" font-family="sans-serif" font-size="9.3981" lengthAdjust="spacing" textLength="48.333" x="360.4833" y="241.4616">substitution</text><line style="stroke:#181818;stroke-width:0.6712911165808905;" x1="357.1269" x2="357.1269" y1="229.9775" y2="245.1629"/><line style="stroke:#181818;stroke-width:0.6712911165808905;" x1="201.3873" x2="491.3851" y1="245.1629" y2="245.1629"/><text fill="#000000" font-family="sans-serif" font-size="9.3981" lengthAdjust="spacing" textLength="85.254" x="303.7592" y="256.6469">effectiveDosePeriod</text><line style="stroke:#181818;stroke-width:0.6712911165808905;" x1="201.3873" x2="491.3851" y1="260.3482" y2="260.3482"/><path d="M286.1938,265.5761 L286.1938,268.7087 L289.3265,268.7087 L289.3265,265.5761 L286.1938,265.5761 M290.1096,267.1424 L290.1096,269.4919 L287.7601,269.4919 L287.7601,270.2751 L290.8928,270.2751 L290.8928,267.1424 L290.1096,267.1424 M291.676,268.7087 L291.676,271.0583 L289.3265,271.0583 L289.3265,271.8414 L292.4592,271.8414 L292.4592,268.7087 L291.676,268.7087 " fill="#000000" style="stroke:;stroke-width:0.0;stroke-dasharray:;"/><text fill="#000000" font-family="sans-serif" font-size="9.3981" lengthAdjust="spacing" textLength="111.4343" x="295.8156" y="271.8323">dosageInstruction:element</text><line style="stroke:#181818;stroke-width:0.6712911165808905;" x1="201.3873" x2="491.3851" y1="275.5335" y2="275.5335"/><text fill="#000000" font-family="sans-serif" font-size="9.3981" lengthAdjust="spacing" textLength="24.1665" x="267.1739" y="287.0176">forme</text><path d="M363.5041,280.7614 L363.5041,283.1109 L361.1546,283.1109 L361.1546,284.6773 L363.5041,284.6773 L363.5041,287.0268 L365.0705,287.0268 L365.0705,284.6773 L367.42,284.6773 L367.42,283.1109 L365.0705,283.1109 L365.0705,280.7614 L363.5041,280.7614 " fill="#000000" style="stroke:;stroke-width:0.0;stroke-dasharray:;"/><text fill="#000000" font-family="sans-serif" font-size="9.3981" lengthAdjust="spacing" textLength="93.3095" x="370.7765" y="287.0176">oncofair-element-form</text><line style="stroke:#181818;stroke-width:0.6712911165808905;" x1="357.1269" x2="357.1269" y1="275.5335" y2="290.7189"/><line style="stroke:#181818;stroke-width:0.6712911165808905;" x1="201.3873" x2="491.3851" y1="290.7189" y2="290.7189"/><text fill="#000000" font-family="sans-serif" font-size="9.3981" lengthAdjust="spacing" textLength="40.9488" x="258.7827" y="302.2029">fourniture</text><path d="M363.5041,295.9467 L363.5041,298.2962 L361.1546,298.2962 L361.1546,299.8626 L363.5041,299.8626 L363.5041,302.2121 L365.0705,302.2121 L365.0705,299.8626 L367.42,299.8626 L367.42,298.2962 L365.0705,298.2962 L365.0705,295.9467 L363.5041,295.9467 " fill="#000000" style="stroke:;stroke-width:0.0;stroke-dasharray:;"/><text fill="#000000" font-family="sans-serif" font-size="9.3981" lengthAdjust="spacing" textLength="116.1334" x="370.7765" y="302.2029">oncofair-mr-element-supply</text><line style="stroke:#181818;stroke-width:0.6712911165808905;" x1="357.1269" x2="357.1269" y1="290.7189" y2="305.9042"/><line style="stroke:#181818;stroke-width:0.6712911165808905;" x1="201.3873" x2="491.3851" y1="305.9042" y2="305.9042"/><text fill="#000000" font-family="sans-serif" font-size="9.3981" lengthAdjust="spacing" textLength="104.0501" x="227.232" y="317.3883">rangElementPrescription</text><path d="M363.5041,311.1321 L363.5041,313.4816 L361.1546,313.4816 L361.1546,315.0479 L363.5041,315.0479 L363.5041,317.3975 L365.0705,317.3975 L365.0705,315.0479 L367.42,315.0479 L367.42,313.4816 L365.0705,313.4816 L365.0705,311.1321 L363.5041,311.1321 " fill="#000000" style="stroke:;stroke-width:0.0;stroke-dasharray:;"/><text fill="#000000" font-family="sans-serif" font-size="9.3981" lengthAdjust="spacing" textLength="107.4066" x="370.7765" y="317.3883">oncofair-mr-element-rank</text><line style="stroke:#181818;stroke-width:0.6712911165808905;" x1="357.1269" x2="357.1269" y1="305.9042" y2="321.0896"/><line style="stroke:#181818;stroke-width:0.6712911165808905;" x1="201.3873" x2="491.3851" y1="321.0896" y2="321.0896"/><text fill="#000000" font-family="sans-serif" font-size="9.3981" lengthAdjust="spacing" textLength="124.1889" x="284.2918" y="332.5736">oncofair-mr-element-go-nogo</text><line style="stroke:#181818;stroke-width:0.6712911165808905;" x1="201.3873" x2="491.3851" y1="336.2749" y2="336.2749"/><text fill="#000000" font-family="sans-serif" font-size="9.3981" lengthAdjust="spacing" textLength="114.7908" x="288.9908" y="347.759">oncofair-pharmacist-advice</text></g><!--link dosageInstructionelement to timing--><g id="link_dosageInstructionelement_timing"><path d="M1310.3603,221.5261 C1335.4263,221.5261 1316.704,253.8554 1309.689,277.9145 C1295.3569,327.0597 1264.0277,372.783 1239.68,403.5952 " fill="none" id="dosageInstructionelement-to-timing" style="stroke:#181818;stroke-width:0.6712911165808905;"/><polygon fill="#181818" points="1237.1828,406.7554,1243.0354,403.6799,1239.2638,404.1219,1238.8218,400.3503,1237.1828,406.7554" style="stroke:#181818;stroke-width:0.6712911165808905;"/></g><!--link ElementPrescription to effectiveDosePeriod--><g id="link_ElementPrescription_effectiveDosePeriod"><path d="M492.0564,252.4055 C580.6534,252.4055 483.249,112.4278 557.5073,64.1083 C592.7702,41.1636 1277.6482,44.2314 1314.7237,64.1083 C1367.4334,92.3697 1396.8358,156.2371 1410.2818,193.2185 " fill="none" id="ElementPrescription-to-effectiveDosePeriod" style="stroke:#181818;stroke-width:0.6712911165808905;"/><polygon fill="#181818" points="1411.6581,197.0038,1412.1172,190.4083,1410.5112,193.8494,1407.0701,192.2434,1411.6581,197.0038" style="stroke:#181818;stroke-width:0.6712911165808905;"/></g><!--link ElementPrescription to dosageInstructionelement--><g id="link_ElementPrescription_dosageInstructionelement"><path d="M492.0564,267.1739 C586.883,267.1739 478.0264,115.8246 557.5073,64.1083 C606.149,32.4569 1027.3372,39.2437 1079.7718,64.1083 C1124.2112,85.1801 1156.3589,126.3996 1178.3907,162.8977 " fill="none" id="ElementPrescription-to-dosageInstructionelement" style="stroke:#181818;stroke-width:0.6712911165808905;"/><polygon fill="#181818" points="1180.4721,166.3459,1179.6487,159.786,1178.7376,163.4724,1175.0511,162.5613,1180.4721,166.3459" style="stroke:#181818;stroke-width:0.6712911165808905;"/></g><!--link ElementPrescription to oncofairmrelementgonogo--><g id="link_ElementPrescription_oncofairmrelementgonogo"><path d="M492.0564,328.2614 C613.0096,328.2614 456.1289,130.0761 557.5073,64.1083 C587.7019,44.4596 849.774,47.5006 881.7409,64.1083 C935.7731,92.175 967.543,156.1673 982.3248,193.2158 " fill="none" id="ElementPrescription-to-oncofairmrelementgonogo" style="stroke:#181818;stroke-width:0.6712911165808905;"/><polygon fill="#181818" points="983.8174,196.9568,984.0725,190.3503,982.5736,193.8393,979.0845,192.3404,983.8174,196.9568" style="stroke:#181818;stroke-width:0.6712911165808905;"/></g><!--link ElementPrescription to oncofairpharmacistadvice--><g id="link_ElementPrescription_oncofairpharmacistadvice"><path d="M492.0564,343.0298 C619.3869,343.0298 450.7787,133.5534 557.5073,64.1083 C634.6856,13.889 718.7071,137.199 751.8554,193.4532 " fill="none" id="ElementPrescription-to-oncofairpharmacistadvice" style="stroke:#181818;stroke-width:0.6712911165808905;"/><polygon fill="#181818" points="753.9002,196.9232,753.1464,190.3549,752.1962,194.0315,748.5196,193.0813,753.9002,196.9232" style="stroke:#181818;stroke-width:0.6712911165808905;"/></g><!--reverse link OncoFAIRMedicationRequestPrescription to ElementPrescription--><g id="link_OncoFAIRMedicationRequestPrescription_ElementPrescription"><path codeLine="68" d="M346.3862,41.6805 C346.3862,54.3209 346.3862,69.3309 346.3862,90.4431 " fill="none" id="OncoFAIRMedicationRequestPrescription-backto-ElementPrescription" style="stroke:#181818;stroke-width:0.6712911165808905;"/><polygon fill="#181818" points="346.3862,37.6527,343.7011,43.6943,346.3862,41.0092,349.0714,43.6943,346.3862,37.6527" style="stroke:#181818;stroke-width:0.6712911165808905;"/><text fill="#000000" font-family="sans-serif" font-size="8.7268" lengthAdjust="spacing" textLength="82.5688" x="347.0575" y="67.8194">basedOn:prescription</text></g><!--link ElementPrescription to OncoFAIRMedicationRequestElement--><g id="link_ElementPrescription_OncoFAIRMedicationRequestElement"><path codeLine="69" d="M346.3862,353.9047 C346.3862,381.7431 346.3862,403.4258 346.3862,419.1407 " fill="none" id="ElementPrescription-to-OncoFAIRMedicationRequestElement" style="stroke:#181818;stroke-width:0.6712911165808905;"/><polygon fill="#181818" points="346.3862,423.1685,349.0714,417.1269,346.3862,419.812,343.7011,417.1269,346.3862,423.1685" style="stroke:#181818;stroke-width:0.6712911165808905;"/><text fill="#000000" font-family="sans-serif" font-size="8.7268" lengthAdjust="spacing" textLength="68.4717" x="347.0575" y="383.9975">basedOn:element</text></g><!--reverse link OncoFAIRCarePlan to ElementPrescription--><g id="link_OncoFAIRCarePlan_ElementPrescription"><path codeLine="70" d="M107.0508,222.1974 C132.9559,222.1974 162.2108,222.1974 195.7955,222.1974 " fill="none" id="OncoFAIRCarePlan-backto-ElementPrescription" style="stroke:#181818;stroke-width:0.6712911165808905;"/><polygon fill="#181818" points="103.023,222.1974,109.0647,224.8825,106.3795,222.1974,109.0647,219.5122,103.023,222.1974" style="stroke:#181818;stroke-width:0.6712911165808905;"/><text fill="#000000" font-family="sans-serif" font-size="8.7268" lengthAdjust="spacing" textLength="68.4717" x="115.1264" y="217.5173">basedOn:protocol</text></g><!--link ElementPrescription to Practitioner--><g id="link_ElementPrescription_Practitioner"><path codeLine="71" d="M496.9031,222.1974 C519.4921,222.1974 536.8181,222.1974 553.7212,222.1974 " fill="none" id="ElementPrescription-to-Practitioner" style="stroke:#181818;stroke-width:0.6712911165808905;"/><polygon fill="#181818" points="557.7489,222.1974,551.7073,219.5122,554.3925,222.1974,551.7073,224.8825,557.7489,222.1974" style="stroke:#181818;stroke-width:0.6712911165808905;"/><text fill="#000000" font-family="sans-serif" font-size="8.7268" lengthAdjust="spacing" textLength="36.2497" x="509.1743" y="217.5173">requester</text></g><!--SRC=[fLPBRzD04BxdLrYjn25IgdBWOg1Iw2DKQcdKIlI0E6oyOsV9UiVi8oL2_7V6ksl7JfqsY9msEpFVVlEsoPY4vEsxqzFaIN2x79MiIewiA8KgZX9cad1CZXSiMwMFIs7XeSGLl5y2uw3J6r4ixKopJV9xbD2FCmkVmMcuW8MpSmqcqsIJV3nBD5J0xCa2dUBcsw_lQJZDGGla9yOoRViGLqBz0m0e7in1MdRHODn33XfKrWN0F3TWHtz6mLd8SyYiMCC56WXWtlE1-_yBGsK5gfh7YxwsMhL33SSFRoJRW3Pd2KV32hXMncgNrQefI2X1MS_vcJGA3oPUeK69XV3nil0hqCnGSL73cMbLIP6nXYFZuPx9pflU9DRDU38vYsT_BGMuAQU_WjHR64Eql7YD0fwBDReejviABeDBk-4gmIxHHmmNFoXnoT5uVASol9fUtzy2ZwJluQS3qpCUZtte3j9DZdt07bQRJz91Z5bNuS3tem-lFNtPP6_WrIYx4J3yvZdJC9TirxtcEZcUeUIj1sWnGmbDl_KXvvfHOdqvwGZNlOeWWbTj9AYaExLRIKULYyGWPq9FIZs9PJafSAAmG0_Po4iTfGNMieDBTuPVQdKgXN1wiCmwuqKbMf5FhILGs2hS0pEe7XcvGTMvbswrPBfa6LNaXF6roA37TYiDmeFfhfaKt2Tx7Y30MK5Ph_bjGR-sMg4zDLA7YjUivbwDoTQfyNYeQzBam08TCWv-JcaQG5sLFJVxbIhudfOLd2v5Ba17lHbrUkLzAUhJTLz-hi5Jd6eDzXOvIGBdRP3YT6toxdHHjqyT6nhVLDURC7M5eV0GifaQWva0KwjmgFCNfzG2fDmtQRR3MA65z0arRyQRKBmp7NSKjy8uLCiQdMeelB-Z7SMca_VXj1kt88brBV3GuXhJ61wuz_e7B1Tlls-vU90STGd1ZPt-QNgzreYgJYiYh8VrE-F1E5et8MUQgM9lFlOZaDdAsxymVRnpUwPFt_RPAEYPxew2klk6A4yS6HssRj9amGpmEvLMtIKpYCfVGcqsoHQmITuWbknWjHkZIoRiYs5ZJSQz_P3IbvTdGOty5m00]--></g></svg>