<?xml version="1.0" encoding="us-ascii" standalone="no"?><svg xmlns="http://www.w3.org/2000/svg" xmlns:xlink="http://www.w3.org/1999/xlink" contentStyleType="text/css" height="284.1519px" preserveAspectRatio="none" style="width:1000px;height:284px;background:#FFFFFF;" version="1.1" viewBox="0 0 1000 284" width="1000.0976px" zoomAndPan="magnify"><defs/><g><g id="elem_occurencexoccurencePeriod"><rect fill="#F5F5F5" height="39.7598" style="stroke:#181818;stroke-width:0.29294014256420275;" width="129.089" x="867.3958" y="161.1171"/><rect fill="#D3D3D3" height="13.2533" style="stroke:#181818;stroke-width:0.29294014256420275;" width="129.089" x="867.3958" y="161.1171"/><path d="M872.0828,165.6798 L872.0828,168.4139 L874.8169,168.4139 L874.8169,165.6798 L872.0828,165.6798 M875.5004,167.0468 L875.5004,169.0974 L873.4499,169.0974 L873.4499,169.7809 L876.184,169.7809 L876.184,167.0468 L875.5004,167.0468 M876.8675,168.4139 L876.8675,170.4645 L874.8169,170.4645 L874.8169,171.148 L877.551,171.148 L877.551,168.4139 L876.8675,168.4139 " fill="#000000" style="stroke:;stroke-width:0.0;stroke-dasharray:;"/><text fill="#000000" font-family="sans-serif" font-size="8.2023" lengthAdjust="spacing" textLength="111.9031" x="880.4804" y="171.14">occurence[x]:occurencePeriod</text><line style="stroke:#181818;stroke-width:0.5858802851284055;" x1="867.3958" x2="996.4847" y1="174.3703" y2="174.3703"/><text fill="#000000" font-family="sans-serif" font-size="8.2023" lengthAdjust="spacing" textLength="92.5691" x="870.3252" y="184.3932">dateHeureDebutEffective</text><text fill="#000000" font-family="sans-serif" font-size="8.2023" lengthAdjust="spacing" textLength="16.4046" x="968.7531" y="184.3932">start</text><line style="stroke:#181818;stroke-width:0.5858802851284055;" x1="965.8237" x2="965.8237" y1="174.3703" y2="187.6236"/><line style="stroke:#181818;stroke-width:0.5858802851284055;" x1="867.3958" x2="996.4847" y1="187.6236" y2="187.6236"/><text fill="#000000" font-family="sans-serif" font-size="8.2023" lengthAdjust="spacing" textLength="82.0232" x="875.5981" y="197.6465">dateHeureFinEffective</text><text fill="#000000" font-family="sans-serif" font-size="8.2023" lengthAdjust="spacing" textLength="14.0611" x="968.7531" y="197.6465">end</text><line style="stroke:#181818;stroke-width:0.5858802851284055;" x1="965.8237" x2="965.8237" y1="187.6236" y2="200.8768"/></g><g id="elem_dosage"><rect fill="#F5F5F5" height="53.013" style="stroke:#181818;stroke-width:0.29294014256420275;" width="137.096" x="700.4199" y="154.3795"/><rect fill="#D3D3D3" height="13.2533" style="stroke:#181818;stroke-width:0.29294014256420275;" width="137.096" x="700.4199" y="154.3795"/><text fill="#000000" font-family="sans-serif" font-size="8.2023" lengthAdjust="spacing" textLength="27.5364" x="755.1997" y="164.4024">dosage</text><line style="stroke:#181818;stroke-width:0.5858802851284055;" x1="700.4199" x2="837.5159" y1="167.6327" y2="167.6327"/><text fill="#000000" font-family="sans-serif" font-size="8.2023" lengthAdjust="spacing" textLength="65.0327" x="719.7539" y="177.6556">lieuAdministration</text><text fill="#000000" font-family="sans-serif" font-size="8.2023" lengthAdjust="spacing" textLength="12.8894" x="807.0501" y="177.6556">site</text><line style="stroke:#181818;stroke-width:0.5858802851284055;" x1="804.1207" x2="804.1207" y1="167.6327" y2="180.886"/><line style="stroke:#181818;stroke-width:0.5858802851284055;" x1="700.4199" x2="837.5159" y1="180.886" y2="180.886"/><text fill="#000000" font-family="sans-serif" font-size="8.2023" lengthAdjust="spacing" textLength="67.3762" x="718.5822" y="190.9089">voieAdministration</text><text fill="#000000" font-family="sans-serif" font-size="8.2023" lengthAdjust="spacing" textLength="19.334" x="807.0501" y="190.9089">route</text><line style="stroke:#181818;stroke-width:0.5858802851284055;" x1="804.1207" x2="804.1207" y1="180.886" y2="194.1392"/><line style="stroke:#181818;stroke-width:0.5858802851284055;" x1="700.4199" x2="837.5159" y1="194.1392" y2="194.1392"/><text fill="#000000" font-family="sans-serif" font-size="8.2023" lengthAdjust="spacing" textLength="97.842" x="703.3493" y="204.1621">typeElementAdministration</text><text fill="#000000" font-family="sans-serif" font-size="8.2023" lengthAdjust="spacing" textLength="27.5364" x="807.0501" y="204.1621">method</text><line style="stroke:#181818;stroke-width:0.5858802851284055;" x1="804.1207" x2="804.1207" y1="194.1392" y2="207.3925"/></g><g id="elem_OncoFAIRMedicationAdministrationReport"><rect fill="#20B2AA" height="28.85" style="stroke:#181818;stroke-width:0.29294014256420275;" width="181.6229" x="56.5374" y="4.1012"/><text fill="#000000" font-family="sans-serif" font-size="8.2023" font-weight="bold" lengthAdjust="spacing" textLength="173.4206" x="60.6386" y="14.1241">OncoFAIRMedicationAdministrationReport</text><line style="stroke:#181818;stroke-width:0.29294014256420275;" x1="57.1233" x2="237.5745" y1="17.3544" y2="17.3544"/><text fill="#000000" font-family="sans-serif" font-size="8.2023" lengthAdjust="spacing" textLength="105.4585" x="60.0527" y="28.5491">CompteRenduAdministration</text></g><g id="elem_oncofairmaelementtraceability"><rect fill="#F5F5F5" height="39.7598" style="stroke:#181818;stroke-width:0.29294014256420275;" width="136.1195" x="534.6158" y="161.1171"/><rect fill="#D3D3D3" height="13.2533" style="stroke:#181818;stroke-width:0.29294014256420275;" width="136.1195" x="534.6158" y="161.1171"/><path d="M541.3534,165.6798 L541.3534,167.7304 L539.3028,167.7304 L539.3028,169.0974 L541.3534,169.0974 L541.3534,171.148 L542.7204,171.148 L542.7204,169.0974 L544.771,169.0974 L544.771,167.7304 L542.7204,167.7304 L542.7204,165.6798 L541.3534,165.6798 " fill="#000000" style="stroke:;stroke-width:0.0;stroke-dasharray:;"/><text fill="#000000" font-family="sans-serif" font-size="8.2023" lengthAdjust="spacing" textLength="118.9337" x="547.7004" y="171.14">oncofair-ma-element-traceability</text><line style="stroke:#181818;stroke-width:0.5858802851284055;" x1="534.6158" x2="670.7353" y1="174.3703" y2="174.3703"/><text fill="#000000" font-family="sans-serif" font-size="8.2023" lengthAdjust="spacing" textLength="8.7882" x="542.2322" y="184.3932">lot</text><text fill="#000000" font-family="sans-serif" font-size="8.2023" lengthAdjust="spacing" textLength="49.2139" x="561.5663" y="184.3932">batchNumber</text><line style="stroke:#181818;stroke-width:0.5858802851284055;" x1="558.6369" x2="558.6369" y1="174.3703" y2="187.6236"/><line style="stroke:#181818;stroke-width:0.5858802851284055;" x1="534.6158" x2="670.7353" y1="187.6236" y2="187.6236"/><text fill="#000000" font-family="sans-serif" font-size="8.2023" lengthAdjust="spacing" textLength="18.1623" x="537.5452" y="197.6465">serie</text><text fill="#000000" font-family="sans-serif" font-size="8.2023" lengthAdjust="spacing" textLength="48.6281" x="561.5663" y="197.6465">serialNumber</text><line style="stroke:#181818;stroke-width:0.5858802851284055;" x1="558.6369" x2="558.6369" y1="187.6236" y2="200.8768"/></g><g id="elem_oncofairmaelementplannedperiod"><rect fill="#F5F5F5" height="39.7598" style="stroke:#181818;stroke-width:0.29294014256420275;" width="183.9664" x="320.7695" y="161.1171"/><rect fill="#D3D3D3" height="13.2533" style="stroke:#181818;stroke-width:0.29294014256420275;" width="183.9664" x="320.7695" y="161.1171"/><path d="M344.6929,165.6798 L344.6929,167.7304 L342.6423,167.7304 L342.6423,169.0974 L344.6929,169.0974 L344.6929,171.148 L346.06,171.148 L346.06,169.0974 L348.1105,169.0974 L348.1105,167.7304 L346.06,167.7304 L346.06,165.6798 L344.6929,165.6798 " fill="#000000" style="stroke:;stroke-width:0.0;stroke-dasharray:;"/><text fill="#000000" font-family="sans-serif" font-size="8.2023" lengthAdjust="spacing" textLength="132.4089" x="351.0399" y="171.14">oncofair-ma-element-plannedperiod</text><line style="stroke:#181818;stroke-width:0.5858802851284055;" x1="320.7695" x2="504.7359" y1="174.3703" y2="174.3703"/><text fill="#000000" font-family="sans-serif" font-size="8.2023" lengthAdjust="spacing" textLength="87.2962" x="323.6989" y="184.3932">dateHeureDebutPrevue</text><text fill="#000000" font-family="sans-serif" font-size="8.2023" lengthAdjust="spacing" textLength="84.9526" x="416.8538" y="184.3932">Extension.value[x].start</text><line style="stroke:#181818;stroke-width:0.5858802851284055;" x1="413.9244" x2="413.9244" y1="174.3703" y2="187.6236"/><line style="stroke:#181818;stroke-width:0.5858802851284055;" x1="320.7695" x2="504.7359" y1="187.6236" y2="187.6236"/><text fill="#000000" font-family="sans-serif" font-size="8.2023" lengthAdjust="spacing" textLength="76.7503" x="328.9718" y="197.6465">dateHeureFinPrevue</text><text fill="#000000" font-family="sans-serif" font-size="8.2023" lengthAdjust="spacing" textLength="82.6091" x="416.8538" y="197.6465">Extension.value[x].end</text><line style="stroke:#181818;stroke-width:0.5858802851284055;" x1="413.9244" x2="413.9244" y1="187.6236" y2="200.8768"/></g><g id="elem_ElementAdministration"><rect fill="#F5FFFA" height="198.7988" style="stroke:#181818;stroke-width:0.29294014256420275;" width="286.4955" x="4.1012" y="81.4374"/><rect fill="#20B2AA" height="13.2533" style="stroke:#181818;stroke-width:0.29294014256420275;" width="286.4955" x="4.1012" y="81.4374"/><text fill="#000000" font-family="sans-serif" font-size="8.2023" font-weight="bold" lengthAdjust="spacing" textLength="278.2931" x="8.2023" y="91.4603">ElementAdministration : OncoFAIRMedicationAdministrationElement</text><line style="stroke:#181818;stroke-width:0.5858802851284055;" x1="4.1012" x2="290.5966" y1="94.6906" y2="94.6906"/><text fill="#000000" font-family="sans-serif" font-size="8.2023" lengthAdjust="spacing" textLength="88.4679" x="29.0011" y="104.7135">idElementAdministration</text><text fill="#000000" font-family="sans-serif" font-size="8.2023" lengthAdjust="spacing" textLength="31.6375" x="145.2983" y="104.7135">identifier</text><line style="stroke:#181818;stroke-width:0.5858802851284055;" x1="142.3689" x2="142.3689" y1="94.6906" y2="107.9439"/><line style="stroke:#181818;stroke-width:0.5858802851284055;" x1="4.1012" x2="290.5966" y1="107.9439" y2="107.9439"/><text fill="#000000" font-family="sans-serif" font-size="8.2023" lengthAdjust="spacing" textLength="100.1855" x="23.1423" y="117.9668">codeElementAdministration</text><path d="M145.8842,112.5066 L145.8842,115.2407 L148.6183,115.2407 L148.6183,112.5066 L145.8842,112.5066 M149.3018,113.8736 L149.3018,115.9242 L147.2512,115.9242 L147.2512,116.6077 L149.9854,116.6077 L149.9854,113.8736 L149.3018,113.8736 M150.6689,115.2407 L150.6689,117.2912 L148.6183,117.2912 L148.6183,117.9748 L151.3524,117.9748 L151.3524,115.2407 L150.6689,115.2407 " fill="#000000" style="stroke:;stroke-width:0.0;stroke-dasharray:;"/><text fill="#000000" font-family="sans-serif" font-size="8.2023" lengthAdjust="spacing" textLength="52.7292" x="154.2818" y="117.9668">category:code</text><line style="stroke:#181818;stroke-width:0.5858802851284055;" x1="142.3689" x2="142.3689" y1="107.9439" y2="121.1971"/><line style="stroke:#181818;stroke-width:0.5858802851284055;" x1="4.1012" x2="290.5966" y1="121.1971" y2="121.1971"/><text fill="#000000" font-family="sans-serif" font-size="8.2023" lengthAdjust="spacing" textLength="46.2845" x="50.0928" y="131.22">presentation</text><path d="M145.8842,125.7598 L145.8842,128.4939 L148.6183,128.4939 L148.6183,125.7598 L145.8842,125.7598 M149.3018,127.1269 L149.3018,129.1774 L147.2512,129.1774 L147.2512,129.861 L149.9854,129.861 L149.9854,127.1269 L149.3018,127.1269 M150.6689,128.4939 L150.6689,130.5445 L148.6183,130.5445 L148.6183,131.228 L151.3524,131.228 L151.3524,128.4939 L150.6689,128.4939 " fill="#000000" style="stroke:;stroke-width:0.0;stroke-dasharray:;"/><text fill="#000000" font-family="sans-serif" font-size="8.2023" lengthAdjust="spacing" textLength="58.588" x="154.2818" y="131.22">category:nature</text><line style="stroke:#181818;stroke-width:0.5858802851284055;" x1="142.3689" x2="142.3689" y1="121.1971" y2="134.4504"/><line style="stroke:#181818;stroke-width:0.5858802851284055;" x1="4.1012" x2="290.5966" y1="134.4504" y2="134.4504"/><text fill="#000000" font-family="sans-serif" font-size="8.2023" lengthAdjust="spacing" textLength="73.8209" x="36.3246" y="144.4733">ElementPrescription</text><text fill="#000000" font-family="sans-serif" font-size="8.2023" lengthAdjust="spacing" textLength="28.1223" x="145.2983" y="144.4733">request</text><line style="stroke:#181818;stroke-width:0.5858802851284055;" x1="142.3689" x2="142.3689" y1="134.4504" y2="147.7036"/><line style="stroke:#181818;stroke-width:0.5858802851284055;" x1="4.1012" x2="290.5966" y1="147.7036" y2="147.7036"/><text fill="#000000" font-family="sans-serif" font-size="8.2023" lengthAdjust="spacing" textLength="69.1339" x="38.6681" y="157.7265">dispositifsAssocies</text><text fill="#000000" font-family="sans-serif" font-size="8.2023" lengthAdjust="spacing" textLength="24.0211" x="145.2983" y="157.7265">device</text><line style="stroke:#181818;stroke-width:0.5858802851284055;" x1="142.3689" x2="142.3689" y1="147.7036" y2="160.9569"/><line style="stroke:#181818;stroke-width:0.5858802851284055;" x1="4.1012" x2="290.5966" y1="160.9569" y2="160.9569"/><text fill="#000000" font-family="sans-serif" font-size="8.2023" lengthAdjust="spacing" textLength="103.1149" x="21.6776" y="170.9798">libelleElementAdministration</text><path d="M145.8842,165.5196 L145.8842,168.2537 L148.6183,168.2537 L148.6183,165.5196 L145.8842,165.5196 M149.3018,166.8866 L149.3018,168.9372 L147.2512,168.9372 L147.2512,169.6207 L149.9854,169.6207 L149.9854,166.8866 L149.3018,166.8866 M150.6689,168.2537 L150.6689,170.3043 L148.6183,170.3043 L148.6183,170.9878 L151.3524,170.9878 L151.3524,168.2537 L150.6689,168.2537 " fill="#000000" style="stroke:;stroke-width:0.0;stroke-dasharray:;"/><text fill="#000000" font-family="sans-serif" font-size="8.2023" lengthAdjust="spacing" textLength="47.4563" x="154.2818" y="170.9798">note:wording</text><line style="stroke:#181818;stroke-width:0.5858802851284055;" x1="142.3689" x2="142.3689" y1="160.9569" y2="174.2101"/><line style="stroke:#181818;stroke-width:0.5858802851284055;" x1="4.1012" x2="290.5966" y1="174.2101" y2="174.2101"/><text fill="#000000" font-family="sans-serif" font-size="8.2023" lengthAdjust="spacing" textLength="51.5575" x="47.4563" y="184.233">commentaires</text><path d="M145.8842,178.7728 L145.8842,181.5069 L148.6183,181.5069 L148.6183,178.7728 L145.8842,178.7728 M149.3018,180.1399 L149.3018,182.1905 L147.2512,182.1905 L147.2512,182.874 L149.9854,182.874 L149.9854,180.1399 L149.3018,180.1399 M150.6689,181.5069 L150.6689,183.5575 L148.6183,183.5575 L148.6183,184.241 L151.3524,184.241 L151.3524,181.5069 L150.6689,181.5069 " fill="#000000" style="stroke:;stroke-width:0.0;stroke-dasharray:;"/><text fill="#000000" font-family="sans-serif" font-size="8.2023" lengthAdjust="spacing" textLength="56.2445" x="154.2818" y="184.233">note:comments</text><line style="stroke:#181818;stroke-width:0.5858802851284055;" x1="142.3689" x2="142.3689" y1="174.2101" y2="187.4634"/><line style="stroke:#181818;stroke-width:0.5858802851284055;" x1="4.1012" x2="290.5966" y1="187.4634" y2="187.4634"/><path d="M87.4915,192.0261 L87.4915,194.7602 L90.2256,194.7602 L90.2256,192.0261 L87.4915,192.0261 M90.9091,193.3931 L90.9091,195.4437 L88.8585,195.4437 L88.8585,196.1272 L91.5926,196.1272 L91.5926,193.3931 L90.9091,193.3931 M92.2761,194.7602 L92.2761,196.8108 L90.2256,196.8108 L90.2256,197.4943 L92.9597,197.4943 L92.9597,194.7602 L92.2761,194.7602 " fill="#000000" style="stroke:;stroke-width:0.0;stroke-dasharray:;"/><text fill="#000000" font-family="sans-serif" font-size="8.2023" lengthAdjust="spacing" textLength="111.9031" x="95.8891" y="197.4863">occurence[x]:occurencePeriod</text><line style="stroke:#181818;stroke-width:0.5858802851284055;" x1="4.1012" x2="290.5966" y1="200.7166" y2="200.7166"/><text fill="#000000" font-family="sans-serif" font-size="8.2023" lengthAdjust="spacing" textLength="27.5364" x="133.5807" y="210.7395">dosage</text><line style="stroke:#181818;stroke-width:0.5858802851284055;" x1="4.1012" x2="290.5966" y1="213.9699" y2="213.9699"/><text fill="#000000" font-family="sans-serif" font-size="8.2023" lengthAdjust="spacing" textLength="24.0211" x="61.2245" y="223.9928">urgent</text><path d="M147.9348,218.5326 L147.9348,220.5832 L145.8842,220.5832 L145.8842,221.9502 L147.9348,221.9502 L147.9348,224.0008 L149.3018,224.0008 L149.3018,221.9502 L151.3524,221.9502 L151.3524,220.5832 L149.3018,220.5832 L149.3018,218.5326 L147.9348,218.5326 " fill="#000000" style="stroke:;stroke-width:0.0;stroke-dasharray:;"/><text fill="#000000" font-family="sans-serif" font-size="8.2023" lengthAdjust="spacing" textLength="103.1149" x="154.2818" y="223.9928">oncofair-ma-element-urgent</text><line style="stroke:#181818;stroke-width:0.5858802851284055;" x1="142.3689" x2="142.3689" y1="213.9699" y2="227.2231"/><line style="stroke:#181818;stroke-width:0.5858802851284055;" x1="4.1012" x2="290.5966" y1="227.2231" y2="227.2231"/><text fill="#000000" font-family="sans-serif" font-size="8.2023" lengthAdjust="spacing" textLength="58.588" x="43.941" y="237.246">datePeremption</text><path d="M147.9348,231.7858 L147.9348,233.8364 L145.8842,233.8364 L145.8842,235.2035 L147.9348,235.2035 L147.9348,237.2541 L149.3018,237.2541 L149.3018,235.2035 L151.3524,235.2035 L151.3524,233.8364 L149.3018,233.8364 L149.3018,231.7858 L147.9348,231.7858 " fill="#000000" style="stroke:;stroke-width:0.0;stroke-dasharray:;"/><text fill="#000000" font-family="sans-serif" font-size="8.2023" lengthAdjust="spacing" textLength="131.2372" x="154.2818" y="237.246">oncofair-ma-element-expirationdate</text><line style="stroke:#181818;stroke-width:0.5858802851284055;" x1="142.3689" x2="142.3689" y1="227.2231" y2="240.4764"/><line style="stroke:#181818;stroke-width:0.5858802851284055;" x1="4.1012" x2="290.5966" y1="240.4764" y2="240.4764"/><text fill="#000000" font-family="sans-serif" font-size="8.2023" lengthAdjust="spacing" textLength="118.9337" x="87.882" y="250.4993">oncofair-ma-element-traceability</text><line style="stroke:#181818;stroke-width:0.5858802851284055;" x1="4.1012" x2="290.5966" y1="253.7296" y2="253.7296"/><text fill="#000000" font-family="sans-serif" font-size="8.2023" lengthAdjust="spacing" textLength="132.4089" x="81.1444" y="263.7525">oncofair-ma-element-plannedperiod</text><line style="stroke:#181818;stroke-width:0.5858802851284055;" x1="4.1012" x2="290.5966" y1="266.9829" y2="266.9829"/><text fill="#000000" font-family="sans-serif" font-size="8.2023" lengthAdjust="spacing" textLength="21.0917" x="62.6892" y="277.0058">forme</text><path d="M147.9348,271.5456 L147.9348,273.5962 L145.8842,273.5962 L145.8842,274.9632 L147.9348,274.9632 L147.9348,277.0138 L149.3018,277.0138 L149.3018,274.9632 L151.3524,274.9632 L151.3524,273.5962 L149.3018,273.5962 L149.3018,271.5456 L147.9348,271.5456 " fill="#000000" style="stroke:;stroke-width:0.0;stroke-dasharray:;"/><text fill="#000000" font-family="sans-serif" font-size="8.2023" lengthAdjust="spacing" textLength="81.4374" x="154.2818" y="277.0058">oncofair-element-form</text><line style="stroke:#181818;stroke-width:0.5858802851284055;" x1="142.3689" x2="142.3689" y1="266.9829" y2="280.2362"/></g><!--link ElementAdministration to occurencexoccurencePeriod--><g id="link_ElementAdministration_occurencexoccurencePeriod"><path d="M291.4754,193.6334 C317.137,193.6334 299.2266,103.8121 306.1224,79.0938 C309.1456,68.2609 306.9485,62.0857 316.3754,55.9516 C365.3725,24.068 790.5048,29.2296 842.4959,55.9516 C884.4449,77.512 909.736,125.6699 922.1919,155.3448 " fill="none" id="ElementAdministration-to-occurencexoccurencePeriod" style="stroke:#181818;stroke-width:0.5858802851284055;"/><polygon fill="#181818" points="923.5524,158.5861,923.6725,152.8171,922.4186,155.885,919.3507,154.6311,923.5524,158.5861" style="stroke:#181818;stroke-width:0.5858802851284055;"/></g><!--link ElementAdministration to dosage--><g id="link_ElementAdministration_dosage"><path d="M291.4754,207.1087 C305.7944,207.1087 302.367,92.9089 306.1224,79.0938 C309.0753,68.2375 306.9485,62.0857 316.3754,55.9516 C349.8233,34.1861 639.834,38.0939 675.52,55.9516 C715.3364,75.8774 741.0581,118.548 755.4356,148.7736 " fill="none" id="ElementAdministration-to-dosage" style="stroke:#181818;stroke-width:0.5858802851284055;"/><polygon fill="#181818" points="756.9456,151.9481,756.7969,146.1797,755.6873,149.3027,752.5643,148.1931,756.9456,151.9481" style="stroke:#181818;stroke-width:0.5858802851284055;"/></g><!--link ElementAdministration to oncofairmaelementtraceability--><g id="link_ElementAdministration_oncofairmaelementtraceability"><path d="M291.4754,246.9485 C310.1943,246.9485 301.453,97.221 306.1224,79.0938 C308.9288,68.2023 306.9485,62.0857 316.3754,55.9516 C352.3894,32.5164 471.3231,36.6644 509.7158,55.9516 C552.4265,77.4065 579.0419,125.6417 592.277,155.3458 " fill="none" id="ElementAdministration-to-oncofairmaelementtraceability" style="stroke:#181818;stroke-width:0.5858802851284055;"/><polygon fill="#181818" points="593.7076,158.5568,593.7023,152.7865,592.5154,155.881,589.421,154.6941,593.7076,158.5568" style="stroke:#181818;stroke-width:0.5858802851284055;"/></g><!--link ElementAdministration to oncofairmaelementplannedperiod--><g id="link_ElementAdministration_oncofairmaelementplannedperiod"><path d="M291.4754,260.4238 C337.2971,267.5247 376.9779,231.8523 397.22,205.5755 " fill="none" id="ElementAdministration-to-oncofairmaelementplannedperiod" style="stroke:#181818;stroke-width:0.5858802851284055;"/><polygon fill="#181818" points="399.3653,202.7907,394.2909,205.5378,397.5776,205.1114,398.0039,208.3981,399.3653,202.7907" style="stroke:#181818;stroke-width:0.5858802851284055;"/></g><!--reverse link OncoFAIRMedicationAdministrationReport to ElementAdministration--><g id="link_OncoFAIRMedicationAdministrationReport_ElementAdministration"><path codeLine="47" d="M147.3489,36.5706 C147.3489,47.7141 147.3489,60.8847 147.3489,79.0704 " fill="none" id="OncoFAIRMedicationAdministrationReport-backto-ElementAdministration" style="stroke:#181818;stroke-width:0.5858802851284055;"/><polygon fill="#181818" points="147.3489,33.0554,145.0054,38.3283,147.3489,35.9848,149.6924,38.3283,147.3489,33.0554" style="stroke:#181818;stroke-width:0.5858802851284055;"/><text fill="#000000" font-family="sans-serif" font-size="7.6164" lengthAdjust="spacing" textLength="20.5058" x="147.9348" y="59.1905">partOf</text></g><!--SRC=[dLHDRzim3BtdLmWfq8E15DdLwm84NTeDMDSYFUnGx21BTCBL-fWafmc6_VV9afh4QPmOyqaM7oa-yf6MqGh8X_5uJ5wHk-LW8AWcm-lBYcx0s0bHZDK698FdzSzy-_C81XKV4cftWFM1bLmKbBtaFvReu4ce5_Yu1Ch1vDzmiNHtXcx8dm7n7wSEle1t_Gn5xMPb2SpX2iYd2R6E6jS6tQ9iGK3omT-KDbUMBY2a5O-zSwWGwYaNAD4wGnqg6PxtRi6yKWZlpKRLoUus6cOL293kFKo0MwgGf2f- -SJ9CCiU95Etqw_pU-380hBjDmUjZCkomAKVc5m4Kaz0xmo0JCHkbD0EvhvA1_osHRk-r5NTTDg_Kb8q8q574BcCF9O1BR12judTJY114sGVqR_QoZM5AQXZo- -rAC24Q-jr4zlk3xHAbZvvwefA2LploV8mqHRaFxNvQ61LXmndQmVI-Z9UhMXLDyDnTLoh9rtsjPjbnmMKdsr_yajYEHubyhr7wMuCKD6YUw0Ov9rAHkwliSJKBwPuj-fzfh1GPdCUkLisRpvvWm-Ese3rJgUmaZfVwe1EJ_YQMsPGR-SKVjTWKs_GQkNd6aixjLOn1Dj0EAoGGLe51LHLdtIbSf2_AiDHBX9DqVXusSMe1z1ajW7RRyMIR3JfNh6HKTnq3J0Umsrj5lwfc4Jtt4JKLhG-AWYz8zhj26kDiIIDNmXmRdz4AgVsHsUOzkmUZTE2X42bCWAEydWBso2Q-JlUwb7jt-cvUdEY_V0_b8D_]--></g></svg>