<?xml version="1.0" encoding="UTF-8" standalone="no"?><svg xmlns="http://www.w3.org/2000/svg" xmlns:xlink="http://www.w3.org/1999/xlink" contentStyleType="text/css" height="355.6879px" preserveAspectRatio="none" style="width:1300px;height:355px;background:#FFFFFF;" version="1.1" viewBox="0 0 1300 355" width="1300.1269px" zoomAndPan="magnify"><defs/><g><g id="elem_occurencexoccurencePeriod"><rect fill="#F5F5F5" height="49.376" style="stroke:#181818;stroke-width:0.3808221853334636;" width="167.8156" x="1127.6145" y="199.5508"/><rect fill="#D3D3D3" height="16.4587" style="stroke:#181818;stroke-width:0.3808221853334636;" width="167.8156" x="1127.6145" y="199.5508"/><path d="M1133.7076,204.7118 L1133.7076,208.2661 L1137.262,208.2661 L1137.262,204.7118 L1133.7076,204.7118 M1138.1506,206.4889 L1138.1506,209.1547 L1135.4848,209.1547 L1135.4848,210.0433 L1139.0392,210.0433 L1139.0392,206.4889 L1138.1506,206.4889 M1139.9277,208.2661 L1139.9277,210.9319 L1137.262,210.9319 L1137.262,211.8204 L1140.8163,211.8204 L1140.8163,208.2661 L1139.9277,208.2661 " fill="#000000" style="stroke:;stroke-width:0.0;stroke-dasharray:;"/><text fill="#000000" font-family="sans-serif" font-size="10.663" lengthAdjust="spacing" textLength="145.4741" x="1144.6245" y="212.1432">occurence[x]:occurencePeriod</text><line style="stroke:#181818;stroke-width:0.7616443706669273;" x1="1127.6145" x2="1295.4301" y1="216.0095" y2="216.0095"/><text fill="#000000" font-family="sans-serif" font-size="10.663" lengthAdjust="spacing" textLength="120.3398" x="1131.4227" y="228.6019">dateHeureDebutEffective</text><text fill="#000000" font-family="sans-serif" font-size="10.663" lengthAdjust="spacing" textLength="21.326" x="1259.379" y="228.6019">start</text><line style="stroke:#181818;stroke-width:0.7616443706669273;" x1="1255.5707" x2="1255.5707" y1="216.0095" y2="232.4681"/><line style="stroke:#181818;stroke-width:0.7616443706669273;" x1="1127.6145" x2="1295.4301" y1="232.4681" y2="232.4681"/><text fill="#000000" font-family="sans-serif" font-size="10.663" lengthAdjust="spacing" textLength="106.6302" x="1138.2775" y="245.0606">dateHeureFinEffective</text><text fill="#000000" font-family="sans-serif" font-size="10.663" lengthAdjust="spacing" textLength="18.2795" x="1259.379" y="245.0606">end</text><line style="stroke:#181818;stroke-width:0.7616443706669273;" x1="1255.5707" x2="1255.5707" y1="232.4681" y2="248.9268"/></g><g id="elem_dosage"><rect fill="#F5F5F5" height="65.8346" style="stroke:#181818;stroke-width:0.3808221853334636;" width="178.2248" x="910.5458" y="191.5536"/><rect fill="#D3D3D3" height="16.4587" style="stroke:#181818;stroke-width:0.3808221853334636;" width="178.2248" x="910.5458" y="191.5536"/><text fill="#000000" font-family="sans-serif" font-size="10.663" lengthAdjust="spacing" textLength="35.7973" x="981.7596" y="204.146">dosage</text><line style="stroke:#181818;stroke-width:0.7616443706669273;" x1="910.5458" x2="1088.7706" y1="208.0122" y2="208.0122"/><text fill="#000000" font-family="sans-serif" font-size="10.663" lengthAdjust="spacing" textLength="84.5425" x="935.6801" y="220.6046">lieuAdministration</text><text fill="#000000" font-family="sans-serif" font-size="10.663" lengthAdjust="spacing" textLength="16.7562" x="1049.1651" y="220.6046">site</text><line style="stroke:#181818;stroke-width:0.7616443706669273;" x1="1045.3569" x2="1045.3569" y1="208.0122" y2="224.4709"/><line style="stroke:#181818;stroke-width:0.7616443706669273;" x1="910.5458" x2="1088.7706" y1="224.4709" y2="224.4709"/><text fill="#000000" font-family="sans-serif" font-size="10.663" lengthAdjust="spacing" textLength="87.5891" x="934.1568" y="237.0633">voieAdministration</text><text fill="#000000" font-family="sans-serif" font-size="10.663" lengthAdjust="spacing" textLength="25.1343" x="1049.1651" y="237.0633">route</text><line style="stroke:#181818;stroke-width:0.7616443706669273;" x1="1045.3569" x2="1045.3569" y1="224.4709" y2="240.9295"/><line style="stroke:#181818;stroke-width:0.7616443706669273;" x1="910.5458" x2="1088.7706" y1="240.9295" y2="240.9295"/><text fill="#000000" font-family="sans-serif" font-size="10.663" lengthAdjust="spacing" textLength="127.1946" x="914.3541" y="253.522">typeElementAdministration</text><text fill="#000000" font-family="sans-serif" font-size="10.663" lengthAdjust="spacing" textLength="35.7973" x="1049.1651" y="253.522">method</text><line style="stroke:#181818;stroke-width:0.7616443706669273;" x1="1045.3569" x2="1045.3569" y1="240.9295" y2="257.3882"/></g><g id="elem_OncoFAIRMedicationAdministrationReport"><rect fill="#20B2AA" height="35.9639" style="stroke:#181818;stroke-width:0.3808221853334636;" width="236.1098" x="73.4987" y="5.3315"/><text fill="#000000" font-family="sans-serif" font-size="10.663" font-weight="bold" lengthAdjust="spacing" textLength="225.4467" x="78.8302" y="17.9239">OncoFAIRMedicationAdministrationReport</text><line style="stroke:#181818;stroke-width:0.3808221853334636;" x1="74.2603" x2="308.8468" y1="21.7902" y2="21.7902"/><text fill="#000000" font-family="sans-serif" font-size="10.663" lengthAdjust="spacing" textLength="137.096" x="78.0685" y="35.9059">CompteRenduAdministration</text></g><g id="elem_oncofairmaelementtraceability"><rect fill="#F5F5F5" height="49.376" style="stroke:#181818;stroke-width:0.3808221853334636;" width="176.9554" x="695.0005" y="199.5508"/><rect fill="#D3D3D3" height="16.4587" style="stroke:#181818;stroke-width:0.3808221853334636;" width="176.9554" x="695.0005" y="199.5508"/><path d="M703.7594,204.7118 L703.7594,207.3775 L701.0936,207.3775 L701.0936,209.1547 L703.7594,209.1547 L703.7594,211.8204 L705.5366,211.8204 L705.5366,209.1547 L708.2023,209.1547 L708.2023,207.3775 L705.5366,207.3775 L705.5366,204.7118 L703.7594,204.7118 " fill="#000000" style="stroke:;stroke-width:0.0;stroke-dasharray:;"/><text fill="#000000" font-family="sans-serif" font-size="10.663" lengthAdjust="spacing" textLength="154.6138" x="712.0105" y="212.1432">oncofair-ma-element-traceability</text><line style="stroke:#181818;stroke-width:0.7616443706669273;" x1="695.0005" x2="871.9559" y1="216.0095" y2="216.0095"/><text fill="#000000" font-family="sans-serif" font-size="10.663" lengthAdjust="spacing" textLength="11.4247" x="704.9019" y="228.6019">lot</text><text fill="#000000" font-family="sans-serif" font-size="10.663" lengthAdjust="spacing" textLength="63.9781" x="730.0361" y="228.6019">batchNumber</text><line style="stroke:#181818;stroke-width:0.7616443706669273;" x1="726.2279" x2="726.2279" y1="216.0095" y2="232.4681"/><line style="stroke:#181818;stroke-width:0.7616443706669273;" x1="695.0005" x2="871.9559" y1="232.4681" y2="232.4681"/><text fill="#000000" font-family="sans-serif" font-size="10.663" lengthAdjust="spacing" textLength="23.611" x="698.8087" y="245.0606">serie</text><text fill="#000000" font-family="sans-serif" font-size="10.663" lengthAdjust="spacing" textLength="63.2165" x="730.0361" y="245.0606">serialNumber</text><line style="stroke:#181818;stroke-width:0.7616443706669273;" x1="726.2279" x2="726.2279" y1="232.4681" y2="248.9268"/></g><g id="elem_oncofairmaelementplannedperiod"><rect fill="#F5F5F5" height="49.376" style="stroke:#181818;stroke-width:0.3808221853334636;" width="239.1563" x="417.0003" y="199.5508"/><rect fill="#D3D3D3" height="16.4587" style="stroke:#181818;stroke-width:0.3808221853334636;" width="239.1563" x="417.0003" y="199.5508"/><path d="M448.1008,204.7118 L448.1008,207.3775 L445.435,207.3775 L445.435,209.1547 L448.1008,209.1547 L448.1008,211.8204 L449.8779,211.8204 L449.8779,209.1547 L452.5437,209.1547 L452.5437,207.3775 L449.8779,207.3775 L449.8779,204.7118 L448.1008,204.7118 " fill="#000000" style="stroke:;stroke-width:0.0;stroke-dasharray:;"/><text fill="#000000" font-family="sans-serif" font-size="10.663" lengthAdjust="spacing" textLength="172.1316" x="456.3519" y="212.1432">oncofair-ma-element-plannedperiod</text><line style="stroke:#181818;stroke-width:0.7616443706669273;" x1="417.0003" x2="656.1566" y1="216.0095" y2="216.0095"/><text fill="#000000" font-family="sans-serif" font-size="10.663" lengthAdjust="spacing" textLength="113.485" x="420.8085" y="228.6019">dateHeureDebutPrevue</text><text fill="#000000" font-family="sans-serif" font-size="10.663" lengthAdjust="spacing" textLength="110.4384" x="541.91" y="228.6019">Extension.value[x].start</text><line style="stroke:#181818;stroke-width:0.7616443706669273;" x1="538.1017" x2="538.1017" y1="216.0095" y2="232.4681"/><line style="stroke:#181818;stroke-width:0.7616443706669273;" x1="417.0003" x2="656.1566" y1="232.4681" y2="232.4681"/><text fill="#000000" font-family="sans-serif" font-size="10.663" lengthAdjust="spacing" textLength="99.7754" x="427.6633" y="245.0606">dateHeureFinPrevue</text><text fill="#000000" font-family="sans-serif" font-size="10.663" lengthAdjust="spacing" textLength="107.3919" x="541.91" y="245.0606">Extension.value[x].end</text><line style="stroke:#181818;stroke-width:0.7616443706669273;" x1="538.1017" x2="538.1017" y1="232.4681" y2="248.9268"/></g><g id="elem_ElementAdministration"><rect fill="#F5FFFA" height="246.8799" style="stroke:#181818;stroke-width:0.3808221853334636;" width="372.4441" x="5.3315" y="103.5836"/><rect fill="#20B2AA" height="16.4587" style="stroke:#181818;stroke-width:0.3808221853334636;" width="372.4441" x="5.3315" y="103.5836"/><text fill="#000000" font-family="sans-serif" font-size="10.663" font-weight="bold" lengthAdjust="spacing" textLength="361.7811" x="10.663" y="116.1761">ElementAdministration : OncoFAIRMedicationAdministrationElement</text><line style="stroke:#181818;stroke-width:0.7616443706669273;" x1="5.3315" x2="377.7756" y1="120.0423" y2="120.0423"/><text fill="#000000" font-family="sans-serif" font-size="10.663" lengthAdjust="spacing" textLength="115.0083" x="37.7014" y="132.6347">idElementAdministration</text><text fill="#000000" font-family="sans-serif" font-size="10.663" lengthAdjust="spacing" textLength="41.1288" x="188.8878" y="132.6347">identifier</text><line style="stroke:#181818;stroke-width:0.7616443706669273;" x1="185.0796" x2="185.0796" y1="120.0423" y2="136.501"/><line style="stroke:#181818;stroke-width:0.7616443706669273;" x1="5.3315" x2="377.7756" y1="136.501" y2="136.501"/><text fill="#000000" font-family="sans-serif" font-size="10.663" lengthAdjust="spacing" textLength="130.2412" x="30.085" y="149.0934">codeElementAdministration</text><path d="M189.6494,141.6619 L189.6494,145.2162 L193.2038,145.2162 L193.2038,141.6619 L189.6494,141.6619 M194.0924,143.4391 L194.0924,146.1048 L191.4266,146.1048 L191.4266,146.9934 L194.981,146.9934 L194.981,143.4391 L194.0924,143.4391 M195.8695,145.2162 L195.8695,147.882 L193.2038,147.882 L193.2038,148.7706 L196.7581,148.7706 L196.7581,145.2162 L195.8695,145.2162 " fill="#000000" style="stroke:;stroke-width:0.0;stroke-dasharray:;"/><text fill="#000000" font-family="sans-serif" font-size="10.663" lengthAdjust="spacing" textLength="68.548" x="200.5664" y="149.0934">category:code</text><line style="stroke:#181818;stroke-width:0.7616443706669273;" x1="185.0796" x2="185.0796" y1="136.501" y2="152.9596"/><line style="stroke:#181818;stroke-width:0.7616443706669273;" x1="5.3315" x2="377.7756" y1="152.9596" y2="152.9596"/><text fill="#000000" font-family="sans-serif" font-size="10.663" lengthAdjust="spacing" textLength="60.1699" x="65.1206" y="165.552">presentation</text><path d="M189.6494,158.1205 L189.6494,161.6749 L193.2038,161.6749 L193.2038,158.1205 L189.6494,158.1205 M194.0924,159.8977 L194.0924,162.5635 L191.4266,162.5635 L191.4266,163.4521 L194.981,163.4521 L194.981,159.8977 L194.0924,159.8977 M195.8695,161.6749 L195.8695,164.3406 L193.2038,164.3406 L193.2038,165.2292 L196.7581,165.2292 L196.7581,161.6749 L195.8695,161.6749 " fill="#000000" style="stroke:;stroke-width:0.0;stroke-dasharray:;"/><text fill="#000000" font-family="sans-serif" font-size="10.663" lengthAdjust="spacing" textLength="76.1644" x="200.5664" y="165.552">category:nature</text><line style="stroke:#181818;stroke-width:0.7616443706669273;" x1="185.0796" x2="185.0796" y1="152.9596" y2="169.4183"/><line style="stroke:#181818;stroke-width:0.7616443706669273;" x1="5.3315" x2="377.7756" y1="169.4183" y2="169.4183"/><text fill="#000000" font-family="sans-serif" font-size="10.663" lengthAdjust="spacing" textLength="95.9672" x="47.222" y="182.0107">ElementPrescription</text><text fill="#000000" font-family="sans-serif" font-size="10.663" lengthAdjust="spacing" textLength="36.5589" x="188.8878" y="182.0107">request</text><line style="stroke:#181818;stroke-width:0.7616443706669273;" x1="185.0796" x2="185.0796" y1="169.4183" y2="185.8769"/><line style="stroke:#181818;stroke-width:0.7616443706669273;" x1="5.3315" x2="377.7756" y1="185.8769" y2="185.8769"/><text fill="#000000" font-family="sans-serif" font-size="10.663" lengthAdjust="spacing" textLength="89.874" x="50.2685" y="198.4693">dispositifsAssocies</text><text fill="#000000" font-family="sans-serif" font-size="10.663" lengthAdjust="spacing" textLength="31.2274" x="188.8878" y="198.4693">device</text><line style="stroke:#181818;stroke-width:0.7616443706669273;" x1="185.0796" x2="185.0796" y1="185.8769" y2="202.3356"/><line style="stroke:#181818;stroke-width:0.7616443706669273;" x1="5.3315" x2="377.7756" y1="202.3356" y2="202.3356"/><text fill="#000000" font-family="sans-serif" font-size="10.663" lengthAdjust="spacing" textLength="134.0494" x="28.1808" y="214.928">libelleElementAdministration</text><path d="M189.6494,207.4965 L189.6494,211.0509 L193.2038,211.0509 L193.2038,207.4965 L189.6494,207.4965 M194.0924,209.2737 L194.0924,211.9394 L191.4266,211.9394 L191.4266,212.828 L194.981,212.828 L194.981,209.2737 L194.0924,209.2737 M195.8695,211.0509 L195.8695,213.7166 L193.2038,213.7166 L193.2038,214.6052 L196.7581,214.6052 L196.7581,211.0509 L195.8695,211.0509 " fill="#000000" style="stroke:;stroke-width:0.0;stroke-dasharray:;"/><text fill="#000000" font-family="sans-serif" font-size="10.663" lengthAdjust="spacing" textLength="61.6932" x="200.5664" y="214.928">note:wording</text><line style="stroke:#181818;stroke-width:0.7616443706669273;" x1="185.0796" x2="185.0796" y1="202.3356" y2="218.7942"/><line style="stroke:#181818;stroke-width:0.7616443706669273;" x1="5.3315" x2="377.7756" y1="218.7942" y2="218.7942"/><text fill="#000000" font-family="sans-serif" font-size="10.663" lengthAdjust="spacing" textLength="67.0247" x="61.6932" y="231.3867">commentaires</text><path d="M189.6494,223.9552 L189.6494,227.5095 L193.2038,227.5095 L193.2038,223.9552 L189.6494,223.9552 M194.0924,225.7324 L194.0924,228.3981 L191.4266,228.3981 L191.4266,229.2867 L194.981,229.2867 L194.981,225.7324 L194.0924,225.7324 M195.8695,227.5095 L195.8695,230.1753 L193.2038,230.1753 L193.2038,231.0639 L196.7581,231.0639 L196.7581,227.5095 L195.8695,227.5095 " fill="#000000" style="stroke:;stroke-width:0.0;stroke-dasharray:;"/><text fill="#000000" font-family="sans-serif" font-size="10.663" lengthAdjust="spacing" textLength="73.1179" x="200.5664" y="231.3867">note:comments</text><line style="stroke:#181818;stroke-width:0.7616443706669273;" x1="185.0796" x2="185.0796" y1="218.7942" y2="235.2529"/><line style="stroke:#181818;stroke-width:0.7616443706669273;" x1="5.3315" x2="377.7756" y1="235.2529" y2="235.2529"/><path d="M113.7389,240.4138 L113.7389,243.9682 L117.2932,243.9682 L117.2932,240.4138 L113.7389,240.4138 M118.1818,242.191 L118.1818,244.8568 L115.5161,244.8568 L115.5161,245.7453 L119.0704,245.7453 L119.0704,242.191 L118.1818,242.191 M119.959,243.9682 L119.959,246.6339 L117.2932,246.6339 L117.2932,247.5225 L120.8476,247.5225 L120.8476,243.9682 L119.959,243.9682 " fill="#000000" style="stroke:;stroke-width:0.0;stroke-dasharray:;"/><text fill="#000000" font-family="sans-serif" font-size="10.663" lengthAdjust="spacing" textLength="145.4741" x="124.6558" y="247.8453">occurence[x]:occurencePeriod</text><line style="stroke:#181818;stroke-width:0.7616443706669273;" x1="5.3315" x2="377.7756" y1="251.7116" y2="251.7116"/><text fill="#000000" font-family="sans-serif" font-size="10.663" lengthAdjust="spacing" textLength="35.7973" x="173.6549" y="264.304">dosage</text><line style="stroke:#181818;stroke-width:0.7616443706669273;" x1="5.3315" x2="377.7756" y1="268.1702" y2="268.1702"/><text fill="#000000" font-family="sans-serif" font-size="10.663" lengthAdjust="spacing" textLength="31.2274" x="79.5918" y="280.7626">urgent</text><path d="M192.3152,273.3312 L192.3152,275.9969 L189.6494,275.9969 L189.6494,277.7741 L192.3152,277.7741 L192.3152,280.4398 L194.0924,280.4398 L194.0924,277.7741 L196.7581,277.7741 L196.7581,275.9969 L194.0924,275.9969 L194.0924,273.3312 L192.3152,273.3312 " fill="#000000" style="stroke:;stroke-width:0.0;stroke-dasharray:;"/><text fill="#000000" font-family="sans-serif" font-size="10.663" lengthAdjust="spacing" textLength="134.0494" x="200.5664" y="280.7626">oncofair-ma-element-urgent</text><line style="stroke:#181818;stroke-width:0.7616443706669273;" x1="185.0796" x2="185.0796" y1="268.1702" y2="284.6289"/><line style="stroke:#181818;stroke-width:0.7616443706669273;" x1="5.3315" x2="377.7756" y1="284.6289" y2="284.6289"/><text fill="#000000" font-family="sans-serif" font-size="10.663" lengthAdjust="spacing" textLength="76.1644" x="57.1233" y="297.2213">datePeremption</text><path d="M192.3152,289.7898 L192.3152,292.4556 L189.6494,292.4556 L189.6494,294.2327 L192.3152,294.2327 L192.3152,296.8985 L194.0924,296.8985 L194.0924,294.2327 L196.7581,294.2327 L196.7581,292.4556 L194.0924,292.4556 L194.0924,289.7898 L192.3152,289.7898 " fill="#000000" style="stroke:;stroke-width:0.0;stroke-dasharray:;"/><text fill="#000000" font-family="sans-serif" font-size="10.663" lengthAdjust="spacing" textLength="170.6083" x="200.5664" y="297.2213">oncofair-ma-element-expirationdate</text><line style="stroke:#181818;stroke-width:0.7616443706669273;" x1="185.0796" x2="185.0796" y1="284.6289" y2="301.0875"/><line style="stroke:#181818;stroke-width:0.7616443706669273;" x1="5.3315" x2="377.7756" y1="301.0875" y2="301.0875"/><text fill="#000000" font-family="sans-serif" font-size="10.663" lengthAdjust="spacing" textLength="154.6138" x="114.2467" y="313.68">oncofair-ma-element-traceability</text><line style="stroke:#181818;stroke-width:0.7616443706669273;" x1="5.3315" x2="377.7756" y1="317.5462" y2="317.5462"/><text fill="#000000" font-family="sans-serif" font-size="10.663" lengthAdjust="spacing" textLength="172.1316" x="105.4877" y="330.1386">oncofair-ma-element-plannedperiod</text><line style="stroke:#181818;stroke-width:0.7616443706669273;" x1="5.3315" x2="377.7756" y1="334.0049" y2="334.0049"/><text fill="#000000" font-family="sans-serif" font-size="10.663" lengthAdjust="spacing" textLength="27.4192" x="81.4959" y="346.5973">forme</text><path d="M192.3152,339.1658 L192.3152,341.8315 L189.6494,341.8315 L189.6494,343.6087 L192.3152,343.6087 L192.3152,346.2745 L194.0924,346.2745 L194.0924,343.6087 L196.7581,343.6087 L196.7581,341.8315 L194.0924,341.8315 L194.0924,339.1658 L192.3152,339.1658 " fill="#000000" style="stroke:;stroke-width:0.0;stroke-dasharray:;"/><text fill="#000000" font-family="sans-serif" font-size="10.663" lengthAdjust="spacing" textLength="105.8686" x="200.5664" y="346.5973">oncofair-element-form</text><line style="stroke:#181818;stroke-width:0.7616443706669273;" x1="185.0796" x2="185.0796" y1="334.0049" y2="350.4635"/></g><!--MD5=[4ab519012e6a46b24277097d2bb3ac13]
link ElementAdministration to occurencexoccurencePeriod--><g id="link_ElementAdministration_occurencexoccurencePeriod"><path d="M378.9181,240.2988 C410.2597,240.2988 389.3374,130.6753 397.9592,100.5371 C401.935,86.6218 399.1397,78.6931 411.288,70.8329 C475.0833,29.5366 1027.1612,37.0768 1095.2446,70.8329 C1146.4195,96.2033 1181.1505,156.099 1198.5007,192.8864 " fill="none" id="ElementAdministration-to-occurencexoccurencePeriod" style="stroke:#181818;stroke-width:0.7616443706669273;"/><polygon fill="#181818" points="1200.1307,196.3748,1200.0108,188.8744,1198.5286,192.9199,1194.483,191.4377,1200.1307,196.3748" style="stroke:#181818;stroke-width:0.7616443706669273;"/></g><!--MD5=[d4bb3f395d686e13c3f64eaa9a8387fc]
link ElementAdministration to dosage--><g id="link_ElementAdministration_dosage"><path d="M378.9181,256.2933 C396.3521,256.2933 393.2827,117.3313 397.9592,100.5371 C401.8436,86.599 399.1397,78.6931 411.288,70.8329 C454.8388,42.6445 831.4491,48.2959 878.176,70.8329 C926.7993,94.284 961.9645,147.7133 981.5844,184.714 " fill="none" id="ElementAdministration-to-dosage" style="stroke:#181818;stroke-width:0.7616443706669273;"/><polygon fill="#181818" points="983.4352,188.2404,982.9416,180.7553,981.6629,184.8697,977.5485,183.5911,983.4352,188.2404" style="stroke:#181818;stroke-width:0.7616443706669273;"/></g><!--MD5=[9c11d1f46eb80bde6f1b6287be375075]
link ElementAdministration to oncofairmaelementtraceability--><g id="link_ElementAdministration_oncofairmaelementtraceability"><path d="M378.9181,304.2769 C401.6532,304.2769 392.1707,122.5257 397.9592,100.5371 C401.6455,86.5456 399.1397,78.6931 411.288,70.8329 C458.1748,40.4814 612.3621,46.4908 662.6306,70.8329 C714.788,96.0891 751.2327,156.0228 769.6188,192.8484 " fill="none" id="ElementAdministration-to-oncofairmaelementtraceability" style="stroke:#181818;stroke-width:0.7616443706669273;"/><polygon fill="#181818" points="771.3401,196.3367,771.0283,188.8418,769.6501,192.924,765.568,191.5458,771.3401,196.3367" style="stroke:#181818;stroke-width:0.7616443706669273;"/></g><!--MD5=[fd5d0e9a6eb8034d3713b54d7933aeaf]
link ElementAdministration to oncofairmaelementplannedperiod--><g id="link_ElementAdministration_oncofairmaelementplannedperiod"><path d="M378.9181,320.2715 C433.8936,328.9618 485.7463,288.2519 513.9043,256.6208 " fill="none" id="ElementAdministration-to-oncofairmaelementplannedperiod" style="stroke:#181818;stroke-width:0.7616443706669273;"/><polygon fill="#181818" points="518.8855,250.8323,512.1043,254.0395,516.4009,253.7184,516.722,258.0149,518.8855,250.8323" style="stroke:#181818;stroke-width:0.7616443706669273;"/></g><!--MD5=[750d6a2c102ff1fb5ccbdbe6a2a39ac2]
reverse link OncoFAIRMedicationAdministrationReport to ElementAdministration--><g id="link_OncoFAIRMedicationAdministrationReport_ElementAdministration"><path codeLine="47" d="M191.5536,45.1122 C191.5536,59.2178 191.5536,79.0511 191.5536,100.3695 " fill="none" id="OncoFAIRMedicationAdministrationReport-backto-ElementAdministration" style="stroke:#181818;stroke-width:0.7616443706669273;"/><polygon fill="#181818" points="191.5536,41.2887,188.507,48.1435,191.5536,45.097,194.6001,48.1435,191.5536,41.2887" style="stroke:#181818;stroke-width:0.7616443706669273;"/><text fill="#000000" font-family="sans-serif" font-size="9.9014" lengthAdjust="spacing" textLength="26.6576" x="192.3152" y="75.0183">partOf</text></g><!--MD5=[3d80e07a2d1be70db2a713cc27633ef2]
@startuml

scale 1300 width

map "<&layers> occurence[x]:occurencePeriod" as occurencexoccurencePeriod #back:WhiteSmoke;header:LightGray {
    dateHeureDebutEffective => start
    dateHeureFinEffective => end
}

map "dosage" as dosage #back:WhiteSmoke;header:LightGray {
    lieuAdministration => site
    voieAdministration => route
    typeElementAdministration => method
}

object "**OncoFAIRMedicationAdministrationReport**" as OncoFAIRMedicationAdministrationReport #LightSeaGreen {
    CompteRenduAdministration
}

map "<&plus> oncofair-ma-element-traceability" as oncofairmaelementtraceability #back:WhiteSmoke;header:LightGray {
    lot => batchNumber
    serie => serialNumber
}

map "<&plus> oncofair-ma-element-plannedperiod" as oncofairmaelementplannedperiod #back:WhiteSmoke;header:LightGray {
    dateHeureDebutPrevue => Extension.value[x].start
    dateHeureFinPrevue => Extension.value[x].end
}

map "**ElementAdministration : OncoFAIRMedicationAdministrationElement**" as ElementAdministration #back:MintCream;header:LightSeaGreen {
    idElementAdministration => identifier
    codeElementAdministration => category
    codeElementAdministration => <&layers> category:code
    presentation => <&layers> category:nature
    ElementPrescription => request
    dispositifsAssocies => device
    libelleElementAdministration => <&layers> note:wording
    commentaires => <&layers> note:comments
    <&layers> occurence[x]:occurencePeriod *-> occurencexoccurencePeriod
    dosage *-> dosage
    urgent => <&plus> oncofair-ma-element-urgent
    datePeremption => <&plus> oncofair-ma-element-expirationdate
    oncofair-ma-element-traceability *-> oncofairmaelementtraceability
    oncofair-ma-element-plannedperiod *-> oncofairmaelementplannedperiod
    forme => <&plus> oncofair-element-form
}

ElementAdministration -u-> OncoFAIRMedicationAdministrationReport : partOf

@enduml

PlantUML version 1.2022.7(Mon Aug 22 19:01:30 CEST 2022)
(GPL source distribution)
Java Runtime: Java(TM) SE Runtime Environment
JVM: Java HotSpot(TM) 64-Bit Server VM
Default Encoding: UTF-8
Language: fr
Country: FR
--></g></svg>