<?xml version="1.0" encoding="UTF-8" standalone="no"?><svg xmlns="http://www.w3.org/2000/svg" xmlns:xlink="http://www.w3.org/1999/xlink" contentStyleType="text/css" height="473.7985px" preserveAspectRatio="none" style="width:1700px;height:473px;background:#FFFFFF;" version="1.1" viewBox="0 0 1700 473" width="1700.3418px" zoomAndPan="magnify"><defs/><g><g id="elem_timing"><rect fill="#F5F5F5" height="59.0966" style="stroke:#181818;stroke-width:0.34184596822843355;" width="283.7322" x="1262.4372" y="410.2152"/><rect fill="#D3D3D3" height="14.7742" style="stroke:#181818;stroke-width:0.34184596822843355;" width="283.7322" x="1262.4372" y="410.2152"/><text fill="#000000" font-family="sans-serif" font-size="9.5717" lengthAdjust="spacing" textLength="25.2966" x="1391.6549" y="421.5188">timing</text><line style="stroke:#181818;stroke-width:0.6836919364568671;" x1="1262.4372" x2="1546.1693" y1="424.9893" y2="424.9893"/><text fill="#000000" font-family="sans-serif" font-size="9.5717" lengthAdjust="spacing" textLength="109.3907" x="1267.5649" y="436.2929">dateHeureDebutPrescrite</text><text fill="#000000" font-family="sans-serif" font-size="9.5717" lengthAdjust="spacing" textLength="157.2491" x="1385.5017" y="436.2929">repeat.bounds[x]:boundsPeriod.start</text><line style="stroke:#181818;stroke-width:0.6836919364568671;" x1="1382.0832" x2="1382.0832" y1="424.9893" y2="439.7635"/><line style="stroke:#181818;stroke-width:0.6836919364568671;" x1="1262.4372" x2="1546.1693" y1="439.7635" y2="439.7635"/><text fill="#000000" font-family="sans-serif" font-size="9.5717" lengthAdjust="spacing" textLength="97.0843" x="1273.7181" y="451.0671">dateHeureFinPrescrite</text><text fill="#000000" font-family="sans-serif" font-size="9.5717" lengthAdjust="spacing" textLength="154.5144" x="1385.5017" y="451.0671">repeat.bounds[x]:boundsPeriod.end</text><line style="stroke:#181818;stroke-width:0.6836919364568671;" x1="1382.0832" x2="1382.0832" y1="439.7635" y2="454.5376"/><line style="stroke:#181818;stroke-width:0.6836919364568671;" x1="1262.4372" x2="1546.1693" y1="454.5376" y2="454.5376"/><text fill="#000000" font-family="sans-serif" font-size="9.5717" lengthAdjust="spacing" textLength="112.8092" x="1265.8556" y="465.8412">deltaDateHeureReference</text><text fill="#000000" font-family="sans-serif" font-size="9.5717" lengthAdjust="spacing" textLength="54.6954" x="1385.5017" y="465.8412">repeat.offset</text><line style="stroke:#181818;stroke-width:0.6836919364568671;" x1="1382.0832" x2="1382.0832" y1="454.5376" y2="469.3118"/></g><g id="elem_doseAndRate"><rect fill="#F5F5F5" height="44.3225" style="stroke:#181818;stroke-width:0.34184596822843355;" width="139.4732" x="1087.7539" y="417.3939"/><rect fill="#D3D3D3" height="14.7742" style="stroke:#181818;stroke-width:0.34184596822843355;" width="139.4732" x="1087.7539" y="417.3939"/><text fill="#000000" font-family="sans-serif" font-size="9.5717" lengthAdjust="spacing" textLength="58.7975" x="1128.0917" y="428.6975">doseAndRate</text><line style="stroke:#181818;stroke-width:0.6836919364568671;" x1="1087.7539" x2="1227.227" y1="432.1681" y2="432.1681"/><text fill="#000000" font-family="sans-serif" font-size="9.5717" lengthAdjust="spacing" textLength="34.8683" x="1091.1723" y="443.4717">quantite</text><text fill="#000000" font-family="sans-serif" font-size="9.5717" lengthAdjust="spacing" textLength="90.931" x="1132.8775" y="443.4717">dose[x]:doseQuantity</text><line style="stroke:#181818;stroke-width:0.6836919364568671;" x1="1129.4591" x2="1129.4591" y1="432.1681" y2="446.9422"/><line style="stroke:#181818;stroke-width:0.6836919364568671;" x1="1087.7539" x2="1227.227" y1="446.9422" y2="446.9422"/><text fill="#000000" font-family="sans-serif" font-size="9.5717" lengthAdjust="spacing" textLength="21.1945" x="1098.0092" y="458.2459">debit</text><text fill="#000000" font-family="sans-serif" font-size="9.5717" lengthAdjust="spacing" textLength="82.7267" x="1132.8775" y="458.2459">rate[x]:rateQuantity</text><line style="stroke:#181818;stroke-width:0.6836919364568671;" x1="1129.4591" x2="1129.4591" y1="446.9422" y2="461.7164"/></g><g id="elem_effectiveDosePeriod"><rect fill="#F5F5F5" height="44.3225" style="stroke:#181818;stroke-width:0.34184596822843355;" width="155.1981" x="1540.6998" y="200.6636"/><rect fill="#D3D3D3" height="14.7742" style="stroke:#181818;stroke-width:0.34184596822843355;" width="155.1981" x="1540.6998" y="200.6636"/><text fill="#000000" font-family="sans-serif" font-size="9.5717" lengthAdjust="spacing" textLength="86.8289" x="1574.8844" y="211.9672">effectiveDosePeriod</text><line style="stroke:#181818;stroke-width:0.6836919364568671;" x1="1540.6998" x2="1695.8978" y1="215.4377" y2="215.4377"/><text fill="#000000" font-family="sans-serif" font-size="9.5717" lengthAdjust="spacing" textLength="122.3809" x="1544.1182" y="226.7414">dateHeureDebutPrescription</text><text fill="#000000" font-family="sans-serif" font-size="9.5717" lengthAdjust="spacing" textLength="19.1434" x="1673.336" y="226.7414">start</text><line style="stroke:#181818;stroke-width:0.6836919364568671;" x1="1669.9176" x2="1669.9176" y1="215.4377" y2="230.2119"/><line style="stroke:#181818;stroke-width:0.6836919364568671;" x1="1540.6998" x2="1695.8978" y1="230.2119" y2="230.2119"/><text fill="#000000" font-family="sans-serif" font-size="9.5717" lengthAdjust="spacing" textLength="110.0744" x="1550.2715" y="241.5155">dateHeureFinPrescription</text><text fill="#000000" font-family="sans-serif" font-size="9.5717" lengthAdjust="spacing" textLength="16.4086" x="1673.336" y="241.5155">end</text><line style="stroke:#181818;stroke-width:0.6836919364568671;" x1="1669.9176" x2="1669.9176" y1="230.2119" y2="244.986"/></g><g id="elem_dosageInstructionelement"><rect fill="#F5F5F5" height="103.4191" style="stroke:#181818;stroke-width:0.34184596822843355;" width="204.4239" x="1301.4076" y="171.9485"/><rect fill="#D3D3D3" height="14.7742" style="stroke:#181818;stroke-width:0.34184596822843355;" width="204.4239" x="1301.4076" y="171.9485"/><path d="M1342.3152,176.5812 L1342.3152,179.7718 L1345.5057,179.7718 L1345.5057,176.5812 L1342.3152,176.5812 M1346.3034,178.1765 L1346.3034,180.5695 L1343.9104,180.5695 L1343.9104,181.3671 L1347.101,181.3671 L1347.101,178.1765 L1346.3034,178.1765 M1347.8987,179.7718 L1347.8987,182.1647 L1345.5057,182.1647 L1345.5057,182.9624 L1348.6963,182.9624 L1348.6963,179.7718 L1347.8987,179.7718 " fill="#000000" style="stroke:;stroke-width:0.0;stroke-dasharray:;"/><text fill="#000000" font-family="sans-serif" font-size="9.5717" lengthAdjust="spacing" textLength="113.4929" x="1352.1148" y="183.2521">dosageInstruction:element</text><line style="stroke:#181818;stroke-width:0.6836919364568671;" x1="1301.4076" x2="1505.8315" y1="186.7227" y2="186.7227"/><text fill="#000000" font-family="sans-serif" font-size="9.5717" lengthAdjust="spacing" textLength="41.7052" x="1336.2759" y="198.0263">posologie</text><text fill="#000000" font-family="sans-serif" font-size="9.5717" lengthAdjust="spacing" textLength="15.0412" x="1416.2678" y="198.0263">text</text><line style="stroke:#181818;stroke-width:0.6836919364568671;" x1="1412.8494" x2="1412.8494" y1="186.7227" y2="201.4968"/><line style="stroke:#181818;stroke-width:0.6836919364568671;" x1="1301.4076" x2="1505.8315" y1="201.4968" y2="201.4968"/><text fill="#000000" font-family="sans-serif" font-size="9.5717" lengthAdjust="spacing" textLength="90.931" x="1311.663" y="212.8005">conditionsApplication</text><text fill="#000000" font-family="sans-serif" font-size="9.5717" lengthAdjust="spacing" textLength="86.1452" x="1416.2678" y="212.8005">additionalInstruction</text><line style="stroke:#181818;stroke-width:0.6836919364568671;" x1="1412.8494" x2="1412.8494" y1="201.4968" y2="216.271"/><line style="stroke:#181818;stroke-width:0.6836919364568671;" x1="1301.4076" x2="1505.8315" y1="216.271" y2="216.271"/><text fill="#000000" font-family="sans-serif" font-size="9.5717" lengthAdjust="spacing" textLength="25.2966" x="1390.9712" y="227.5746">timing</text><line style="stroke:#181818;stroke-width:0.6836919364568671;" x1="1301.4076" x2="1505.8315" y1="231.0451" y2="231.0451"/><text fill="#000000" font-family="sans-serif" font-size="9.5717" lengthAdjust="spacing" textLength="75.8898" x="1319.1836" y="242.3488">lieuAdministration</text><text fill="#000000" font-family="sans-serif" font-size="9.5717" lengthAdjust="spacing" textLength="15.0412" x="1416.2678" y="242.3488">site</text><line style="stroke:#181818;stroke-width:0.6836919364568671;" x1="1412.8494" x2="1412.8494" y1="231.0451" y2="245.8193"/><line style="stroke:#181818;stroke-width:0.6836919364568671;" x1="1301.4076" x2="1505.8315" y1="245.8193" y2="245.8193"/><text fill="#000000" font-family="sans-serif" font-size="9.5717" lengthAdjust="spacing" textLength="78.6246" x="1317.8162" y="257.1229">voieAdministration</text><text fill="#000000" font-family="sans-serif" font-size="9.5717" lengthAdjust="spacing" textLength="22.5618" x="1416.2678" y="257.1229">route</text><line style="stroke:#181818;stroke-width:0.6836919364568671;" x1="1412.8494" x2="1412.8494" y1="245.8193" y2="260.5935"/><line style="stroke:#181818;stroke-width:0.6836919364568671;" x1="1301.4076" x2="1505.8315" y1="260.5935" y2="260.5935"/><text fill="#000000" font-family="sans-serif" font-size="9.5717" lengthAdjust="spacing" textLength="104.6049" x="1304.8261" y="271.8971">typeElementPrescription</text><text fill="#000000" font-family="sans-serif" font-size="9.5717" lengthAdjust="spacing" textLength="32.1335" x="1416.2678" y="271.8971">method</text><line style="stroke:#181818;stroke-width:0.6836919364568671;" x1="1412.8494" x2="1412.8494" y1="260.5935" y2="275.3676"/></g><g id="elem_dosageInstructionposology"><rect fill="#F5F5F5" height="44.3225" style="stroke:#181818;stroke-width:0.34184596822843355;" width="138.3337" x="1128.0917" y="200.6636"/><rect fill="#D3D3D3" height="14.7742" style="stroke:#181818;stroke-width:0.34184596822843355;" width="138.3337" x="1128.0917" y="200.6636"/><path d="M1133.5612,205.2963 L1133.5612,208.4869 L1136.7518,208.4869 L1136.7518,205.2963 L1133.5612,205.2963 M1137.5494,206.8916 L1137.5494,209.2845 L1135.1565,209.2845 L1135.1565,210.0822 L1138.3471,210.0822 L1138.3471,206.8916 L1137.5494,206.8916 M1139.1447,208.4869 L1139.1447,210.8798 L1136.7518,210.8798 L1136.7518,211.6774 L1139.9424,211.6774 L1139.9424,208.4869 L1139.1447,208.4869 " fill="#000000" style="stroke:;stroke-width:0.0;stroke-dasharray:;"/><text fill="#000000" font-family="sans-serif" font-size="9.5717" lengthAdjust="spacing" textLength="118.2787" x="1143.3608" y="211.9672">dosageInstruction:posology</text><line style="stroke:#181818;stroke-width:0.6836919364568671;" x1="1128.0917" x2="1266.4254" y1="215.4377" y2="215.4377"/><text fill="#000000" font-family="sans-serif" font-size="9.5717" lengthAdjust="spacing" textLength="25.2966" x="1184.6102" y="226.7414">timing</text><line style="stroke:#181818;stroke-width:0.6836919364568671;" x1="1128.0917" x2="1266.4254" y1="230.2119" y2="230.2119"/><text fill="#000000" font-family="sans-serif" font-size="9.5717" lengthAdjust="spacing" textLength="58.7975" x="1167.8598" y="241.5155">doseAndRate</text></g><g id="elem_OncoFAIRMedicationRequestPrescription"><rect fill="#87CEFA" height="32.2831" style="stroke:#181818;stroke-width:0.34184596822843355;" width="209.2097" x="247.4965" y="4.7858"/><text fill="#000000" font-family="sans-serif" font-size="9.5717" font-weight="bold" lengthAdjust="spacing" textLength="199.638" x="252.2823" y="16.0895">OncoFAIRMedicationRequestPrescription</text><line style="stroke:#181818;stroke-width:0.34184596822843355;" x1="248.1802" x2="456.0225" y1="19.56" y2="19.56"/><text fill="#000000" font-family="sans-serif" font-size="9.5717" lengthAdjust="spacing" textLength="51.2769" x="251.5986" y="32.231">Prescription</text></g><g id="elem_OncoFAIRMedicationRequestElement"><rect fill="#87CEFA" height="32.2831" style="stroke:#181818;stroke-width:0.34184596822843355;" width="189.3827" x="257.41" y="422.8635"/><text fill="#000000" font-family="sans-serif" font-size="9.5717" font-weight="bold" lengthAdjust="spacing" textLength="179.811" x="262.1959" y="434.1671">OncoFAIRMedicationRequestElement</text><line style="stroke:#181818;stroke-width:0.34184596822843355;" x1="258.0937" x2="446.109" y1="437.6376" y2="437.6376"/><text fill="#000000" font-family="sans-serif" font-size="9.5717" lengthAdjust="spacing" textLength="47.8584" x="261.5122" y="450.3086">ElementLie</text></g><g id="elem_OncoFAIRCarePlan"><rect fill="#FFD700" height="32.2831" style="stroke:#181818;stroke-width:0.34184596822843355;" width="99.819" x="4.7858" y="206.1331"/><text fill="#000000" font-family="sans-serif" font-size="9.5717" font-weight="bold" lengthAdjust="spacing" textLength="90.2473" x="9.5717" y="217.4367">OncoFAIRCarePlan</text><line style="stroke:#181818;stroke-width:0.34184596822843355;" x1="5.4695" x2="103.9212" y1="220.9073" y2="220.9073"/><text fill="#000000" font-family="sans-serif" font-size="9.5717" lengthAdjust="spacing" textLength="73.8387" x="8.888" y="233.5783">ProtocolePrescrit</text></g><g id="elem_Practitioner"><rect fill="#F1F1F1" height="32.2831" style="stroke:#181818;stroke-width:0.34184596822843355;" width="73.8387" x="566.7806" y="206.1331"/><text fill="#000000" font-family="sans-serif" font-size="9.5717" font-weight="bold" lengthAdjust="spacing" textLength="56.0627" x="575.6686" y="217.4367">Practitioner</text><line style="stroke:#181818;stroke-width:0.34184596822843355;" x1="567.4643" x2="639.9357" y1="220.9073" y2="220.9073"/><text fill="#000000" font-family="sans-serif" font-size="9.5717" lengthAdjust="spacing" textLength="65.6344" x="570.8828" y="233.5783">idpPrescripteur</text></g><g id="elem_oncofairmrelementgonogo"><rect fill="#F5F5F5" height="44.3225" style="stroke:#181818;stroke-width:0.34184596822843355;" width="166.1371" x="926.7444" y="200.6636"/><rect fill="#D3D3D3" height="14.7742" style="stroke:#181818;stroke-width:0.34184596822843355;" width="166.1371" x="926.7444" y="200.6636"/><path d="M944.4065,205.2963 L944.4065,207.6892 L942.0135,207.6892 L942.0135,209.2845 L944.4065,209.2845 L944.4065,211.6774 L946.0017,211.6774 L946.0017,209.2845 L948.3947,209.2845 L948.3947,207.6892 L946.0017,207.6892 L946.0017,205.2963 L944.4065,205.2963 " fill="#000000" style="stroke:;stroke-width:0.0;stroke-dasharray:;"/><text fill="#000000" font-family="sans-serif" font-size="9.5717" lengthAdjust="spacing" textLength="126.483" x="951.8131" y="211.9672">oncofair-mr-element-go-nogo</text><line style="stroke:#181818;stroke-width:0.6836919364568671;" x1="926.7444" x2="1092.8816" y1="215.4377" y2="215.4377"/><text fill="#000000" font-family="sans-serif" font-size="9.5717" lengthAdjust="spacing" textLength="35.552" x="938.0253" y="226.7414">GoNogo</text><text fill="#000000" font-family="sans-serif" font-size="9.5717" lengthAdjust="spacing" textLength="62.8997" x="988.2767" y="226.7414">GoNogoStatus</text><line style="stroke:#181818;stroke-width:0.6836919364568671;" x1="984.8582" x2="984.8582" y1="215.4377" y2="230.2119"/><line style="stroke:#181818;stroke-width:0.6836919364568671;" x1="926.7444" x2="1092.8816" y1="230.2119" y2="230.2119"/><text fill="#000000" font-family="sans-serif" font-size="9.5717" lengthAdjust="spacing" textLength="51.2769" x="930.1629" y="241.5155">motifAttente</text><text fill="#000000" font-family="sans-serif" font-size="9.5717" lengthAdjust="spacing" textLength="101.1864" x="988.2767" y="241.5155">GoNogoReasonWaiting</text><line style="stroke:#181818;stroke-width:0.6836919364568671;" x1="984.8582" x2="984.8582" y1="230.2119" y2="244.986"/></g><g id="elem_oncofairpharmacistadvice"><rect fill="#F5F5F5" height="44.3225" style="stroke:#181818;stroke-width:0.34184596822843355;" width="221.5162" x="670.0181" y="200.6636"/><rect fill="#D3D3D3" height="14.7742" style="stroke:#181818;stroke-width:0.34184596822843355;" width="221.5162" x="670.0181" y="200.6636"/><path d="M720.1555,205.2963 L720.1555,207.6892 L717.7626,207.6892 L717.7626,209.2845 L720.1555,209.2845 L720.1555,211.6774 L721.7508,211.6774 L721.7508,209.2845 L724.1437,209.2845 L724.1437,207.6892 L721.7508,207.6892 L721.7508,205.2963 L720.1555,205.2963 " fill="#000000" style="stroke:;stroke-width:0.0;stroke-dasharray:;"/><text fill="#000000" font-family="sans-serif" font-size="9.5717" lengthAdjust="spacing" textLength="116.9113" x="727.5622" y="211.9672">oncofair-pharmacist-advice</text><line style="stroke:#181818;stroke-width:0.6836919364568671;" x1="670.0181" x2="891.5343" y1="215.4377" y2="215.4377"/><text fill="#000000" font-family="sans-serif" font-size="9.5717" lengthAdjust="spacing" textLength="111.4418" x="676.855" y="226.7414">validationPharmaceutique</text><text fill="#000000" font-family="sans-serif" font-size="9.5717" lengthAdjust="spacing" textLength="89.5636" x="798.5522" y="226.7414">pharmacistValidation</text><line style="stroke:#181818;stroke-width:0.6836919364568671;" x1="795.1337" x2="795.1337" y1="215.4377" y2="230.2119"/><line style="stroke:#181818;stroke-width:0.6836919364568671;" x1="670.0181" x2="891.5343" y1="230.2119" y2="230.2119"/><text fill="#000000" font-family="sans-serif" font-size="9.5717" lengthAdjust="spacing" textLength="118.2787" x="673.4366" y="241.5155">propositionPharmaceutique</text><text fill="#000000" font-family="sans-serif" font-size="9.5717" lengthAdjust="spacing" textLength="85.4615" x="798.5522" y="241.5155">pharmacistProposal</text><line style="stroke:#181818;stroke-width:0.6836919364568671;" x1="795.1337" x2="795.1337" y1="230.2119" y2="244.986"/></g><g id="elem_ElementPosologie"><rect fill="#F0F8FF" height="265.9348" style="stroke:#181818;stroke-width:0.34184596822843355;" width="294.2154" x="205.1076" y="92.9821"/><rect fill="#87CEFA" height="14.7742" style="stroke:#181818;stroke-width:0.34184596822843355;" width="294.2154" x="205.1076" y="92.9821"/><text fill="#000000" font-family="sans-serif" font-size="9.5717" font-weight="bold" lengthAdjust="spacing" textLength="274.8442" x="214.7932" y="104.2857">ElementPosologie : OncoFAIRMedicationRequestElement</text><line style="stroke:#181818;stroke-width:0.6836919364568671;" x1="205.1076" x2="499.323" y1="107.7563" y2="107.7563"/><text fill="#000000" font-family="sans-serif" font-size="9.5717" lengthAdjust="spacing" textLength="93.6658" x="237.5829" y="119.0599">idElementPrescription</text><text fill="#000000" font-family="sans-serif" font-size="9.5717" lengthAdjust="spacing" textLength="36.9194" x="367.1426" y="119.0599">identifier</text><line style="stroke:#181818;stroke-width:0.6836919364568671;" x1="363.7241" x2="363.7241" y1="107.7563" y2="122.5304"/><line style="stroke:#181818;stroke-width:0.6836919364568671;" x1="205.1076" x2="499.323" y1="122.5304" y2="122.5304"/><text fill="#000000" font-family="sans-serif" font-size="9.5717" lengthAdjust="spacing" textLength="40.3378" x="264.2469" y="133.834">idGroupe</text><text fill="#000000" font-family="sans-serif" font-size="9.5717" lengthAdjust="spacing" textLength="62.216" x="367.1426" y="133.834">groupIdentifier</text><line style="stroke:#181818;stroke-width:0.6836919364568671;" x1="363.7241" x2="363.7241" y1="122.5304" y2="137.3046"/><line style="stroke:#181818;stroke-width:0.6836919364568671;" x1="205.1076" x2="499.323" y1="137.3046" y2="137.3046"/><text fill="#000000" font-family="sans-serif" font-size="9.5717" lengthAdjust="spacing" textLength="151.7796" x="208.526" y="148.6082">CreationArretModificationValidation</text><text fill="#000000" font-family="sans-serif" font-size="9.5717" lengthAdjust="spacing" textLength="25.9803" x="367.1426" y="148.6082">status</text><line style="stroke:#181818;stroke-width:0.6836919364568671;" x1="363.7241" x2="363.7241" y1="137.3046" y2="152.0787"/><line style="stroke:#181818;stroke-width:0.6836919364568671;" x1="205.1076" x2="499.323" y1="152.0787" y2="152.0787"/><text fill="#000000" font-family="sans-serif" font-size="9.5717" lengthAdjust="spacing" textLength="28.0314" x="270.4002" y="163.3823">urgent</text><text fill="#000000" font-family="sans-serif" font-size="9.5717" lengthAdjust="spacing" textLength="29.3988" x="367.1426" y="163.3823">priority</text><line style="stroke:#181818;stroke-width:0.6836919364568671;" x1="363.7241" x2="363.7241" y1="152.0787" y2="166.8529"/><line style="stroke:#181818;stroke-width:0.6836919364568671;" x1="205.1076" x2="499.323" y1="166.8529" y2="166.8529"/><text fill="#000000" font-family="sans-serif" font-size="9.5717" lengthAdjust="spacing" textLength="78.6246" x="245.1036" y="178.1565">dispostifsAssocies</text><text fill="#000000" font-family="sans-serif" font-size="9.5717" lengthAdjust="spacing" textLength="28.0314" x="367.1426" y="178.1565">device</text><line style="stroke:#181818;stroke-width:0.6836919364568671;" x1="363.7241" x2="363.7241" y1="166.8529" y2="181.627"/><line style="stroke:#181818;stroke-width:0.6836919364568671;" x1="205.1076" x2="499.323" y1="181.627" y2="181.627"/><text fill="#000000" font-family="sans-serif" font-size="9.5717" lengthAdjust="spacing" textLength="110.7581" x="229.0368" y="192.9307">libelleElementPrescription</text><path d="M367.8263,186.2598 L367.8263,189.4503 L371.0168,189.4503 L371.0168,186.2598 L367.8263,186.2598 M371.8145,187.855 L371.8145,190.248 L369.4215,190.248 L369.4215,191.0456 L372.6121,191.0456 L372.6121,187.855 L371.8145,187.855 M373.4097,189.4503 L373.4097,191.8432 L371.0168,191.8432 L371.0168,192.6409 L374.2074,192.6409 L374.2074,189.4503 L373.4097,189.4503 " fill="#000000" style="stroke:;stroke-width:0.0;stroke-dasharray:;"/><text fill="#000000" font-family="sans-serif" font-size="9.5717" lengthAdjust="spacing" textLength="55.379" x="377.6258" y="192.9307">note:wording</text><line style="stroke:#181818;stroke-width:0.6836919364568671;" x1="363.7241" x2="363.7241" y1="181.627" y2="196.4012"/><line style="stroke:#181818;stroke-width:0.6836919364568671;" x1="205.1076" x2="499.323" y1="196.4012" y2="196.4012"/><text fill="#000000" font-family="sans-serif" font-size="9.5717" lengthAdjust="spacing" textLength="41.0215" x="263.9051" y="207.7048">indication</text><path d="M367.8263,201.0339 L367.8263,204.2245 L371.0168,204.2245 L371.0168,201.0339 L367.8263,201.0339 M371.8145,202.6292 L371.8145,205.0221 L369.4215,205.0221 L369.4215,205.8198 L372.6121,205.8198 L372.6121,202.6292 L371.8145,202.6292 M373.4097,204.2245 L373.4097,206.6174 L371.0168,206.6174 L371.0168,207.415 L374.2074,207.415 L374.2074,204.2245 L373.4097,204.2245 " fill="#000000" style="stroke:;stroke-width:0.0;stroke-dasharray:;"/><text fill="#000000" font-family="sans-serif" font-size="9.5717" lengthAdjust="spacing" textLength="62.8997" x="377.6258" y="207.7048">note:indication</text><line style="stroke:#181818;stroke-width:0.6836919364568671;" x1="363.7241" x2="363.7241" y1="196.4012" y2="211.1753"/><line style="stroke:#181818;stroke-width:0.6836919364568671;" x1="205.1076" x2="499.323" y1="211.1753" y2="211.1753"/><text fill="#000000" font-family="sans-serif" font-size="9.5717" lengthAdjust="spacing" textLength="60.1649" x="254.3334" y="222.479">commentaires</text><path d="M367.8263,215.8081 L367.8263,218.9986 L371.0168,218.9986 L371.0168,215.8081 L367.8263,215.8081 M371.8145,217.4034 L371.8145,219.7963 L369.4215,219.7963 L369.4215,220.5939 L372.6121,220.5939 L372.6121,217.4034 L371.8145,217.4034 M373.4097,218.9986 L373.4097,221.3916 L371.0168,221.3916 L371.0168,222.1892 L374.2074,222.1892 L374.2074,218.9986 L373.4097,218.9986 " fill="#000000" style="stroke:;stroke-width:0.0;stroke-dasharray:;"/><text fill="#000000" font-family="sans-serif" font-size="9.5717" lengthAdjust="spacing" textLength="65.6344" x="377.6258" y="222.479">note:comments</text><line style="stroke:#181818;stroke-width:0.6836919364568671;" x1="363.7241" x2="363.7241" y1="211.1753" y2="225.9495"/><line style="stroke:#181818;stroke-width:0.6836919364568671;" x1="205.1076" x2="499.323" y1="225.9495" y2="225.9495"/><text fill="#000000" font-family="sans-serif" font-size="9.5717" lengthAdjust="spacing" textLength="116.2276" x="226.302" y="237.2531">propostionPharmaceutique</text><text fill="#000000" font-family="sans-serif" font-size="9.5717" lengthAdjust="spacing" textLength="49.2258" x="367.1426" y="237.2531">substitution</text><line style="stroke:#181818;stroke-width:0.6836919364568671;" x1="363.7241" x2="363.7241" y1="225.9495" y2="240.7237"/><line style="stroke:#181818;stroke-width:0.6836919364568671;" x1="205.1076" x2="499.323" y1="240.7237" y2="240.7237"/><text fill="#000000" font-family="sans-serif" font-size="9.5717" lengthAdjust="spacing" textLength="86.8289" x="308.8009" y="252.0273">effectiveDosePeriod</text><line style="stroke:#181818;stroke-width:0.6836919364568671;" x1="205.1076" x2="499.323" y1="255.4978" y2="255.4978"/><path d="M290.9109,260.1305 L290.9109,263.3211 L294.1015,263.3211 L294.1015,260.1305 L290.9109,260.1305 M294.8991,261.7258 L294.8991,264.1187 L292.5062,264.1187 L292.5062,264.9164 L295.6968,264.9164 L295.6968,261.7258 L294.8991,261.7258 M296.4944,263.3211 L296.4944,265.714 L294.1015,265.714 L294.1015,266.5117 L297.292,266.5117 L297.292,263.3211 L296.4944,263.3211 " fill="#000000" style="stroke:;stroke-width:0.0;stroke-dasharray:;"/><text fill="#000000" font-family="sans-serif" font-size="9.5717" lengthAdjust="spacing" textLength="113.4929" x="300.7105" y="266.8014">dosageInstruction:element</text><line style="stroke:#181818;stroke-width:0.6836919364568671;" x1="205.1076" x2="499.323" y1="270.272" y2="270.272"/><path d="M288.518,274.9047 L288.518,278.0953 L291.7086,278.0953 L291.7086,274.9047 L288.518,274.9047 M292.5062,276.5 L292.5062,278.8929 L290.1133,278.8929 L290.1133,279.6905 L293.3038,279.6905 L293.3038,276.5 L292.5062,276.5 M294.1015,278.0953 L294.1015,280.4882 L291.7086,280.4882 L291.7086,281.2858 L294.8991,281.2858 L294.8991,278.0953 L294.1015,278.0953 " fill="#000000" style="stroke:;stroke-width:0.0;stroke-dasharray:;"/><text fill="#000000" font-family="sans-serif" font-size="9.5717" lengthAdjust="spacing" textLength="118.2787" x="298.3176" y="281.5756">dosageInstruction:posology</text><line style="stroke:#181818;stroke-width:0.6836919364568671;" x1="205.1076" x2="499.323" y1="285.0461" y2="285.0461"/><text fill="#000000" font-family="sans-serif" font-size="9.5717" lengthAdjust="spacing" textLength="24.6129" x="272.1094" y="296.3497">forme</text><path d="M370.2192,289.6788 L370.2192,292.0718 L367.8263,292.0718 L367.8263,293.6671 L370.2192,293.6671 L370.2192,296.06 L371.8145,296.06 L371.8145,293.6671 L374.2074,293.6671 L374.2074,292.0718 L371.8145,292.0718 L371.8145,289.6788 L370.2192,289.6788 " fill="#000000" style="stroke:;stroke-width:0.0;stroke-dasharray:;"/><text fill="#000000" font-family="sans-serif" font-size="9.5717" lengthAdjust="spacing" textLength="95.0332" x="377.6258" y="296.3497">oncofair-element-form</text><line style="stroke:#181818;stroke-width:0.6836919364568671;" x1="363.7241" x2="363.7241" y1="285.0461" y2="299.8203"/><line style="stroke:#181818;stroke-width:0.6836919364568671;" x1="205.1076" x2="499.323" y1="299.8203" y2="299.8203"/><text fill="#000000" font-family="sans-serif" font-size="9.5717" lengthAdjust="spacing" textLength="41.7052" x="263.5632" y="311.1239">fourniture</text><path d="M370.2192,304.453 L370.2192,306.8459 L367.8263,306.8459 L367.8263,308.4412 L370.2192,308.4412 L370.2192,310.8341 L371.8145,310.8341 L371.8145,308.4412 L374.2074,308.4412 L374.2074,306.8459 L371.8145,306.8459 L371.8145,304.453 L370.2192,304.453 " fill="#000000" style="stroke:;stroke-width:0.0;stroke-dasharray:;"/><text fill="#000000" font-family="sans-serif" font-size="9.5717" lengthAdjust="spacing" textLength="118.2787" x="377.6258" y="311.1239">oncofair-mr-element-supply</text><line style="stroke:#181818;stroke-width:0.6836919364568671;" x1="363.7241" x2="363.7241" y1="299.8203" y2="314.5944"/><line style="stroke:#181818;stroke-width:0.6836919364568671;" x1="205.1076" x2="499.323" y1="314.5944" y2="314.5944"/><text fill="#000000" font-family="sans-serif" font-size="9.5717" lengthAdjust="spacing" textLength="105.9723" x="231.4297" y="325.8981">rangElementPrescription</text><path d="M370.2192,319.2272 L370.2192,321.6201 L367.8263,321.6201 L367.8263,323.2154 L370.2192,323.2154 L370.2192,325.6083 L371.8145,325.6083 L371.8145,323.2154 L374.2074,323.2154 L374.2074,321.6201 L371.8145,321.6201 L371.8145,319.2272 L370.2192,319.2272 " fill="#000000" style="stroke:;stroke-width:0.0;stroke-dasharray:;"/><text fill="#000000" font-family="sans-serif" font-size="9.5717" lengthAdjust="spacing" textLength="109.3907" x="377.6258" y="325.8981">oncofair-mr-element-rank</text><line style="stroke:#181818;stroke-width:0.6836919364568671;" x1="363.7241" x2="363.7241" y1="314.5944" y2="329.3686"/><line style="stroke:#181818;stroke-width:0.6836919364568671;" x1="205.1076" x2="499.323" y1="329.3686" y2="329.3686"/><text fill="#000000" font-family="sans-serif" font-size="9.5717" lengthAdjust="spacing" textLength="126.483" x="288.9738" y="340.6722">oncofair-mr-element-go-nogo</text><line style="stroke:#181818;stroke-width:0.6836919364568671;" x1="205.1076" x2="499.323" y1="344.1427" y2="344.1427"/><text fill="#000000" font-family="sans-serif" font-size="9.5717" lengthAdjust="spacing" textLength="116.9113" x="293.7596" y="355.4464">oncofair-pharmacist-advice</text></g><!--MD5=[e9850282ea28e6ced5d80996c24c667b]
link dosageInstructionelement to timing--><g id="link_dosageInstructionelement_timing"><path d="M1506.857,222.8836 C1530.1026,222.8836 1512.7231,252.884 1506.1733,275.186 C1491.6996,324.4597 1457.8226,373.4052 1433.1003,404.6157 " fill="none" id="dosageInstructionelement-to-timing" style="stroke:#181818;stroke-width:0.6836919364568671;"/><polygon fill="#181818" points="1430.8852,407.3915,1436.8563,404.2791,1433.0135,404.7164,1432.5761,400.8737,1430.8852,407.3915" style="stroke:#181818;stroke-width:0.6836919364568671;"/></g><!--MD5=[7721caf7dee59d9fde7d3bf9eafaf2f3]
link dosageInstructionposology to timing--><g id="link_dosageInstructionposology_timing"><path d="M1266.8812,222.8836 C1296.3004,222.8836 1268.7203,328.9994 1283.9735,354.1524 C1296.697,375.1281 1316.8659,392.2204 1337.0826,405.3883 " fill="none" id="dosageInstructionposology-to-timing" style="stroke:#181818;stroke-width:0.6836919364568671;"/><polygon fill="#181818" points="1340.0635,407.2958,1336.3577,401.6737,1337.1852,405.4517,1333.4072,406.2791,1340.0635,407.2958" style="stroke:#181818;stroke-width:0.6836919364568671;"/></g><!--MD5=[9a876b4d74c1820088a8a73fe2baa18e]
link dosageInstructionposology to doseAndRate--><g id="link_dosageInstructionposology_doseAndRate"><path d="M1197.1446,244.7617 C1197.1446,305.1727 1178.3636,374.0752 1166.6519,411.1655 " fill="none" id="dosageInstructionposology-to-doseAndRate" style="stroke:#181818;stroke-width:0.6836919364568671;"/><polygon fill="#181818" points="1165.6127,414.4404,1170.085,409.4066,1166.6496,411.183,1164.8732,407.7475,1165.6127,414.4404" style="stroke:#181818;stroke-width:0.6836919364568671;"/></g><!--MD5=[5fb78b3e91ba559c4f8da6ee29c34b21]
link ElementPosologie to effectiveDosePeriod--><g id="link_ElementPosologie_effectiveDosePeriod"><path d="M499.7788,244.078 C585.295,244.078 494.6511,110.0539 566.4388,63.5834 C610.5027,35.0597 1464.9535,38.9431 1511.301,63.5834 C1563.3984,91.2865 1594.7183,156.9141 1609.0074,194.4967 " fill="none" id="ElementPosologie-to-effectiveDosePeriod" style="stroke:#181818;stroke-width:0.6836919364568671;"/><polygon fill="#181818" points="1610.2518,197.8263,1610.6451,191.1042,1609.0482,194.6267,1605.5258,193.0298,1610.2518,197.8263" style="stroke:#181818;stroke-width:0.6836919364568671;"/></g><!--MD5=[8975fd20101149ee1f80d66cec5ec332]
link ElementPosologie to dosageInstructionelement--><g id="link_ElementPosologie_dosageInstructionelement"><path d="M499.7788,258.4356 C591.3046,258.4356 489.6055,113.3219 566.4388,63.5834 C599.3449,42.2795 1236.5321,46.9218 1272.0088,63.5834 C1316.9001,84.6684 1351.7615,129.416 1374.296,166.0277 " fill="none" id="ElementPosologie-to-dosageInstructionelement" style="stroke:#181818;stroke-width:0.6836919364568671;"/><polygon fill="#181818" points="1376.1625,169.0907,1375.2729,162.4161,1374.3736,166.1777,1370.6121,165.2783,1376.1625,169.0907" style="stroke:#181818;stroke-width:0.6836919364568671;"/></g><!--MD5=[0701a2468eddd4606dc3882ad8421eac]
link ElementPosologie to dosageInstructionposology--><g id="link_ElementPosologie_dosageInstructionposology"><path d="M499.7788,272.7931 C597.369,272.7931 484.5188,116.6173 566.4388,63.5834 C616.0543,31.4635 1046.6777,34.8956 1098.3511,63.5834 C1148.7324,91.56 1176.7637,157.0851 1189.2069,194.5787 " fill="none" id="ElementPosologie-to-dosageInstructionposology" style="stroke:#181818;stroke-width:0.6836919364568671;"/><polygon fill="#181818" points="1190.2872,197.8946,1190.972,191.196,1189.2237,194.6458,1185.7739,192.8975,1190.2872,197.8946" style="stroke:#181818;stroke-width:0.6836919364568671;"/></g><!--MD5=[b640938ea5a4b1ed4da5d06f4f338228]
link ElementPosologie to oncofairmrelementgonogo--><g id="link_ElementPosologie_oncofairmrelementgonogo"><path d="M499.7788,330.2232 C621.934,330.2232 463.8987,129.963 566.4388,63.5834 C597.2391,43.6469 864.043,46.785 896.662,63.5834 C950.0857,91.0951 983.8464,156.7979 999.5166,194.4488 " fill="none" id="ElementPosologie-to-oncofairmrelementgonogo" style="stroke:#181818;stroke-width:0.6836919364568671;"/><polygon fill="#181818" points="1000.884,197.7784,1001.0772,191.0476,999.5858,194.616,996.0174,193.1246,1000.884,197.7784" style="stroke:#181818;stroke-width:0.6836919364568671;"/></g><!--MD5=[f9974872449c20f27582ea1f324f79d5]
link ElementPosologie to oncofairpharmacistadvice--><g id="link_ElementPosologie_oncofairpharmacistadvice"><path d="M499.7788,344.5807 C628.1351,344.5807 458.6889,133.3336 566.4388,63.5834 C643.8464,13.4756 730.5522,137.3674 765.229,194.8249 " fill="none" id="ElementPosologie-to-oncofairpharmacistadvice" style="stroke:#181818;stroke-width:0.6836919364568671;"/><polygon fill="#181818" points="767.0408,197.8468,766.2201,191.1634,765.282,194.9155,761.53,193.9774,767.0408,197.8468" style="stroke:#181818;stroke-width:0.6836919364568671;"/></g><!--MD5=[c7581385baecec34488b33fbc671dc58]
reverse link OncoFAIRMedicationRequestPrescription to ElementPosologie--><g id="link_OncoFAIRMedicationRequestPrescription_ElementPosologie"><path codeLine="80" d="M352.1013,40.9395 C352.1013,53.4374 352.1013,70.8852 352.1013,90.0491 " fill="none" id="OncoFAIRMedicationRequestPrescription-backto-ElementPosologie" style="stroke:#181818;stroke-width:0.6836919364568671;"/><polygon fill="#181818" points="352.1013,37.227,349.3666,43.3803,352.1013,40.6455,354.8361,43.3803,352.1013,37.227" style="stroke:#181818;stroke-width:0.6836919364568671;"/><text fill="#000000" font-family="sans-serif" font-size="8.888" lengthAdjust="spacing" textLength="84.0941" x="352.785" y="67.3403">basedOn:prescription</text></g><!--MD5=[98ae45363d6f27de47d39c9eac6bb859]
link ElementPosologie to OncoFAIRMedicationRequestElement--><g id="link_ElementPosologie_OncoFAIRMedicationRequestElement"><path codeLine="81" d="M352.1013,354.3644 C352.1013,379.8251 352.1013,403.4124 352.1013,419.0485 " fill="none" id="ElementPosologie-to-OncoFAIRMedicationRequestElement" style="stroke:#181818;stroke-width:0.6836919364568671;"/><polygon fill="#181818" points="352.1013,422.6515,354.8361,416.4983,352.1013,419.2331,349.3666,416.4983,352.1013,422.6515" style="stroke:#181818;stroke-width:0.6836919364568671;"/><text fill="#000000" font-family="sans-serif" font-size="8.888" lengthAdjust="spacing" textLength="69.7366" x="352.785" y="384.5734">basedOn:element</text></g><!--MD5=[ed6e0cd0e647983083646cf71fca0703]
reverse link OncoFAIRCarePlan to ElementPosologie--><g id="link_OncoFAIRCarePlan_ElementPosologie"><path codeLine="82" d="M108.2558,222.1999 C134.1335,222.1999 166.6362,222.1999 199.3988,222.1999 " fill="none" id="OncoFAIRCarePlan-backto-ElementPosologie" style="stroke:#181818;stroke-width:0.6836919364568671;"/><polygon fill="#181818" points="104.81,222.1999,110.9632,224.9346,108.2284,222.1999,110.9632,219.4651,104.81,222.1999" style="stroke:#181818;stroke-width:0.6836919364568671;"/><text fill="#000000" font-family="sans-serif" font-size="8.888" lengthAdjust="spacing" textLength="69.7366" x="117.2532" y="217.7525">basedOn:protocol</text></g><!--MD5=[a5f62b312f815bf3c75a90f630a7d715]
link ElementPosologie to Practitioner--><g id="link_ElementPosologie_Practitioner"><path codeLine="83" d="M504.6193,222.1999 C526.1078,222.1999 546.5023,222.1999 563.1365,222.1999 " fill="none" id="ElementPosologie-to-Practitioner" style="stroke:#181818;stroke-width:0.6836919364568671;"/><polygon fill="#181818" points="566.6302,222.1999,560.477,219.4651,563.2117,222.1999,560.477,224.9346,566.6302,222.1999" style="stroke:#181818;stroke-width:0.6836919364568671;"/><text fill="#000000" font-family="sans-serif" font-size="8.888" lengthAdjust="spacing" textLength="36.9194" x="517.2129" y="217.7525">requester</text></g><!--MD5=[1dfe869da20249f2064feebe99384d7f]
@startuml

scale 1700 width

map "timing" as timing #back:WhiteSmoke;header:LightGray {
    dateHeureDebutPrescrite => repeat.bounds[x]:boundsPeriod.start
    dateHeureFinPrescrite => repeat.bounds[x]:boundsPeriod.end
    deltaDateHeureReference => repeat.offset
}

map "doseAndRate" as doseAndRate #back:WhiteSmoke;header:LightGray {
    quantite => dose[x]:doseQuantity
    debit => rate[x]:rateQuantity
}

map "effectiveDosePeriod" as effectiveDosePeriod #back:WhiteSmoke;header:LightGray {
    dateHeureDebutPrescription => start
    dateHeureFinPrescription => end
}

map "<&layers> dosageInstruction:element" as dosageInstructionelement #back:WhiteSmoke;header:LightGray {
    posologie => text
    conditionsApplication => additionalInstruction
    timing *- -> timing
    lieuAdministration => site
    voieAdministration => route
    typeElementPrescription => method
}

map "<&layers> dosageInstruction:posology" as dosageInstructionposology #back:WhiteSmoke;header:LightGray {
    timing *- -> timing
    doseAndRate *- -> doseAndRate
}

object "**OncoFAIRMedicationRequestPrescription**" as OncoFAIRMedicationRequestPrescription #LightSkyBlue {
    Prescription
}

object "**OncoFAIRMedicationRequestElement**" as OncoFAIRMedicationRequestElement #LightSkyBlue {
    ElementLie
}

object "**OncoFAIRCarePlan**" as OncoFAIRCarePlan #Gold {
    ProtocolePrescrit
}

object "**Practitioner**" as Practitioner {
    idpPrescripteur
}

map "<&plus> oncofair-mr-element-go-nogo" as oncofairmrelementgonogo #back:WhiteSmoke;header:LightGray {
    GoNogo => GoNogoStatus
    motifAttente => GoNogoReasonWaiting
}

map "<&plus> oncofair-pharmacist-advice" as oncofairpharmacistadvice #back:WhiteSmoke;header:LightGray {
    validationPharmaceutique => pharmacistValidation
    propositionPharmaceutique => pharmacistProposal
}

map "**ElementPosologie : OncoFAIRMedicationRequestElement**" as ElementPosologie #back:AliceBlue;header:LightSkyBlue {
    idElementPrescription => identifier
    idGroupe => groupIdentifier
    CreationArretModificationValidation => status
    urgent => priority
    dispostifsAssocies => device
    libelleElementPrescription => <&layers> note:wording
    indication => <&layers> note:indication
    commentaires => <&layers> note:comments
    propostionPharmaceutique => substitution
    effectiveDosePeriod *-> effectiveDosePeriod
    <&layers> dosageInstruction:element *-> dosageInstructionelement
    <&layers> dosageInstruction:posology *-> dosageInstructionposology
    forme => <&plus> oncofair-element-form
    fourniture => <&plus> oncofair-mr-element-supply
    rangElementPrescription => <&plus> oncofair-mr-element-rank
    oncofair-mr-element-go-nogo *-> oncofairmrelementgonogo
    oncofair-pharmacist-advice *-> oncofairpharmacistadvice
}

ElementPosologie -u-> OncoFAIRMedicationRequestPrescription : basedOn:prescription
ElementPosologie -d-> OncoFAIRMedicationRequestElement : basedOn:element
ElementPosologie -l-> OncoFAIRCarePlan : basedOn:protocol
ElementPosologie -r-> Practitioner : requester

@enduml

PlantUML version 1.2022.7(Mon Aug 22 19:01:30 CEST 2022)
(GPL source distribution)
Java Runtime: Java(TM) SE Runtime Environment
JVM: Java HotSpot(TM) 64-Bit Server VM
Default Encoding: UTF-8
Language: fr
Country: FR
--></g></svg>