<?xml version="1.0" encoding="us-ascii" standalone="no"?><svg xmlns="http://www.w3.org/2000/svg" xmlns:xlink="http://www.w3.org/1999/xlink" contentStyleType="text/css" height="304.6729px" preserveAspectRatio="none" style="width:1000px;height:304px;background:#FFFFFF;" version="1.1" viewBox="0 0 1000 304" width="1000.9346px" zoomAndPan="magnify"><defs/><g><g id="elem_OncoFAIRCarePlan"><rect fill="#FFD700" height="46.0207" style="stroke:#181818;stroke-width:0.4672897196261682;" width="136.4486" x="103.271" y="6.5421"/><text fill="#000000" font-family="sans-serif" font-size="13.0841" font-weight="bold" lengthAdjust="spacing" textLength="123.3645" x="109.8131" y="22.5303">OncoFAIRCarePlan</text><line style="stroke:#181818;stroke-width:0.4672897196261682;" x1="104.2056" x2="238.785" y1="27.6833" y2="27.6833"/><text fill="#000000" font-family="sans-serif" font-size="13.0841" lengthAdjust="spacing" textLength="100.9346" x="108.8785" y="45.5407">ProtocolePrescrit</text></g><g id="elem_oncofaircptreatment"><rect fill="#F5F5F5" height="84.5648" style="stroke:#181818;stroke-width:0.4672897196261682;" width="258.8785" x="735.514" y="171.9626"/><rect fill="#D3D3D3" height="21.1412" style="stroke:#181818;stroke-width:0.4672897196261682;" width="258.8785" x="735.514" y="171.9626"/><path d="M798.4424,179.2409 L798.4424,182.5119 L795.1713,182.5119 L795.1713,184.6926 L798.4424,184.6926 L798.4424,187.9636 L800.6231,187.9636 L800.6231,184.6926 L803.8941,184.6926 L803.8941,182.5119 L800.6231,182.5119 L800.6231,179.2409 L798.4424,179.2409 " fill="#000000" style="stroke:;stroke-width:0.0;stroke-dasharray:;"/><text fill="#000000" font-family="sans-serif" font-size="13.0841" lengthAdjust="spacing" textLength="127.1028" x="808.567" y="187.9509">oncofair-cp-treatment</text><line style="stroke:#181818;stroke-width:0.9345794392523364;" x1="735.514" x2="994.3925" y1="193.1038" y2="193.1038"/><text fill="#000000" font-family="sans-serif" font-size="13.0841" lengthAdjust="spacing" textLength="73.8318" x="764.9533" y="209.0921">numeroCure</text><text fill="#000000" font-family="sans-serif" font-size="13.0841" lengthAdjust="spacing" textLength="86.9159" x="872.8972" y="209.0921">treatmentRank</text><line style="stroke:#181818;stroke-width:0.9345794392523364;" x1="868.2243" x2="868.2243" y1="193.1038" y2="214.245"/><line style="stroke:#181818;stroke-width:0.9345794392523364;" x1="735.514" x2="994.3925" y1="214.245" y2="214.245"/><text fill="#000000" font-family="sans-serif" font-size="13.0841" lengthAdjust="spacing" textLength="70.0935" x="766.8224" y="230.2333">numeroJour</text><text fill="#000000" font-family="sans-serif" font-size="13.0841" lengthAdjust="spacing" textLength="52.3364" x="872.8972" y="230.2333">dayRank</text><line style="stroke:#181818;stroke-width:0.9345794392523364;" x1="868.2243" x2="868.2243" y1="214.245" y2="235.3862"/><line style="stroke:#181818;stroke-width:0.9345794392523364;" x1="735.514" x2="994.3925" y1="235.3862" y2="235.3862"/><text fill="#000000" font-family="sans-serif" font-size="13.0841" lengthAdjust="spacing" textLength="123.3645" x="740.1869" y="251.3745">dateHeureReference</text><text fill="#000000" font-family="sans-serif" font-size="13.0841" lengthAdjust="spacing" textLength="116.8224" x="872.8972" y="251.3745">dateTimeReference</text><line style="stroke:#181818;stroke-width:0.9345794392523364;" x1="868.2243" x2="868.2243" y1="235.3862" y2="256.5275"/></g><g id="elem_oncofairpharmacistadvice"><rect fill="#F5F5F5" height="63.4236" style="stroke:#181818;stroke-width:0.4672897196261682;" width="302.8037" x="384.5794" y="182.7103"/><rect fill="#D3D3D3" height="21.1412" style="stroke:#181818;stroke-width:0.4672897196261682;" width="302.8037" x="384.5794" y="182.7103"/><path d="M453.1153,189.9886 L453.1153,193.2596 L449.8442,193.2596 L449.8442,195.4403 L453.1153,195.4403 L453.1153,198.7113 L455.296,198.7113 L455.296,195.4403 L458.567,195.4403 L458.567,193.2596 L455.296,193.2596 L455.296,189.9886 L453.1153,189.9886 " fill="#000000" style="stroke:;stroke-width:0.0;stroke-dasharray:;"/><text fill="#000000" font-family="sans-serif" font-size="13.0841" lengthAdjust="spacing" textLength="159.8131" x="463.2399" y="198.6985">oncofair-pharmacist-advice</text><line style="stroke:#181818;stroke-width:0.9345794392523364;" x1="384.5794" x2="687.3832" y1="203.8515" y2="203.8515"/><text fill="#000000" font-family="sans-serif" font-size="13.0841" lengthAdjust="spacing" textLength="152.3364" x="393.9252" y="219.8397">validationPharmaceutique</text><text fill="#000000" font-family="sans-serif" font-size="13.0841" lengthAdjust="spacing" textLength="122.4299" x="560.2804" y="219.8397">pharmacistValidation</text><line style="stroke:#181818;stroke-width:0.9345794392523364;" x1="555.6075" x2="555.6075" y1="203.8515" y2="224.9927"/><line style="stroke:#181818;stroke-width:0.9345794392523364;" x1="384.5794" x2="687.3832" y1="224.9927" y2="224.9927"/><text fill="#000000" font-family="sans-serif" font-size="13.0841" lengthAdjust="spacing" textLength="161.6822" x="389.2523" y="240.9809">propositionPharmaceutique</text><text fill="#000000" font-family="sans-serif" font-size="13.0841" lengthAdjust="spacing" textLength="116.8224" x="560.2804" y="240.9809">pharmacistProposal</text><line style="stroke:#181818;stroke-width:0.9345794392523364;" x1="555.6075" x2="555.6075" y1="224.9927" y2="246.1339"/></g><g id="elem_ProtocolePrescrit"><rect fill="#FAFAD2" height="169.1297" style="stroke:#181818;stroke-width:0.4672897196261682;" width="330.2181" x="6.5421" y="129.9065"/><rect fill="#FFD700" height="21.1412" style="stroke:#181818;stroke-width:0.4672897196261682;" width="330.2181" x="6.5421" y="129.9065"/><text fill="#000000" font-family="sans-serif" font-size="13.0841" font-weight="bold" lengthAdjust="spacing" textLength="249.5327" x="46.8847" y="145.8948">ProtocolePrescrit : OncoFAIRCarePlan</text><line style="stroke:#181818;stroke-width:0.9345794392523364;" x1="6.5421" x2="336.7601" y1="151.0478" y2="151.0478"/><text fill="#000000" font-family="sans-serif" font-size="13.0841" lengthAdjust="spacing" textLength="111.215" x="59.3458" y="167.036">idProtocolePrescrit</text><text fill="#000000" font-family="sans-serif" font-size="13.0841" lengthAdjust="spacing" textLength="50.4673" x="228.0374" y="167.036">identifier</text><line style="stroke:#181818;stroke-width:0.9345794392523364;" x1="223.3645" x2="223.3645" y1="151.0478" y2="172.189"/><line style="stroke:#181818;stroke-width:0.9345794392523364;" x1="6.5421" x2="336.7601" y1="172.189" y2="172.189"/><text fill="#000000" font-family="sans-serif" font-size="13.0841" lengthAdjust="spacing" textLength="207.4766" x="11.215" y="188.1772">CreationArretModificationValidation</text><text fill="#000000" font-family="sans-serif" font-size="13.0841" lengthAdjust="spacing" textLength="35.514" x="228.0374" y="188.1772">status</text><line style="stroke:#181818;stroke-width:0.9345794392523364;" x1="223.3645" x2="223.3645" y1="172.189" y2="193.3302"/><line style="stroke:#181818;stroke-width:0.9345794392523364;" x1="6.5421" x2="336.7601" y1="193.3302" y2="193.3302"/><text fill="#000000" font-family="sans-serif" font-size="13.0841" lengthAdjust="spacing" textLength="134.5794" x="47.6636" y="209.3184">libelleProtocolePrescrit</text><text fill="#000000" font-family="sans-serif" font-size="13.0841" lengthAdjust="spacing" textLength="20.5607" x="228.0374" y="209.3184">title</text><line style="stroke:#181818;stroke-width:0.9345794392523364;" x1="223.3645" x2="223.3645" y1="193.3302" y2="214.4714"/><line style="stroke:#181818;stroke-width:0.9345794392523364;" x1="6.5421" x2="336.7601" y1="214.4714" y2="214.4714"/><text fill="#000000" font-family="sans-serif" font-size="13.0841" lengthAdjust="spacing" textLength="56.0748" x="86.9159" y="230.4596">indication</text><path d="M228.972,221.7497 L228.972,226.111 L233.3333,226.111 L233.3333,221.7497 L228.972,221.7497 M234.4237,223.9303 L234.4237,227.2014 L231.1526,227.2014 L231.1526,228.2917 L235.514,228.2917 L235.514,223.9303 L234.4237,223.9303 M236.6044,226.111 L236.6044,229.3821 L233.3333,229.3821 L233.3333,230.4724 L237.6947,230.4724 L237.6947,226.111 L236.6044,226.111 " fill="#000000" style="stroke:;stroke-width:0.0;stroke-dasharray:;"/><text fill="#000000" font-family="sans-serif" font-size="13.0841" lengthAdjust="spacing" textLength="85.9813" x="242.3676" y="230.4596">note:indication</text><line style="stroke:#181818;stroke-width:0.9345794392523364;" x1="223.3645" x2="223.3645" y1="214.4714" y2="235.6126"/><line style="stroke:#181818;stroke-width:0.9345794392523364;" x1="6.5421" x2="336.7601" y1="235.6126" y2="235.6126"/><text fill="#000000" font-family="sans-serif" font-size="13.0841" lengthAdjust="spacing" textLength="82.243" x="73.8318" y="251.6008">commentaires</text><path d="M228.972,242.8909 L228.972,247.2522 L233.3333,247.2522 L233.3333,242.8909 L228.972,242.8909 M234.4237,245.0716 L234.4237,248.3426 L231.1526,248.3426 L231.1526,249.4329 L235.514,249.4329 L235.514,245.0716 L234.4237,245.0716 M236.6044,247.2522 L236.6044,250.5233 L233.3333,250.5233 L233.3333,251.6136 L237.6947,251.6136 L237.6947,247.2522 L236.6044,247.2522 " fill="#000000" style="stroke:;stroke-width:0.0;stroke-dasharray:;"/><text fill="#000000" font-family="sans-serif" font-size="13.0841" lengthAdjust="spacing" textLength="89.7196" x="242.3676" y="251.6008">note:comments</text><line style="stroke:#181818;stroke-width:0.9345794392523364;" x1="223.3645" x2="223.3645" y1="235.6126" y2="256.7538"/><line style="stroke:#181818;stroke-width:0.9345794392523364;" x1="6.5421" x2="336.7601" y1="256.7538" y2="256.7538"/><text fill="#000000" font-family="sans-serif" font-size="13.0841" lengthAdjust="spacing" textLength="127.1028" x="108.0997" y="272.742">oncofair-cp-treatment</text><line style="stroke:#181818;stroke-width:0.9345794392523364;" x1="6.5421" x2="336.7601" y1="277.895" y2="277.895"/><text fill="#000000" font-family="sans-serif" font-size="13.0841" lengthAdjust="spacing" textLength="159.8131" x="91.7445" y="293.8833">oncofair-pharmacist-advice</text></g><!--link ProtocolePrescrit to oncofaircptreatment--><g id="link_ProtocolePrescrit_oncofaircptreatment"><path d="M337.8505,266.3551 C369.4299,266.3551 352.1495,156.4206 361.215,126.1682 C366.3645,108.9813 362.5327,99.0374 377.5701,89.2523 C436.757,50.7383 628.2336,67.2336 695.3271,89.2523 C742.7383,104.8131 783.6565,135.4884 815.4135,164.2455 " fill="none" id="ProtocolePrescrit-to-oncofaircptreatment" style="stroke:#181818;stroke-width:0.9345794392523364;"/><polygon fill="#181818" points="819.5701,168.0093,815.8445,159.5925,816.1063,164.8728,810.826,165.1345,819.5701,168.0093" style="stroke:#181818;stroke-width:0.9345794392523364;"/></g><!--link ProtocolePrescrit to oncofairpharmacistadvice--><g id="link_ProtocolePrescrit_oncofairpharmacistadvice"><path d="M337.8505,287.8505 C395.7944,297.6916 452.8099,276.0795 491.4641,252.1823 " fill="none" id="ProtocolePrescrit-to-oncofairpharmacistadvice" style="stroke:#181818;stroke-width:0.9345794392523364;"/><polygon fill="#181818" points="496.2336,249.2336,487.1135,250.477,492.259,251.6909,491.0451,256.8364,496.2336,249.2336" style="stroke:#181818;stroke-width:0.9345794392523364;"/></g><!--reverse link OncoFAIRCarePlan to ProtocolePrescrit--><g id="link_OncoFAIRCarePlan_ProtocolePrescrit"><path codeLine="29" d="M171.4953,58.0187 C171.4953,76.5327 171.4953,98.6355 171.4953,125.8598 " fill="none" id="OncoFAIRCarePlan-backto-ProtocolePrescrit" style="stroke:#181818;stroke-width:0.9345794392523364;"/><polygon fill="#181818" points="171.4953,52.4112,167.757,60.8224,171.4953,57.0841,175.2336,60.8224,171.4953,52.4112" style="stroke:#181818;stroke-width:0.9345794392523364;"/><text fill="#000000" font-family="sans-serif" font-size="12.1495" lengthAdjust="spacing" textLength="48.5981" x="172.4299" y="94.419">basedOn</text></g><!--SRC=[ZLF1Qjj04BthAnO7SX08tAkQ6eAXQKfBX5jQUXplZgk9LplgQ9HWIl-zAycHuiYXrN7UUpFpTfuQ2nxDc-LoQHx9QPaalBr7gsQHfdV1yllhsyqQ10iF8KqN1XhpicmkRjWxypinyIk4bIrxB0GRAwJ9doIfe3QBgylQjytAS9JlW2IpTQQ2e1K6xHi_8ROUw-PY2tQVVoz9yKl5UtnR8ZYK_1FzBFL6u72S6zeAXTUje7ctCgD-0s7_3F_8hNIuWyE8E53yW56umHqA1ei3G_4hLLFnTHzr2LA1fKOpS0zaySJCX0xWVpjw04zn2-9G32smLVhLzjjDJR-Dh5vK2zVSqBzKHKy3FvfAqzdXJ6vU2S2SEdWQ7CGiODYm-u7Uy-EJksSH8JTl4BUZA5FQ4KhFMdSdZ3QkHL0_iuk8xGkJuquLdrNRfbTusiQHUBQvadeSfWTtRDJLhouz753YEGChvXFOSorNNOZY5R4vmpx2m_IpiJPfjZeNwrF5B40difS1wcuszvYrKJBxCtEpXGRTNKZ-0W00]--></g></svg>