<?xml version="1.0" encoding="us-ascii" standalone="no"?><svg xmlns="http://www.w3.org/2000/svg" xmlns:xlink="http://www.w3.org/1999/xlink" contentStyleType="text/css" height="397.2821px" preserveAspectRatio="none" style="width:1000px;height:397px;background:#FFFFFF;" version="1.1" viewBox="0 0 1000 397" width="1000.1446px" zoomAndPan="magnify"><defs/><g><g id="elem_dosage"><rect fill="#F5F5F5" height="58.8665" style="stroke:#181818;stroke-width:0.4337140378776925;" width="244.0364" x="750.759" y="169.5822"/><rect fill="#D3D3D3" height="19.6222" style="stroke:#181818;stroke-width:0.4337140378776925;" width="244.0364" x="750.759" y="169.5822"/><text fill="#000000" font-family="sans-serif" font-size="12.144" lengthAdjust="spacing" textLength="40.7691" x="852.3927" y="184.4216">dosage</text><line style="stroke:#181818;stroke-width:0.867428075755385;" x1="750.759" x2="994.7954" y1="189.2044" y2="189.2044"/><text fill="#000000" font-family="sans-serif" font-size="12.144" lengthAdjust="spacing" textLength="83.2731" x="767.6738" y="204.0438">quantitePrevue</text><text fill="#000000" font-family="sans-serif" font-size="12.144" lengthAdjust="spacing" textLength="26.8903" x="872.1989" y="204.0438">dose</text><line style="stroke:#181818;stroke-width:0.867428075755385;" x1="867.8618" x2="867.8618" y1="189.2044" y2="208.8265"/><line style="stroke:#181818;stroke-width:0.867428075755385;" x1="750.759" x2="994.7954" y1="208.8265" y2="208.8265"/><text fill="#000000" font-family="sans-serif" font-size="12.144" lengthAdjust="spacing" textLength="108.4285" x="755.0961" y="223.666">quantiteAdministree</text><path d="M873.0664,215.5819 L873.0664,219.6299 L877.1144,219.6299 L877.1144,215.5819 L873.0664,215.5819 M878.1264,217.6059 L878.1264,220.6419 L875.0904,220.6419 L875.0904,221.6539 L879.1384,221.6539 L879.1384,217.6059 L878.1264,217.6059 M880.1504,219.6299 L880.1504,222.6659 L877.1144,222.6659 L877.1144,223.6778 L881.1624,223.6778 L881.1624,219.6299 L880.1504,219.6299 " fill="#000000" style="stroke:;stroke-width:0.0;stroke-dasharray:;"/><text fill="#000000" font-family="sans-serif" font-size="12.144" lengthAdjust="spacing" textLength="104.9588" x="885.4995" y="223.666">rate[x]:rateQuantity</text><line style="stroke:#181818;stroke-width:0.867428075755385;" x1="867.8618" x2="867.8618" y1="208.8265" y2="228.4487"/></g><g id="elem_OncoFAIRMedicationAdministrationElement"><rect fill="#20B2AA" height="42.7141" style="stroke:#181818;stroke-width:0.4337140378776925;" width="276.7096" x="94.9834" y="6.072"/><text fill="#000000" font-family="sans-serif" font-size="12.144" font-weight="bold" lengthAdjust="spacing" textLength="264.5656" x="101.0554" y="20.9115">OncoFAIRMedicationAdministrationElement</text><line style="stroke:#181818;stroke-width:0.4337140378776925;" x1="95.8508" x2="370.8255" y1="25.6942" y2="25.6942"/><text fill="#000000" font-family="sans-serif" font-size="12.144" lengthAdjust="spacing" textLength="121.4399" x="100.1879" y="42.2685">ElementAdministration</text></g><g id="elem_OncoFAIRMedication"><rect fill="#32CD32" height="42.7141" style="stroke:#181818;stroke-width:0.4337140378776925;" width="139.6559" x="163.5102" y="348.7061"/><text fill="#000000" font-family="sans-serif" font-size="12.144" font-weight="bold" lengthAdjust="spacing" textLength="127.5119" x="169.5822" y="363.5455">OncoFAIRMedication</text><line style="stroke:#181818;stroke-width:0.4337140378776925;" x1="164.3776" x2="302.2987" y1="368.3283" y2="368.3283"/><text fill="#000000" font-family="sans-serif" font-size="12.144" lengthAdjust="spacing" textLength="62.4548" x="168.7148" y="384.9026">Composant</text></g><g id="elem_oncofairmaelementtraceability"><rect fill="#F5F5F5" height="58.8665" style="stroke:#181818;stroke-width:0.4337140378776925;" width="201.5325" x="504.8431" y="169.5822"/><rect fill="#D3D3D3" height="19.6222" style="stroke:#181818;stroke-width:0.4337140378776925;" width="201.5325" x="504.8431" y="169.5822"/><path d="M514.8186,176.3375 L514.8186,179.3735 L511.7826,179.3735 L511.7826,181.3975 L514.8186,181.3975 L514.8186,184.4335 L516.8426,184.4335 L516.8426,181.3975 L519.8786,181.3975 L519.8786,179.3735 L516.8426,179.3735 L516.8426,176.3375 L514.8186,176.3375 " fill="#000000" style="stroke:;stroke-width:0.0;stroke-dasharray:;"/><text fill="#000000" font-family="sans-serif" font-size="12.144" lengthAdjust="spacing" textLength="176.0879" x="524.2157" y="184.4216">oncofair-ma-element-traceability</text><line style="stroke:#181818;stroke-width:0.867428075755385;" x1="504.8431" x2="706.3756" y1="189.2044" y2="189.2044"/><text fill="#000000" font-family="sans-serif" font-size="12.144" lengthAdjust="spacing" textLength="13.0114" x="516.1197" y="204.0438">lot</text><text fill="#000000" font-family="sans-serif" font-size="12.144" lengthAdjust="spacing" textLength="72.864" x="544.7448" y="204.0438">batchNumber</text><line style="stroke:#181818;stroke-width:0.867428075755385;" x1="540.4077" x2="540.4077" y1="189.2044" y2="208.8265"/><line style="stroke:#181818;stroke-width:0.867428075755385;" x1="504.8431" x2="706.3756" y1="208.8265" y2="208.8265"/><text fill="#000000" font-family="sans-serif" font-size="12.144" lengthAdjust="spacing" textLength="26.8903" x="509.1803" y="223.666">serie</text><text fill="#000000" font-family="sans-serif" font-size="12.144" lengthAdjust="spacing" textLength="71.9965" x="544.7448" y="223.666">serialNumber</text><line style="stroke:#181818;stroke-width:0.867428075755385;" x1="540.4077" x2="540.4077" y1="208.8265" y2="228.4487"/></g><g id="elem_ComposantAdministre"><rect fill="#F5FFFA" height="156.9774" style="stroke:#181818;stroke-width:0.4337140378776925;" width="454.8215" x="6.072" y="120.5725"/><rect fill="#20B2AA" height="19.6222" style="stroke:#181818;stroke-width:0.4337140378776925;" width="454.8215" x="6.072" y="120.5725"/><text fill="#000000" font-family="sans-serif" font-size="12.144" font-weight="bold" lengthAdjust="spacing" textLength="429.3769" x="18.7943" y="135.412">ComposantAdministre : OncoFAIRMedicationAdministrationComponent</text><line style="stroke:#181818;stroke-width:0.867428075755385;" x1="6.072" x2="460.8935" y1="140.1947" y2="140.1947"/><text fill="#000000" font-family="sans-serif" font-size="12.144" lengthAdjust="spacing" textLength="76.3337" x="60.2863" y="155.0341">commentaires</text><path d="M196.0387,146.95 L196.0387,150.998 L200.0867,150.998 L200.0867,146.95 L196.0387,146.95 M201.0987,148.974 L201.0987,152.01 L198.0627,152.01 L198.0627,153.022 L202.1107,153.022 L202.1107,148.974 L201.0987,148.974 M203.1227,150.998 L203.1227,154.034 L200.0867,154.034 L200.0867,155.046 L204.1347,155.046 L204.1347,150.998 L203.1227,150.998 " fill="#000000" style="stroke:;stroke-width:0.0;stroke-dasharray:;"/><text fill="#000000" font-family="sans-serif" font-size="12.144" lengthAdjust="spacing" textLength="83.2731" x="208.4719" y="155.0341">note:comments</text><line style="stroke:#181818;stroke-width:0.867428075755385;" x1="190.8342" x2="190.8342" y1="140.1947" y2="159.8168"/><line style="stroke:#181818;stroke-width:0.867428075755385;" x1="6.072" x2="460.8935" y1="159.8168" y2="159.8168"/><text fill="#000000" font-family="sans-serif" font-size="12.144" lengthAdjust="spacing" textLength="93.6822" x="51.612" y="174.6563">libelleComposant</text><path d="M196.0387,166.5722 L196.0387,170.6202 L200.0867,170.6202 L200.0867,166.5722 L196.0387,166.5722 M201.0987,168.5962 L201.0987,171.6322 L198.0627,171.6322 L198.0627,172.6442 L202.1107,172.6442 L202.1107,168.5962 L201.0987,168.5962 M203.1227,170.6202 L203.1227,173.6562 L200.0867,173.6562 L200.0867,174.6682 L204.1347,174.6682 L204.1347,170.6202 L203.1227,170.6202 " fill="#000000" style="stroke:;stroke-width:0.0;stroke-dasharray:;"/><text fill="#000000" font-family="sans-serif" font-size="12.144" lengthAdjust="spacing" textLength="70.2617" x="208.4719" y="174.6563">note:wording</text><line style="stroke:#181818;stroke-width:0.867428075755385;" x1="190.8342" x2="190.8342" y1="159.8168" y2="179.439"/><line style="stroke:#181818;stroke-width:0.867428075755385;" x1="6.072" x2="460.8935" y1="179.439" y2="179.439"/><text fill="#000000" font-family="sans-serif" font-size="12.144" lengthAdjust="spacing" textLength="40.7691" x="213.0982" y="194.2785">dosage</text><line style="stroke:#181818;stroke-width:0.867428075755385;" x1="6.072" x2="460.8935" y1="199.0612" y2="199.0612"/><text fill="#000000" font-family="sans-serif" font-size="12.144" lengthAdjust="spacing" textLength="176.0879" x="145.4388" y="213.9006">oncofair-ma-element-traceability</text><line style="stroke:#181818;stroke-width:0.867428075755385;" x1="6.072" x2="460.8935" y1="218.6834" y2="218.6834"/><text fill="#000000" font-family="sans-serif" font-size="12.144" lengthAdjust="spacing" textLength="86.7428" x="55.0817" y="233.5228">datePeremption</text><path d="M199.0747,225.4387 L199.0747,228.4747 L196.0387,228.4747 L196.0387,230.4987 L199.0747,230.4987 L199.0747,233.5347 L201.0987,233.5347 L201.0987,230.4987 L204.1347,230.4987 L204.1347,228.4747 L201.0987,228.4747 L201.0987,225.4387 L199.0747,225.4387 " fill="#000000" style="stroke:;stroke-width:0.0;stroke-dasharray:;"/><text fill="#000000" font-family="sans-serif" font-size="12.144" lengthAdjust="spacing" textLength="194.3039" x="208.4719" y="233.5228">oncofair-ma-element-expirationdate</text><line style="stroke:#181818;stroke-width:0.867428075755385;" x1="190.8342" x2="190.8342" y1="218.6834" y2="238.3055"/><line style="stroke:#181818;stroke-width:0.867428075755385;" x1="6.072" x2="460.8935" y1="238.3055" y2="238.3055"/><text fill="#000000" font-family="sans-serif" font-size="12.144" lengthAdjust="spacing" textLength="65.0571" x="65.9245" y="253.145">provenance</text><path d="M199.0747,245.0609 L199.0747,248.0969 L196.0387,248.0969 L196.0387,250.1209 L199.0747,250.1209 L199.0747,253.1569 L201.0987,253.1569 L201.0987,250.1209 L204.1347,250.1209 L204.1347,248.0969 L201.0987,248.0969 L201.0987,245.0609 L199.0747,245.0609 " fill="#000000" style="stroke:;stroke-width:0.0;stroke-dasharray:;"/><text fill="#000000" font-family="sans-serif" font-size="12.144" lengthAdjust="spacing" textLength="164.8113" x="208.4719" y="253.145">oncofair-ma-component-origin</text><line style="stroke:#181818;stroke-width:0.867428075755385;" x1="190.8342" x2="190.8342" y1="238.3055" y2="257.9277"/><line style="stroke:#181818;stroke-width:0.867428075755385;" x1="6.072" x2="460.8935" y1="257.9277" y2="257.9277"/><text fill="#000000" font-family="sans-serif" font-size="12.144" lengthAdjust="spacing" textLength="30.36" x="83.2731" y="272.7672">statut</text><path d="M199.0747,264.683 L199.0747,267.719 L196.0387,267.719 L196.0387,269.743 L199.0747,269.743 L199.0747,272.779 L201.0987,272.779 L201.0987,269.743 L204.1347,269.743 L204.1347,267.719 L201.0987,267.719 L201.0987,264.683 L199.0747,264.683 " fill="#000000" style="stroke:;stroke-width:0.0;stroke-dasharray:;"/><text fill="#000000" font-family="sans-serif" font-size="12.144" lengthAdjust="spacing" textLength="248.0844" x="208.4719" y="272.7672">oncofair-ma-component-administration-status</text><line style="stroke:#181818;stroke-width:0.867428075755385;" x1="190.8342" x2="190.8342" y1="257.9277" y2="277.5499"/></g><!--link ComposantAdministre to dosage--><g id="link_ComposantAdministre_dosage"><path d="M461.4717,188.2319 C494.5207,188.2319 471.6206,148.0786 483.1574,117.1028 C488.9692,101.4978 484.3805,91.9214 498.3374,82.8394 C578.4791,30.6896 622.5358,53.2688 713.4596,82.8394 C763.5102,99.121 807.1558,134.1496 837.0127,162.3237 " fill="none" id="ComposantAdministre-to-dosage" style="stroke:#181818;stroke-width:0.867428075755385;"/><polygon fill="#181818" points="840.798,165.8956,837.5014,158.0141,837.6436,162.919,832.7388,163.0612,840.798,165.8956" style="stroke:#181818;stroke-width:0.867428075755385;"/></g><!--link ComposantAdministre to oncofairmaelementtraceability--><g id="link_ComposantAdministre_oncofairmaelementtraceability"><path d="M461.4717,208.1827 C473.1733,210.8891 480.2241,212.2743 492.3942,213.4627 " fill="none" id="ComposantAdministre-to-oncofairmaelementtraceability" style="stroke:#181818;stroke-width:0.867428075755385;"/><polygon fill="#181818" points="497.5741,213.9685,490.1414,209.7565,493.2575,213.547,489.467,216.6631,497.5741,213.9685" style="stroke:#181818;stroke-width:0.867428075755385;"/></g><!--reverse link OncoFAIRMedicationAdministrationElement to ComposantAdministre--><g id="link_OncoFAIRMedicationAdministrationElement_ComposantAdministre"><path codeLine="32" d="M233.3382,53.8499 C233.3382,71.0337 233.3382,91.5484 233.3382,116.8165 " fill="none" id="OncoFAIRMedicationAdministrationElement-backto-ComposantAdministre" style="stroke:#181818;stroke-width:0.867428075755385;"/><polygon fill="#181818" points="233.3382,48.6454,229.8684,56.4522,233.3382,52.9825,236.8079,56.4522,233.3382,48.6454" style="stroke:#181818;stroke-width:0.867428075755385;"/><text fill="#000000" font-family="sans-serif" font-size="11.2766" lengthAdjust="spacing" textLength="30.36" x="234.2056" y="87.6348">partOf</text></g><!--link ComposantAdministre to OncoFAIRMedication--><g id="link_ComposantAdministre_OncoFAIRMedication"><path codeLine="33" d="M233.3382,280.3267 C233.3382,305.5776 233.3382,326.0922 233.3382,343.302 " fill="none" id="ComposantAdministre-to-OncoFAIRMedication" style="stroke:#181818;stroke-width:0.867428075755385;"/><polygon fill="#181818" points="233.3382,348.5066,236.8079,340.6997,233.3382,344.1694,229.8684,340.6997,233.3382,348.5066" style="stroke:#181818;stroke-width:0.867428075755385;"/><text fill="#000000" font-family="sans-serif" font-size="11.2766" lengthAdjust="spacing" textLength="54.648" x="234.2056" y="319.2381">medication</text></g><!--SRC=[ZLDDJyCm3BttLqH3ub2fqhWMc8GGJ4XyS-20EBYfMSFoKH8Nc13_dIJjDeewjbwQrC_Fptwkuo2H7Op7O_OXIggIH47DHgLnCCCH0yVQ8zihWC_pnqeGFYWpnyCAeKIRNufPHLCB2_QLCF-yDQ39WsujlZV8ZYU107kXar89BHnPZF6ZVGaBj6x2B10-VJxduNtNWXV9TvAOuXKviL6QtcXkpaykxg-m51n86BqYYxSpYGerfMcKlYEQxSKc7X2cNfBk6kc2_OnjQZOM3ZKK_kO_DQhsezKKEEFGZ_PhsVWn69_z0i9c2Z9iLMI-FaSeXFGZYIMM80KTv3TYPxUaeM110SIhwqOLQEDdXrP4Ry81P1TPwapJbVQrbIpVEkwOfTVs3B6qmg-4fbEBe7gw_nZ4ZGfz-ncWw- -HDeHv5tPjdw90AN5LSG3_OMmfz2p2kvrFiqbtZ5-t-HBn__hIalljlaMBgewB4PLiDXu_Qz6EB-H5WjgQTzIWEMvAvij9PyQAcT2jgGJKqFOKw9cMnJGNp1_oAsjypxl-PpchmTBDop1JESZaazJgalm0]--></g></svg>