<?xml version="1.0" encoding="us-ascii" standalone="no"?><svg xmlns="http://www.w3.org/2000/svg" xmlns:xlink="http://www.w3.org/1999/xlink" contentStyleType="text/css" height="952px" preserveAspectRatio="none" style="width:1463px;height:952px;background:#FFFFFF;" version="1.1" viewBox="0 0 1463 952" width="1463px" zoomAndPan="magnify"><defs/><g><rect fill="#DDDDDD" height="91.4844" id="_legend" rx="7.5" ry="7.5" style="stroke:#000000;stroke-width:1.0;" width="429" x="12" y="12"/><text fill="#000000" font-family="sans-serif" font-size="14" font-style="italic" font-weight="bold" lengthAdjust="spacing" text-decoration="underline" textLength="64" x="192" y="29.9951">LEGEND</text><text fill="#000000" font-family="sans-serif" font-size="14" lengthAdjust="spacing" textLength="6" x="21" y="46.292">-</text><text fill="#000000" font-family="sans-serif" font-size="14" font-weight="bold" lengthAdjust="spacing" textLength="179" x="31" y="46.292">Profiled FHIR resource</text><text fill="#000000" font-family="sans-serif" font-size="14" lengthAdjust="spacing" textLength="6" x="21" y="62.5889">-</text><text fill="#EC2127" font-family="sans-serif" font-size="14" font-style="italic" lengthAdjust="spacing" textLength="221" x="31" y="62.5889">(Original/Parent FHIR resource)</text><text fill="#000000" font-family="sans-serif" font-size="14" lengthAdjust="spacing" textLength="6" x="21" y="78.8857">-</text><text fill="#1C52EC" font-family="sans-serif" font-size="14" lengthAdjust="spacing" textLength="280" x="31" y="78.8857">New attribute added in FHIR version R5</text><text fill="#000000" font-family="sans-serif" font-size="14" lengthAdjust="spacing" textLength="402" x="21" y="95.1826">- Attribute unchanged between FHIR versions R4 and R5</text><!--class OncologyPatient--><g id="elem_OncologyPatient"><rect codeLine="15" fill="#F1F1F1" height="190.1328" id="OncologyPatient" rx="2.5" ry="2.5" style="stroke:#181818;stroke-width:0.5;" width="214" x="228" y="471.8654"/><text fill="#000000" font-family="sans-serif" font-size="15" font-weight="bold" lengthAdjust="spacing" textLength="145" x="262.5" y="490.7887">OncologyPatient</text><text fill="#EC2127" font-family="sans-serif" font-size="14" font-style="italic" lengthAdjust="spacing" textLength="59" x="305.5" y="507.3214">(Patient)</text><line style="stroke:#181818;stroke-width:0.5;" x1="229" x2="441" y1="515.6232" y2="515.6232"/><rect fill="none" height="6" style="stroke:#C82930;stroke-width:1.0;" width="6" x="236" y="526.2716"/><text fill="#000000" font-family="sans-serif" font-size="14" lengthAdjust="spacing" textLength="112" x="248" y="532.6183">identifier: [1..*]</text><rect fill="none" height="6" style="stroke:#C82930;stroke-width:1.0;" width="6" x="236" y="542.5685"/><text fill="#000000" font-family="sans-serif" font-size="14" lengthAdjust="spacing" textLength="188" x="248" y="548.9152">identifier[IPP].value: [1..1]</text><rect fill="none" height="6" style="stroke:#C82930;stroke-width:1.0;" width="6" x="236" y="558.8654"/><text fill="#000000" font-family="sans-serif" font-size="14" lengthAdjust="spacing" textLength="85" x="248" y="565.2121">name: [1..*]</text><rect fill="none" height="6" style="stroke:#C82930;stroke-width:1.0;" width="6" x="236" y="575.1623"/><text fill="#000000" font-family="sans-serif" font-size="14" lengthAdjust="spacing" textLength="116" x="248" y="581.5089">name.use: [1..1]</text><rect fill="none" height="6" style="stroke:#C82930;stroke-width:1.0;" width="6" x="236" y="591.4591"/><text fill="#000000" font-family="sans-serif" font-size="14" lengthAdjust="spacing" textLength="136" x="248" y="597.8058">name.family: [1..1]</text><rect fill="none" height="6" style="stroke:#C82930;stroke-width:1.0;" width="6" x="236" y="607.756"/><text fill="#000000" font-family="sans-serif" font-size="14" lengthAdjust="spacing" textLength="129" x="248" y="614.1027">name.given: [1..*]</text><rect fill="none" height="6" style="stroke:#C82930;stroke-width:1.0;" width="6" x="236" y="624.0529"/><text fill="#000000" font-family="sans-serif" font-size="14" lengthAdjust="spacing" textLength="118" x="248" y="630.3996">birthDate: [1..1]</text><rect fill="none" height="6" style="stroke:#C82930;stroke-width:1.0;" width="6" x="236" y="640.3498"/><text fill="#000000" font-family="sans-serif" font-size="14" lengthAdjust="spacing" textLength="98" x="248" y="646.6964">gender: [1..1]</text><line style="stroke:#181818;stroke-width:0.5;" x1="229" x2="441" y1="653.9982" y2="653.9982"/></g><!--class Stay--><g id="elem_Stay"><rect codeLine="26" fill="#F1F1F1" height="92.3516" id="Stay" rx="2.5" ry="2.5" style="stroke:#181818;stroke-width:0.5;" width="182" x="318" y="229.3654"/><text fill="#000000" font-family="sans-serif" font-size="15" font-weight="bold" lengthAdjust="spacing" textLength="40" x="389" y="248.2887">Stay</text><text fill="#EC2127" font-family="sans-serif" font-size="14" font-style="italic" lengthAdjust="spacing" textLength="83" x="367.5" y="264.8214">(Encounter)</text><line style="stroke:#181818;stroke-width:0.5;" x1="319" x2="499" y1="273.1232" y2="273.1232"/><rect fill="none" height="6" style="stroke:#C82930;stroke-width:1.0;" width="6" x="326" y="283.7716"/><text fill="#000000" font-family="sans-serif" font-size="14" lengthAdjust="spacing" textLength="112" x="338" y="290.1183">identifier: [1..*]</text><rect fill="none" height="6" style="stroke:#C82930;stroke-width:1.0;" width="6" x="326" y="300.0685"/><text fill="#000000" font-family="sans-serif" font-size="14" lengthAdjust="spacing" textLength="156" x="338" y="306.4152">identifier.value: [1..1]</text><line style="stroke:#181818;stroke-width:0.5;" x1="319" x2="499" y1="313.7169" y2="313.7169"/></g><!--class AccommodationUnit--><g id="elem_AccommodationUnit"><rect codeLine="31" fill="#F1F1F1" height="76.0547" id="AccommodationUnit" rx="2.5" ry="2.5" style="stroke:#181818;stroke-width:0.5;" width="182" x="7" y="237.3654"/><text fill="#000000" font-family="sans-serif" font-size="15" font-weight="bold" lengthAdjust="spacing" textLength="176" x="10" y="256.2887">AccommodationUnit</text><text fill="#EC2127" font-family="sans-serif" font-size="14" font-style="italic" lengthAdjust="spacing" textLength="71" x="62.5" y="272.8214">(Location)</text><line style="stroke:#181818;stroke-width:0.5;" x1="8" x2="188" y1="281.1232" y2="281.1232"/><rect fill="none" height="6" style="stroke:#C82930;stroke-width:1.0;" width="6" x="15" y="291.7716"/><text fill="#000000" font-family="sans-serif" font-size="14" lengthAdjust="spacing" textLength="87" x="27" y="298.1183">name: [1..1]</text><line style="stroke:#181818;stroke-width:0.5;" x1="8" x2="188" y1="305.4201" y2="305.4201"/></g><!--class MedicalLiabilityUnit--><g id="elem_MedicalLiabilityUnit"><rect codeLine="35" fill="#F1F1F1" height="76.0547" id="MedicalLiabilityUnit" rx="2.5" ry="2.5" style="stroke:#181818;stroke-width:0.5;" width="176" x="10" y="528.8654"/><text fill="#000000" font-family="sans-serif" font-size="15" font-weight="bold" lengthAdjust="spacing" textLength="170" x="13" y="547.7887">MedicalLiabilityUnit</text><text fill="#EC2127" font-family="sans-serif" font-size="14" font-style="italic" lengthAdjust="spacing" textLength="101" x="47.5" y="564.3214">(Organization)</text><line style="stroke:#181818;stroke-width:0.5;" x1="11" x2="185" y1="572.6232" y2="572.6232"/><rect fill="none" height="6" style="stroke:#C82930;stroke-width:1.0;" width="6" x="18" y="583.2716"/><text fill="#000000" font-family="sans-serif" font-size="14" lengthAdjust="spacing" textLength="87" x="30" y="589.6183">name: [1..1]</text><line style="stroke:#181818;stroke-width:0.5;" x1="11" x2="185" y1="596.9201" y2="596.9201"/></g><!--class OncologyPractitioner--><g id="elem_OncologyPractitioner"><rect codeLine="39" fill="#F1F1F1" height="92.3516" id="OncologyPractitioner" rx="2.5" ry="2.5" style="stroke:#181818;stroke-width:0.5;" width="193" x="1031.5" y="229.3654"/><text fill="#000000" font-family="sans-serif" font-size="15" font-weight="bold" lengthAdjust="spacing" textLength="187" x="1034.5" y="248.2887">OncologyPractitioner</text><text fill="#EC2127" font-family="sans-serif" font-size="14" font-style="italic" lengthAdjust="spacing" textLength="92" x="1082" y="264.8214">(Practitioner)</text><line style="stroke:#181818;stroke-width:0.5;" x1="1032.5" x2="1223.5" y1="273.1232" y2="273.1232"/><rect fill="none" height="6" style="stroke:#C82930;stroke-width:1.0;" width="6" x="1039.5" y="283.7716"/><text fill="#000000" font-family="sans-serif" font-size="14" lengthAdjust="spacing" textLength="112" x="1051.5" y="290.1183">identifier: [1..*]</text><rect fill="none" height="6" style="stroke:#C82930;stroke-width:1.0;" width="6" x="1039.5" y="300.0685"/><text fill="#000000" font-family="sans-serif" font-size="14" lengthAdjust="spacing" textLength="156" x="1051.5" y="306.4152">identifier.value: [1..1]</text><line style="stroke:#181818;stroke-width:0.5;" x1="1032.5" x2="1223.5" y1="313.7169" y2="313.7169"/></g><!--class Prescription--><g id="elem_Prescription"><rect codeLine="44" fill="#F1F1F1" height="124.9453" id="Prescription" rx="2.5" ry="2.5" style="stroke:#181818;stroke-width:0.5;" width="147" x="567.5" y="504.3654"/><text fill="#000000" font-family="sans-serif" font-size="15" font-weight="bold" lengthAdjust="spacing" textLength="106" x="588" y="523.2887">Prescription</text><text fill="#EC2127" font-family="sans-serif" font-size="14" font-style="italic" lengthAdjust="spacing" textLength="74" x="604" y="539.8214">(CarePlan)</text><line style="stroke:#181818;stroke-width:0.5;" x1="568.5" x2="713.5" y1="548.1232" y2="548.1232"/><rect fill="none" height="6" style="stroke:#C82930;stroke-width:1.0;" width="6" x="575.5" y="558.7716"/><text fill="#000000" font-family="sans-serif" font-size="14" lengthAdjust="spacing" textLength="121" x="587.5" y="565.1183">encounter: [1..1]</text><rect fill="none" height="6" style="stroke:#C82930;stroke-width:1.0;" width="6" x="575.5" y="575.0685"/><text fill="#000000" font-family="sans-serif" font-size="14" lengthAdjust="spacing" textLength="111" x="587.5" y="581.4152">category: [1..1]</text><rect fill="none" height="6" style="stroke:#C82930;stroke-width:1.0;" width="6" x="575.5" y="591.3654"/><text fill="#000000" font-family="sans-serif" font-size="14" lengthAdjust="spacing" textLength="103" x="587.5" y="597.7121">created: [1..1]</text><rect fill="none" height="6" style="stroke:#C82930;stroke-width:1.0;" width="6" x="575.5" y="607.6623"/><text fill="#000000" font-family="sans-serif" font-size="14" lengthAdjust="spacing" textLength="99" x="587.5" y="614.0089">activity: [1..*]</text><line style="stroke:#181818;stroke-width:0.5;" x1="568.5" x2="713.5" y1="621.3107" y2="621.3107"/></g><!--class Protocol--><g id="elem_Protocol"><rect codeLine="51" fill="#F1F1F1" height="173.8359" id="Protocol" rx="2.5" ry="2.5" style="stroke:#181818;stroke-width:0.5;" width="330" x="477" y="771.3654"/><text fill="#000000" font-family="sans-serif" font-size="15" font-weight="bold" lengthAdjust="spacing" textLength="76" x="604" y="790.2887">Protocol</text><text fill="#EC2127" font-family="sans-serif" font-size="14" font-style="italic" lengthAdjust="spacing" textLength="109" x="587.5" y="806.8214">(PlanDefinition)</text><line style="stroke:#181818;stroke-width:0.5;" x1="478" x2="806" y1="815.1232" y2="815.1232"/><rect fill="none" height="6" style="stroke:#C82930;stroke-width:1.0;" width="6" x="485" y="825.7716"/><text fill="#000000" font-family="sans-serif" font-size="14" lengthAdjust="spacing" textLength="114" x="497" y="832.1183">identifier: [1..1]</text><rect fill="none" height="6" style="stroke:#C82930;stroke-width:1.0;" width="6" x="485" y="842.0685"/><text fill="#000000" font-family="sans-serif" font-size="14" lengthAdjust="spacing" textLength="159" x="497" y="848.4152">identifier.name: [1..1]</text><rect fill="none" height="6" style="stroke:#C82930;stroke-width:1.0;" width="6" x="485" y="858.3654"/><text fill="#000000" font-family="sans-serif" font-size="14" lengthAdjust="spacing" textLength="87" x="497" y="864.7121">name: [1..1]</text><rect fill="none" height="6" style="stroke:#C82930;stroke-width:1.0;" width="6" x="485" y="874.6623"/><text fill="#000000" font-family="sans-serif" font-size="14" lengthAdjust="spacing" textLength="78" x="497" y="881.0089">title: [1..1]</text><rect fill="none" height="6" style="stroke:#C82930;stroke-width:1.0;" width="6" x="485" y="890.9591"/><text fill="#000000" font-family="sans-serif" font-size="14" lengthAdjust="spacing" textLength="80" x="497" y="897.3058">date: [1..1]</text><line style="stroke:#181818;stroke-width:0.5;" x1="478" x2="806" y1="904.6076" y2="904.6076"/><rect fill="#F24D5C" height="6" style="stroke:#C82930;stroke-width:1.0;" width="6" x="485" y="915.256"/><text fill="#000000" font-family="sans-serif" font-size="14" lengthAdjust="spacing" textLength="304" x="497" y="921.6027">(extension) treatmentCycleNumber: [1..1]</text><rect fill="#F24D5C" height="6" style="stroke:#C82930;stroke-width:1.0;" width="6" x="485" y="931.5529"/><text fill="#000000" font-family="sans-serif" font-size="14" lengthAdjust="spacing" textLength="292" x="497" y="937.8996">(extension) treatmentDayNumber: [1..1]</text></g><!--class PrescriptionItem--><g id="elem_PrescriptionItem"><rect codeLine="61" fill="#F1F1F1" height="255.3203" id="PrescriptionItem" rx="2.5" ry="2.5" style="stroke:#181818;stroke-width:0.5;" width="446" x="1010" y="439.3654"/><text fill="#000000" font-family="sans-serif" font-size="15" font-weight="bold" lengthAdjust="spacing" textLength="145" x="1160.5" y="458.2887">PrescriptionItem</text><text fill="#EC2127" font-family="sans-serif" font-size="14" font-style="italic" lengthAdjust="spacing" textLength="146" x="1160" y="474.8214">(MedicationRequest)</text><line style="stroke:#181818;stroke-width:0.5;" x1="1011" x2="1455" y1="483.1232" y2="483.1232"/><rect fill="none" height="6" style="stroke:#C82930;stroke-width:1.0;" width="6" x="1018" y="493.7716"/><text fill="#1C52EC" font-family="sans-serif" font-size="14" lengthAdjust="spacing" textLength="156" x="1030" y="500.1183">groupIdentifier: [1..1]</text><rect fill="none" height="6" style="stroke:#C82930;stroke-width:1.0;" width="6" x="1018" y="510.0685"/><text fill="#1C52EC" font-family="sans-serif" font-size="14" lengthAdjust="spacing" textLength="198" x="1030" y="516.4152">groupIdentifier.value: [1..1]</text><rect fill="none" height="6" style="stroke:#C82930;stroke-width:1.0;" width="6" x="1018" y="526.3654"/><text fill="#000000" font-family="sans-serif" font-size="14" lengthAdjust="spacing" textLength="112" x="1030" y="532.7121">identifier: [1..*]</text><rect fill="none" height="6" style="stroke:#C82930;stroke-width:1.0;" width="6" x="1018" y="542.6623"/><text fill="#000000" font-family="sans-serif" font-size="14" lengthAdjust="spacing" textLength="156" x="1030" y="549.0089">identifier.value: [1..1]</text><rect fill="none" height="6" style="stroke:#C82930;stroke-width:1.0;" width="6" x="1018" y="558.9591"/><text fill="#000000" font-family="sans-serif" font-size="14" lengthAdjust="spacing" textLength="111" x="1030" y="565.3058">category: [1..1]</text><rect fill="none" height="6" style="stroke:#C82930;stroke-width:1.0;" width="6" x="1018" y="575.256"/><text fill="#000000" font-family="sans-serif" font-size="14" lengthAdjust="spacing" textLength="164" x="1030" y="581.6027">category.coding: [1..1]</text><rect fill="none" height="6" style="stroke:#C82930;stroke-width:1.0;" width="6" x="1018" y="591.5529"/><text fill="#1C52EC" font-family="sans-serif" font-size="14" lengthAdjust="spacing" textLength="235" x="1030" y="597.8996">effectiveDosePeriod.start: [1..1]</text><rect fill="none" height="6" style="stroke:#C82930;stroke-width:1.0;" width="6" x="1018" y="607.8498"/><text fill="#000000" font-family="sans-serif" font-size="14" lengthAdjust="spacing" textLength="174" x="1030" y="614.1964">dosageInstruction: [1..*]</text><rect fill="none" height="6" style="stroke:#C82930;stroke-width:1.0;" width="6" x="1018" y="624.1466"/><text fill="#000000" font-family="sans-serif" font-size="14" lengthAdjust="spacing" textLength="212" x="1030" y="630.4933">dosageInstruction.text: [1..1]</text><rect fill="none" height="6" style="stroke:#C82930;stroke-width:1.0;" width="6" x="1018" y="640.4435"/><text fill="#000000" font-family="sans-serif" font-size="14" lengthAdjust="spacing" textLength="273" x="1030" y="646.7902">dosageInstruction.route.coding: [1..1]</text><rect fill="none" height="6" style="stroke:#C82930;stroke-width:1.0;" width="6" x="1018" y="656.7404"/><text fill="#000000" font-family="sans-serif" font-size="14" lengthAdjust="spacing" textLength="420" x="1030" y="663.0871">dosageInstruction.doseAndRate.doseQuantity.value: [1..1]</text><rect fill="none" height="6" style="stroke:#C82930;stroke-width:1.0;" width="6" x="1018" y="673.0373"/><text fill="#000000" font-family="sans-serif" font-size="14" lengthAdjust="spacing" textLength="411" x="1030" y="679.3839">dosageInstruction.doseAndRate.doseQuantity.unit: [1..1]</text><line style="stroke:#181818;stroke-width:0.5;" x1="1011" x2="1455" y1="686.6857" y2="686.6857"/></g><!--class AdditionalInformation--><g id="elem_AdditionalInformation"><rect codeLine="76" fill="#F1F1F1" height="124.9453" id="AdditionalInformation" rx="2.5" ry="2.5" style="stroke:#181818;stroke-width:0.5;" width="214" x="228" y="795.8654"/><text fill="#000000" font-family="sans-serif" font-size="15" font-weight="bold" lengthAdjust="spacing" textLength="190" x="240" y="814.7887">AdditionalInformation</text><text fill="#EC2127" font-family="sans-serif" font-size="14" font-style="italic" lengthAdjust="spacing" textLength="96" x="287" y="831.3214">(Observation)</text><line style="stroke:#181818;stroke-width:0.5;" x1="229" x2="441" y1="839.6232" y2="839.6232"/><rect fill="none" height="6" style="stroke:#C82930;stroke-width:1.0;" width="6" x="236" y="850.2716"/><text fill="#000000" font-family="sans-serif" font-size="14" lengthAdjust="spacing" textLength="184" x="248" y="856.6183">effectiveDateTime: [0..1]</text><rect fill="none" height="6" style="stroke:#C82930;stroke-width:1.0;" width="6" x="236" y="866.5685"/><text fill="#000000" font-family="sans-serif" font-size="14" lengthAdjust="spacing" textLength="146" x="248" y="872.9152">valueQuantity: [1..1]</text><rect fill="none" height="6" style="stroke:#C82930;stroke-width:1.0;" width="6" x="236" y="882.8654"/><text fill="#000000" font-family="sans-serif" font-size="14" lengthAdjust="spacing" textLength="188" x="248" y="889.2121">valueQuantity.value: [1..1]</text><rect fill="none" height="6" style="stroke:#C82930;stroke-width:1.0;" width="6" x="236" y="899.1623"/><text fill="#000000" font-family="sans-serif" font-size="14" lengthAdjust="spacing" textLength="179" x="248" y="905.5089">valueQuantity.unit: [1..1]</text><line style="stroke:#181818;stroke-width:0.5;" x1="229" x2="441" y1="912.8107" y2="912.8107"/></g><!--class OncologyMedication--><g id="elem_OncologyMedication"><rect codeLine="83" fill="#F1F1F1" height="124.9453" id="OncologyMedication" rx="2.5" ry="2.5" style="stroke:#181818;stroke-width:0.5;" width="185" x="1259.5" y="212.8654"/><text fill="#000000" font-family="sans-serif" font-size="15" font-weight="bold" lengthAdjust="spacing" textLength="176" x="1264" y="231.7887">OncologyMedication</text><text fill="#EC2127" font-family="sans-serif" font-size="14" font-style="italic" lengthAdjust="spacing" textLength="88" x="1308" y="248.3214">(Medication)</text><line style="stroke:#181818;stroke-width:0.5;" x1="1260.5" x2="1443.5" y1="256.6232" y2="256.6232"/><rect fill="none" height="6" style="stroke:#C82930;stroke-width:1.0;" width="6" x="1267.5" y="267.2716"/><text fill="#000000" font-family="sans-serif" font-size="14" lengthAdjust="spacing" textLength="112" x="1279.5" y="273.6183">identifier: [1..*]</text><rect fill="none" height="6" style="stroke:#C82930;stroke-width:1.0;" width="6" x="1267.5" y="283.5685"/><text fill="#000000" font-family="sans-serif" font-size="14" lengthAdjust="spacing" textLength="159" x="1279.5" y="289.9152">identifier.name: [1..1]</text><rect fill="none" height="6" style="stroke:#C82930;stroke-width:1.0;" width="6" x="1267.5" y="299.8654"/><text fill="#000000" font-family="sans-serif" font-size="14" lengthAdjust="spacing" textLength="82" x="1279.5" y="306.2121">code: [1..1]</text><rect fill="none" height="6" style="stroke:#C82930;stroke-width:1.0;" width="6" x="1267.5" y="316.1623"/><text fill="#000000" font-family="sans-serif" font-size="14" lengthAdjust="spacing" textLength="135" x="1279.5" y="322.5089">code.coding: [1..1]</text><line style="stroke:#181818;stroke-width:0.5;" x1="1260.5" x2="1443.5" y1="329.8107" y2="329.8107"/></g><!--class AssociatedDevice--><g id="elem_AssociatedDevice"><rect codeLine="90" fill="#F1F1F1" height="76.0547" id="AssociatedDevice" rx="2.5" ry="2.5" style="stroke:#181818;stroke-width:0.5;" width="161" x="1152.5" y="820.3654"/><text fill="#000000" font-family="sans-serif" font-size="15" font-weight="bold" lengthAdjust="spacing" textLength="153" x="1156.5" y="839.2887">AssociatedDevice</text><text fill="#EC2127" font-family="sans-serif" font-size="14" font-style="italic" lengthAdjust="spacing" textLength="128" x="1169" y="855.8214">(DeviceDefinition)</text><line style="stroke:#181818;stroke-width:0.5;" x1="1153.5" x2="1312.5" y1="864.1232" y2="864.1232"/><rect fill="none" height="6" style="stroke:#C82930;stroke-width:1.0;" width="6" x="1160.5" y="874.7716"/><text fill="#000000" font-family="sans-serif" font-size="14" lengthAdjust="spacing" textLength="135" x="1172.5" y="881.1183">deviceName: [1..1]</text><line style="stroke:#181818;stroke-width:0.5;" x1="1153.5" x2="1312.5" y1="888.4201" y2="888.4201"/></g><!--class AdministrationReport--><g id="elem_AdministrationReport"><rect codeLine="94" fill="#F1F1F1" height="173.8359" id="AdministrationReport" rx="2.5" ry="2.5" style="stroke:#181818;stroke-width:0.5;" width="205" x="644.5" y="188.3654"/><text fill="#000000" font-family="sans-serif" font-size="15" font-weight="bold" lengthAdjust="spacing" textLength="188" x="653" y="207.2887">AdministrationReport</text><text fill="#EC2127" font-family="sans-serif" font-size="14" font-style="italic" lengthAdjust="spacing" textLength="192" x="651" y="223.8214">(MedicationAdministration)</text><line style="stroke:#181818;stroke-width:0.5;" x1="645.5" x2="848.5" y1="232.1232" y2="232.1232"/><rect fill="none" height="6" style="stroke:#C82930;stroke-width:1.0;" width="6" x="652.5" y="242.7716"/><text fill="#000000" font-family="sans-serif" font-size="14" lengthAdjust="spacing" textLength="167" x="664.5" y="249.1183">occurencePeriod: [1..1]</text><rect fill="none" height="6" style="stroke:#C82930;stroke-width:1.0;" width="6" x="652.5" y="259.0685"/><text fill="#000000" font-family="sans-serif" font-size="14" lengthAdjust="spacing" textLength="120" x="664.5" y="265.4152">performer: [1..*]</text><rect fill="none" height="6" style="stroke:#C82930;stroke-width:1.0;" width="6" x="652.5" y="275.3654"/><text fill="#000000" font-family="sans-serif" font-size="14" lengthAdjust="spacing" textLength="102" x="664.5" y="281.7121">request: [1..1]</text><rect fill="none" height="6" style="stroke:#C82930;stroke-width:1.0;" width="6" x="652.5" y="291.6623"/><text fill="#000000" font-family="sans-serif" font-size="14" lengthAdjust="spacing" textLength="98" x="664.5" y="298.0089">dosage: [1..1]</text><rect fill="none" height="6" style="stroke:#C82930;stroke-width:1.0;" width="6" x="652.5" y="307.9591"/><text fill="#000000" font-family="sans-serif" font-size="14" lengthAdjust="spacing" textLength="134" x="664.5" y="314.3058">dosage.text: [1..1]</text><rect fill="none" height="6" style="stroke:#C82930;stroke-width:1.0;" width="6" x="652.5" y="324.256"/><text fill="#000000" font-family="sans-serif" font-size="14" lengthAdjust="spacing" textLength="179" x="664.5" y="330.6027">dosage.dose.value: [1..1]</text><rect fill="none" height="6" style="stroke:#C82930;stroke-width:1.0;" width="6" x="652.5" y="340.5529"/><text fill="#000000" font-family="sans-serif" font-size="14" lengthAdjust="spacing" textLength="170" x="664.5" y="346.8996">dosage.dose.unit: [1..1]</text><line style="stroke:#181818;stroke-width:0.5;" x1="645.5" x2="848.5" y1="354.2013" y2="354.2013"/></g><!--reverse link Stay to OncologyPatient--><g id="link_Stay_OncologyPatient"><path codeLine="107" d="M362.99,331.0491 C347.976,351.3301 339.715,366.7934 332,392.3654 C324.43,417.4584 322.352,445.5334 322.907,471.6664 " fill="none" id="Stay-backto-OncologyPatient" style="stroke:#181818;stroke-width:1.0;"/><polygon fill="#181818" points="370.13,321.4044,363.3451,323.8467,362.99,331.0491,369.7749,328.6067,370.13,321.4044" style="stroke:#181818;stroke-width:1.0;"/><text fill="#000000" font-family="sans-serif" font-size="13" lengthAdjust="spacing" textLength="89" x="333" y="405.4323">subject: [1..1]</text></g><!--link AccommodationUnit to Stay--><g id="link_AccommodationUnit_Stay"><path codeLine="108" d="M189.209,275.3654 C229.715,275.3654 265.286,275.3654 305.793,275.3654 " fill="none" id="AccommodationUnit-to-Stay" style="stroke:#181818;stroke-width:1.0;"/><polygon fill="#181818" points="317.793,275.3654,311.793,271.3654,305.793,275.3654,311.793,279.3654,317.793,275.3654" style="stroke:#181818;stroke-width:1.0;"/><text fill="#000000" font-family="sans-serif" font-size="13" lengthAdjust="spacing" textLength="92" x="207.5" y="268.4323">location: [1..*]</text></g><!--reverse link AccommodationUnit to MedicalLiabilityUnit--><g id="link_AccommodationUnit_MedicalLiabilityUnit"><path codeLine="110" d="M98,325.6194 C98,381.2074 98,473.2494 98,528.7544 " fill="none" id="AccommodationUnit-backto-MedicalLiabilityUnit" style="stroke:#181818;stroke-width:1.0;"/><polygon fill="#181818" points="98,313.6194,94,319.6194,98,325.6194,102,319.6194,98,313.6194" style="stroke:#181818;stroke-width:1.0;"/><text fill="#000000" font-family="sans-serif" font-size="13" lengthAdjust="spacing" textLength="188" x="99" y="405.4323">managingOrganization: [1..1]</text></g><!--link OncologyPatient to Prescription--><g id="link_OncologyPatient_Prescription"><path codeLine="112" d="M442.024,566.8654 C483.387,566.8654 517.693,566.8654 555.219,566.8654 " fill="none" id="OncologyPatient-to-Prescription" style="stroke:#181818;stroke-width:1.0;"/><polygon fill="#181818" points="567.219,566.8654,561.219,562.8654,555.219,566.8654,561.219,570.8654,567.219,566.8654" style="stroke:#181818;stroke-width:1.0;"/><text fill="#000000" font-family="sans-serif" font-size="13" lengthAdjust="spacing" textLength="89" x="460.25" y="559.9323">subject: [1..1]</text></g><!--link Stay to Prescription--><g id="link_Stay_Prescription"><path codeLine="113" d="M421.529,321.4914 C430.397,348.5474 444.094,382.7504 463,409.3654 C491.476,449.4534 522.7283,478.7884 558.0113,506.5964 " fill="none" id="Stay-to-Prescription" style="stroke:#181818;stroke-width:1.0;"/><polygon fill="#181818" points="567.436,514.0244,565.1997,507.1688,558.0113,506.5964,560.2477,513.4519,567.436,514.0244" style="stroke:#181818;stroke-width:1.0;"/><text fill="#000000" font-family="sans-serif" font-size="13" lengthAdjust="spacing" textLength="108" x="464" y="405.4323">encounter: [1..1]</text></g><!--reverse link Prescription to Protocol--><g id="link_Prescription_Protocol"><path codeLine="114" d="M641.2546,641.6153 C641.3976,682.8813 641.545,725.7404 641.703,771.2774 " fill="none" id="Prescription-backto-Protocol" style="stroke:#181818;stroke-width:1.0;"/><polygon fill="#181818" points="641.213,629.6154,637.2338,635.6292,641.2546,641.6153,645.2338,635.6015,641.213,629.6154" style="stroke:#181818;stroke-width:1.0;"/><text fill="#000000" font-family="sans-serif" font-size="13" lengthAdjust="spacing" textLength="180" x="643" y="737.4323">instantiatesCanonical: [1..1]</text></g><!--reverse link Prescription to AdditionalInformation--><g id="link_Prescription_AdditionalInformation"><path codeLine="115" d="M567.014,637.8624 C515.234,686.8504 451.923,746.7474 400.169,795.7104 " fill="none" id="Prescription-backto-AdditionalInformation" style="stroke:#181818;stroke-width:1.0;"/><polygon fill="#181818" points="575.731,629.6154,568.6235,630.8332,567.014,637.8624,574.1215,636.6446,575.731,629.6154" style="stroke:#181818;stroke-width:1.0;"/><text fill="#000000" font-family="sans-serif" font-size="13" lengthAdjust="spacing" textLength="134" x="471" y="737.4323">supportingInfo: [1..*]</text></g><!--reverse link Prescription to PrescriptionItem--><g id="link_Prescription_PrescriptionItem"><path codeLine="116" d="M726.78,566.8654 C800.549,566.8654 905.713,566.8654 1009.99,566.8654 " fill="none" id="Prescription-backto-PrescriptionItem" style="stroke:#181818;stroke-width:1.0;"/><polygon fill="#181818" points="714.78,566.8654,720.78,570.8654,726.78,566.8654,720.78,562.8654,714.78,566.8654" style="stroke:#181818;stroke-width:1.0;"/><text fill="#1C52EC" font-family="sans-serif" font-size="13" lengthAdjust="spacing" textLength="259" x="732.75" y="559.9323">activity.plannedActivityReference: [1..1]</text></g><!--link OncologyMedication to PrescriptionItem--><g id="link_OncologyMedication_PrescriptionItem"><path codeLine="118" d="M1326.62,338.1154 C1314.47,367.6744 1304.0118,393.1083 1289.5918,428.1933 " fill="none" id="OncologyMedication-to-PrescriptionItem" style="stroke:#181818;stroke-width:1.0;"/><polygon fill="#181818" points="1285.03,439.2924,1291.0106,435.2634,1289.5918,428.1933,1283.6112,432.2222,1285.03,439.2924" style="stroke:#181818;stroke-width:1.0;"/><text fill="#000000" font-family="sans-serif" font-size="13" lengthAdjust="spacing" textLength="114" x="1304" y="405.4323">medication: [1..1]</text></g><!--reverse link PrescriptionItem to AssociatedDevice--><g id="link_PrescriptionItem_AssociatedDevice"><path codeLine="119" d="M1233,706.4234 C1233,752.0674 1233,788.1644 1233,820.1684 " fill="none" id="PrescriptionItem-backto-AssociatedDevice" style="stroke:#181818;stroke-width:1.0;"/><polygon fill="#181818" points="1233,694.4234,1229,700.4234,1233,706.4234,1237,700.4234,1233,694.4234" style="stroke:#181818;stroke-width:1.0;"/><text fill="#1C52EC" font-family="sans-serif" font-size="13" lengthAdjust="spacing" textLength="84" x="1234" y="737.4323">device: [0..*]</text></g><!--link OncologyPractitioner to PrescriptionItem--><g id="link_OncologyPractitioner_PrescriptionItem"><path codeLine="120" d="M1144.41,321.5994 C1155.88,353.2464 1167.7282,385.9116 1182.9282,427.8166 " fill="none" id="OncologyPractitioner-to-PrescriptionItem" style="stroke:#181818;stroke-width:1.0;"/><polygon fill="#181818" points="1187.02,439.0974,1188.7344,432.093,1182.9282,427.8166,1181.2138,434.8209,1187.02,439.0974" style="stroke:#181818;stroke-width:1.0;"/><text fill="#000000" font-family="sans-serif" font-size="13" lengthAdjust="spacing" textLength="105" x="1175" y="405.4323">requester: [1..1]</text></g><!--reverse link AdministrationReport to OncologyPractitioner--><g id="link_AdministrationReport_OncologyPractitioner"><path codeLine="122" d="M861.602,275.3654 C918.136,275.3654 975.897,275.3654 1031.44,275.3654 " fill="none" id="AdministrationReport-backto-OncologyPractitioner" style="stroke:#181818;stroke-width:1.0;"/><polygon fill="#181818" points="849.602,275.3654,855.602,279.3654,861.602,275.3654,855.602,271.3654,849.602,275.3654" style="stroke:#181818;stroke-width:1.0;"/><text fill="#000000" font-family="sans-serif" font-size="13" lengthAdjust="spacing" textLength="145" x="868" y="268.4323">performer.actor: [1..1]</text></g><!--reverse link AdministrationReport to OncologyMedication--><g id="link_AdministrationReport_OncologyMedication"><path codeLine="123" d="M860.1262,203.3647 C903.4822,179.1647 945.159,160.5824 996,148.3654 C1103.7,122.4844 1143.95,136.8384 1242,188.3654 C1255.15,195.2744 1268.28,203.8304 1280.65,212.8564 " fill="none" id="AdministrationReport-backto-OncologyMedication" style="stroke:#181818;stroke-width:1.0;"/><polygon fill="#181818" points="849.648,209.2134,856.8367,209.7818,860.1262,203.3647,852.9376,202.7963,849.648,209.2134" style="stroke:#181818;stroke-width:1.0;"/><text fill="#000000" font-family="sans-serif" font-size="13" lengthAdjust="spacing" textLength="4" x="1052" y="139.4323">&#160;</text><text fill="#000000" font-family="sans-serif" font-size="13" lengthAdjust="spacing" textLength="114" x="997" y="154.5651">medication: [1..1]</text></g><!--reverse link AdministrationReport to OncologyPatient--><g id="link_AdministrationReport_OncologyPatient"><path codeLine="124" d="M634.8029,366.4588 C612.8709,383.4508 599.128,393.6024 577,409.3654 C533.702,440.2094 484.658,472.4084 442.097,499.5254 " fill="none" id="AdministrationReport-backto-OncologyPatient" style="stroke:#181818;stroke-width:1.0;"/><polygon fill="#181818" points="644.289,359.1094,637.0961,359.6221,634.8029,366.4588,641.9958,365.9461,644.289,359.1094" style="stroke:#181818;stroke-width:1.0;"/><text fill="#000000" font-family="sans-serif" font-size="13" lengthAdjust="spacing" textLength="89" x="597" y="405.4323">subject: [1..1]</text></g><!--reverse link AdministrationReport to Prescription--><g id="link_AdministrationReport_Prescription"><path codeLine="125" d="M719.8241,374.186 C715.0731,389.821 713.369,394.4194 708,409.3654 C696.609,441.0744 682.077,475.5774 669.46,504.0974 " fill="none" id="AdministrationReport-backto-Prescription" style="stroke:#181818;stroke-width:1.0;"/><polygon fill="#181818" points="723.313,362.7044,717.7413,367.2822,719.8241,374.186,725.3957,369.6082,723.313,362.7044" style="stroke:#181818;stroke-width:1.0;"/><text fill="#1C52EC" font-family="sans-serif" font-size="13" lengthAdjust="spacing" textLength="100" x="714" y="405.4323">basedOn: [1..1]</text></g><!--link Stay to AdministrationReport--><g id="link_Stay_AdministrationReport"><path codeLine="127" d="M500.022,275.3654 C544.603,275.3654 586.455,275.3654 632.481,275.3654 " fill="none" id="Stay-to-AdministrationReport" style="stroke:#181818;stroke-width:1.0;"/><polygon fill="#181818" points="644.481,275.3654,638.481,271.3654,632.481,275.3654,638.481,279.3654,644.481,275.3654" style="stroke:#181818;stroke-width:1.0;"/><text fill="#1C52EC" font-family="sans-serif" font-size="13" lengthAdjust="spacing" textLength="108" x="518.25" y="268.4323">encounter: [1..1]</text></g><!--reverse link AdministrationReport to PrescriptionItem--><g id="link_AdministrationReport_PrescriptionItem"><path codeLine="128" d="M860.0805,343.7255 C909.8035,373.3445 961.127,403.9164 1020.32,439.1774 " fill="none" id="AdministrationReport-backto-PrescriptionItem" style="stroke:#181818;stroke-width:1.0;"/><polygon fill="#181818" points="849.771,337.5844,852.8787,344.0915,860.0805,343.7255,856.9728,337.2185,849.771,337.5844" style="stroke:#181818;stroke-width:1.0;"/><text fill="#000000" font-family="sans-serif" font-size="13" lengthAdjust="spacing" textLength="92" x="962" y="405.4323">request: [1..1]</text></g><!--link OncologyPatient to AdditionalInformation--><g id="link_OncologyPatient_AdditionalInformation"><path codeLine="130" d="M332.337,661.9594 C331.891,687.7054 331.667,715.6094 332,741.3654 C332.228,758.9914 332.3369,766.1245 332.7949,783.6695 " fill="none" id="OncologyPatient-to-AdditionalInformation" style="stroke:#181818;stroke-width:1.0;"/><polygon fill="#181818" points="333.108,795.6654,336.9501,789.563,332.7949,783.6695,328.9528,789.7718,333.108,795.6654" style="stroke:#181818;stroke-width:1.0;"/><text fill="#000000" font-family="sans-serif" font-size="13" lengthAdjust="spacing" textLength="89" x="333" y="737.4323">subject: [1..1]</text></g><!--SRC=[fLTBR-Cs4BxhLn3RGpS1B3T1WmA6Oy28qzP0cdZTzhIR0qsD5ROIgPAKKxVeVz-XNXOfEdRG719xPZZyvfi79_fFBWggQ4wqsMU0lnLdfiopA8g-9G-GWaYYhFf3Z2n81biJJVbikfbDonav_VDm_zFzu-8CGp8TbxFf6FsE-ImY8u9Nh9JSyWmIykFFopLHe6Mf65YZoW1XC9b9DVa6sFNLzG-pZq-AfrpGRBoY2eHnprrCnvNvuORcz1MxkGOsUuHNGWqIi2aD49eaU34NjOyTACsb8EkRrebrCE-iIy5Ug4Znn0RCAu1xJ9FrzuGYXUkR29ci-QmOlikerg0ZPl-I9s5zf_iLDTp2fvfykBszzSHV1Cfk_T0RvSK7ycz441jFy1lVSb0JylagZY-VFV7dvMhr7EzeLa9jSLLR29g3SyGAub8FhU8jpNcs7yfJlWFX-DXmPLuMrBXEB0qjFXJz5pKy_6helWtUVWv7V8-qbCA0EZzcBzpkmZbZCizbWXnAyRlW7VL3HHZBWsILIGVbm6B_dbyWuOnc3vnkUCRDldzLI1U-x4cbLF1_phcmAnr5cU7s0AX1MVLqHsghP_7_oLvXGpB52-klnTANXJ7SOKUlCce3RW10ct-dfZ0Fa4hbLYLJWEB4aTcGTiXpXxu7K1g9rn_0rT-Fa8EW5h3bWZlvyEcv6j3ZP6oGGYj0pZDNalWjz17-DY3iaBaWnaQPe_-xFSlWiSmttkL1umNTUwR1J2qDvA5iMNcOcBgWhSqQ_Yf17sQJDtXJ9SjY6URhRTF0-7flMHwlcKOOCvbmaRw52hPRiDK42wbX1OhB9DQ6AkFcJcgQmbBW6rioIui3SA2D3MRhRGSnic4W171eYXAOYsIDKLMVFvKK2J7x01tlE5nYrGV6QP9KpK2pfTXAbTD-gmULHmRTHeFQkNFkm3M2-OrN7VDT1xqAfaNd1ELe0a6x-d1SxSGyLBO_Im-QKptnZZawc0kOyA70BuD3DhIMZDlvju0TPz0bmfE74TUwm81BAiLZyDcP9pcQO_qqxLz8TNXI0xfJPBbdEWYIiHBtFDRqd4D90SfMbyUggYTHeDm3ecCTMBN0qRwfjNu1uQwtXgo2hrzueQEeMd8kHuby5QF1vZSXkjpyWONU-MZCxG8-2kmh4v8rAqWNRpIqQgyBxY4JabD1SNzE-mj61o1otkqMoMdWmMDLD9F04-vPrt2x1tc22paELcmCB5jzHuKKDewtJuUdaGLQsDh3UAsyeytpWVzHl9ZHy2cS-8z0kq_41Iu40f9vytqDMwYADCnavUnoL1QZq7Z1d7HVWb4snvj8_KuVWAoRjXwPby-dW3XRuwHjdbwsec2ZTwGTyTErPenYUV1sdZE7dIyYmC-Pe8vMx97pRItsocF0xuPgI9x4IOASBl2tYK5Jd0segKn_oaNX5ZYxXxy2]--></g></svg>