<?xml version="1.0" encoding="UTF-8" standalone="no"?><svg xmlns="http://www.w3.org/2000/svg" xmlns:xlink="http://www.w3.org/1999/xlink" contentStyleType="text/css" height="288px" preserveAspectRatio="none" style="width:356px;height:288px;background:#FFFFFF;" version="1.1" viewBox="0 0 356 288" width="356px" zoomAndPan="magnify"><defs/><g><line style="stroke:#181818;stroke-width:0.5;stroke-dasharray:5.0,5.0;" x1="80" x2="80" y1="82.6094" y2="206.6641"/><line style="stroke:#181818;stroke-width:0.5;stroke-dasharray:5.0,5.0;" x1="306" x2="306" y1="82.6094" y2="206.6641"/><text fill="#000000" font-family="sans-serif" font-size="14" lengthAdjust="spacing" textLength="145" x="5" y="79.5332">Health data warehouse</text><ellipse cx="80.5" cy="13.5" fill="#E2E2F0" rx="8" ry="8" style="stroke:#181818;stroke-width:0.5;"/><path d="M80.5,21.5 L80.5,48.5 M67.5,29.5 L93.5,29.5 M80.5,48.5 L67.5,63.5 M80.5,48.5 L93.5,63.5 " fill="none" style="stroke:#181818;stroke-width:0.5;"/><text fill="#000000" font-family="sans-serif" font-size="14" lengthAdjust="spacing" textLength="145" x="5" y="220.1973">Health data warehouse</text><ellipse cx="80.5" cy="231.7734" fill="#E2E2F0" rx="8" ry="8" style="stroke:#181818;stroke-width:0.5;"/><path d="M80.5,239.7734 L80.5,266.7734 M67.5,247.7734 L93.5,247.7734 M80.5,266.7734 L67.5,281.7734 M80.5,266.7734 L93.5,281.7734 " fill="none" style="stroke:#181818;stroke-width:0.5;"/><text fill="#000000" font-family="sans-serif" font-size="14" lengthAdjust="spacing" textLength="91" x="258" y="79.5332">Data producer</text><ellipse cx="306.5" cy="13.5" fill="#E2E2F0" rx="8" ry="8" style="stroke:#181818;stroke-width:0.5;"/><path d="M306.5,21.5 L306.5,48.5 M293.5,29.5 L319.5,29.5 M306.5,48.5 L293.5,63.5 M306.5,48.5 L319.5,63.5 " fill="none" style="stroke:#181818;stroke-width:0.5;"/><text fill="#000000" font-family="sans-serif" font-size="14" lengthAdjust="spacing" textLength="91" x="258" y="220.1973">Data producer</text><ellipse cx="306.5" cy="231.7734" fill="#E2E2F0" rx="8" ry="8" style="stroke:#181818;stroke-width:0.5;"/><path d="M306.5,239.7734 L306.5,266.7734 M293.5,247.7734 L319.5,247.7734 M306.5,266.7734 L293.5,281.7734 M306.5,266.7734 L319.5,281.7734 " fill="none" style="stroke:#181818;stroke-width:0.5;"/><polygon fill="#181818" points="294.5,110.9609,304.5,114.9609,294.5,118.9609,298.5,114.9609" style="stroke:#181818;stroke-width:1.0;"/><line style="stroke:#181818;stroke-width:1.0;" x1="80.5" x2="300.5" y1="114.9609" y2="114.9609"/><text fill="#0000FF" font-family="sans-serif" font-size="13" lengthAdjust="spacing" textLength="47" x="87.5" y="110.1045">Flux 1.1</text><text fill="#000000" font-family="sans-serif" font-size="13" lengthAdjust="spacing" textLength="93" x="138.5" y="110.1045">GET [Resource]</text><polygon fill="#181818" points="91.5,141.3125,81.5,145.3125,91.5,149.3125,87.5,145.3125" style="stroke:#181818;stroke-width:1.0;"/><line style="stroke:#181818;stroke-width:1.0;stroke-dasharray:2.0,2.0;" x1="85.5" x2="305.5" y1="145.3125" y2="145.3125"/><text fill="#0000FF" font-family="sans-serif" font-size="13" lengthAdjust="spacing" textLength="47" x="97.5" y="140.4561">Flux 1.2</text><text fill="#000000" font-family="sans-serif" font-size="13" lengthAdjust="spacing" textLength="151" x="148.5" y="140.4561">200 OK Bundle Searchset</text><line style="stroke:#181818;stroke-width:1.0;" x1="80.5" x2="122.5" y1="175.6641" y2="175.6641"/><line style="stroke:#181818;stroke-width:1.0;" x1="122.5" x2="122.5" y1="175.6641" y2="188.6641"/><line style="stroke:#181818;stroke-width:1.0;" x1="81.5" x2="122.5" y1="188.6641" y2="188.6641"/><polygon fill="#181818" points="91.5,184.6641,81.5,188.6641,91.5,192.6641,87.5,188.6641" style="stroke:#181818;stroke-width:1.0;"/><text fill="#000000" font-family="sans-serif" font-size="13" lengthAdjust="spacing" textLength="196" x="87.5" y="170.8076">Add received data to existing data</text><!--MD5=[280ca0ab65494de674554fecf8427fb3]
@startuml
actor "Health data warehouse" as EDS
actor "Data producer" as PD

EDS -> PD: <color:blue>Flow 1.1</color> GET [Resource]
PD - -> EDS: <color:blue>Flow 1.2</color> 200 OK Bundle Searchset

@enduml

PlantUML version 1.2022.7(Mon Aug 22 19:01:30 CEST 2022)
(GPL source distribution)
Java Runtime: Java(TM) SE Runtime Environment
JVM: Java HotSpot(TM) 64-Bit Server VM
Default Encoding: UTF-8
Language: fr
Country: FR
--></g></svg>