<?xml version="1.0" encoding="UTF-8" standalone="no"?><svg xmlns="http://www.w3.org/2000/svg" xmlns:xlink="http://www.w3.org/1999/xlink" contentStyleType="text/css" height="332px" preserveAspectRatio="none" style="width:541px;height:332px;background:#FFFFFF;" version="1.1" viewBox="0 0 541 332" width="541px" zoomAndPan="magnify"><defs/><g><line style="stroke:#181818;stroke-width:0.5;stroke-dasharray:5.0,5.0;" x1="46" x2="46" y1="82.6094" y2="250.0156"/><line style="stroke:#181818;stroke-width:0.5;stroke-dasharray:5.0,5.0;" x1="271.5" x2="271.5" y1="82.6094" y2="250.0156"/><text fill="#000000" font-family="sans-serif" font-size="14" lengthAdjust="spacing" textLength="76" x="5" y="79.5332">Consummer</text><ellipse cx="46" cy="13.5" fill="#E2E2F0" rx="8" ry="8" style="stroke:#181818;stroke-width:0.5;"/><path d="M46,21.5 L46,48.5 M33,29.5 L59,29.5 M46,48.5 L33,63.5 M46,48.5 L59,63.5 " fill="none" style="stroke:#181818;stroke-width:0.5;"/><text fill="#000000" font-family="sans-serif" font-size="14" lengthAdjust="spacing" textLength="76" x="5" y="263.5488">Consummer</text><ellipse cx="46" cy="275.125" fill="#E2E2F0" rx="8" ry="8" style="stroke:#181818;stroke-width:0.5;"/><path d="M46,283.125 L46,310.125 M33,291.125 L59,291.125 M46,310.125 L33,325.125 M46,310.125 L59,325.125 " fill="none" style="stroke:#181818;stroke-width:0.5;"/><text fill="#000000" font-family="sans-serif" font-size="14" lengthAdjust="spacing" textLength="145" x="196.5" y="79.5332">Health data warehouse</text><ellipse cx="272" cy="13.5" fill="#E2E2F0" rx="8" ry="8" style="stroke:#181818;stroke-width:0.5;"/><path d="M272,21.5 L272,48.5 M259,29.5 L285,29.5 M272,48.5 L259,63.5 M272,48.5 L285,63.5 " fill="none" style="stroke:#181818;stroke-width:0.5;"/><text fill="#000000" font-family="sans-serif" font-size="14" lengthAdjust="spacing" textLength="145" x="196.5" y="263.5488">Health data warehouse</text><ellipse cx="272" cy="275.125" fill="#E2E2F0" rx="8" ry="8" style="stroke:#181818;stroke-width:0.5;"/><path d="M272,283.125 L272,310.125 M259,291.125 L285,291.125 M272,310.125 L259,325.125 M272,310.125 L285,325.125 " fill="none" style="stroke:#181818;stroke-width:0.5;"/><polygon fill="#181818" points="260,110.9609,270,114.9609,260,118.9609,264,114.9609" style="stroke:#181818;stroke-width:1.0;"/><line style="stroke:#181818;stroke-width:1.0;" x1="46" x2="266" y1="114.9609" y2="114.9609"/><text fill="#0000FF" font-family="sans-serif" font-size="13" lengthAdjust="spacing" textLength="47" x="53" y="110.1045">Flux 2.1</text><text fill="#000000" font-family="sans-serif" font-size="13" lengthAdjust="spacing" textLength="100" x="104" y="110.1045">GET [Ressource]</text><line style="stroke:#181818;stroke-width:1.0;" x1="272" x2="314" y1="145.3125" y2="145.3125"/><line style="stroke:#181818;stroke-width:1.0;" x1="314" x2="314" y1="145.3125" y2="158.3125"/><line style="stroke:#181818;stroke-width:1.0;" x1="273" x2="314" y1="158.3125" y2="158.3125"/><polygon fill="#181818" points="283,154.3125,273,158.3125,283,162.3125,279,158.3125" style="stroke:#181818;stroke-width:1.0;"/><text fill="#000000" font-family="sans-serif" font-size="13" lengthAdjust="spacing" textLength="167" x="279" y="140.4561">Add new criteria if necessary</text><line style="stroke:#181818;stroke-width:1.0;" x1="272" x2="314" y1="188.6641" y2="188.6641"/><line style="stroke:#181818;stroke-width:1.0;" x1="314" x2="314" y1="188.6641" y2="201.6641"/><line style="stroke:#181818;stroke-width:1.0;" x1="273" x2="314" y1="201.6641" y2="201.6641"/><polygon fill="#181818" points="283,197.6641,273,201.6641,283,205.6641,279,201.6641" style="stroke:#181818;stroke-width:1.0;"/><text fill="#000000" font-family="sans-serif" font-size="13" lengthAdjust="spacing" textLength="255" x="279" y="183.8076">Retrieve the data corresponding to the query</text><polygon fill="#181818" points="57,228.0156,47,232.0156,57,236.0156,53,232.0156" style="stroke:#181818;stroke-width:1.0;"/><line style="stroke:#181818;stroke-width:1.0;stroke-dasharray:2.0,2.0;" x1="51" x2="271" y1="232.0156" y2="232.0156"/><text fill="#0000FF" font-family="sans-serif" font-size="13" lengthAdjust="spacing" textLength="47" x="63" y="227.1592">Flux 2.2</text><text fill="#000000" font-family="sans-serif" font-size="13" lengthAdjust="spacing" textLength="151" x="114" y="227.1592">200 OK Bundle Searchset</text><!--MD5=[ddb6b297816676bdfe0a5ded5314ce69]
@startuml
actor "Consummer" as C
actor "Health data warehouse" as EDS

C -> EDS: <color:blue>Flow 2.1</color> GET [base]/Resource/?_count=0
EDS - -> C: <color:blue>Flow 2.2</color> 200 OK Bundle Searchset
@enduml

PlantUML version 1.2022.7(Mon Aug 22 19:01:30 CEST 2022)
(GPL source distribution)
Java Runtime: Java(TM) SE Runtime Environment
JVM: Java HotSpot(TM) 64-Bit Server VM
Default Encoding: UTF-8
Language: fr
Country: FR
--></g></svg>