<?xml version="1.0" encoding="UTF-8" standalone="no"?><svg xmlns="http://www.w3.org/2000/svg" xmlns:xlink="http://www.w3.org/1999/xlink" contentStyleType="text/css" height="511.2553px" preserveAspectRatio="none" style="width:1700px;height:511px;background:#FFFFFF;" version="1.1" viewBox="0 0 1700 511" width="1700.3804px" zoomAndPan="magnify"><defs/><g><g id="elem_timing"><rect fill="#F5F5F5" height="65.7614" style="stroke:#181818;stroke-width:0.38039829939583797;" width="315.7306" x="1213.0902" y="440.5012"/><rect fill="#D3D3D3" height="16.4403" style="stroke:#181818;stroke-width:0.38039829939583797;" width="315.7306" x="1213.0902" y="440.5012"/><text fill="#000000" font-family="sans-serif" font-size="10.6512" lengthAdjust="spacing" textLength="28.1495" x="1356.8807" y="453.0796">timing</text><line style="stroke:#181818;stroke-width:0.7607965987916759;" x1="1213.0902" x2="1528.8208" y1="456.9416" y2="456.9416"/><text fill="#000000" font-family="sans-serif" font-size="10.6512" lengthAdjust="spacing" textLength="121.7275" x="1218.7962" y="469.52">dateHeureDebutPrescrite</text><text fill="#000000" font-family="sans-serif" font-size="10.6512" lengthAdjust="spacing" textLength="174.9832" x="1350.0336" y="469.52">repeat.bounds[x]:boundsPeriod.start</text><line style="stroke:#181818;stroke-width:0.7607965987916759;" x1="1346.2296" x2="1346.2296" y1="456.9416" y2="473.3819"/><line style="stroke:#181818;stroke-width:0.7607965987916759;" x1="1213.0902" x2="1528.8208" y1="473.3819" y2="473.3819"/><text fill="#000000" font-family="sans-serif" font-size="10.6512" lengthAdjust="spacing" textLength="108.0331" x="1225.6433" y="485.9603">dateHeureFinPrescrite</text><text fill="#000000" font-family="sans-serif" font-size="10.6512" lengthAdjust="spacing" textLength="171.94" x="1350.0336" y="485.9603">repeat.bounds[x]:boundsPeriod.end</text><line style="stroke:#181818;stroke-width:0.7607965987916759;" x1="1346.2296" x2="1346.2296" y1="473.3819" y2="489.8222"/><line style="stroke:#181818;stroke-width:0.7607965987916759;" x1="1213.0902" x2="1528.8208" y1="489.8222" y2="489.8222"/><text fill="#000000" font-family="sans-serif" font-size="10.6512" lengthAdjust="spacing" textLength="125.5314" x="1216.8942" y="502.4007">deltaDateHeureReference</text><text fill="#000000" font-family="sans-serif" font-size="10.6512" lengthAdjust="spacing" textLength="60.8637" x="1350.0336" y="502.4007">repeat.offset</text><line style="stroke:#181818;stroke-width:0.7607965987916759;" x1="1346.2296" x2="1346.2296" y1="489.8222" y2="506.2626"/></g><g id="elem_effectiveDosePeriod"><rect fill="#F5F5F5" height="49.321" style="stroke:#181818;stroke-width:0.38039829939583797;" width="172.7008" x="1522.7344" y="215.3054"/><rect fill="#D3D3D3" height="16.4403" style="stroke:#181818;stroke-width:0.38039829939583797;" width="172.7008" x="1522.7344" y="215.3054"/><text fill="#000000" font-family="sans-serif" font-size="10.6512" lengthAdjust="spacing" textLength="96.6212" x="1560.7742" y="227.8838">effectiveDosePeriod</text><line style="stroke:#181818;stroke-width:0.7607965987916759;" x1="1522.7344" x2="1695.4352" y1="231.7458" y2="231.7458"/><text fill="#000000" font-family="sans-serif" font-size="10.6512" lengthAdjust="spacing" textLength="136.1826" x="1526.5384" y="244.3242">dateHeureDebutPrescription</text><text fill="#000000" font-family="sans-serif" font-size="10.6512" lengthAdjust="spacing" textLength="21.3023" x="1670.3289" y="244.3242">start</text><line style="stroke:#181818;stroke-width:0.7607965987916759;" x1="1666.5249" x2="1666.5249" y1="231.7458" y2="248.1861"/><line style="stroke:#181818;stroke-width:0.7607965987916759;" x1="1522.7344" x2="1695.4352" y1="248.1861" y2="248.1861"/><text fill="#000000" font-family="sans-serif" font-size="10.6512" lengthAdjust="spacing" textLength="122.4883" x="1533.3855" y="260.7645">dateHeureFinPrescription</text><text fill="#000000" font-family="sans-serif" font-size="10.6512" lengthAdjust="spacing" textLength="18.2591" x="1670.3289" y="260.7645">end</text><line style="stroke:#181818;stroke-width:0.7607965987916759;" x1="1666.5249" x2="1666.5249" y1="248.1861" y2="264.6265"/></g><g id="elem_dosageInstructionelement"><rect fill="#F5F5F5" height="115.0824" style="stroke:#181818;stroke-width:0.38039829939583797;" width="227.4782" x="1256.4556" y="183.352"/><rect fill="#D3D3D3" height="16.4403" style="stroke:#181818;stroke-width:0.38039829939583797;" width="227.4782" x="1256.4556" y="183.352"/><path d="M1301.9766,188.5072 L1301.9766,192.0576 L1305.527,192.0576 L1305.527,188.5072 L1301.9766,188.5072 M1306.4146,190.2824 L1306.4146,192.9451 L1303.7518,192.9451 L1303.7518,193.8327 L1307.3022,193.8327 L1307.3022,190.2824 L1306.4146,190.2824 M1308.1898,192.0576 L1308.1898,194.7203 L1305.527,194.7203 L1305.527,195.6079 L1309.0773,195.6079 L1309.0773,192.0576 L1308.1898,192.0576 " fill="#000000" style="stroke:;stroke-width:0.0;stroke-dasharray:;"/><text fill="#000000" font-family="sans-serif" font-size="10.6512" lengthAdjust="spacing" textLength="126.2922" x="1312.8813" y="195.9304">dosageInstruction:element</text><line style="stroke:#181818;stroke-width:0.7607965987916759;" x1="1256.4556" x2="1483.9338" y1="199.7923" y2="199.7923"/><text fill="#000000" font-family="sans-serif" font-size="10.6512" lengthAdjust="spacing" textLength="46.4086" x="1295.2562" y="212.3707">posologie</text><text fill="#000000" font-family="sans-serif" font-size="10.6512" lengthAdjust="spacing" textLength="16.7375" x="1384.2694" y="212.3707">text</text><line style="stroke:#181818;stroke-width:0.7607965987916759;" x1="1380.4654" x2="1380.4654" y1="199.7923" y2="216.2327"/><line style="stroke:#181818;stroke-width:0.7607965987916759;" x1="1256.4556" x2="1483.9338" y1="216.2327" y2="216.2327"/><text fill="#000000" font-family="sans-serif" font-size="10.6512" lengthAdjust="spacing" textLength="101.1859" x="1267.8675" y="228.8111">conditionsApplication</text><text fill="#000000" font-family="sans-serif" font-size="10.6512" lengthAdjust="spacing" textLength="95.8604" x="1384.2694" y="228.8111">additionalInstruction</text><line style="stroke:#181818;stroke-width:0.7607965987916759;" x1="1380.4654" x2="1380.4654" y1="216.2327" y2="232.673"/><line style="stroke:#181818;stroke-width:0.7607965987916759;" x1="1256.4556" x2="1483.9338" y1="232.673" y2="232.673"/><text fill="#000000" font-family="sans-serif" font-size="10.6512" lengthAdjust="spacing" textLength="28.1495" x="1356.1199" y="245.2514">timing</text><line style="stroke:#181818;stroke-width:0.7607965987916759;" x1="1256.4556" x2="1483.9338" y1="249.1133" y2="249.1133"/><text fill="#000000" font-family="sans-serif" font-size="10.6512" lengthAdjust="spacing" textLength="84.4484" x="1276.2363" y="261.6917">lieuAdministration</text><text fill="#000000" font-family="sans-serif" font-size="10.6512" lengthAdjust="spacing" textLength="16.7375" x="1384.2694" y="261.6917">site</text><line style="stroke:#181818;stroke-width:0.7607965987916759;" x1="1380.4654" x2="1380.4654" y1="249.1133" y2="265.5537"/><line style="stroke:#181818;stroke-width:0.7607965987916759;" x1="1256.4556" x2="1483.9338" y1="265.5537" y2="265.5537"/><text fill="#000000" font-family="sans-serif" font-size="10.6512" lengthAdjust="spacing" textLength="87.4916" x="1274.7147" y="278.1321">voieAdministration</text><text fill="#000000" font-family="sans-serif" font-size="10.6512" lengthAdjust="spacing" textLength="25.1063" x="1384.2694" y="278.1321">route</text><line style="stroke:#181818;stroke-width:0.7607965987916759;" x1="1380.4654" x2="1380.4654" y1="265.5537" y2="281.994"/><line style="stroke:#181818;stroke-width:0.7607965987916759;" x1="1256.4556" x2="1483.9338" y1="281.994" y2="281.994"/><text fill="#000000" font-family="sans-serif" font-size="10.6512" lengthAdjust="spacing" textLength="116.4019" x="1260.2596" y="294.5724">typeElementPrescription</text><text fill="#000000" font-family="sans-serif" font-size="10.6512" lengthAdjust="spacing" textLength="35.7574" x="1384.2694" y="294.5724">method</text><line style="stroke:#181818;stroke-width:0.7607965987916759;" x1="1380.4654" x2="1380.4654" y1="281.994" y2="298.4344"/></g><g id="elem_OncoFAIRMedicationRequestPrescription"><rect fill="#87CEFA" height="35.9239" style="stroke:#181818;stroke-width:0.38039829939583797;" width="232.8038" x="276.1692" y="5.3256"/><text fill="#000000" font-family="sans-serif" font-size="10.6512" font-weight="bold" lengthAdjust="spacing" textLength="222.1526" x="281.4947" y="17.904">OncoFAIRMedicationRequestPrescription</text><line style="stroke:#181818;stroke-width:0.38039829939583797;" x1="276.93" x2="508.2121" y1="21.7659" y2="21.7659"/><text fill="#000000" font-family="sans-serif" font-size="10.6512" lengthAdjust="spacing" textLength="57.0597" x="280.7339" y="35.8659">Prescription</text></g><g id="elem_OncoFAIRMedicationRequestElement"><rect fill="#87CEFA" height="35.9239" style="stroke:#181818;stroke-width:0.38039829939583797;" width="210.7407" x="287.2007" y="454.576"/><text fill="#000000" font-family="sans-serif" font-size="10.6512" font-weight="bold" lengthAdjust="spacing" textLength="200.0895" x="292.5263" y="467.1544">OncoFAIRMedicationRequestElement</text><line style="stroke:#181818;stroke-width:0.38039829939583797;" x1="287.9615" x2="497.1806" y1="471.0163" y2="471.0163"/><text fill="#000000" font-family="sans-serif" font-size="10.6512" lengthAdjust="spacing" textLength="53.2558" x="291.7655" y="485.1163">ElementLie</text></g><g id="elem_OncoFAIRCarePlan"><rect fill="#FFD700" height="35.9239" style="stroke:#181818;stroke-width:0.38039829939583797;" width="111.0763" x="5.3256" y="221.3918"/><text fill="#000000" font-family="sans-serif" font-size="10.6512" font-weight="bold" lengthAdjust="spacing" textLength="100.4252" x="10.6512" y="233.9702">OncoFAIRCarePlan</text><line style="stroke:#181818;stroke-width:0.38039829939583797;" x1="6.0864" x2="115.6411" y1="237.8321" y2="237.8321"/><text fill="#000000" font-family="sans-serif" font-size="10.6512" lengthAdjust="spacing" textLength="82.166" x="9.8904" y="251.9321">ProtocolePrescrit</text></g><g id="elem_Practitioner"><rect fill="#F1F1F1" height="35.9239" style="stroke:#181818;stroke-width:0.38039829939583797;" width="82.166" x="632.222" y="221.3918"/><text fill="#000000" font-family="sans-serif" font-size="10.6512" font-weight="bold" lengthAdjust="spacing" textLength="62.3853" x="642.1123" y="233.9702">Practitioner</text><line style="stroke:#181818;stroke-width:0.38039829939583797;" x1="632.9828" x2="713.6272" y1="237.8321" y2="237.8321"/><text fill="#000000" font-family="sans-serif" font-size="10.6512" lengthAdjust="spacing" textLength="73.0365" x="636.7868" y="251.9321">idpPrescripteur</text></g><g id="elem_oncofairmrelementgonogo"><rect fill="#F5F5F5" height="49.321" style="stroke:#181818;stroke-width:0.38039829939583797;" width="184.8736" x="1032.7814" y="215.3054"/><rect fill="#D3D3D3" height="16.4403" style="stroke:#181818;stroke-width:0.38039829939583797;" width="184.8736" x="1032.7814" y="215.3054"/><path d="M1052.4353,220.4606 L1052.4353,223.1234 L1049.7725,223.1234 L1049.7725,224.8986 L1052.4353,224.8986 L1052.4353,227.5614 L1054.2105,227.5614 L1054.2105,224.8986 L1056.8733,224.8986 L1056.8733,223.1234 L1054.2105,223.1234 L1054.2105,220.4606 L1052.4353,220.4606 " fill="#000000" style="stroke:;stroke-width:0.0;stroke-dasharray:;"/><text fill="#000000" font-family="sans-serif" font-size="10.6512" lengthAdjust="spacing" textLength="140.7474" x="1060.6773" y="227.8838">oncofair-mr-element-go-nogo</text><line style="stroke:#181818;stroke-width:0.7607965987916759;" x1="1032.7814" x2="1217.655" y1="231.7458" y2="231.7458"/><text fill="#000000" font-family="sans-serif" font-size="10.6512" lengthAdjust="spacing" textLength="39.5614" x="1045.3345" y="244.3242">GoNogo</text><text fill="#000000" font-family="sans-serif" font-size="10.6512" lengthAdjust="spacing" textLength="69.9933" x="1101.2531" y="244.3242">GoNogoStatus</text><line style="stroke:#181818;stroke-width:0.7607965987916759;" x1="1097.4491" x2="1097.4491" y1="231.7458" y2="248.1861"/><line style="stroke:#181818;stroke-width:0.7607965987916759;" x1="1032.7814" x2="1217.655" y1="248.1861" y2="248.1861"/><text fill="#000000" font-family="sans-serif" font-size="10.6512" lengthAdjust="spacing" textLength="57.0597" x="1036.5854" y="260.7645">motifAttente</text><text fill="#000000" font-family="sans-serif" font-size="10.6512" lengthAdjust="spacing" textLength="112.5979" x="1101.2531" y="260.7645">GoNogoReasonWaiting</text><line style="stroke:#181818;stroke-width:0.7607965987916759;" x1="1097.4491" x2="1097.4491" y1="248.1861" y2="264.6265"/></g><g id="elem_oncofairpharmacistadvice"><rect fill="#F5F5F5" height="49.321" style="stroke:#181818;stroke-width:0.38039829939583797;" width="246.4981" x="747.1023" y="215.3054"/><rect fill="#D3D3D3" height="16.4403" style="stroke:#181818;stroke-width:0.38039829939583797;" width="246.4981" x="747.1023" y="215.3054"/><path d="M802.894,220.4606 L802.894,223.1234 L800.2312,223.1234 L800.2312,224.8986 L802.894,224.8986 L802.894,227.5614 L804.6692,227.5614 L804.6692,224.8986 L807.332,224.8986 L807.332,223.1234 L804.6692,223.1234 L804.6692,220.4606 L802.894,220.4606 " fill="#000000" style="stroke:;stroke-width:0.0;stroke-dasharray:;"/><text fill="#000000" font-family="sans-serif" font-size="10.6512" lengthAdjust="spacing" textLength="130.0962" x="811.136" y="227.8838">oncofair-pharmacist-advice</text><line style="stroke:#181818;stroke-width:0.7607965987916759;" x1="747.1023" x2="993.6004" y1="231.7458" y2="231.7458"/><text fill="#000000" font-family="sans-serif" font-size="10.6512" lengthAdjust="spacing" textLength="124.0098" x="754.7102" y="244.3242">validationPharmaceutique</text><text fill="#000000" font-family="sans-serif" font-size="10.6512" lengthAdjust="spacing" textLength="99.6644" x="890.132" y="244.3242">pharmacistValidation</text><line style="stroke:#181818;stroke-width:0.7607965987916759;" x1="886.328" x2="886.328" y1="231.7458" y2="248.1861"/><line style="stroke:#181818;stroke-width:0.7607965987916759;" x1="747.1023" x2="993.6004" y1="248.1861" y2="248.1861"/><text fill="#000000" font-family="sans-serif" font-size="10.6512" lengthAdjust="spacing" textLength="131.6178" x="750.9062" y="260.7645">propositionPharmaceutique</text><text fill="#000000" font-family="sans-serif" font-size="10.6512" lengthAdjust="spacing" textLength="95.0996" x="890.132" y="260.7645">pharmacistProposal</text><line style="stroke:#181818;stroke-width:0.7607965987916759;" x1="886.328" x2="886.328" y1="248.1861" y2="264.6265"/></g><g id="elem_ElementPrescription"><rect fill="#F0F8FF" height="279.4858" style="stroke:#181818;stroke-width:0.38039829939583797;" width="328.6641" x="228.239" y="103.4683"/><rect fill="#87CEFA" height="16.4403" style="stroke:#181818;stroke-width:0.38039829939583797;" width="328.6641" x="228.239" y="103.4683"/><text fill="#000000" font-family="sans-serif" font-size="10.6512" font-weight="bold" lengthAdjust="spacing" textLength="318.013" x="233.5646" y="116.0467">ElementPrescription : OncoFAIRMedicationRequestElement</text><line style="stroke:#181818;stroke-width:0.7607965987916759;" x1="228.239" x2="556.9031" y1="119.9087" y2="119.9087"/><text fill="#000000" font-family="sans-serif" font-size="10.6512" lengthAdjust="spacing" textLength="104.2291" x="264.3768" y="132.4871">idElementPrescription</text><text fill="#000000" font-family="sans-serif" font-size="10.6512" lengthAdjust="spacing" textLength="41.083" x="408.5478" y="132.4871">identifier</text><line style="stroke:#181818;stroke-width:0.7607965987916759;" x1="404.7438" x2="404.7438" y1="119.9087" y2="136.349"/><line style="stroke:#181818;stroke-width:0.7607965987916759;" x1="228.239" x2="556.9031" y1="136.349" y2="136.349"/><text fill="#000000" font-family="sans-serif" font-size="10.6512" lengthAdjust="spacing" textLength="44.887" x="294.0479" y="148.9274">idGroupe</text><text fill="#000000" font-family="sans-serif" font-size="10.6512" lengthAdjust="spacing" textLength="69.2325" x="408.5478" y="148.9274">groupIdentifier</text><line style="stroke:#181818;stroke-width:0.7607965987916759;" x1="404.7438" x2="404.7438" y1="136.349" y2="152.7894"/><line style="stroke:#181818;stroke-width:0.7607965987916759;" x1="228.239" x2="556.9031" y1="152.7894" y2="152.7894"/><text fill="#000000" font-family="sans-serif" font-size="10.6512" lengthAdjust="spacing" textLength="168.8968" x="232.043" y="165.3678">CreationArretModificationValidation</text><text fill="#000000" font-family="sans-serif" font-size="10.6512" lengthAdjust="spacing" textLength="28.9103" x="408.5478" y="165.3678">status</text><line style="stroke:#181818;stroke-width:0.7607965987916759;" x1="404.7438" x2="404.7438" y1="152.7894" y2="169.2297"/><line style="stroke:#181818;stroke-width:0.7607965987916759;" x1="228.239" x2="556.9031" y1="169.2297" y2="169.2297"/><text fill="#000000" font-family="sans-serif" font-size="10.6512" lengthAdjust="spacing" textLength="31.1927" x="300.8951" y="181.8081">urgent</text><text fill="#000000" font-family="sans-serif" font-size="10.6512" lengthAdjust="spacing" textLength="32.7143" x="408.5478" y="181.8081">priority</text><line style="stroke:#181818;stroke-width:0.7607965987916759;" x1="404.7438" x2="404.7438" y1="169.2297" y2="185.67"/><line style="stroke:#181818;stroke-width:0.7607965987916759;" x1="228.239" x2="556.9031" y1="185.67" y2="185.67"/><text fill="#000000" font-family="sans-serif" font-size="10.6512" lengthAdjust="spacing" textLength="87.4916" x="272.7456" y="198.2484">dispostifsAssocies</text><text fill="#000000" font-family="sans-serif" font-size="10.6512" lengthAdjust="spacing" textLength="31.1927" x="408.5478" y="198.2484">device</text><line style="stroke:#181818;stroke-width:0.7607965987916759;" x1="404.7438" x2="404.7438" y1="185.67" y2="202.1104"/><line style="stroke:#181818;stroke-width:0.7607965987916759;" x1="228.239" x2="556.9031" y1="202.1104" y2="202.1104"/><text fill="#000000" font-family="sans-serif" font-size="10.6512" lengthAdjust="spacing" textLength="123.249" x="254.8669" y="214.6888">libelleElementPrescription</text><path d="M409.3086,207.2656 L409.3086,210.8159 L412.859,210.8159 L412.859,207.2656 L409.3086,207.2656 M413.7466,209.0408 L413.7466,211.7035 L411.0838,211.7035 L411.0838,212.5911 L414.6341,212.5911 L414.6341,209.0408 L413.7466,209.0408 M415.5217,210.8159 L415.5217,213.4787 L412.859,213.4787 L412.859,214.3663 L416.4093,214.3663 L416.4093,210.8159 L415.5217,210.8159 " fill="#000000" style="stroke:;stroke-width:0.0;stroke-dasharray:;"/><text fill="#000000" font-family="sans-serif" font-size="10.6512" lengthAdjust="spacing" textLength="61.6245" x="420.2133" y="214.6888">note:wording</text><line style="stroke:#181818;stroke-width:0.7607965987916759;" x1="404.7438" x2="404.7438" y1="202.1104" y2="218.5507"/><line style="stroke:#181818;stroke-width:0.7607965987916759;" x1="228.239" x2="556.9031" y1="218.5507" y2="218.5507"/><text fill="#000000" font-family="sans-serif" font-size="10.6512" lengthAdjust="spacing" textLength="45.6478" x="293.6675" y="231.1291">indication</text><path d="M409.3086,223.7059 L409.3086,227.2563 L412.859,227.2563 L412.859,223.7059 L409.3086,223.7059 M413.7466,225.4811 L413.7466,228.1439 L411.0838,228.1439 L411.0838,229.0315 L414.6341,229.0315 L414.6341,225.4811 L413.7466,225.4811 M415.5217,227.2563 L415.5217,229.9191 L412.859,229.9191 L412.859,230.8067 L416.4093,230.8067 L416.4093,227.2563 L415.5217,227.2563 " fill="#000000" style="stroke:;stroke-width:0.0;stroke-dasharray:;"/><text fill="#000000" font-family="sans-serif" font-size="10.6512" lengthAdjust="spacing" textLength="69.9933" x="420.2133" y="231.1291">note:indication</text><line style="stroke:#181818;stroke-width:0.7607965987916759;" x1="404.7438" x2="404.7438" y1="218.5507" y2="234.991"/><line style="stroke:#181818;stroke-width:0.7607965987916759;" x1="228.239" x2="556.9031" y1="234.991" y2="234.991"/><text fill="#000000" font-family="sans-serif" font-size="10.6512" lengthAdjust="spacing" textLength="66.9501" x="283.0163" y="247.5695">commentaires</text><path d="M409.3086,240.1462 L409.3086,243.6966 L412.859,243.6966 L412.859,240.1462 L409.3086,240.1462 M413.7466,241.9214 L413.7466,244.5842 L411.0838,244.5842 L411.0838,245.4718 L414.6341,245.4718 L414.6341,241.9214 L413.7466,241.9214 M415.5217,243.6966 L415.5217,246.3594 L412.859,246.3594 L412.859,247.247 L416.4093,247.247 L416.4093,243.6966 L415.5217,243.6966 " fill="#000000" style="stroke:;stroke-width:0.0;stroke-dasharray:;"/><text fill="#000000" font-family="sans-serif" font-size="10.6512" lengthAdjust="spacing" textLength="73.0365" x="420.2133" y="247.5695">note:comments</text><line style="stroke:#181818;stroke-width:0.7607965987916759;" x1="404.7438" x2="404.7438" y1="234.991" y2="251.4314"/><line style="stroke:#181818;stroke-width:0.7607965987916759;" x1="228.239" x2="556.9031" y1="251.4314" y2="251.4314"/><text fill="#000000" font-family="sans-serif" font-size="10.6512" lengthAdjust="spacing" textLength="129.3354" x="251.8237" y="264.0098">propostionPharmaceutique</text><text fill="#000000" font-family="sans-serif" font-size="10.6512" lengthAdjust="spacing" textLength="54.7774" x="408.5478" y="264.0098">substitution</text><line style="stroke:#181818;stroke-width:0.7607965987916759;" x1="404.7438" x2="404.7438" y1="251.4314" y2="267.8717"/><line style="stroke:#181818;stroke-width:0.7607965987916759;" x1="228.239" x2="556.9031" y1="267.8717" y2="267.8717"/><text fill="#000000" font-family="sans-serif" font-size="10.6512" lengthAdjust="spacing" textLength="96.6212" x="344.2605" y="280.4501">effectiveDosePeriod</text><line style="stroke:#181818;stroke-width:0.7607965987916759;" x1="228.239" x2="556.9031" y1="284.3121" y2="284.3121"/><path d="M324.3529,289.4673 L324.3529,293.0176 L327.9033,293.0176 L327.9033,289.4673 L324.3529,289.4673 M328.7909,291.2424 L328.7909,293.9052 L326.1281,293.9052 L326.1281,294.7928 L329.6785,294.7928 L329.6785,291.2424 L328.7909,291.2424 M330.5661,293.0176 L330.5661,295.6804 L327.9033,295.6804 L327.9033,296.568 L331.4537,296.568 L331.4537,293.0176 L330.5661,293.0176 " fill="#000000" style="stroke:;stroke-width:0.0;stroke-dasharray:;"/><text fill="#000000" font-family="sans-serif" font-size="10.6512" lengthAdjust="spacing" textLength="126.2922" x="335.2577" y="296.8905">dosageInstruction:element</text><line style="stroke:#181818;stroke-width:0.7607965987916759;" x1="228.239" x2="556.9031" y1="300.7524" y2="300.7524"/><text fill="#000000" font-family="sans-serif" font-size="10.6512" lengthAdjust="spacing" textLength="27.3887" x="302.797" y="313.3308">forme</text><path d="M411.9714,305.9076 L411.9714,308.5704 L409.3086,308.5704 L409.3086,310.3456 L411.9714,310.3456 L411.9714,313.0084 L413.7466,313.0084 L413.7466,310.3456 L416.4093,310.3456 L416.4093,308.5704 L413.7466,308.5704 L413.7466,305.9076 L411.9714,305.9076 " fill="#000000" style="stroke:;stroke-width:0.0;stroke-dasharray:;"/><text fill="#000000" font-family="sans-serif" font-size="10.6512" lengthAdjust="spacing" textLength="105.7507" x="420.2133" y="313.3308">oncofair-element-form</text><line style="stroke:#181818;stroke-width:0.7607965987916759;" x1="404.7438" x2="404.7438" y1="300.7524" y2="317.1927"/><line style="stroke:#181818;stroke-width:0.7607965987916759;" x1="228.239" x2="556.9031" y1="317.1927" y2="317.1927"/><text fill="#000000" font-family="sans-serif" font-size="10.6512" lengthAdjust="spacing" textLength="46.4086" x="293.2871" y="329.7711">fourniture</text><path d="M411.9714,322.3479 L411.9714,325.0107 L409.3086,325.0107 L409.3086,326.7859 L411.9714,326.7859 L411.9714,329.4487 L413.7466,329.4487 L413.7466,326.7859 L416.4093,326.7859 L416.4093,325.0107 L413.7466,325.0107 L413.7466,322.3479 L411.9714,322.3479 " fill="#000000" style="stroke:;stroke-width:0.0;stroke-dasharray:;"/><text fill="#000000" font-family="sans-serif" font-size="10.6512" lengthAdjust="spacing" textLength="131.6178" x="420.2133" y="329.7711">oncofair-mr-element-supply</text><line style="stroke:#181818;stroke-width:0.7607965987916759;" x1="404.7438" x2="404.7438" y1="317.1927" y2="333.6331"/><line style="stroke:#181818;stroke-width:0.7607965987916759;" x1="228.239" x2="556.9031" y1="333.6331" y2="333.6331"/><text fill="#000000" font-family="sans-serif" font-size="10.6512" lengthAdjust="spacing" textLength="117.9235" x="257.5296" y="346.2115">rangElementPrescription</text><path d="M411.9714,338.7883 L411.9714,341.4511 L409.3086,341.4511 L409.3086,343.2263 L411.9714,343.2263 L411.9714,345.889 L413.7466,345.889 L413.7466,343.2263 L416.4093,343.2263 L416.4093,341.4511 L413.7466,341.4511 L413.7466,338.7883 L411.9714,338.7883 " fill="#000000" style="stroke:;stroke-width:0.0;stroke-dasharray:;"/><text fill="#000000" font-family="sans-serif" font-size="10.6512" lengthAdjust="spacing" textLength="121.7275" x="420.2133" y="346.2115">oncofair-mr-element-rank</text><line style="stroke:#181818;stroke-width:0.7607965987916759;" x1="404.7438" x2="404.7438" y1="333.6331" y2="350.0734"/><line style="stroke:#181818;stroke-width:0.7607965987916759;" x1="228.239" x2="556.9031" y1="350.0734" y2="350.0734"/><text fill="#000000" font-family="sans-serif" font-size="10.6512" lengthAdjust="spacing" textLength="140.7474" x="322.1974" y="362.6518">oncofair-mr-element-go-nogo</text><line style="stroke:#181818;stroke-width:0.7607965987916759;" x1="228.239" x2="556.9031" y1="366.5138" y2="366.5138"/><text fill="#000000" font-family="sans-serif" font-size="10.6512" lengthAdjust="spacing" textLength="130.0962" x="327.5229" y="379.0922">oncofair-pharmacist-advice</text></g><!--MD5=[e9850282ea28e6ced5d80996c24c667b]
link dosageInstructionelement to timing--><g id="link_dosageInstructionelement_timing"><path d="M1485.075,240.0313 C1510.942,240.0313 1491.8613,273.4912 1484.3142,298.2323 C1468.4744,350.1719 1431.9029,401.168 1404.5599,434.2779 " fill="none" id="dosageInstructionelement-to-timing" style="stroke:#181818;stroke-width:0.7607965987916759;"/><polygon fill="#181818" points="1402.1101,437.2222,1408.8302,433.9078,1404.5443,434.299,1404.1531,430.0131,1402.1101,437.2222" style="stroke:#181818;stroke-width:0.7607965987916759;"/></g><!--MD5=[04b22aacc332194709768c9520c88ed4]
link ElementPrescription to effectiveDosePeriod--><g id="link_ElementPrescription_effectiveDosePeriod"><path d="M557.6639,271.9848 C652.9841,271.9848 551.8286,122.5491 631.8416,70.7541 C671.8671,44.849 1447.6818,48.8279 1490.0201,70.7541 C1545.9083,99.6948 1581.1636,168.2882 1597.787,208.4735 " fill="none" id="ElementPrescription-to-effectiveDosePeriod" style="stroke:#181818;stroke-width:0.7607965987916759;"/><polygon fill="#181818" points="1599.2401,212.034,1599.475,204.5447,1597.8049,208.5112,1593.8384,206.8411,1599.2401,212.034" style="stroke:#181818;stroke-width:0.7607965987916759;"/></g><!--MD5=[afb38fa546f353d4b1cd763878f3d92b]
link ElementPrescription to dosageInstructionelement--><g id="link_ElementPrescription_dosageInstructionelement"><path d="M557.6639,287.9615 C659.6715,287.9615 546.2063,126.1857 631.8416,70.7541 C687.0526,35.0119 1163.8971,43.4795 1223.7413,70.7541 C1271.5954,92.5661 1309.8635,138.5943 1335.2665,177.045 " fill="none" id="ElementPrescription-to-dosageInstructionelement" style="stroke:#181818;stroke-width:0.7607965987916759;"/><polygon fill="#181818" points="1337.3815,180.2708,1336.174,172.8757,1335.2966,177.089,1331.0832,176.2116,1337.3815,180.2708" style="stroke:#181818;stroke-width:0.7607965987916759;"/></g><!--MD5=[2532d8aa0f52e1718fc75108bdbb1699]
link ElementPrescription to oncofairmrelementgonogo--><g id="link_ElementPrescription_oncofairmrelementgonogo"><path d="M557.6639,351.8684 C686.8776,351.8684 523.3672,140.9756 631.8416,70.7541 C666.1155,48.5693 962.8033,52.4645 999.3063,70.7541 C1056.6704,99.5046 1094.6037,168.1665 1112.7563,208.4126 " fill="none" id="ElementPrescription-to-oncofairmrelementgonogo" style="stroke:#181818;stroke-width:0.7607965987916759;"/><polygon fill="#181818" points="1114.3464,211.9808,1114.342,204.4878,1112.7994,208.5055,1108.7817,206.9629,1114.3464,211.9808" style="stroke:#181818;stroke-width:0.7607965987916759;"/></g><!--MD5=[f1dc14bf6de6c985f3177ac303457e7d]
link ElementPrescription to oncofairpharmacistadvice--><g id="link_ElementPrescription_oncofairpharmacistadvice"><path d="M557.6639,367.8452 C693.7552,367.8452 517.5928,144.7111 631.8416,70.7541 C716.0922,16.2126 812.6601,146.7881 852.1226,208.8006 " fill="none" id="ElementPrescription-to-oncofairpharmacistadvice" style="stroke:#181818;stroke-width:0.7607965987916759;"/><polygon fill="#181818" points="854.1844,212.0644,853.0822,204.653,852.1449,208.8534,847.9445,207.9161,854.1844,212.0644" style="stroke:#181818;stroke-width:0.7607965987916759;"/></g><!--MD5=[40e26162895cff531d4d61894adc0ae1]
reverse link OncoFAIRMedicationRequestPrescription to ElementPrescription--><g id="link_OncoFAIRMedicationRequestPrescription_ElementPrescription"><path codeLine="68" d="M392.571,45.3207 C392.571,59.3269 392.571,78.9631 392.571,100.4023 " fill="none" id="OncoFAIRMedicationRequestPrescription-backto-ElementPrescription" style="stroke:#181818;stroke-width:0.7607965987916759;"/><polygon fill="#181818" points="392.571,41.1591,389.5279,48.0063,392.571,44.9631,395.6142,48.0063,392.571,41.1591" style="stroke:#181818;stroke-width:0.7607965987916759;"/><text fill="#000000" font-family="sans-serif" font-size="9.8904" lengthAdjust="spacing" textLength="93.578" x="393.3318" y="74.9348">basedOn:prescription</text></g><!--MD5=[70666bd75d4195fb7134c82affbab849]
link ElementPrescription to OncoFAIRMedicationRequestElement--><g id="link_ElementPrescription_OncoFAIRMedicationRequestElement"><path codeLine="69" d="M392.571,378.1387 C392.571,406.6001 392.571,433.2052 392.571,450.7111 " fill="none" id="ElementPrescription-to-OncoFAIRMedicationRequestElement" style="stroke:#181818;stroke-width:0.7607965987916759;"/><polygon fill="#181818" points="392.571,454.5227,395.6142,447.6755,392.571,450.7187,389.5279,447.6755,392.571,454.5227" style="stroke:#181818;stroke-width:0.7607965987916759;"/><text fill="#000000" font-family="sans-serif" font-size="9.8904" lengthAdjust="spacing" textLength="77.6013" x="393.3318" y="411.9676">basedOn:element</text></g><!--MD5=[bfbd50b7b29dd05e6f182e598701dffd]
reverse link OncoFAIRCarePlan to ElementPrescription--><g id="link_OncoFAIRCarePlan_ElementPrescription"><path codeLine="70" d="M120.5863,239.2705 C149.3596,239.2705 185.4746,239.2705 221.9015,239.2705 " fill="none" id="OncoFAIRCarePlan-backto-ElementPrescription" style="stroke:#181818;stroke-width:0.7607965987916759;"/><polygon fill="#181818" points="116.7595,239.2705,123.6066,242.3137,120.5634,239.2705,123.6066,236.2273,116.7595,239.2705" style="stroke:#181818;stroke-width:0.7607965987916759;"/><text fill="#000000" font-family="sans-serif" font-size="9.8904" lengthAdjust="spacing" textLength="77.6013" x="130.4766" y="234.3216">basedOn:protocol</text></g><!--MD5=[53e95d2ea236c97d9bcff87a042630dc]
link ElementPrescription to Practitioner--><g id="link_ElementPrescription_Practitioner"><path codeLine="71" d="M563.1569,239.2705 C587.0611,239.2705 609.7404,239.2705 628.2354,239.2705 " fill="none" id="ElementPrescription-to-Practitioner" style="stroke:#181818;stroke-width:0.7607965987916759;"/><polygon fill="#181818" points="632.1155,239.2705,625.2683,236.2273,628.3115,239.2705,625.2683,242.3137,632.1155,239.2705" style="stroke:#181818;stroke-width:0.7607965987916759;"/><text fill="#000000" font-family="sans-serif" font-size="9.8904" lengthAdjust="spacing" textLength="41.083" x="577.0642" y="234.3216">requester</text></g><!--MD5=[4544aceb6b8f1ded8b0892dba736474b]
@startuml

scale 1700 width
map "timing" as timing #back:WhiteSmoke;header:LightGray {
    dateHeureDebutPrescrite => repeat.bounds[x]:boundsPeriod.start
    dateHeureFinPrescrite => repeat.bounds[x]:boundsPeriod.end
    deltaDateHeureReference => repeat.offset
}

map "effectiveDosePeriod" as effectiveDosePeriod #back:WhiteSmoke;header:LightGray {
    dateHeureDebutPrescription => start
    dateHeureFinPrescription => end
}

map "<&layers> dosageInstruction:element" as dosageInstructionelement #back:WhiteSmoke;header:LightGray {
    posologie => text
    conditionsApplication => additionalInstruction
    timing *- -> timing
    lieuAdministration => site
    voieAdministration => route
    typeElementPrescription => method
}

object "**OncoFAIRMedicationRequestPrescription**" as OncoFAIRMedicationRequestPrescription #LightSkyBlue {
    Prescription
}

object "**OncoFAIRMedicationRequestElement**" as OncoFAIRMedicationRequestElement #LightSkyBlue {
    ElementLie
}

object "**OncoFAIRCarePlan**" as OncoFAIRCarePlan #Gold {
    ProtocolePrescrit
}

object "**Practitioner**" as Practitioner {
    idpPrescripteur
}

map "<&plus> oncofair-mr-element-go-nogo" as oncofairmrelementgonogo #back:WhiteSmoke;header:LightGray {
    GoNogo => GoNogoStatus
    motifAttente => GoNogoReasonWaiting
}

map "<&plus> oncofair-pharmacist-advice" as oncofairpharmacistadvice #back:WhiteSmoke;header:LightGray {
    validationPharmaceutique => pharmacistValidation
    propositionPharmaceutique => pharmacistProposal
}

map "**ElementPrescription : OncoFAIRMedicationRequestElement**" as ElementPrescription #back:AliceBlue;header:LightSkyBlue {
    idElementPrescription => identifier
    idGroupe => groupIdentifier
    CreationArretModificationValidation => status
    urgent => priority
    dispostifsAssocies => device
    libelleElementPrescription => <&layers> note:wording
    indication => <&layers> note:indication
    commentaires => <&layers> note:comments
    propostionPharmaceutique => substitution
    effectiveDosePeriod *-> effectiveDosePeriod
    <&layers> dosageInstruction:element *-> dosageInstructionelement
    forme => <&plus> oncofair-element-form
    fourniture => <&plus> oncofair-mr-element-supply
    rangElementPrescription => <&plus> oncofair-mr-element-rank
    oncofair-mr-element-go-nogo *-> oncofairmrelementgonogo
    oncofair-pharmacist-advice *-> oncofairpharmacistadvice
}

ElementPrescription -u-> OncoFAIRMedicationRequestPrescription : basedOn:prescription
ElementPrescription -d-> OncoFAIRMedicationRequestElement : basedOn:element
ElementPrescription -l-> OncoFAIRCarePlan : basedOn:protocol
ElementPrescription -r-> Practitioner : requester

@enduml

PlantUML version 1.2022.7(Mon Aug 22 19:01:30 CEST 2022)
(GPL source distribution)
Java Runtime: Java(TM) SE Runtime Environment
JVM: Java HotSpot(TM) 64-Bit Server VM
Default Encoding: UTF-8
Language: fr
Country: FR
--></g></svg>