<?xml version="1.0" encoding="us-ascii" standalone="no"?><svg xmlns="http://www.w3.org/2000/svg" xmlns:xlink="http://www.w3.org/1999/xlink" contentStyleType="text/css" height="88px" preserveAspectRatio="none" style="width:315px;height:88px;background:#FFFFFF;" version="1.1" viewBox="0 0 315 88" width="315px" zoomAndPan="magnify"><defs/><g><g id="elem_Composant"><rect fill="#C9FFC9" height="67.8633" style="stroke:#181818;stroke-width:0.5;" width="294.3333" x="7" y="7"/><rect fill="#32CD32" height="22.6211" style="stroke:#181818;stroke-width:0.5;" width="294.3333" x="7" y="7"/><text fill="#000000" font-family="sans-serif" font-size="14" font-weight="bold" lengthAdjust="spacing" textLength="238" x="35.1667" y="24.1074">Composant : OncoFAIRMedication</text><line style="stroke:#181818;stroke-width:1.0;" x1="7" x2="301.3333" y1="29.6211" y2="29.6211"/><text fill="#000000" font-family="sans-serif" font-size="14" lengthAdjust="spacing" textLength="103" x="12" y="46.7285">codeComposant</text><text fill="#000000" font-family="sans-serif" font-size="14" lengthAdjust="spacing" textLength="31" x="125" y="46.7285">code</text><line style="stroke:#181818;stroke-width:1.0;" x1="120" x2="120" y1="29.6211" y2="52.2422"/><line style="stroke:#181818;stroke-width:1.0;" x1="7" x2="301.3333" y1="52.2422" y2="52.2422"/><text fill="#000000" font-family="sans-serif" font-size="14" lengthAdjust="spacing" textLength="99" x="14" y="69.3496">typeComposant</text><path d="M129.5,60.0299 L129.5,63.5299 L126,63.5299 L126,65.8633 L129.5,65.8633 L129.5,69.3633 L131.8333,69.3633 L131.8333,65.8633 L135.3333,65.8633 L135.3333,63.5299 L131.8333,63.5299 L131.8333,60.0299 L129.5,60.0299 " fill="#000000" style="stroke:;stroke-width:0.0;stroke-dasharray:;"/><text fill="#000000" font-family="sans-serif" font-size="14" lengthAdjust="spacing" textLength="156" x="140.3333" y="69.3496">oncofair-medication-type</text><line style="stroke:#181818;stroke-width:1.0;" x1="120" x2="120" y1="52.2422" y2="74.8633"/></g><!--SRC=[oqqiK53IqdBEpot8BqxCAr6mKl3FIyvtS_GCyarDoKnEBCdCpzFIKb98B5P0A59EIapEjWfnTVRmy_VnTu-qpaXDJ4ajilB9p4rrBqfDpLEevb80WkJyb5I4Bbixi01OfgIo05N6HgqWfxJOJY4VQ7jQOcQHRYxSUbsGOgvQBYu0]--></g></svg>