<?xml version="1.0" encoding="us-ascii" standalone="no"?><svg xmlns="http://www.w3.org/2000/svg" xmlns:xlink="http://www.w3.org/1999/xlink" contentStyleType="text/css" height="838px" preserveAspectRatio="none" style="width:1389px;height:838px;background:#FFFFFF;" version="1.1" viewBox="0 0 1389 838" width="1389px" zoomAndPan="magnify"><defs/><g><rect fill="#DDDDDD" height="91.4844" id="_legend" rx="7.5" ry="7.5" style="stroke:#000000;stroke-width:1.0;" width="429" x="12" y="12"/><text fill="#000000" font-family="sans-serif" font-size="14" font-style="italic" font-weight="bold" lengthAdjust="spacing" text-decoration="underline" textLength="64" x="192" y="29.9951">LEGEND</text><text fill="#000000" font-family="sans-serif" font-size="14" lengthAdjust="spacing" textLength="6" x="21" y="46.292">-</text><text fill="#000000" font-family="sans-serif" font-size="14" font-weight="bold" lengthAdjust="spacing" textLength="179" x="35" y="46.292">Profiled FHIR resource</text><text fill="#000000" font-family="sans-serif" font-size="14" lengthAdjust="spacing" textLength="6" x="21" y="62.5889">-</text><text fill="#EC2127" font-family="sans-serif" font-size="14" font-style="italic" lengthAdjust="spacing" textLength="221" x="35" y="62.5889">(Original/Parent FHIR resource)</text><text fill="#000000" font-family="sans-serif" font-size="14" lengthAdjust="spacing" textLength="406" x="21" y="78.8857">-  Attribute unchanged between FHIR versions R4 and R5</text><text fill="#000000" font-family="sans-serif" font-size="14" lengthAdjust="spacing" textLength="6" x="21" y="95.1826">-</text><text fill="#1C52EC" font-family="sans-serif" font-size="14" lengthAdjust="spacing" textLength="280" x="35" y="95.1826">New attribute added in FHIR version R5</text><!--class OncologyPatient--><g id="elem_OncologyPatient"><rect codeLine="15" fill="#F1F1F1" height="141.2422" id="OncologyPatient" rx="2.5" ry="2.5" style="stroke:#181818;stroke-width:0.5;" width="161" x="326.5" y="431.3124"/><text fill="#000000" font-family="sans-serif" font-size="15" font-weight="bold" lengthAdjust="spacing" textLength="145" x="334.5" y="450.2357">OncologyPatient</text><text fill="#EC2127" font-family="sans-serif" font-size="14" font-style="italic" lengthAdjust="spacing" textLength="59" x="377.5" y="466.7684">(Patient)</text><line style="stroke:#181818;stroke-width:0.5;" x1="327.5" x2="486.5" y1="475.0702" y2="475.0702"/><rect fill="none" height="6" style="stroke:#C82930;stroke-width:1.0;" width="6" x="334.5" y="485.7186"/><text fill="#000000" font-family="sans-serif" font-size="14" lengthAdjust="spacing" textLength="135" x="346.5" y="492.0653">deceased[x] : [0..*]</text><rect fill="none" height="6" style="stroke:#C82930;stroke-width:1.0;" width="6" x="334.5" y="502.0155"/><text fill="#000000" font-family="sans-serif" font-size="14" lengthAdjust="spacing" textLength="116" x="346.5" y="508.3622">identifier : [1..*]</text><rect fill="none" height="6" style="stroke:#C82930;stroke-width:1.0;" width="6" x="334.5" y="518.3124"/><text fill="#000000" font-family="sans-serif" font-size="14" lengthAdjust="spacing" textLength="79" x="346.5" y="524.6591">name : 1..*</text><rect fill="none" height="6" style="stroke:#C82930;stroke-width:1.0;" width="6" x="334.5" y="534.6093"/><text fill="#000000" font-family="sans-serif" font-size="14" lengthAdjust="spacing" textLength="122" x="346.5" y="540.9559">birthDate : [1..1]</text><rect fill="none" height="6" style="stroke:#C82930;stroke-width:1.0;" width="6" x="334.5" y="550.9061"/><text fill="#000000" font-family="sans-serif" font-size="14" lengthAdjust="spacing" textLength="102" x="346.5" y="557.2528">gender : [1..1]</text><line style="stroke:#181818;stroke-width:0.5;" x1="327.5" x2="486.5" y1="564.5546" y2="564.5546"/></g><!--class Stay--><g id="elem_Stay"><rect codeLine="23" fill="#F1F1F1" height="92.3516" id="Stay" rx="2.5" ry="2.5" style="stroke:#181818;stroke-width:0.5;" width="144" x="313" y="213.3124"/><text fill="#000000" font-family="sans-serif" font-size="15" font-weight="bold" lengthAdjust="spacing" textLength="40" x="365" y="232.2357">Stay</text><text fill="#EC2127" font-family="sans-serif" font-size="14" font-style="italic" lengthAdjust="spacing" textLength="83" x="343.5" y="248.7684">(Encounter)</text><line style="stroke:#181818;stroke-width:0.5;" x1="314" x2="456" y1="257.0702" y2="257.0702"/><rect fill="none" height="6" style="stroke:#C82930;stroke-width:1.0;" width="6" x="321" y="267.7186"/><text fill="#000000" font-family="sans-serif" font-size="14" lengthAdjust="spacing" textLength="118" x="333" y="274.0653">identifier : [1..1]</text><rect fill="none" height="6" style="stroke:#C82930;stroke-width:1.0;" width="6" x="321" y="284.0155"/><text fill="#000000" font-family="sans-serif" font-size="14" lengthAdjust="spacing" textLength="93" x="333" y="290.3622">status : [0..*]</text><line style="stroke:#181818;stroke-width:0.5;" x1="314" x2="456" y1="297.6639" y2="297.6639"/></g><!--class AccommodationUnit--><g id="elem_AccommodationUnit"><rect codeLine="28" fill="#F1F1F1" height="76.0547" id="AccommodationUnit" rx="2.5" ry="2.5" style="stroke:#181818;stroke-width:0.5;" width="182" x="7" y="221.3124"/><text fill="#000000" font-family="sans-serif" font-size="15" font-weight="bold" lengthAdjust="spacing" textLength="176" x="10" y="240.2357">AccommodationUnit</text><text fill="#EC2127" font-family="sans-serif" font-size="14" font-style="italic" lengthAdjust="spacing" textLength="71" x="62.5" y="256.7684">(Location)</text><line style="stroke:#181818;stroke-width:0.5;" x1="8" x2="188" y1="265.0702" y2="265.0702"/><rect fill="none" height="6" style="stroke:#C82930;stroke-width:1.0;" width="6" x="15" y="275.7186"/><text fill="#000000" font-family="sans-serif" font-size="14" lengthAdjust="spacing" textLength="91" x="27" y="282.0653">name : [1..1]</text><line style="stroke:#181818;stroke-width:0.5;" x1="8" x2="188" y1="289.3671" y2="289.3671"/></g><!--class MedicalLiabilityUnit--><g id="elem_MedicalLiabilityUnit"><rect codeLine="32" fill="#F1F1F1" height="76.0547" id="MedicalLiabilityUnit" rx="2.5" ry="2.5" style="stroke:#181818;stroke-width:0.5;" width="176" x="10" y="463.8124"/><text fill="#000000" font-family="sans-serif" font-size="15" font-weight="bold" lengthAdjust="spacing" textLength="170" x="13" y="482.7357">MedicalLiabilityUnit</text><text fill="#EC2127" font-family="sans-serif" font-size="14" font-style="italic" lengthAdjust="spacing" textLength="101" x="47.5" y="499.2684">(Organization)</text><line style="stroke:#181818;stroke-width:0.5;" x1="11" x2="185" y1="507.5702" y2="507.5702"/><rect fill="none" height="6" style="stroke:#C82930;stroke-width:1.0;" width="6" x="18" y="518.2186"/><text fill="#000000" font-family="sans-serif" font-size="14" lengthAdjust="spacing" textLength="91" x="30" y="524.5653">name : [1..1]</text><line style="stroke:#181818;stroke-width:0.5;" x1="11" x2="185" y1="531.8671" y2="531.8671"/></g><!--class OncologyPractitioner--><g id="elem_OncologyPractitioner"><rect codeLine="36" fill="#F1F1F1" height="76.0547" id="OncologyPractitioner" rx="2.5" ry="2.5" style="stroke:#181818;stroke-width:0.5;" width="193" x="971.5" y="221.3124"/><text fill="#000000" font-family="sans-serif" font-size="15" font-weight="bold" lengthAdjust="spacing" textLength="187" x="974.5" y="240.2357">OncologyPractitioner</text><text fill="#EC2127" font-family="sans-serif" font-size="14" font-style="italic" lengthAdjust="spacing" textLength="92" x="1022" y="256.7684">(Practitioner)</text><line style="stroke:#181818;stroke-width:0.5;" x1="972.5" x2="1163.5" y1="265.0702" y2="265.0702"/><rect fill="none" height="6" style="stroke:#C82930;stroke-width:1.0;" width="6" x="979.5" y="275.7186"/><text fill="#000000" font-family="sans-serif" font-size="14" lengthAdjust="spacing" textLength="118" x="991.5" y="282.0653">identifier : [1..1]</text><line style="stroke:#181818;stroke-width:0.5;" x1="972.5" x2="1163.5" y1="289.3671" y2="289.3671"/></g><!--class Prescription--><g id="elem_Prescription"><rect codeLine="40" fill="#F1F1F1" height="124.9453" id="Prescription" rx="2.5" ry="2.5" style="stroke:#181818;stroke-width:0.5;" width="142" x="608" y="439.3124"/><text fill="#000000" font-family="sans-serif" font-size="15" font-weight="bold" lengthAdjust="spacing" textLength="106" x="626" y="458.2357">Prescription</text><text fill="#EC2127" font-family="sans-serif" font-size="14" font-style="italic" lengthAdjust="spacing" textLength="74" x="642" y="474.7684">(CarePlan)</text><line style="stroke:#181818;stroke-width:0.5;" x1="609" x2="749" y1="483.0702" y2="483.0702"/><rect fill="none" height="6" style="stroke:#C82930;stroke-width:1.0;" width="6" x="616" y="493.7186"/><text fill="#000000" font-family="sans-serif" font-size="14" lengthAdjust="spacing" textLength="116" x="628" y="500.0653">identifier : [0..*]</text><rect fill="none" height="6" style="stroke:#C82930;stroke-width:1.0;" width="6" x="616" y="510.0155"/><text fill="#000000" font-family="sans-serif" font-size="14" lengthAdjust="spacing" textLength="115" x="628" y="516.3622">category : [1..1]</text><rect fill="none" height="6" style="stroke:#C82930;stroke-width:1.0;" width="6" x="616" y="526.3124"/><text fill="#000000" font-family="sans-serif" font-size="14" lengthAdjust="spacing" textLength="107" x="628" y="532.6591">created : [1..1]</text><rect fill="none" height="6" style="stroke:#C82930;stroke-width:1.0;" width="6" x="616" y="542.6093"/><text fill="#000000" font-family="sans-serif" font-size="14" lengthAdjust="spacing" textLength="103" x="628" y="548.9559">activity : [0..*]</text><line style="stroke:#181818;stroke-width:0.5;" x1="609" x2="749" y1="556.2577" y2="556.2577"/></g><!--class Protocol--><g id="elem_Protocol"><rect codeLine="47" fill="#F1F1F1" height="157.5391" id="Protocol" rx="2.5" ry="2.5" style="stroke:#181818;stroke-width:0.5;" width="250" x="579" y="673.8124"/><text fill="#000000" font-family="sans-serif" font-size="15" font-weight="bold" lengthAdjust="spacing" textLength="76" x="666" y="692.7357">Protocol</text><text fill="#EC2127" font-family="sans-serif" font-size="14" font-style="italic" lengthAdjust="spacing" textLength="109" x="649.5" y="709.2684">(PlanDefinition)</text><line style="stroke:#181818;stroke-width:0.5;" x1="580" x2="828" y1="717.5702" y2="717.5702"/><rect fill="none" height="6" style="stroke:#C82930;stroke-width:1.0;" width="6" x="587" y="728.2186"/><text fill="#000000" font-family="sans-serif" font-size="14" lengthAdjust="spacing" textLength="118" x="599" y="734.5653">identifier : [1..1]</text><rect fill="none" height="6" style="stroke:#C82930;stroke-width:1.0;" width="6" x="587" y="744.5155"/><text fill="#000000" font-family="sans-serif" font-size="14" lengthAdjust="spacing" textLength="91" x="599" y="750.8622">name : [1..1]</text><rect fill="none" height="6" style="stroke:#C82930;stroke-width:1.0;" width="6" x="587" y="760.8124"/><text fill="#000000" font-family="sans-serif" font-size="14" lengthAdjust="spacing" textLength="82" x="599" y="767.1591">title : [1..1]</text><rect fill="none" height="6" style="stroke:#C82930;stroke-width:1.0;" width="6" x="587" y="777.1093"/><text fill="#000000" font-family="sans-serif" font-size="14" lengthAdjust="spacing" textLength="84" x="599" y="783.4559">date : [1..1]</text><line style="stroke:#181818;stroke-width:0.5;" x1="580" x2="828" y1="790.7577" y2="790.7577"/><rect fill="#F24D5C" height="6" style="stroke:#C82930;stroke-width:1.0;" width="6" x="587" y="801.4061"/><text fill="#000000" font-family="sans-serif" font-size="14" lengthAdjust="spacing" textLength="224" x="599" y="807.7528">(extension) CureCycleNumber : [1..1]</text><rect fill="#F24D5C" height="6" style="stroke:#C82930;stroke-width:1.0;" width="6" x="587" y="817.703"/><text fill="#000000" font-family="sans-serif" font-size="14" lengthAdjust="spacing" textLength="218" x="599" y="824.0497">(extension) dayNumber : [1..1]</text></g><!--class PrescriptionItem--><g id="elem_PrescriptionItem"><rect codeLine="56" fill="#F1F1F1" height="190.1328" id="PrescriptionItem" rx="2.5" ry="2.5" style="stroke:#181818;stroke-width:0.5;" width="225" x="1039.5" y="406.8124"/><text fill="#000000" font-family="sans-serif" font-size="15" font-weight="bold" lengthAdjust="spacing" textLength="145" x="1079.5" y="425.7357">PrescriptionItem</text><text fill="#EC2127" font-family="sans-serif" font-size="14" font-style="italic" lengthAdjust="spacing" textLength="146" x="1079" y="442.2684">(MedicationRequest)</text><line style="stroke:#181818;stroke-width:0.5;" x1="1040.5" x2="1263.5" y1="450.5702" y2="450.5702"/><rect fill="none" height="6" style="stroke:#C82930;stroke-width:1.0;" width="6" x="1047.5" y="461.2186"/><text fill="#1C52EC" font-family="sans-serif" font-size="14" lengthAdjust="spacing" textLength="160" x="1059.5" y="467.5653">groupIdentifier : [1..1]</text><rect fill="none" height="6" style="stroke:#C82930;stroke-width:1.0;" width="6" x="1047.5" y="477.5155"/><text fill="#000000" font-family="sans-serif" font-size="14" lengthAdjust="spacing" textLength="118" x="1059.5" y="483.8622">identifier : [1..1]</text><rect fill="none" height="6" style="stroke:#C82930;stroke-width:1.0;" width="6" x="1047.5" y="493.8124"/><text fill="#000000" font-family="sans-serif" font-size="14" lengthAdjust="spacing" textLength="115" x="1059.5" y="500.1591">category : [1..1]</text><rect fill="none" height="6" style="stroke:#C82930;stroke-width:1.0;" width="6" x="1047.5" y="510.1093"/><text fill="#000000" font-family="sans-serif" font-size="14" lengthAdjust="spacing" textLength="104" x="1059.5" y="516.4559">subject : [1..1]</text><rect fill="none" height="6" style="stroke:#C82930;stroke-width:1.0;" width="6" x="1047.5" y="526.4061"/><text fill="#000000" font-family="sans-serif" font-size="14" lengthAdjust="spacing" textLength="172" x="1059.5" y="532.7528">dispenseRequest : [0..*]</text><rect fill="none" height="6" style="stroke:#C82930;stroke-width:1.0;" width="6" x="1047.5" y="542.703"/><text fill="#000000" font-family="sans-serif" font-size="14" lengthAdjust="spacing" textLength="121" x="1059.5" y="549.0497">requester : [1..1]</text><rect fill="none" height="6" style="stroke:#C82930;stroke-width:1.0;" width="6" x="1047.5" y="558.9999"/><text fill="#1C52EC" font-family="sans-serif" font-size="14" lengthAdjust="spacing" textLength="199" x="1059.5" y="565.3466">effectiveDosePeriod : [1..1]</text><rect fill="none" height="6" style="stroke:#C82930;stroke-width:1.0;" width="6" x="1047.5" y="575.2968"/><text fill="#000000" font-family="sans-serif" font-size="14" lengthAdjust="spacing" textLength="168" x="1059.5" y="581.6434">dosageInstruction : 1..*</text><line style="stroke:#181818;stroke-width:0.5;" x1="1040.5" x2="1263.5" y1="588.9452" y2="588.9452"/></g><!--class AdditionalInformation--><g id="elem_AdditionalInformation"><rect codeLine="67" fill="#F1F1F1" height="108.6484" id="AdditionalInformation" rx="2.5" ry="2.5" style="stroke:#181818;stroke-width:0.5;" width="214" x="315" y="698.3124"/><text fill="#000000" font-family="sans-serif" font-size="15" font-weight="bold" lengthAdjust="spacing" textLength="190" x="327" y="717.2357">AdditionalInformation</text><text fill="#EC2127" font-family="sans-serif" font-size="14" font-style="italic" lengthAdjust="spacing" textLength="96" x="374" y="733.7684">(Observation)</text><line style="stroke:#181818;stroke-width:0.5;" x1="316" x2="528" y1="742.0702" y2="742.0702"/><rect fill="none" height="6" style="stroke:#C82930;stroke-width:1.0;" width="6" x="323" y="752.7186"/><text fill="#000000" font-family="sans-serif" font-size="14" lengthAdjust="spacing" textLength="86" x="335" y="759.0653">code : [1..1]</text><rect fill="none" height="6" style="stroke:#C82930;stroke-width:1.0;" width="6" x="323" y="769.0155"/><text fill="#000000" font-family="sans-serif" font-size="14" lengthAdjust="spacing" textLength="188" x="335" y="775.3622">effectiveDateTime : [0..1]</text><rect fill="none" height="6" style="stroke:#C82930;stroke-width:1.0;" width="6" x="323" y="785.3124"/><text fill="#000000" font-family="sans-serif" font-size="14" lengthAdjust="spacing" textLength="106" x="335" y="791.6591">value[x] : [1..1]</text><line style="stroke:#181818;stroke-width:0.5;" x1="316" x2="528" y1="798.9608" y2="798.9608"/></g><!--class OncologyMedication--><g id="elem_OncologyMedication"><rect codeLine="73" fill="#F1F1F1" height="92.3516" id="OncologyMedication" rx="2.5" ry="2.5" style="stroke:#181818;stroke-width:0.5;" width="182" x="1200" y="213.3124"/><text fill="#000000" font-family="sans-serif" font-size="15" font-weight="bold" lengthAdjust="spacing" textLength="176" x="1203" y="232.2357">OncologyMedication</text><text fill="#EC2127" font-family="sans-serif" font-size="14" font-style="italic" lengthAdjust="spacing" textLength="88" x="1247" y="248.7684">(Medication)</text><line style="stroke:#181818;stroke-width:0.5;" x1="1201" x2="1381" y1="257.0702" y2="257.0702"/><rect fill="none" height="6" style="stroke:#C82930;stroke-width:1.0;" width="6" x="1208" y="267.7186"/><text fill="#000000" font-family="sans-serif" font-size="14" lengthAdjust="spacing" textLength="118" x="1220" y="274.0653">identifier : [1..1]</text><rect fill="none" height="6" style="stroke:#C82930;stroke-width:1.0;" width="6" x="1208" y="284.0155"/><text fill="#000000" font-family="sans-serif" font-size="14" lengthAdjust="spacing" textLength="86" x="1220" y="290.3622">code : [1..1]</text><line style="stroke:#181818;stroke-width:0.5;" x1="1201" x2="1381" y1="297.6639" y2="297.6639"/></g><!--class AssociatedDevice--><g id="elem_AssociatedDevice"><rect codeLine="78" fill="#F1F1F1" height="76.0547" id="AssociatedDevice" rx="2.5" ry="2.5" style="stroke:#181818;stroke-width:0.5;" width="165" x="1069.5" y="714.8124"/><text fill="#000000" font-family="sans-serif" font-size="15" font-weight="bold" lengthAdjust="spacing" textLength="153" x="1075.5" y="733.7357">AssociatedDevice</text><text fill="#EC2127" font-family="sans-serif" font-size="14" font-style="italic" lengthAdjust="spacing" textLength="128" x="1088" y="750.2684">(DeviceDefinition)</text><line style="stroke:#181818;stroke-width:0.5;" x1="1070.5" x2="1233.5" y1="758.5702" y2="758.5702"/><rect fill="none" height="6" style="stroke:#C82930;stroke-width:1.0;" width="6" x="1077.5" y="769.2186"/><text fill="#000000" font-family="sans-serif" font-size="14" lengthAdjust="spacing" textLength="139" x="1089.5" y="775.5653">deviceName : [1..1]</text><line style="stroke:#181818;stroke-width:0.5;" x1="1070.5" x2="1233.5" y1="782.8671" y2="782.8671"/></g><!--class AdministrationReport--><g id="elem_AdministrationReport"><rect codeLine="82" fill="#F1F1F1" height="141.2422" id="AdministrationReport" rx="2.5" ry="2.5" style="stroke:#181818;stroke-width:0.5;" width="198" x="597" y="188.8124"/><text fill="#000000" font-family="sans-serif" font-size="15" font-weight="bold" lengthAdjust="spacing" textLength="188" x="602" y="207.7357">AdministrationReport</text><text fill="#EC2127" font-family="sans-serif" font-size="14" font-style="italic" lengthAdjust="spacing" textLength="192" x="600" y="224.2684">(MedicationAdministration)</text><line style="stroke:#181818;stroke-width:0.5;" x1="598" x2="794" y1="232.5702" y2="232.5702"/><rect fill="none" height="6" style="stroke:#C82930;stroke-width:1.0;" width="6" x="605" y="243.2186"/><text fill="#000000" font-family="sans-serif" font-size="14" lengthAdjust="spacing" textLength="116" x="617" y="249.5653">identifier : [0..*]</text><rect fill="none" height="6" style="stroke:#C82930;stroke-width:1.0;" width="6" x="605" y="259.5155"/><text fill="#000000" font-family="sans-serif" font-size="14" lengthAdjust="spacing" textLength="171" x="617" y="265.8622">occurencePeriod : [0..1]</text><rect fill="none" height="6" style="stroke:#C82930;stroke-width:1.0;" width="6" x="605" y="275.8124"/><text fill="#000000" font-family="sans-serif" font-size="14" lengthAdjust="spacing" textLength="106" x="617" y="282.1591">request : [1..1]</text><rect fill="none" height="6" style="stroke:#C82930;stroke-width:1.0;" width="6" x="605" y="292.1093"/><text fill="#000000" font-family="sans-serif" font-size="14" lengthAdjust="spacing" textLength="83" x="617" y="298.4559">note : [0..*]</text><rect fill="none" height="6" style="stroke:#C82930;stroke-width:1.0;" width="6" x="605" y="308.4061"/><text fill="#000000" font-family="sans-serif" font-size="14" lengthAdjust="spacing" textLength="100" x="617" y="314.7528">dosage : [0..*]</text><line style="stroke:#181818;stroke-width:0.5;" x1="598" x2="794" y1="322.0546" y2="322.0546"/></g><!--reverse link Stay to OncologyPatient--><g id="link_Stay_OncologyPatient"><path codeLine="93" d="M356.4211,316.7076 C347.8301,338.1226 345.877,353.0224 351,376.8124 C354.928,395.0554 361.765,413.8474 369.341,431.1124 " fill="none" id="Stay-backto-OncologyPatient" style="stroke:#181818;stroke-width:1.0;"/><polygon fill="#181818" points="360.889,305.5704,354.9426,309.6497,356.4211,316.7076,362.3675,312.6283,360.889,305.5704" style="stroke:#181818;stroke-width:1.0;"/><text fill="#000000" font-family="sans-serif" font-size="13" lengthAdjust="spacing" textLength="84" x="352" y="372.8793">subject [1..1]</text></g><!--link AccommodationUnit to Stay--><g id="link_AccommodationUnit_Stay"><path codeLine="94" d="M189.203,259.3124 C229.088,259.3124 263.218,259.3124 300.68,259.3124 " fill="none" id="AccommodationUnit-to-Stay" style="stroke:#181818;stroke-width:1.0;"/><polygon fill="#181818" points="312.68,259.3124,306.68,255.3124,300.68,259.3124,306.68,263.3124,312.68,259.3124" style="stroke:#181818;stroke-width:1.0;"/><text fill="#000000" font-family="sans-serif" font-size="13" lengthAdjust="spacing" textLength="87" x="207.5" y="252.3793">location [1..*]</text></g><!--reverse link AccommodationUnit to MedicalLiabilityUnit--><g id="link_AccommodationUnit_MedicalLiabilityUnit"><path codeLine="96" d="M98,309.3634 C98,354.5574 98,418.5054 98,463.7194 " fill="none" id="AccommodationUnit-backto-MedicalLiabilityUnit" style="stroke:#181818;stroke-width:1.0;"/><polygon fill="#181818" points="98,297.3634,94,303.3634,98,309.3634,102,303.3634,98,297.3634" style="stroke:#181818;stroke-width:1.0;"/><text fill="#000000" font-family="sans-serif" font-size="13" lengthAdjust="spacing" textLength="183" x="99" y="372.8793">managingOrganization [1..1]</text></g><!--link OncologyPatient to Prescription--><g id="link_OncologyPatient_Prescription"><path codeLine="98" d="M487.505,501.8124 C525.728,501.8124 559.011,501.8124 595.943,501.8124 " fill="none" id="OncologyPatient-to-Prescription" style="stroke:#181818;stroke-width:1.0;"/><polygon fill="#181818" points="607.943,501.8124,601.943,497.8124,595.943,501.8124,601.943,505.8124,607.943,501.8124" style="stroke:#181818;stroke-width:1.0;"/><text fill="#000000" font-family="sans-serif" font-size="13" lengthAdjust="spacing" textLength="84" x="505.75" y="494.8793">subject [1..1]</text></g><!--link Stay to Prescription--><g id="link_Stay_Prescription"><path codeLine="99" d="M413.006,305.3674 C428.78,328.4714 449.921,356.0394 473,376.8124 C513.334,413.1164 555.2144,438.9224 597.1154,461.0464 " fill="none" id="Stay-to-Prescription" style="stroke:#181818;stroke-width:1.0;"/><polygon fill="#181818" points="607.727,466.6494,604.2889,460.3107,597.1154,461.0464,600.5535,467.3851,607.727,466.6494" style="stroke:#181818;stroke-width:1.0;"/><text fill="#000000" font-family="sans-serif" font-size="13" lengthAdjust="spacing" textLength="103" x="474" y="372.8793">encounter [1..1]</text></g><!--reverse link Prescription to Protocol--><g id="link_Prescription_Protocol"><path codeLine="100" d="M686.3787,576.3034 C689.6897,609.2824 692.605,638.3194 696.142,673.5424 " fill="none" id="Prescription-backto-Protocol" style="stroke:#181818;stroke-width:1.0;"/><polygon fill="#181818" points="685.18,564.3634,681.7994,570.7329,686.3787,576.3034,689.7594,569.9338,685.18,564.3634" style="stroke:#181818;stroke-width:1.0;"/><text fill="#000000" font-family="sans-serif" font-size="13" lengthAdjust="spacing" textLength="175" x="694" y="639.8793">instantiatesCanonical [1..1]</text></g><!--reverse link Prescription to AdditionalInformation--><g id="link_Prescription_AdditionalInformation"><path codeLine="101" d="M606.8536,572.7134 C564.4906,613.7574 517.961,658.8384 477.387,698.1494 " fill="none" id="Prescription-backto-AdditionalInformation" style="stroke:#181818;stroke-width:1.0;"/><polygon fill="#181818" points="615.472,564.3634,608.3795,565.6656,606.8536,572.7134,613.9462,571.4112,615.472,564.3634" style="stroke:#181818;stroke-width:1.0;"/><text fill="#000000" font-family="sans-serif" font-size="13" lengthAdjust="spacing" textLength="129" x="552" y="639.8793">supportingInfo [1..*]</text></g><!--reverse link Prescription to PrescriptionItem--><g id="link_Prescription_PrescriptionItem"><path codeLine="102" d="M762.069,501.8124 C838.665,501.8124 949.644,501.8124 1039.42,501.8124 " fill="none" id="Prescription-backto-PrescriptionItem" style="stroke:#181818;stroke-width:1.0;"/><polygon fill="#181818" points="750.069,501.8124,756.069,505.8124,762.069,501.8124,756.069,497.8124,750.069,501.8124" style="stroke:#181818;stroke-width:1.0;"/><text fill="#1C52EC" font-family="sans-serif" font-size="13" lengthAdjust="spacing" textLength="253" x="768.25" y="494.8793">activity.plannedActivityReference [1..*]</text></g><!--link OncologyMedication to PrescriptionItem--><g id="link_OncologyMedication_PrescriptionItem"><path codeLine="104" d="M1264.86,305.5484 C1248.42,333.9864 1232.6063,361.3557 1212.5263,396.0867 " fill="none" id="OncologyMedication-to-PrescriptionItem" style="stroke:#181818;stroke-width:1.0;"/><polygon fill="#181818" points="1206.52,406.4754,1212.986,403.2831,1212.5263,396.0867,1206.0603,399.2789,1206.52,406.4754" style="stroke:#181818;stroke-width:1.0;"/><text fill="#000000" font-family="sans-serif" font-size="13" lengthAdjust="spacing" textLength="109" x="1230" y="372.8793">medication [1..1]</text></g><!--reverse link PrescriptionItem to AssociatedDevice--><g id="link_PrescriptionItem_AssociatedDevice"><path codeLine="105" d="M1152,608.9484 C1152,649.9894 1152,683.7174 1152,714.7744 " fill="none" id="PrescriptionItem-backto-AssociatedDevice" style="stroke:#181818;stroke-width:1.0;"/><polygon fill="#181818" points="1152,596.9484,1148,602.9484,1152,608.9484,1156,602.9484,1152,596.9484" style="stroke:#181818;stroke-width:1.0;"/><text fill="#1C52EC" font-family="sans-serif" font-size="13" lengthAdjust="spacing" textLength="79" x="1153" y="639.8793">device [0..*]</text></g><!--reverse link AdministrationReport to OncologyPractitioner--><g id="link_AdministrationReport_OncologyPractitioner"><path codeLine="107" d="M807.201,259.3124 C861.762,259.3124 917.169,259.3124 971.327,259.3124 " fill="none" id="AdministrationReport-backto-OncologyPractitioner" style="stroke:#181818;stroke-width:1.0;"/><polygon fill="#181818" points="795.201,259.3124,801.201,263.3124,807.201,259.3124,801.201,255.3124,795.201,259.3124" style="stroke:#181818;stroke-width:1.0;"/><text fill="#000000" font-family="sans-serif" font-size="13" lengthAdjust="spacing" textLength="140" x="813.25" y="252.3793">performer.actor [1..1]</text></g><!--reverse link AdministrationReport to OncologyMedication--><g id="link_AdministrationReport_OncologyMedication"><path codeLine="108" d="M805.9443,196.0568 C849.3283,173.9838 891.054,156.9094 941.5,145.8124 C1047.55,122.4844 1084.1,141.8414 1182,188.8124 C1196.63,195.8314 1211.65,204.4794 1225.69,213.2844 " fill="none" id="AdministrationReport-backto-OncologyMedication" style="stroke:#181818;stroke-width:1.0;"/><polygon fill="#181818" points="795.249,201.4984,802.4105,202.3427,805.9443,196.0568,798.7828,195.2125,795.249,201.4984" style="stroke:#181818;stroke-width:1.0;"/><text fill="#000000" font-family="sans-serif" font-size="13" lengthAdjust="spacing" textLength="4" x="995" y="139.8793">&#160;</text><text fill="#000000" font-family="sans-serif" font-size="13" lengthAdjust="spacing" textLength="109" x="942.5" y="155.0121">medication [1..1]</text></g><!--reverse link AdministrationReport to OncologyPatient--><g id="link_AdministrationReport_OncologyPatient"><path codeLine="109" d="M626.5778,338.5161 C611.2368,354.5931 602.666,362.4884 586,376.8124 C555.466,403.0554 519.358,428.9234 487.598,450.1874 " fill="none" id="AdministrationReport-backto-OncologyPatient" style="stroke:#181818;stroke-width:1.0;"/><polygon fill="#181818" points="634.862,329.8344,627.826,331.4138,626.5778,338.5161,633.6138,336.9366,634.862,329.8344" style="stroke:#181818;stroke-width:1.0;"/><text fill="#000000" font-family="sans-serif" font-size="13" lengthAdjust="spacing" textLength="84" x="604" y="372.8793">subject [1..1]</text></g><!--reverse link AdministrationReport to Prescription--><g id="link_AdministrationReport_Prescription"><path codeLine="110" d="M710.303,341.8826 C711.693,351.8586 711.227,350.1324 712,359.8124 C714.102,386.1264 708.928,414.5744 702.094,438.9804 " fill="none" id="AdministrationReport-backto-Prescription" style="stroke:#181818;stroke-width:1.0;"/><polygon fill="#181818" points="708.647,329.9974,705.5133,336.492,710.303,341.8826,713.4367,335.388,708.647,329.9974" style="stroke:#181818;stroke-width:1.0;"/><text fill="#1C52EC" font-family="sans-serif" font-size="13" lengthAdjust="spacing" textLength="95" x="714" y="372.8793">basedOn [1..1]</text></g><!--link Stay to AdministrationReport--><g id="link_Stay_AdministrationReport"><path codeLine="112" d="M457.131,259.3124 C498.671,259.3124 539.481,259.3124 584.876,259.3124 " fill="none" id="Stay-to-AdministrationReport" style="stroke:#181818;stroke-width:1.0;"/><polygon fill="#181818" points="596.876,259.3124,590.876,255.3124,584.876,259.3124,590.876,263.3124,596.876,259.3124" style="stroke:#181818;stroke-width:1.0;"/><text fill="#1C52EC" font-family="sans-serif" font-size="13" lengthAdjust="spacing" textLength="103" x="475.5" y="252.3793">encounter [1..1]</text></g><!--reverse link AdministrationReport to PrescriptionItem--><g id="link_AdministrationReport_PrescriptionItem"><path codeLine="113" d="M805.8402,318.2434 C877.7592,356.1744 964.498,401.9214 1039.34,441.3944 " fill="none" id="AdministrationReport-backto-PrescriptionItem" style="stroke:#181818;stroke-width:1.0;"/><polygon fill="#181818" points="795.226,312.6454,798.6671,318.9825,805.8402,318.2434,802.3991,311.9063,795.226,312.6454" style="stroke:#181818;stroke-width:1.0;"/><text fill="#000000" font-family="sans-serif" font-size="13" lengthAdjust="spacing" textLength="87" x="912" y="372.8793">request [1..1]</text></g><!--link OncologyPatient to AdditionalInformation--><g id="link_OncologyPatient_AdditionalInformation"><path codeLine="115" d="M402.656,572.4664 C402,595.2374 402.081,620.6314 404,643.8124 C405.474,661.6194 406.2551,669.0855 409.2321,686.3695 " fill="none" id="OncologyPatient-to-AdditionalInformation" style="stroke:#181818;stroke-width:1.0;"/><polygon fill="#181818" points="411.269,698.1954,414.1925,691.6035,409.2321,686.3695,406.3086,692.9614,411.269,698.1954" style="stroke:#181818;stroke-width:1.0;"/><text fill="#000000" font-family="sans-serif" font-size="13" lengthAdjust="spacing" textLength="84" x="405" y="639.8793">subject [1..1]</text></g><!--SRC=[ZLRVRzis47xNNq5q3si2E6w25GC4nq0GPvk1B36yxQdj0qMU7MuIgP6KKxVe_zwZVekYQkSXYOvtlE_klhkZ-K_8d6gQ4MEFAU1lBPWjiZIAef_98-n1yYWj_n2hSfB2paOBiLmaoqMn9AT_7Xz-VtXQdQ585lDYkPZZlNEnZCWC1SboezLEfC39Rt-ijqI3KOLcuBGg3GJ2LAfq_1Emc-kRNvTldxNO2qdJ-OPga7PeUB6Ob-gTZpkB0IU51L98zaBb7dqbO5y1P6Lw06s4aePiVo4Kax1zNtcktLwpzpV0ba_mIcXx5UKShn736z2oyHvXDgkSbbc-JwanO2Bc_f9dwPJsnmsrmWL03NbpUtlhYJzAbDtwmTU75s_8ruWWJ0uCg07-uVCd4fCFxwwkBZ-L1uAZcjW9q4v-tSebpG0bJb1-9qBRbnMrKAjTLseEUckAiczH3VulIuyDOlT_6EO3nb982xe5Ei9JEpAMsi9qs5j7TuofB5CS0rRo7odQF8qFmXWU5IjLMWXrw7v4Vm8NZAQFWYOY5VROznKw2tjxrdignPUpFBQLrfHPuImmApuBUcSJLEXf_33DhTyDTWdJ8dSsZR- -BEpd7jjiar8NLT19npdCD-oLFWuhp3IWd0-53le14neeF4u4gn13Xx3wdiW28bl1JaWnoFmKtOOLSH9COUg9-AWTti9d2z8r-GLXXOQd8alyg_iwd1vzbM0LrXQoK2MSF1nlnKYdiuN_2p3TAF06rbwh8bzFf64gFU4AcYBv5vZraYHCZk523MF815q9_UizYB3RWUC1h9I13MYXF9PmPUWUrX9tLi5ArjQJgviId9U5f-bQxfJEQ9_RmSE9zaqCwCEmUvdY7Wqwm9YdlqL5fNVjyO6c1TIJUABbk_Bv3T-Td2hyIP8FWNUvCaOnuNfn1GV1e4sJ9m_xhyu2hSRBWwVmgBlZ6UfZ_MhAvaftWpnmTYhseSr49ZeUAkQwLR8UkxfowOwvlG6XB0plg4Wu65IuqhUGbX3CYyXD59LhyNB6rQkSZHPyt7PGxQZMTa-jMM3HnIIjTrUpkQEnKkCikBvYab59yPcqx- -bndqqM0GDZfEeWrPbA361Pk5FA5TOsz4Uuzi9Dp_M36bdxgbKqWNnG-DmgpkKkMCEnkhaJSQyA_3D-69duzaR-pEfMKnNEIuM2Vok_jx23aecjIKPtNKvA_9PgDEn6jr78CJQkWxJxz8HnAhX6Zf6mHPh8mw-DMAIWtOv17s5OjLMxRox1g5zbEFWpeGqHRG9yuP3lSAESfEun_1pn_I9gmRSzRUIJ-MpuTICQkPAXo54t7FRxZi0]--></g></svg>